<svg width="260" height="225" viewBox="0 0 260 225" fill="none" xmlns="http://www.w3.org/2000/svg">
<path d="M21.3206 43.7368C21.3045 43.4616 21.188 43.2019 20.993 43.0069C20.7981 42.812 20.5383 42.6954 20.2631 42.6793C16.5506 42.4609 13.2703 42.8987 10.5131 43.9797C7.87498 45.0137 5.84154 46.6168 4.63029 48.6156C2.97841 51.3447 2.97466 54.6578 4.5881 57.8209L2.95404 59.455C2.84939 59.5596 2.76638 59.6839 2.70975 59.8206C2.65311 59.9573 2.62396 60.1039 2.62396 60.2519C2.62396 60.3998 2.65311 60.5464 2.70975 60.6831C2.76638 60.8198 2.84939 60.9441 2.95404 61.0487C3.16538 61.2601 3.45203 61.3788 3.75091 61.3788C3.89891 61.3788 4.04545 61.3497 4.18218 61.293C4.31891 61.2364 4.44314 61.1534 4.54779 61.0487L6.18185 59.4147C7.75123 60.2153 9.3581 60.6194 10.9115 60.6194C12.4898 60.6243 14.0388 60.1927 15.3872 59.3725C17.3859 58.1612 18.989 56.1268 20.0231 53.4897C21.1012 50.7306 21.539 47.4493 21.3206 43.7368ZM14.2181 57.445C12.3347 58.5859 10.125 58.6722 7.86935 57.7187L15.795 49.7931C15.8996 49.6885 15.9826 49.5642 16.0393 49.4275C16.0959 49.2908 16.1251 49.1442 16.1251 48.9962C16.1251 48.8482 16.0959 48.7017 16.0393 48.565C15.9826 48.4282 15.8996 48.304 15.795 48.1993C15.6903 48.0947 15.5661 48.0117 15.4294 47.9551C15.2926 47.8984 15.1461 47.8693 14.9981 47.8693C14.8501 47.8693 14.7036 47.8984 14.5668 47.9551C14.4301 48.0117 14.3059 48.0947 14.2012 48.1993L6.28123 56.1306C5.3306 53.8806 5.41685 51.6653 6.56248 49.7818C8.52279 46.5447 13.1756 44.7456 19.125 44.8834C19.2544 50.8309 17.4553 55.4847 14.2181 57.445Z" fill="black"/>
<path d="M1.224 92V79.4H3.528V92H1.224ZM5.35809 92V83.072H7.39209L7.57209 84.584C7.84809 84.056 8.24409 83.636 8.76009 83.324C9.28809 83.012 9.90609 82.856 10.6141 82.856C11.7181 82.856 12.5761 83.204 13.1881 83.9C13.8001 84.596 14.1061 85.616 14.1061 86.96V92H11.8021V87.176C11.8021 86.408 11.6461 85.82 11.3341 85.412C11.0221 85.004 10.5361 84.8 9.87609 84.8C9.22809 84.8 8.69409 85.028 8.27409 85.484C7.86609 85.94 7.66209 86.576 7.66209 87.392V92H5.35809ZM19.7293 92C18.7933 92 18.0433 91.772 17.4793 91.316C16.9153 90.86 16.6333 90.05 16.6333 88.886V84.998H15.1033V83.072H16.6333L16.9033 80.678H18.9373V83.072H21.3493V84.998H18.9373V88.904C18.9373 89.336 19.0273 89.636 19.2073 89.804C19.3993 89.96 19.7233 90.038 20.1793 90.038H21.2953V92H19.7293ZM26.8789 92.216C25.9789 92.216 25.1809 92.024 24.4849 91.64C23.7889 91.256 23.2429 90.716 22.8469 90.02C22.4509 89.324 22.2529 88.52 22.2529 87.608C22.2529 86.684 22.4449 85.862 22.8289 85.142C23.2249 84.422 23.7649 83.864 24.4489 83.468C25.1449 83.06 25.9609 82.856 26.8969 82.856C27.7729 82.856 28.5469 83.048 29.2189 83.432C29.8909 83.816 30.4129 84.344 30.7849 85.016C31.1689 85.676 31.3609 86.414 31.3609 87.23C31.3609 87.362 31.3549 87.5 31.3429 87.644C31.3429 87.788 31.3369 87.938 31.3249 88.094H24.5389C24.5869 88.79 24.8269 89.336 25.2589 89.732C25.7029 90.128 26.2369 90.326 26.8609 90.326C27.3289 90.326 27.7189 90.224 28.0309 90.02C28.3549 89.804 28.5949 89.528 28.7509 89.192H31.0909C30.9229 89.756 30.6409 90.272 30.2449 90.74C29.8609 91.196 29.3809 91.556 28.8049 91.82C28.2409 92.084 27.5989 92.216 26.8789 92.216ZM26.8969 84.728C26.3329 84.728 25.8349 84.89 25.4029 85.214C24.9709 85.526 24.6949 86.006 24.5749 86.654H29.0209C28.9849 86.066 28.7689 85.598 28.3729 85.25C27.9769 84.902 27.4849 84.728 26.8969 84.728ZM36.3274 89.336C35.8954 89.336 35.4934 89.288 35.1214 89.192L34.4554 89.858C34.6594 89.966 34.9354 90.056 35.2834 90.128C35.6314 90.2 36.1954 90.272 36.9754 90.344C38.1634 90.452 39.0274 90.734 39.5674 91.19C40.1074 91.646 40.3774 92.276 40.3774 93.08C40.3774 93.608 40.2334 94.106 39.9454 94.574C39.6574 95.054 39.2134 95.438 38.6134 95.726C38.0134 96.026 37.2454 96.176 36.3094 96.176C35.0374 96.176 34.0114 95.936 33.2314 95.456C32.4514 94.988 32.0614 94.28 32.0614 93.332C32.0614 92.528 32.4514 91.832 33.2314 91.244C32.9914 91.136 32.7814 91.022 32.6014 90.902C32.4334 90.782 32.2834 90.656 32.1514 90.524V90.11L33.7174 88.454C33.0214 87.842 32.6734 87.056 32.6734 86.096C32.6734 85.496 32.8174 84.95 33.1054 84.458C33.4054 83.966 33.8254 83.576 34.3654 83.288C34.9054 83 35.5594 82.856 36.3274 82.856C36.8314 82.856 37.2994 82.928 37.7314 83.072H41.1154V84.476L39.5854 84.584C39.8254 85.04 39.9454 85.544 39.9454 86.096C39.9454 86.696 39.8014 87.242 39.5134 87.734C39.2254 88.226 38.8054 88.616 38.2534 88.904C37.7134 89.192 37.0714 89.336 36.3274 89.336ZM36.3274 87.572C36.7954 87.572 37.1794 87.446 37.4794 87.194C37.7914 86.942 37.9474 86.582 37.9474 86.114C37.9474 85.646 37.7914 85.286 37.4794 85.034C37.1794 84.782 36.7954 84.656 36.3274 84.656C35.8354 84.656 35.4394 84.782 35.1394 85.034C34.8394 85.286 34.6894 85.646 34.6894 86.114C34.6894 86.582 34.8394 86.942 35.1394 87.194C35.4394 87.446 35.8354 87.572 36.3274 87.572ZM34.1674 93.098C34.1674 93.542 34.3714 93.872 34.7794 94.088C35.1994 94.316 35.7094 94.43 36.3094 94.43C36.8854 94.43 37.3534 94.31 37.7134 94.07C38.0734 93.842 38.2534 93.53 38.2534 93.134C38.2534 92.81 38.1334 92.54 37.8934 92.324C37.6654 92.108 37.2034 91.976 36.5074 91.928C36.0154 91.892 35.5594 91.838 35.1394 91.766C34.7914 91.958 34.5394 92.168 34.3834 92.396C34.2394 92.624 34.1674 92.858 34.1674 93.098ZM42.2374 92V83.072H44.2894L44.5054 84.746C44.8294 84.17 45.2674 83.714 45.8194 83.378C46.3834 83.03 47.0434 82.856 47.7994 82.856V85.286H47.1514C46.6474 85.286 46.1974 85.364 45.8014 85.52C45.4054 85.676 45.0934 85.946 44.8654 86.33C44.6494 86.714 44.5414 87.248 44.5414 87.932V92H42.2374ZM51.8941 92.216C51.1261 92.216 50.4961 92.096 50.0041 91.856C49.5121 91.604 49.1461 91.274 48.9061 90.866C48.6661 90.458 48.5461 90.008 48.5461 89.516C48.5461 88.688 48.8701 88.016 49.5181 87.5C50.1661 86.984 51.1381 86.726 52.4341 86.726H54.7021V86.51C54.7021 85.898 54.5281 85.448 54.1801 85.16C53.8321 84.872 53.4001 84.728 52.8841 84.728C52.4161 84.728 52.0081 84.842 51.6601 85.07C51.3121 85.286 51.0961 85.61 51.0121 86.042H48.7621C48.8221 85.394 49.0381 84.83 49.4101 84.35C49.7941 83.87 50.2861 83.504 50.8861 83.252C51.4861 82.988 52.1581 82.856 52.9021 82.856C54.1741 82.856 55.1761 83.174 55.9081 83.81C56.6401 84.446 57.0061 85.346 57.0061 86.51V92H55.0441L54.8281 90.56C54.5641 91.04 54.1921 91.436 53.7121 91.748C53.2441 92.06 52.6381 92.216 51.8941 92.216ZM52.4161 90.416C53.0761 90.416 53.5861 90.2 53.9461 89.768C54.3181 89.336 54.5521 88.802 54.6481 88.166H52.6861C52.0741 88.166 51.6361 88.28 51.3721 88.508C51.1081 88.724 50.9761 88.994 50.9761 89.318C50.9761 89.666 51.1081 89.936 51.3721 90.128C51.6361 90.32 51.9841 90.416 52.4161 90.416ZM62.5018 92C61.5658 92 60.8158 91.772 60.2518 91.316C59.6878 90.86 59.4058 90.05 59.4058 88.886V84.998H57.8758V83.072H59.4058L59.6758 80.678H61.7098V83.072H64.1218V84.998H61.7098V88.904C61.7098 89.336 61.7998 89.636 61.9798 89.804C62.1718 89.96 62.4958 90.038 62.9518 90.038H64.0678V92H62.5018ZM66.7839 81.686C66.3639 81.686 66.0159 81.56 65.7399 81.308C65.4759 81.056 65.3439 80.738 65.3439 80.354C65.3439 79.97 65.4759 79.658 65.7399 79.418C66.0159 79.166 66.3639 79.04 66.7839 79.04C67.2039 79.04 67.5459 79.166 67.8099 79.418C68.0859 79.658 68.2239 79.97 68.2239 80.354C68.2239 80.738 68.0859 81.056 67.8099 81.308C67.5459 81.56 67.2039 81.686 66.7839 81.686ZM65.6319 92V83.072H67.9359V92H65.6319ZM74.0668 92.216C73.2028 92.216 72.4228 92.018 71.7268 91.622C71.0428 91.226 70.4968 90.68 70.0888 89.984C69.6928 89.276 69.4948 88.46 69.4948 87.536C69.4948 86.612 69.6988 85.802 70.1068 85.106C70.5148 84.398 71.0608 83.846 71.7448 83.45C72.4408 83.054 73.2208 82.856 74.0848 82.856C74.9368 82.856 75.7048 83.054 76.3888 83.45C77.0848 83.846 77.6308 84.398 78.0268 85.106C78.4348 85.802 78.6388 86.612 78.6388 87.536C78.6388 88.46 78.4348 89.276 78.0268 89.984C77.6308 90.68 77.0848 91.226 76.3888 91.622C75.6928 92.018 74.9188 92.216 74.0668 92.216ZM74.0668 90.218C74.6668 90.218 75.1888 89.996 75.6328 89.552C76.0768 89.096 76.2988 88.424 76.2988 87.536C76.2988 86.648 76.0768 85.982 75.6328 85.538C75.1888 85.082 74.6728 84.854 74.0848 84.854C73.4728 84.854 72.9448 85.082 72.5008 85.538C72.0688 85.982 71.8528 86.648 71.8528 87.536C71.8528 88.424 72.0688 89.096 72.5008 89.552C72.9448 89.996 73.4668 90.218 74.0668 90.218ZM80.1408 92V83.072H82.1748L82.3548 84.584C82.6308 84.056 83.0268 83.636 83.5428 83.324C84.0708 83.012 84.6888 82.856 85.3968 82.856C86.5008 82.856 87.3588 83.204 87.9708 83.9C88.5828 84.596 88.8888 85.616 88.8888 86.96V92H86.5848V87.176C86.5848 86.408 86.4288 85.82 86.1168 85.412C85.8048 85.004 85.3188 84.8 84.6588 84.8C84.0108 84.8 83.4768 85.028 83.0568 85.484C82.6488 85.94 82.4448 86.576 82.4448 87.392V92H80.1408ZM98.603 92.216C97.703 92.216 96.905 92.024 96.209 91.64C95.513 91.256 94.967 90.716 94.571 90.02C94.175 89.324 93.977 88.52 93.977 87.608C93.977 86.684 94.169 85.862 94.553 85.142C94.949 84.422 95.489 83.864 96.173 83.468C96.869 83.06 97.685 82.856 98.621 82.856C99.497 82.856 100.271 83.048 100.943 83.432C101.615 83.816 102.137 84.344 102.509 85.016C102.893 85.676 103.085 86.414 103.085 87.23C103.085 87.362 103.079 87.5 103.067 87.644C103.067 87.788 103.061 87.938 103.049 88.094H96.263C96.311 88.79 96.551 89.336 96.983 89.732C97.427 90.128 97.961 90.326 98.585 90.326C99.053 90.326 99.443 90.224 99.755 90.02C100.079 89.804 100.319 89.528 100.475 89.192H102.815C102.647 89.756 102.365 90.272 101.969 90.74C101.585 91.196 101.105 91.556 100.529 91.82C99.965 92.084 99.323 92.216 98.603 92.216ZM98.621 84.728C98.057 84.728 97.559 84.89 97.127 85.214C96.695 85.526 96.419 86.006 96.299 86.654H100.745C100.709 86.066 100.493 85.598 100.097 85.25C99.701 84.902 99.209 84.728 98.621 84.728ZM108.839 92.216C107.927 92.216 107.123 92.018 106.427 91.622C105.731 91.226 105.179 90.674 104.771 89.966C104.375 89.258 104.177 88.448 104.177 87.536C104.177 86.624 104.375 85.814 104.771 85.106C105.179 84.398 105.731 83.846 106.427 83.45C107.123 83.054 107.927 82.856 108.839 82.856C109.979 82.856 110.939 83.156 111.719 83.756C112.499 84.344 112.997 85.16 113.213 86.204H110.783C110.663 85.772 110.423 85.436 110.063 85.196C109.715 84.944 109.301 84.818 108.821 84.818C108.185 84.818 107.645 85.058 107.201 85.538C106.757 86.018 106.535 86.684 106.535 87.536C106.535 88.388 106.757 89.054 107.201 89.534C107.645 90.014 108.185 90.254 108.821 90.254C109.301 90.254 109.715 90.134 110.063 89.894C110.423 89.654 110.663 89.312 110.783 88.868H113.213C112.997 89.876 112.499 90.686 111.719 91.298C110.939 91.91 109.979 92.216 108.839 92.216ZM118.984 92.216C118.12 92.216 117.34 92.018 116.644 91.622C115.96 91.226 115.414 90.68 115.006 89.984C114.61 89.276 114.412 88.46 114.412 87.536C114.412 86.612 114.616 85.802 115.024 85.106C115.432 84.398 115.978 83.846 116.662 83.45C117.358 83.054 118.138 82.856 119.002 82.856C119.854 82.856 120.622 83.054 121.306 83.45C122.002 83.846 122.548 84.398 122.944 85.106C123.352 85.802 123.556 86.612 123.556 87.536C123.556 88.46 123.352 89.276 122.944 89.984C122.548 90.68 122.002 91.226 121.306 91.622C120.61 92.018 119.836 92.216 118.984 92.216ZM118.984 90.218C119.584 90.218 120.106 89.996 120.55 89.552C120.994 89.096 121.216 88.424 121.216 87.536C121.216 86.648 120.994 85.982 120.55 85.538C120.106 85.082 119.59 84.854 119.002 84.854C118.39 84.854 117.862 85.082 117.418 85.538C116.986 85.982 116.77 86.648 116.77 87.536C116.77 88.424 116.986 89.096 117.418 89.552C117.862 89.996 118.384 90.218 118.984 90.218ZM128.748 92.216C127.956 92.216 127.26 92.09 126.66 91.838C126.06 91.574 125.58 91.214 125.22 90.758C124.86 90.302 124.644 89.774 124.572 89.174H126.894C126.966 89.522 127.158 89.822 127.47 90.074C127.794 90.314 128.208 90.434 128.712 90.434C129.216 90.434 129.582 90.332 129.81 90.128C130.05 89.924 130.17 89.69 130.17 89.426C130.17 89.042 130.002 88.784 129.666 88.652C129.33 88.508 128.862 88.37 128.262 88.238C127.878 88.154 127.488 88.052 127.092 87.932C126.696 87.812 126.33 87.662 125.994 87.482C125.67 87.29 125.406 87.05 125.202 86.762C124.998 86.462 124.896 86.096 124.896 85.664C124.896 84.872 125.208 84.206 125.832 83.666C126.468 83.126 127.356 82.856 128.496 82.856C129.552 82.856 130.392 83.102 131.016 83.594C131.652 84.086 132.03 84.764 132.15 85.628H129.972C129.84 84.968 129.342 84.638 128.478 84.638C128.046 84.638 127.71 84.722 127.47 84.89C127.242 85.058 127.128 85.268 127.128 85.52C127.128 85.784 127.302 85.994 127.65 86.15C127.998 86.306 128.46 86.45 129.036 86.582C129.66 86.726 130.23 86.888 130.746 87.068C131.274 87.236 131.694 87.494 132.006 87.842C132.318 88.178 132.474 88.664 132.474 89.3C132.486 89.852 132.342 90.35 132.042 90.794C131.742 91.238 131.31 91.586 130.746 91.838C130.182 92.09 129.516 92.216 128.748 92.216ZM134.598 95.96L136.668 91.406H136.128L132.654 83.072H135.156L137.658 89.354L140.268 83.072H142.716L137.046 95.96H134.598ZM146.915 92.216C146.123 92.216 145.427 92.09 144.827 91.838C144.227 91.574 143.747 91.214 143.387 90.758C143.027 90.302 142.811 89.774 142.739 89.174H145.061C145.133 89.522 145.325 89.822 145.637 90.074C145.961 90.314 146.375 90.434 146.879 90.434C147.383 90.434 147.749 90.332 147.977 90.128C148.217 89.924 148.337 89.69 148.337 89.426C148.337 89.042 148.169 88.784 147.833 88.652C147.497 88.508 147.029 88.37 146.429 88.238C146.045 88.154 145.655 88.052 145.259 87.932C144.863 87.812 144.497 87.662 144.161 87.482C143.837 87.29 143.573 87.05 143.369 86.762C143.165 86.462 143.063 86.096 143.063 85.664C143.063 84.872 143.375 84.206 143.999 83.666C144.635 83.126 145.523 82.856 146.663 82.856C147.719 82.856 148.559 83.102 149.183 83.594C149.819 84.086 150.197 84.764 150.317 85.628H148.139C148.007 84.968 147.509 84.638 146.645 84.638C146.213 84.638 145.877 84.722 145.637 84.89C145.409 85.058 145.295 85.268 145.295 85.52C145.295 85.784 145.469 85.994 145.817 86.15C146.165 86.306 146.627 86.45 147.203 86.582C147.827 86.726 148.397 86.888 148.913 87.068C149.441 87.236 149.861 87.494 150.173 87.842C150.485 88.178 150.641 88.664 150.641 89.3C150.653 89.852 150.509 90.35 150.209 90.794C149.909 91.238 149.477 91.586 148.913 91.838C148.349 92.09 147.683 92.216 146.915 92.216ZM155.821 92C154.885 92 154.135 91.772 153.571 91.316C153.007 90.86 152.725 90.05 152.725 88.886V84.998H151.195V83.072H152.725L152.995 80.678H155.029V83.072H157.441V84.998H155.029V88.904C155.029 89.336 155.119 89.636 155.299 89.804C155.491 89.96 155.815 90.038 156.271 90.038H157.387V92H155.821ZM162.97 92.216C162.07 92.216 161.272 92.024 160.576 91.64C159.88 91.256 159.334 90.716 158.938 90.02C158.542 89.324 158.344 88.52 158.344 87.608C158.344 86.684 158.536 85.862 158.92 85.142C159.316 84.422 159.856 83.864 160.54 83.468C161.236 83.06 162.052 82.856 162.988 82.856C163.864 82.856 164.638 83.048 165.31 83.432C165.982 83.816 166.504 84.344 166.876 85.016C167.26 85.676 167.452 86.414 167.452 87.23C167.452 87.362 167.446 87.5 167.434 87.644C167.434 87.788 167.428 87.938 167.416 88.094H160.63C160.678 88.79 160.918 89.336 161.35 89.732C161.794 90.128 162.328 90.326 162.952 90.326C163.42 90.326 163.81 90.224 164.122 90.02C164.446 89.804 164.686 89.528 164.842 89.192H167.182C167.014 89.756 166.732 90.272 166.336 90.74C165.952 91.196 165.472 91.556 164.896 91.82C164.332 92.084 163.69 92.216 162.97 92.216ZM162.988 84.728C162.424 84.728 161.926 84.89 161.494 85.214C161.062 85.526 160.786 86.006 160.666 86.654H165.112C165.076 86.066 164.86 85.598 164.464 85.25C164.068 84.902 163.576 84.728 162.988 84.728ZM168.832 92V83.072H170.866L171.064 84.278C171.352 83.846 171.73 83.504 172.198 83.252C172.678 82.988 173.23 82.856 173.854 82.856C175.234 82.856 176.212 83.39 176.788 84.458C177.112 83.966 177.544 83.576 178.084 83.288C178.636 83 179.236 82.856 179.884 82.856C181.048 82.856 181.942 83.204 182.566 83.9C183.19 84.596 183.502 85.616 183.502 86.96V92H181.198V87.176C181.198 86.408 181.048 85.82 180.748 85.412C180.46 85.004 180.01 84.8 179.398 84.8C178.774 84.8 178.27 85.028 177.886 85.484C177.514 85.94 177.328 86.576 177.328 87.392V92H175.024V87.176C175.024 86.408 174.874 85.82 174.574 85.412C174.274 85.004 173.812 84.8 173.188 84.8C172.576 84.8 172.078 85.028 171.694 85.484C171.322 85.94 171.136 86.576 171.136 87.392V92H168.832Z" fill="black"/>
<path d="M0.772727 113.614V112.364H9.5V113.614H5.84091V124H4.43182V113.614H0.772727ZM10.4266 124V115.273H11.7221V116.591H11.813C11.9721 116.159 12.26 115.809 12.6766 115.54C13.0933 115.271 13.563 115.136 14.0857 115.136C14.1842 115.136 14.3073 115.138 14.4551 115.142C14.6028 115.146 14.7145 115.152 14.7903 115.159V116.523C14.7448 116.511 14.6407 116.494 14.4778 116.472C14.3187 116.445 14.1501 116.432 13.9721 116.432C13.5479 116.432 13.1691 116.521 12.8357 116.699C12.5062 116.873 12.2448 117.116 12.0516 117.426C11.8623 117.733 11.7676 118.083 11.7676 118.477V124H10.4266ZM18.788 124.205C18.2349 124.205 17.733 124.1 17.2823 123.892C16.8315 123.68 16.4736 123.375 16.2084 122.977C15.9433 122.576 15.8107 122.091 15.8107 121.523C15.8107 121.023 15.9092 120.617 16.1061 120.307C16.3031 119.992 16.5664 119.746 16.8959 119.568C17.2255 119.39 17.5891 119.258 17.9868 119.17C18.3883 119.08 18.7917 119.008 19.197 118.955C19.7273 118.886 20.1573 118.835 20.4868 118.801C20.8202 118.763 21.0626 118.701 21.2141 118.614C21.3694 118.527 21.447 118.375 21.447 118.159V118.114C21.447 117.553 21.2936 117.117 20.9868 116.807C20.6838 116.496 20.2236 116.341 19.6061 116.341C18.966 116.341 18.4641 116.481 18.1005 116.761C17.7368 117.042 17.4811 117.341 17.3334 117.659L16.0607 117.205C16.288 116.674 16.591 116.261 16.9698 115.966C17.3523 115.667 17.769 115.458 18.2198 115.341C18.6743 115.22 19.1213 115.159 19.5607 115.159C19.841 115.159 20.163 115.193 20.5266 115.261C20.894 115.326 21.2482 115.46 21.5891 115.665C21.9338 115.869 22.2198 116.178 22.447 116.591C22.6743 117.004 22.788 117.557 22.788 118.25V124H21.447V122.818H21.3789C21.288 123.008 21.1364 123.21 20.9243 123.426C20.7122 123.642 20.43 123.826 20.0777 123.977C19.7255 124.129 19.2955 124.205 18.788 124.205ZM18.9925 123C19.5228 123 19.9698 122.896 20.3334 122.688C20.7008 122.479 20.9773 122.21 21.163 121.881C21.3523 121.551 21.447 121.205 21.447 120.841V119.614C21.3902 119.682 21.2652 119.744 21.072 119.801C20.8827 119.854 20.663 119.902 20.413 119.943C20.1667 119.981 19.9262 120.015 19.6914 120.045C19.4603 120.072 19.2728 120.095 19.1289 120.114C18.7804 120.159 18.4546 120.233 18.1516 120.335C17.8523 120.434 17.6099 120.583 17.4243 120.784C17.2425 120.981 17.1516 121.25 17.1516 121.591C17.1516 122.057 17.3239 122.409 17.6686 122.648C18.0171 122.883 18.4584 123 18.9925 123ZM28.6209 124.182C27.8027 124.182 27.0981 123.989 26.5072 123.602C25.9163 123.216 25.4618 122.684 25.1436 122.006C24.8254 121.328 24.6663 120.553 24.6663 119.682C24.6663 118.795 24.8292 118.013 25.1549 117.335C25.4845 116.653 25.9428 116.121 26.5299 115.739C27.1209 115.352 27.8102 115.159 28.5981 115.159C29.2118 115.159 29.7648 115.273 30.2572 115.5C30.7496 115.727 31.153 116.045 31.4674 116.455C31.7818 116.864 31.9769 117.341 32.0527 117.886H30.7118C30.6095 117.489 30.3822 117.136 30.0299 116.83C29.6815 116.519 29.2118 116.364 28.6209 116.364C28.0981 116.364 27.6398 116.5 27.2459 116.773C26.8557 117.042 26.5508 117.422 26.3311 117.915C26.1152 118.403 26.0072 118.977 26.0072 119.636C26.0072 120.311 26.1133 120.898 26.3254 121.398C26.5413 121.898 26.8443 122.286 27.2345 122.562C27.6284 122.839 28.0905 122.977 28.6209 122.977C28.9693 122.977 29.2856 122.917 29.5697 122.795C29.8538 122.674 30.0943 122.5 30.2913 122.273C30.4883 122.045 30.6284 121.773 30.7118 121.455H32.0527C31.9769 121.97 31.7894 122.434 31.4902 122.847C31.1947 123.256 30.8027 123.581 30.314 123.824C29.8292 124.062 29.2648 124.182 28.6209 124.182ZM35.1029 120.818L35.0802 119.159H35.3529L39.1711 115.273H40.8302L36.762 119.386H36.6484L35.1029 120.818ZM33.8529 124V112.364H35.1938V124H33.8529ZM39.3984 124L35.9893 119.682L36.9438 118.75L41.1029 124H39.3984ZM47.5997 127.273C47.3724 127.273 47.1697 127.254 46.9917 127.216C46.8137 127.182 46.6906 127.148 46.6224 127.114L46.9633 125.932C47.2891 126.015 47.5769 126.045 47.8269 126.023C48.0769 126 48.2985 125.888 48.4917 125.688C48.6887 125.491 48.8686 125.17 49.0315 124.727L49.2815 124.045L46.0542 115.273H47.5088L49.9178 122.227H50.0088L52.4178 115.273H53.8724L50.1678 125.273C50.0012 125.723 49.7947 126.097 49.5485 126.392C49.3023 126.691 49.0163 126.913 48.6906 127.057C48.3686 127.201 48.005 127.273 47.5997 127.273ZM58.7152 124.182C57.9273 124.182 57.2361 123.994 56.6414 123.619C56.0505 123.244 55.5883 122.72 55.255 122.045C54.9255 121.371 54.7607 120.583 54.7607 119.682C54.7607 118.773 54.9255 117.979 55.255 117.301C55.5883 116.623 56.0505 116.097 56.6414 115.722C57.2361 115.347 57.9273 115.159 58.7152 115.159C59.5031 115.159 60.1925 115.347 60.7834 115.722C61.3781 116.097 61.8402 116.623 62.1698 117.301C62.5031 117.979 62.6698 118.773 62.6698 119.682C62.6698 120.583 62.5031 121.371 62.1698 122.045C61.8402 122.72 61.3781 123.244 60.7834 123.619C60.1925 123.994 59.5031 124.182 58.7152 124.182ZM58.7152 122.977C59.3137 122.977 59.8061 122.824 60.1925 122.517C60.5789 122.21 60.8648 121.807 61.0505 121.307C61.2361 120.807 61.3289 120.265 61.3289 119.682C61.3289 119.098 61.2361 118.555 61.0505 118.051C60.8648 117.547 60.5789 117.14 60.1925 116.83C59.8061 116.519 59.3137 116.364 58.7152 116.364C58.1167 116.364 57.6243 116.519 57.238 116.83C56.8516 117.14 56.5656 117.547 56.38 118.051C56.1944 118.555 56.1016 119.098 56.1016 119.682C56.1016 120.265 56.1944 120.807 56.38 121.307C56.5656 121.807 56.8516 122.21 57.238 122.517C57.6243 122.824 58.1167 122.977 58.7152 122.977ZM70.0566 120.432V115.273H71.3976V124H70.0566V122.523H69.9657C69.7612 122.966 69.443 123.343 69.0112 123.653C68.5794 123.96 68.0339 124.114 67.3748 124.114C66.8294 124.114 66.3445 123.994 65.9203 123.756C65.496 123.513 65.1627 123.15 64.9203 122.665C64.6779 122.176 64.5566 121.561 64.5566 120.818V115.273H65.8976V120.727C65.8976 121.364 66.0756 121.871 66.4316 122.25C66.7915 122.629 67.2498 122.818 67.8066 122.818C68.14 122.818 68.479 122.733 68.8237 122.562C69.1722 122.392 69.4638 122.131 69.6987 121.778C69.9373 121.426 70.0566 120.977 70.0566 120.432ZM73.6935 124V115.273H74.989V116.591H75.0799C75.239 116.159 75.5269 115.809 75.9435 115.54C76.3602 115.271 76.8299 115.136 77.3526 115.136C77.4511 115.136 77.5742 115.138 77.7219 115.142C77.8697 115.146 77.9814 115.152 78.0572 115.159V116.523C78.0117 116.511 77.9075 116.494 77.7447 116.472C77.5856 116.445 77.417 116.432 77.239 116.432C76.8147 116.432 76.4359 116.521 76.1026 116.699C75.7731 116.873 75.5117 117.116 75.3185 117.426C75.1291 117.733 75.0344 118.083 75.0344 118.477V124H73.6935ZM83.8266 127.273V115.273H85.1221V116.659H85.2812C85.3797 116.508 85.516 116.314 85.6903 116.08C85.8683 115.841 86.1221 115.629 86.4516 115.443C86.785 115.254 87.2357 115.159 87.8039 115.159C88.5388 115.159 89.1865 115.343 89.7471 115.71C90.3077 116.078 90.7452 116.598 91.0596 117.273C91.374 117.947 91.5312 118.742 91.5312 119.659C91.5312 120.583 91.374 121.384 91.0596 122.062C90.7452 122.737 90.3096 123.259 89.7528 123.631C89.196 123.998 88.5539 124.182 87.8266 124.182C87.266 124.182 86.8172 124.089 86.4801 123.903C86.1429 123.714 85.8835 123.5 85.7016 123.261C85.5198 123.019 85.3797 122.818 85.2812 122.659H85.1676V127.273H83.8266ZM85.1448 119.636C85.1448 120.295 85.2414 120.877 85.4346 121.381C85.6278 121.881 85.91 122.273 86.2812 122.557C86.6524 122.837 87.1069 122.977 87.6448 122.977C88.2054 122.977 88.6732 122.83 89.0482 122.534C89.427 122.235 89.7111 121.833 89.9005 121.33C90.0937 120.822 90.1903 120.258 90.1903 119.636C90.1903 119.023 90.0956 118.47 89.9062 117.977C89.7206 117.481 89.4384 117.089 89.0596 116.801C88.6846 116.509 88.213 116.364 87.6448 116.364C87.0994 116.364 86.641 116.502 86.2698 116.778C85.8986 117.051 85.6183 117.434 85.4289 117.926C85.2395 118.415 85.1448 118.985 85.1448 119.636ZM93.4166 124V115.273H94.7121V116.591H94.803C94.9621 116.159 95.25 115.809 95.6666 115.54C96.0833 115.271 96.553 115.136 97.0757 115.136C97.1742 115.136 97.2973 115.138 97.4451 115.142C97.5928 115.146 97.7045 115.152 97.7803 115.159V116.523C97.7348 116.511 97.6307 116.494 97.4678 116.472C97.3087 116.445 97.1401 116.432 96.9621 116.432C96.5379 116.432 96.1591 116.521 95.8257 116.699C95.4962 116.873 95.2348 117.116 95.0416 117.426C94.8523 117.733 94.7576 118.083 94.7576 118.477V124H93.4166ZM102.49 124.182C101.702 124.182 101.01 123.994 100.416 123.619C99.8248 123.244 99.3627 122.72 99.0294 122.045C98.6998 121.371 98.5351 120.583 98.5351 119.682C98.5351 118.773 98.6998 117.979 99.0294 117.301C99.3627 116.623 99.8248 116.097 100.416 115.722C101.01 115.347 101.702 115.159 102.49 115.159C103.277 115.159 103.967 115.347 104.558 115.722C105.152 116.097 105.615 116.623 105.944 117.301C106.277 117.979 106.444 118.773 106.444 119.682C106.444 120.583 106.277 121.371 105.944 122.045C105.615 122.72 105.152 123.244 104.558 123.619C103.967 123.994 103.277 124.182 102.49 124.182ZM102.49 122.977C103.088 122.977 103.581 122.824 103.967 122.517C104.353 122.21 104.639 121.807 104.825 121.307C105.01 120.807 105.103 120.265 105.103 119.682C105.103 119.098 105.01 118.555 104.825 118.051C104.639 117.547 104.353 117.14 103.967 116.83C103.581 116.519 103.088 116.364 102.49 116.364C101.891 116.364 101.399 116.519 101.012 116.83C100.626 117.14 100.34 117.547 100.154 118.051C99.9688 118.555 99.876 119.098 99.876 119.682C99.876 120.265 99.9688 120.807 100.154 121.307C100.34 121.807 100.626 122.21 101.012 122.517C101.399 122.824 101.891 122.977 102.49 122.977ZM111.854 127.455C111.206 127.455 110.649 127.371 110.183 127.205C109.717 127.042 109.329 126.826 109.019 126.557C108.712 126.292 108.467 126.008 108.286 125.705L109.354 124.955C109.475 125.114 109.628 125.295 109.814 125.5C110 125.708 110.253 125.888 110.575 126.04C110.901 126.195 111.327 126.273 111.854 126.273C112.558 126.273 113.14 126.102 113.598 125.761C114.056 125.42 114.286 124.886 114.286 124.159V122.386H114.172C114.073 122.545 113.933 122.742 113.751 122.977C113.573 123.208 113.316 123.415 112.979 123.597C112.645 123.775 112.195 123.864 111.626 123.864C110.922 123.864 110.289 123.697 109.729 123.364C109.172 123.03 108.731 122.545 108.405 121.909C108.083 121.273 107.922 120.5 107.922 119.591C107.922 118.697 108.079 117.919 108.394 117.256C108.708 116.589 109.145 116.074 109.706 115.71C110.267 115.343 110.914 115.159 111.649 115.159C112.217 115.159 112.668 115.254 113.001 115.443C113.339 115.629 113.596 115.841 113.774 116.08C113.956 116.314 114.096 116.508 114.195 116.659H114.331V115.273H115.626V124.25C115.626 125 115.456 125.61 115.115 126.08C114.778 126.553 114.323 126.9 113.751 127.119C113.183 127.343 112.551 127.455 111.854 127.455ZM111.808 122.659C112.346 122.659 112.801 122.536 113.172 122.29C113.543 122.044 113.825 121.689 114.019 121.227C114.212 120.765 114.308 120.212 114.308 119.568C114.308 118.939 114.214 118.384 114.024 117.903C113.835 117.422 113.555 117.045 113.183 116.773C112.812 116.5 112.354 116.364 111.808 116.364C111.24 116.364 110.767 116.508 110.388 116.795C110.013 117.083 109.731 117.47 109.541 117.955C109.356 118.439 109.263 118.977 109.263 119.568C109.263 120.174 109.358 120.71 109.547 121.176C109.74 121.638 110.024 122.002 110.399 122.267C110.778 122.528 111.248 122.659 111.808 122.659ZM117.921 124V115.273H119.216V116.591H119.307C119.466 116.159 119.754 115.809 120.171 115.54C120.588 115.271 121.057 115.136 121.58 115.136C121.679 115.136 121.802 115.138 121.949 115.142C122.097 115.146 122.209 115.152 122.285 115.159V116.523C122.239 116.511 122.135 116.494 121.972 116.472C121.813 116.445 121.645 116.432 121.466 116.432C121.042 116.432 120.663 116.521 120.33 116.699C120.001 116.873 119.739 117.116 119.546 117.426C119.357 117.733 119.262 118.083 119.262 118.477V124H117.921ZM127.108 124.182C126.267 124.182 125.541 123.996 124.931 123.625C124.325 123.25 123.858 122.727 123.528 122.057C123.202 121.383 123.039 120.598 123.039 119.705C123.039 118.811 123.202 118.023 123.528 117.341C123.858 116.655 124.316 116.121 124.903 115.739C125.494 115.352 126.183 115.159 126.971 115.159C127.426 115.159 127.875 115.235 128.318 115.386C128.761 115.538 129.164 115.784 129.528 116.125C129.892 116.462 130.181 116.909 130.397 117.466C130.613 118.023 130.721 118.708 130.721 119.523V120.091H123.994V118.932H129.358C129.358 118.439 129.259 118 129.062 117.614C128.869 117.227 128.592 116.922 128.233 116.699C127.877 116.475 127.456 116.364 126.971 116.364C126.437 116.364 125.975 116.496 125.585 116.761C125.199 117.023 124.901 117.364 124.693 117.784C124.485 118.205 124.38 118.655 124.38 119.136V119.909C124.38 120.568 124.494 121.127 124.721 121.585C124.952 122.04 125.272 122.386 125.681 122.625C126.091 122.86 126.566 122.977 127.108 122.977C127.46 122.977 127.778 122.928 128.062 122.83C128.35 122.727 128.598 122.576 128.806 122.375C129.015 122.17 129.176 121.917 129.289 121.614L130.585 121.977C130.449 122.417 130.219 122.803 129.897 123.136C129.575 123.466 129.178 123.723 128.704 123.909C128.231 124.091 127.699 124.182 127.108 124.182ZM138.783 117.227L137.578 117.568C137.503 117.367 137.391 117.172 137.243 116.983C137.099 116.79 136.902 116.631 136.652 116.506C136.402 116.381 136.082 116.318 135.692 116.318C135.158 116.318 134.713 116.441 134.357 116.688C134.004 116.93 133.828 117.239 133.828 117.614C133.828 117.947 133.95 118.21 134.192 118.403C134.434 118.597 134.813 118.758 135.328 118.886L136.624 119.205C137.404 119.394 137.985 119.684 138.368 120.074C138.751 120.46 138.942 120.958 138.942 121.568C138.942 122.068 138.798 122.515 138.51 122.909C138.226 123.303 137.828 123.614 137.317 123.841C136.806 124.068 136.211 124.182 135.533 124.182C134.643 124.182 133.906 123.989 133.323 123.602C132.739 123.216 132.37 122.652 132.215 121.909L133.487 121.591C133.609 122.061 133.838 122.413 134.175 122.648C134.516 122.883 134.961 123 135.51 123C136.135 123 136.631 122.867 136.999 122.602C137.37 122.333 137.556 122.011 137.556 121.636C137.556 121.333 137.45 121.08 137.237 120.875C137.025 120.667 136.7 120.511 136.26 120.409L134.806 120.068C134.006 119.879 133.419 119.585 133.044 119.188C132.673 118.786 132.487 118.284 132.487 117.682C132.487 117.189 132.626 116.754 132.902 116.375C133.182 115.996 133.563 115.699 134.044 115.483C134.529 115.267 135.078 115.159 135.692 115.159C136.556 115.159 137.234 115.348 137.726 115.727C138.222 116.106 138.575 116.606 138.783 117.227ZM146.982 117.227L145.778 117.568C145.702 117.367 145.59 117.172 145.442 116.983C145.298 116.79 145.102 116.631 144.852 116.506C144.602 116.381 144.281 116.318 143.891 116.318C143.357 116.318 142.912 116.441 142.556 116.688C142.204 116.93 142.028 117.239 142.028 117.614C142.028 117.947 142.149 118.21 142.391 118.403C142.634 118.597 143.013 118.758 143.528 118.886L144.823 119.205C145.603 119.394 146.185 119.684 146.567 120.074C146.95 120.46 147.141 120.958 147.141 121.568C147.141 122.068 146.997 122.515 146.709 122.909C146.425 123.303 146.028 123.614 145.516 123.841C145.005 124.068 144.41 124.182 143.732 124.182C142.842 124.182 142.105 123.989 141.522 123.602C140.939 123.216 140.569 122.652 140.414 121.909L141.687 121.591C141.808 122.061 142.037 122.413 142.374 122.648C142.715 122.883 143.16 123 143.709 123C144.334 123 144.831 122.867 145.198 122.602C145.569 122.333 145.755 122.011 145.755 121.636C145.755 121.333 145.649 121.08 145.437 120.875C145.225 120.667 144.899 120.511 144.459 120.409L143.005 120.068C142.206 119.879 141.619 119.585 141.244 119.188C140.872 118.786 140.687 118.284 140.687 117.682C140.687 117.189 140.825 116.754 141.102 116.375C141.382 115.996 141.763 115.699 142.244 115.483C142.728 115.267 143.278 115.159 143.891 115.159C144.755 115.159 145.433 115.348 145.925 115.727C146.422 116.106 146.774 116.606 146.982 117.227ZM155.908 124.205C155.355 124.205 154.853 124.1 154.402 123.892C153.952 123.68 153.594 123.375 153.328 122.977C153.063 122.576 152.931 122.091 152.931 121.523C152.931 121.023 153.029 120.617 153.226 120.307C153.423 119.992 153.686 119.746 154.016 119.568C154.345 119.39 154.709 119.258 155.107 119.17C155.508 119.08 155.912 119.008 156.317 118.955C156.847 118.886 157.277 118.835 157.607 118.801C157.94 118.763 158.183 118.701 158.334 118.614C158.489 118.527 158.567 118.375 158.567 118.159V118.114C158.567 117.553 158.414 117.117 158.107 116.807C157.804 116.496 157.344 116.341 156.726 116.341C156.086 116.341 155.584 116.481 155.22 116.761C154.857 117.042 154.601 117.341 154.453 117.659L153.181 117.205C153.408 116.674 153.711 116.261 154.09 115.966C154.472 115.667 154.889 115.458 155.34 115.341C155.794 115.22 156.241 115.159 156.681 115.159C156.961 115.159 157.283 115.193 157.647 115.261C158.014 115.326 158.368 115.46 158.709 115.665C159.054 115.869 159.34 116.178 159.567 116.591C159.794 117.004 159.908 117.557 159.908 118.25V124H158.567V122.818H158.499C158.408 123.008 158.256 123.21 158.044 123.426C157.832 123.642 157.55 123.826 157.198 123.977C156.845 124.129 156.416 124.205 155.908 124.205ZM156.113 123C156.643 123 157.09 122.896 157.453 122.688C157.821 122.479 158.097 122.21 158.283 121.881C158.472 121.551 158.567 121.205 158.567 120.841V119.614C158.51 119.682 158.385 119.744 158.192 119.801C158.003 119.854 157.783 119.902 157.533 119.943C157.287 119.981 157.046 120.015 156.811 120.045C156.58 120.072 156.393 120.095 156.249 120.114C155.9 120.159 155.575 120.233 155.272 120.335C154.972 120.434 154.73 120.583 154.544 120.784C154.363 120.981 154.272 121.25 154.272 121.591C154.272 122.057 154.444 122.409 154.789 122.648C155.137 122.883 155.578 123 156.113 123ZM163.536 118.75V124H162.195V115.273H163.491V116.636H163.604C163.809 116.193 164.12 115.837 164.536 115.568C164.953 115.295 165.491 115.159 166.15 115.159C166.741 115.159 167.258 115.28 167.701 115.523C168.144 115.761 168.489 116.125 168.735 116.614C168.981 117.098 169.104 117.712 169.104 118.455V124H167.764V118.545C167.764 117.86 167.586 117.326 167.229 116.943C166.873 116.557 166.385 116.364 165.764 116.364C165.336 116.364 164.953 116.456 164.616 116.642C164.283 116.828 164.019 117.098 163.826 117.455C163.633 117.811 163.536 118.242 163.536 118.75ZM174.69 124.182C173.963 124.182 173.321 123.998 172.764 123.631C172.207 123.259 171.772 122.737 171.457 122.062C171.143 121.384 170.986 120.583 170.986 119.659C170.986 118.742 171.143 117.947 171.457 117.273C171.772 116.598 172.209 116.078 172.77 115.71C173.33 115.343 173.978 115.159 174.713 115.159C175.281 115.159 175.73 115.254 176.06 115.443C176.393 115.629 176.647 115.841 176.821 116.08C176.999 116.314 177.137 116.508 177.236 116.659H177.349V112.364H178.69V124H177.395V122.659H177.236C177.137 122.818 176.997 123.019 176.815 123.261C176.633 123.5 176.374 123.714 176.037 123.903C175.7 124.089 175.251 124.182 174.69 124.182ZM174.872 122.977C175.41 122.977 175.864 122.837 176.236 122.557C176.607 122.273 176.889 121.881 177.082 121.381C177.275 120.877 177.372 120.295 177.372 119.636C177.372 118.985 177.277 118.415 177.088 117.926C176.899 117.434 176.618 117.051 176.247 116.778C175.876 116.502 175.417 116.364 174.872 116.364C174.304 116.364 173.83 116.509 173.452 116.801C173.077 117.089 172.794 117.481 172.605 117.977C172.419 118.47 172.327 119.023 172.327 119.636C172.327 120.258 172.421 120.822 172.611 121.33C172.804 121.833 173.088 122.235 173.463 122.534C173.842 122.83 174.311 122.977 174.872 122.977ZM185.512 124V115.273H186.808V116.636H186.921C187.103 116.17 187.397 115.809 187.802 115.551C188.207 115.29 188.694 115.159 189.262 115.159C189.838 115.159 190.317 115.29 190.7 115.551C191.086 115.809 191.387 116.17 191.603 116.636H191.694C191.918 116.186 192.253 115.828 192.7 115.562C193.147 115.294 193.683 115.159 194.308 115.159C195.088 115.159 195.726 115.403 196.223 115.892C196.719 116.377 196.967 117.133 196.967 118.159V124H195.626V118.159C195.626 117.515 195.45 117.055 195.098 116.778C194.745 116.502 194.33 116.364 193.853 116.364C193.24 116.364 192.764 116.549 192.427 116.92C192.09 117.288 191.921 117.754 191.921 118.318V124H190.558V118.023C190.558 117.527 190.397 117.127 190.075 116.824C189.753 116.517 189.338 116.364 188.83 116.364C188.482 116.364 188.156 116.456 187.853 116.642C187.554 116.828 187.312 117.085 187.126 117.415C186.944 117.741 186.853 118.117 186.853 118.545V124H185.512ZM202.804 124.182C202.016 124.182 201.325 123.994 200.73 123.619C200.139 123.244 199.677 122.72 199.344 122.045C199.014 121.371 198.849 120.583 198.849 119.682C198.849 118.773 199.014 117.979 199.344 117.301C199.677 116.623 200.139 116.097 200.73 115.722C201.325 115.347 202.016 115.159 202.804 115.159C203.592 115.159 204.281 115.347 204.872 115.722C205.467 116.097 205.929 116.623 206.259 117.301C206.592 117.979 206.759 118.773 206.759 119.682C206.759 120.583 206.592 121.371 206.259 122.045C205.929 122.72 205.467 123.244 204.872 123.619C204.281 123.994 203.592 124.182 202.804 124.182ZM202.804 122.977C203.402 122.977 203.895 122.824 204.281 122.517C204.668 122.21 204.954 121.807 205.139 121.307C205.325 120.807 205.418 120.265 205.418 119.682C205.418 119.098 205.325 118.555 205.139 118.051C204.954 117.547 204.668 117.14 204.281 116.83C203.895 116.519 203.402 116.364 202.804 116.364C202.205 116.364 201.713 116.519 201.327 116.83C200.94 117.14 200.654 117.547 200.469 118.051C200.283 118.555 200.19 119.098 200.19 119.682C200.19 120.265 200.283 120.807 200.469 121.307C200.654 121.807 200.94 122.21 201.327 122.517C201.713 122.824 202.205 122.977 202.804 122.977ZM212.441 115.273V116.409H207.918V115.273H212.441ZM209.236 113.182H210.577V121.5C210.577 121.879 210.632 122.163 210.742 122.352C210.856 122.538 211 122.663 211.174 122.727C211.352 122.788 211.539 122.818 211.736 122.818C211.884 122.818 212.005 122.811 212.1 122.795C212.195 122.777 212.27 122.761 212.327 122.75L212.6 123.955C212.509 123.989 212.382 124.023 212.219 124.057C212.056 124.095 211.85 124.114 211.6 124.114C211.221 124.114 210.85 124.032 210.486 123.869C210.126 123.706 209.827 123.458 209.589 123.125C209.354 122.792 209.236 122.371 209.236 121.864V113.182ZM214.298 124V115.273H215.639V124H214.298ZM214.98 113.818C214.718 113.818 214.493 113.729 214.304 113.551C214.118 113.373 214.025 113.159 214.025 112.909C214.025 112.659 214.118 112.445 214.304 112.267C214.493 112.089 214.718 112 214.98 112C215.241 112 215.465 112.089 215.65 112.267C215.84 112.445 215.934 112.659 215.934 112.909C215.934 113.159 215.84 113.373 215.65 113.551C215.465 113.729 215.241 113.818 214.98 113.818ZM225.071 115.273L221.844 124H220.48L217.253 115.273H218.708L221.117 122.227H221.208L223.617 115.273H225.071ZM228.984 124.205C228.431 124.205 227.929 124.1 227.478 123.892C227.027 123.68 226.669 123.375 226.404 122.977C226.139 122.576 226.006 122.091 226.006 121.523C226.006 121.023 226.105 120.617 226.302 120.307C226.499 119.992 226.762 119.746 227.092 119.568C227.421 119.39 227.785 119.258 228.182 119.17C228.584 119.08 228.987 119.008 229.393 118.955C229.923 118.886 230.353 118.835 230.682 118.801C231.016 118.763 231.258 118.701 231.41 118.614C231.565 118.527 231.643 118.375 231.643 118.159V118.114C231.643 117.553 231.489 117.117 231.182 116.807C230.879 116.496 230.419 116.341 229.802 116.341C229.162 116.341 228.66 116.481 228.296 116.761C227.932 117.042 227.677 117.341 227.529 117.659L226.256 117.205C226.484 116.674 226.787 116.261 227.165 115.966C227.548 115.667 227.965 115.458 228.415 115.341C228.87 115.22 229.317 115.159 229.756 115.159C230.037 115.159 230.359 115.193 230.722 115.261C231.09 115.326 231.444 115.46 231.785 115.665C232.129 115.869 232.415 116.178 232.643 116.591C232.87 117.004 232.984 117.557 232.984 118.25V124H231.643V122.818H231.574C231.484 123.008 231.332 123.21 231.12 123.426C230.908 123.642 230.626 123.826 230.273 123.977C229.921 124.129 229.491 124.205 228.984 124.205ZM229.188 123C229.718 123 230.165 122.896 230.529 122.688C230.896 122.479 231.173 122.21 231.359 121.881C231.548 121.551 231.643 121.205 231.643 120.841V119.614C231.586 119.682 231.461 119.744 231.268 119.801C231.078 119.854 230.859 119.902 230.609 119.943C230.362 119.981 230.122 120.015 229.887 120.045C229.656 120.072 229.468 120.095 229.324 120.114C228.976 120.159 228.65 120.233 228.347 120.335C228.048 120.434 227.806 120.583 227.62 120.784C227.438 120.981 227.347 121.25 227.347 121.591C227.347 122.057 227.52 122.409 227.864 122.648C228.213 122.883 228.654 123 229.188 123ZM239.066 115.273V116.409H234.544V115.273H239.066ZM235.862 113.182H237.203V121.5C237.203 121.879 237.258 122.163 237.368 122.352C237.481 122.538 237.625 122.663 237.799 122.727C237.977 122.788 238.165 122.818 238.362 122.818C238.51 122.818 238.631 122.811 238.726 122.795C238.82 122.777 238.896 122.761 238.953 122.75L239.226 123.955C239.135 123.989 239.008 124.023 238.845 124.057C238.682 124.095 238.476 124.114 238.226 124.114C237.847 124.114 237.476 124.032 237.112 123.869C236.752 123.706 236.453 123.458 236.214 123.125C235.979 122.792 235.862 122.371 235.862 121.864V113.182ZM244.489 124.182C243.648 124.182 242.923 123.996 242.313 123.625C241.707 123.25 241.239 122.727 240.909 122.057C240.584 121.383 240.421 120.598 240.421 119.705C240.421 118.811 240.584 118.023 240.909 117.341C241.239 116.655 241.697 116.121 242.284 115.739C242.875 115.352 243.565 115.159 244.352 115.159C244.807 115.159 245.256 115.235 245.699 115.386C246.142 115.538 246.546 115.784 246.909 116.125C247.273 116.462 247.563 116.909 247.779 117.466C247.995 118.023 248.102 118.708 248.102 119.523V120.091H241.375V118.932H246.739C246.739 118.439 246.64 118 246.443 117.614C246.25 117.227 245.974 116.922 245.614 116.699C245.258 116.475 244.837 116.364 244.352 116.364C243.818 116.364 243.356 116.496 242.966 116.761C242.58 117.023 242.282 117.364 242.074 117.784C241.866 118.205 241.762 118.655 241.762 119.136V119.909C241.762 120.568 241.875 121.127 242.102 121.585C242.334 122.04 242.654 122.386 243.063 122.625C243.472 122.86 243.947 122.977 244.489 122.977C244.841 122.977 245.159 122.928 245.443 122.83C245.731 122.727 245.979 122.576 246.188 122.375C246.396 122.17 246.557 121.917 246.671 121.614L247.966 121.977C247.83 122.417 247.601 122.803 247.279 123.136C246.957 123.466 246.559 123.723 246.085 123.909C245.612 124.091 245.08 124.182 244.489 124.182ZM2.09091 150.273C1.86364 150.273 1.66098 150.254 1.48295 150.216C1.30492 150.182 1.18182 150.148 1.11364 150.114L1.45455 148.932C1.7803 149.015 2.06818 149.045 2.31818 149.023C2.56818 149 2.78977 148.888 2.98295 148.688C3.17992 148.491 3.35985 148.17 3.52273 147.727L3.77273 147.045L0.545455 138.273H2L4.40909 145.227H4.5L6.90909 138.273H8.36364L4.65909 148.273C4.49242 148.723 4.28598 149.097 4.03977 149.392C3.79356 149.691 3.50758 149.913 3.18182 150.057C2.85985 150.201 2.49621 150.273 2.09091 150.273ZM13.2065 147.182C12.4186 147.182 11.7273 146.994 11.1326 146.619C10.5417 146.244 10.0796 145.72 9.74625 145.045C9.4167 144.371 9.25193 143.583 9.25193 142.682C9.25193 141.773 9.4167 140.979 9.74625 140.301C10.0796 139.623 10.5417 139.097 11.1326 138.722C11.7273 138.347 12.4186 138.159 13.2065 138.159C13.9944 138.159 14.6838 138.347 15.2747 138.722C15.8694 139.097 16.3315 139.623 16.661 140.301C16.9944 140.979 17.161 141.773 17.161 142.682C17.161 143.583 16.9944 144.371 16.661 145.045C16.3315 145.72 15.8694 146.244 15.2747 146.619C14.6838 146.994 13.9944 147.182 13.2065 147.182ZM13.2065 145.977C13.805 145.977 14.2974 145.824 14.6838 145.517C15.0701 145.21 15.3561 144.807 15.5417 144.307C15.7273 143.807 15.8201 143.265 15.8201 142.682C15.8201 142.098 15.7273 141.555 15.5417 141.051C15.3561 140.547 15.0701 140.14 14.6838 139.83C14.2974 139.519 13.805 139.364 13.2065 139.364C12.608 139.364 12.1156 139.519 11.7292 139.83C11.3428 140.14 11.0569 140.547 10.8713 141.051C10.6856 141.555 10.5928 142.098 10.5928 142.682C10.5928 143.265 10.6856 143.807 10.8713 144.307C11.0569 144.807 11.3428 145.21 11.7292 145.517C12.1156 145.824 12.608 145.977 13.2065 145.977ZM24.5479 143.432V138.273H25.8888V147H24.5479V145.523H24.457C24.2524 145.966 23.9343 146.343 23.5024 146.653C23.0706 146.96 22.5252 147.114 21.8661 147.114C21.3206 147.114 20.8358 146.994 20.4115 146.756C19.9873 146.513 19.654 146.15 19.4115 145.665C19.1691 145.176 19.0479 144.561 19.0479 143.818V138.273H20.3888V143.727C20.3888 144.364 20.5668 144.871 20.9229 145.25C21.2827 145.629 21.7411 145.818 22.2979 145.818C22.6312 145.818 22.9702 145.733 23.3149 145.562C23.6634 145.392 23.9551 145.131 24.1899 144.778C24.4286 144.426 24.5479 143.977 24.5479 143.432ZM28.1848 147V138.273H29.4802V139.591H29.5711C29.7302 139.159 30.0181 138.809 30.4348 138.54C30.8514 138.271 31.3211 138.136 31.8439 138.136C31.9423 138.136 32.0655 138.138 32.2132 138.142C32.3609 138.146 32.4727 138.152 32.5484 138.159V139.523C32.503 139.511 32.3988 139.494 32.2359 139.472C32.0768 139.445 31.9083 139.432 31.7302 139.432C31.306 139.432 30.9272 139.521 30.5939 139.699C30.2643 139.873 30.003 140.116 29.8098 140.426C29.6204 140.733 29.5257 141.083 29.5257 141.477V147H28.1848ZM41.977 147.182C41.1361 147.182 40.4107 146.996 39.8009 146.625C39.1948 146.25 38.727 145.727 38.3974 145.057C38.0717 144.383 37.9088 143.598 37.9088 142.705C37.9088 141.811 38.0717 141.023 38.3974 140.341C38.727 139.655 39.1853 139.121 39.7724 138.739C40.3634 138.352 41.0527 138.159 41.8406 138.159C42.2952 138.159 42.744 138.235 43.1872 138.386C43.6304 138.538 44.0338 138.784 44.3974 139.125C44.7611 139.462 45.0509 139.909 45.2668 140.466C45.4827 141.023 45.5906 141.708 45.5906 142.523V143.091H38.8634V141.932H44.227C44.227 141.439 44.1285 141 43.9315 140.614C43.7384 140.227 43.4618 139.922 43.102 139.699C42.7459 139.475 42.3255 139.364 41.8406 139.364C41.3065 139.364 40.8444 139.496 40.4543 139.761C40.0679 140.023 39.7706 140.364 39.5622 140.784C39.3539 141.205 39.2497 141.655 39.2497 142.136V142.909C39.2497 143.568 39.3634 144.127 39.5906 144.585C39.8217 145.04 40.1418 145.386 40.5509 145.625C40.9599 145.86 41.4353 145.977 41.977 145.977C42.3293 145.977 42.6474 145.928 42.9315 145.83C43.2194 145.727 43.4675 145.576 43.6759 145.375C43.8842 145.17 44.0452 144.917 44.1588 144.614L45.4543 144.977C45.3179 145.417 45.0887 145.803 44.7668 146.136C44.4448 146.466 44.0471 146.723 43.5736 146.909C43.1001 147.091 42.5679 147.182 41.977 147.182ZM51.3568 138.273V139.409H46.6522V138.273H51.3568ZM48.0613 147V137.068C48.0613 136.568 48.1787 136.152 48.4136 135.818C48.6484 135.485 48.9534 135.235 49.3284 135.068C49.7034 134.902 50.0992 134.818 50.5159 134.818C50.8454 134.818 51.1143 134.845 51.3227 134.898C51.531 134.951 51.6863 135 51.7886 135.045L51.4022 136.205C51.334 136.182 51.2393 136.153 51.1181 136.119C51.0007 136.085 50.8454 136.068 50.6522 136.068C50.209 136.068 49.889 136.18 49.692 136.403C49.4988 136.627 49.4022 136.955 49.4022 137.386V147H48.0613ZM56.9624 138.273V139.409H52.2578V138.273H56.9624ZM53.6669 147V137.068C53.6669 136.568 53.7844 136.152 54.0192 135.818C54.2541 135.485 54.559 135.235 54.934 135.068C55.309 134.902 55.7048 134.818 56.1215 134.818C56.451 134.818 56.72 134.845 56.9283 134.898C57.1366 134.951 57.2919 135 57.3942 135.045L57.0078 136.205C56.9397 136.182 56.845 136.153 56.7238 136.119C56.6063 136.085 56.451 136.068 56.2578 136.068C55.8147 136.068 55.4946 136.18 55.2976 136.403C55.1044 136.627 55.0078 136.955 55.0078 137.386V147H53.6669ZM61.8677 147.182C61.0798 147.182 60.3886 146.994 59.7939 146.619C59.203 146.244 58.7408 145.72 58.4075 145.045C58.078 144.371 57.9132 143.583 57.9132 142.682C57.9132 141.773 58.078 140.979 58.4075 140.301C58.7408 139.623 59.203 139.097 59.7939 138.722C60.3886 138.347 61.0798 138.159 61.8677 138.159C62.6556 138.159 63.345 138.347 63.9359 138.722C64.5306 139.097 64.9927 139.623 65.3223 140.301C65.6556 140.979 65.8223 141.773 65.8223 142.682C65.8223 143.583 65.6556 144.371 65.3223 145.045C64.9927 145.72 64.5306 146.244 63.9359 146.619C63.345 146.994 62.6556 147.182 61.8677 147.182ZM61.8677 145.977C62.4662 145.977 62.9586 145.824 63.345 145.517C63.7314 145.21 64.0173 144.807 64.203 144.307C64.3886 143.807 64.4814 143.265 64.4814 142.682C64.4814 142.098 64.3886 141.555 64.203 141.051C64.0173 140.547 63.7314 140.14 63.345 139.83C62.9586 139.519 62.4662 139.364 61.8677 139.364C61.2692 139.364 60.7768 139.519 60.3905 139.83C60.0041 140.14 59.7181 140.547 59.5325 141.051C59.3469 141.555 59.2541 142.098 59.2541 142.682C59.2541 143.265 59.3469 143.807 59.5325 144.307C59.7181 144.807 60.0041 145.21 60.3905 145.517C60.7768 145.824 61.2692 145.977 61.8677 145.977ZM67.7091 147V138.273H69.0046V139.591H69.0955C69.2546 139.159 69.5425 138.809 69.9591 138.54C70.3758 138.271 70.8455 138.136 71.3682 138.136C71.4667 138.136 71.5898 138.138 71.7376 138.142C71.8853 138.146 71.997 138.152 72.0728 138.159V139.523C72.0273 139.511 71.9232 139.494 71.7603 139.472C71.6012 139.445 71.4326 139.432 71.2546 139.432C70.8304 139.432 70.4516 139.521 70.1182 139.699C69.7887 139.873 69.5273 140.116 69.3341 140.426C69.1448 140.733 69.0501 141.083 69.0501 141.477V147H67.7091ZM77.8446 138.273V139.409H73.3219V138.273H77.8446ZM74.6401 136.182H75.981V144.5C75.981 144.879 76.0359 145.163 76.1457 145.352C76.2594 145.538 76.4033 145.663 76.5776 145.727C76.7556 145.788 76.9431 145.818 77.1401 145.818C77.2878 145.818 77.409 145.811 77.5037 145.795C77.5984 145.777 77.6741 145.761 77.731 145.75L78.0037 146.955C77.9128 146.989 77.7859 147.023 77.623 147.057C77.4601 147.095 77.2537 147.114 77.0037 147.114C76.6249 147.114 76.2537 147.032 75.8901 146.869C75.5302 146.706 75.231 146.458 74.9923 146.125C74.7575 145.792 74.6401 145.371 74.6401 144.864V136.182ZM85.7272 140.227L84.5227 140.568C84.4469 140.367 84.3352 140.172 84.1874 139.983C84.0435 139.79 83.8465 139.631 83.5965 139.506C83.3465 139.381 83.0265 139.318 82.6363 139.318C82.1022 139.318 81.6571 139.441 81.3011 139.688C80.9488 139.93 80.7727 140.239 80.7727 140.614C80.7727 140.947 80.8939 141.21 81.1363 141.403C81.3787 141.597 81.7575 141.758 82.2727 141.886L83.5681 142.205C84.3484 142.394 84.9299 142.684 85.3124 143.074C85.695 143.46 85.8863 143.958 85.8863 144.568C85.8863 145.068 85.7424 145.515 85.4545 145.909C85.1704 146.303 84.7727 146.614 84.2613 146.841C83.7499 147.068 83.1552 147.182 82.4772 147.182C81.5871 147.182 80.8503 146.989 80.267 146.602C79.6837 146.216 79.3143 145.652 79.159 144.909L80.4318 144.591C80.553 145.061 80.7821 145.413 81.1193 145.648C81.4602 145.883 81.9052 146 82.4545 146C83.0795 146 83.5757 145.867 83.9431 145.602C84.3143 145.333 84.4999 145.011 84.4999 144.636C84.4999 144.333 84.3939 144.08 84.1818 143.875C83.9696 143.667 83.6439 143.511 83.2045 143.409L81.7499 143.068C80.9507 142.879 80.3636 142.585 79.9886 142.188C79.6174 141.786 79.4318 141.284 79.4318 140.682C79.4318 140.189 79.57 139.754 79.8465 139.375C80.1268 138.996 80.5075 138.699 80.9886 138.483C81.4734 138.267 82.0227 138.159 82.6363 138.159C83.4999 138.159 84.178 138.348 84.6704 138.727C85.1666 139.106 85.5189 139.606 85.7272 140.227ZM95.7439 147.182C94.903 147.182 94.1776 146.996 93.5677 146.625C92.9617 146.25 92.4939 145.727 92.1643 145.057C91.8386 144.383 91.6757 143.598 91.6757 142.705C91.6757 141.811 91.8386 141.023 92.1643 140.341C92.4939 139.655 92.9522 139.121 93.5393 138.739C94.1302 138.352 94.8196 138.159 95.6075 138.159C96.062 138.159 96.5109 138.235 96.9541 138.386C97.3973 138.538 97.8007 138.784 98.1643 139.125C98.528 139.462 98.8177 139.909 99.0336 140.466C99.2495 141.023 99.3575 141.708 99.3575 142.523V143.091H92.6302V141.932H97.9939C97.9939 141.439 97.8954 141 97.6984 140.614C97.5052 140.227 97.2287 139.922 96.8689 139.699C96.5128 139.475 96.0923 139.364 95.6075 139.364C95.0734 139.364 94.6113 139.496 94.2211 139.761C93.8348 140.023 93.5374 140.364 93.3291 140.784C93.1208 141.205 93.0166 141.655 93.0166 142.136V142.909C93.0166 143.568 93.1302 144.127 93.3575 144.585C93.5886 145.04 93.9086 145.386 94.3177 145.625C94.7268 145.86 95.2022 145.977 95.7439 145.977C96.0961 145.977 96.4143 145.928 96.6984 145.83C96.9863 145.727 97.2344 145.576 97.4427 145.375C97.6511 145.17 97.812 144.917 97.9257 144.614L99.2211 144.977C99.0848 145.417 98.8556 145.803 98.5336 146.136C98.2117 146.466 97.8139 146.723 97.3405 146.909C96.867 147.091 96.3348 147.182 95.7439 147.182ZM108.108 138.273L104.881 147H103.517L100.29 138.273H101.744L104.153 145.227H104.244L106.653 138.273H108.108ZM113.064 147.182C112.224 147.182 111.498 146.996 110.888 146.625C110.282 146.25 109.814 145.727 109.485 145.057C109.159 144.383 108.996 143.598 108.996 142.705C108.996 141.811 109.159 141.023 109.485 140.341C109.814 139.655 110.273 139.121 110.86 138.739C111.451 138.352 112.14 138.159 112.928 138.159C113.383 138.159 113.832 138.235 114.275 138.386C114.718 138.538 115.121 138.784 115.485 139.125C115.849 139.462 116.138 139.909 116.354 140.466C116.57 141.023 116.678 141.708 116.678 142.523V143.091H109.951V141.932H115.314C115.314 141.439 115.216 141 115.019 140.614C114.826 140.227 114.549 139.922 114.189 139.699C113.833 139.475 113.413 139.364 112.928 139.364C112.394 139.364 111.932 139.496 111.542 139.761C111.155 140.023 110.858 140.364 110.65 140.784C110.441 141.205 110.337 141.655 110.337 142.136V142.909C110.337 143.568 110.451 144.127 110.678 144.585C110.909 145.04 111.229 145.386 111.638 145.625C112.047 145.86 112.523 145.977 113.064 145.977C113.417 145.977 113.735 145.928 114.019 145.83C114.307 145.727 114.555 145.576 114.763 145.375C114.972 145.17 115.133 144.917 115.246 144.614L116.542 144.977C116.405 145.417 116.176 145.803 115.854 146.136C115.532 146.466 115.135 146.723 114.661 146.909C114.188 147.091 113.655 147.182 113.064 147.182ZM118.558 147V138.273H119.853V139.591H119.944C120.103 139.159 120.391 138.809 120.808 138.54C121.225 138.271 121.694 138.136 122.217 138.136C122.315 138.136 122.439 138.138 122.586 138.142C122.734 138.146 122.846 138.152 122.922 138.159V139.523C122.876 139.511 122.772 139.494 122.609 139.472C122.45 139.445 122.281 139.432 122.103 139.432C121.679 139.432 121.3 139.521 120.967 139.699C120.637 139.873 120.376 140.116 120.183 140.426C119.994 140.733 119.899 141.083 119.899 141.477V147H118.558ZM125.48 150.273C125.253 150.273 125.05 150.254 124.872 150.216C124.694 150.182 124.571 150.148 124.503 150.114L124.844 148.932C125.17 149.015 125.458 149.045 125.708 149.023C125.958 149 126.179 148.888 126.372 148.688C126.569 148.491 126.749 148.17 126.912 147.727L127.162 147.045L123.935 138.273H125.389L127.798 145.227H127.889L130.298 138.273H131.753L128.048 148.273C127.882 148.723 127.675 149.097 127.429 149.392C127.183 149.691 126.897 149.913 126.571 150.057C126.249 150.201 125.886 150.273 125.48 150.273ZM136.346 147.182C135.619 147.182 134.977 146.998 134.42 146.631C133.863 146.259 133.427 145.737 133.113 145.062C132.798 144.384 132.641 143.583 132.641 142.659C132.641 141.742 132.798 140.947 133.113 140.273C133.427 139.598 133.865 139.078 134.425 138.71C134.986 138.343 135.634 138.159 136.369 138.159C136.937 138.159 137.386 138.254 137.715 138.443C138.048 138.629 138.302 138.841 138.477 139.08C138.655 139.314 138.793 139.508 138.891 139.659H139.005V135.364H140.346V147H139.05V145.659H138.891C138.793 145.818 138.653 146.019 138.471 146.261C138.289 146.5 138.03 146.714 137.692 146.903C137.355 147.089 136.906 147.182 136.346 147.182ZM136.528 145.977C137.066 145.977 137.52 145.837 137.891 145.557C138.263 145.273 138.545 144.881 138.738 144.381C138.931 143.877 139.028 143.295 139.028 142.636C139.028 141.985 138.933 141.415 138.744 140.926C138.554 140.434 138.274 140.051 137.903 139.778C137.531 139.502 137.073 139.364 136.528 139.364C135.959 139.364 135.486 139.509 135.107 139.801C134.732 140.089 134.45 140.481 134.261 140.977C134.075 141.47 133.982 142.023 133.982 142.636C133.982 143.258 134.077 143.822 134.266 144.33C134.459 144.833 134.744 145.235 135.119 145.534C135.497 145.83 135.967 145.977 136.528 145.977ZM145.396 147.205C144.843 147.205 144.341 147.1 143.89 146.892C143.44 146.68 143.082 146.375 142.817 145.977C142.551 145.576 142.419 145.091 142.419 144.523C142.419 144.023 142.517 143.617 142.714 143.307C142.911 142.992 143.174 142.746 143.504 142.568C143.834 142.39 144.197 142.258 144.595 142.17C144.996 142.08 145.4 142.008 145.805 141.955C146.335 141.886 146.765 141.835 147.095 141.801C147.428 141.763 147.671 141.701 147.822 141.614C147.978 141.527 148.055 141.375 148.055 141.159V141.114C148.055 140.553 147.902 140.117 147.595 139.807C147.292 139.496 146.832 139.341 146.214 139.341C145.574 139.341 145.072 139.481 144.709 139.761C144.345 140.042 144.089 140.341 143.942 140.659L142.669 140.205C142.896 139.674 143.199 139.261 143.578 138.966C143.96 138.667 144.377 138.458 144.828 138.341C145.282 138.22 145.729 138.159 146.169 138.159C146.449 138.159 146.771 138.193 147.135 138.261C147.502 138.326 147.856 138.46 148.197 138.665C148.542 138.869 148.828 139.178 149.055 139.591C149.282 140.004 149.396 140.557 149.396 141.25V147H148.055V145.818H147.987C147.896 146.008 147.745 146.21 147.532 146.426C147.32 146.642 147.038 146.826 146.686 146.977C146.334 147.129 145.904 147.205 145.396 147.205ZM145.601 146C146.131 146 146.578 145.896 146.942 145.688C147.309 145.479 147.585 145.21 147.771 144.881C147.96 144.551 148.055 144.205 148.055 143.841V142.614C147.998 142.682 147.873 142.744 147.68 142.801C147.491 142.854 147.271 142.902 147.021 142.943C146.775 142.981 146.534 143.015 146.299 143.045C146.068 143.072 145.881 143.095 145.737 143.114C145.389 143.159 145.063 143.233 144.76 143.335C144.46 143.434 144.218 143.583 144.032 143.784C143.851 143.981 143.76 144.25 143.76 144.591C143.76 145.057 143.932 145.409 144.277 145.648C144.625 145.883 145.067 146 145.601 146ZM152.235 150.273C152.007 150.273 151.805 150.254 151.627 150.216C151.449 150.182 151.326 150.148 151.257 150.114L151.598 148.932C151.924 149.015 152.212 149.045 152.462 149.023C152.712 149 152.934 148.888 153.127 148.688C153.324 148.491 153.504 148.17 153.666 147.727L153.916 147.045L150.689 138.273H152.144L154.553 145.227H154.644L157.053 138.273H158.507L154.803 148.273C154.636 148.723 154.43 149.097 154.184 149.392C153.937 149.691 153.651 149.913 153.326 150.057C153.004 150.201 152.64 150.273 152.235 150.273ZM160.548 147.091C160.267 147.091 160.027 146.991 159.826 146.79C159.625 146.589 159.525 146.348 159.525 146.068C159.525 145.788 159.625 145.547 159.826 145.347C160.027 145.146 160.267 145.045 160.548 145.045C160.828 145.045 161.069 145.146 161.269 145.347C161.47 145.547 161.57 145.788 161.57 146.068C161.57 146.254 161.523 146.424 161.428 146.58C161.337 146.735 161.214 146.86 161.059 146.955C160.908 147.045 160.737 147.091 160.548 147.091Z" fill="black"/>
<path d="M0.409091 179V167.364H1.81818V177.75H7.22727V179H0.409091ZM12.7264 179.182C11.8855 179.182 11.1601 178.996 10.5502 178.625C9.94417 178.25 9.47636 177.727 9.14682 177.057C8.82106 176.383 8.65818 175.598 8.65818 174.705C8.65818 173.811 8.82106 173.023 9.14682 172.341C9.47636 171.655 9.9347 171.121 10.5218 170.739C11.1127 170.352 11.8021 170.159 12.59 170.159C13.0445 170.159 13.4934 170.235 13.9366 170.386C14.3798 170.538 14.7832 170.784 15.1468 171.125C15.5105 171.462 15.8002 171.909 16.0161 172.466C16.232 173.023 16.34 173.708 16.34 174.523V175.091H9.61273V173.932H14.9764C14.9764 173.439 14.8779 173 14.6809 172.614C14.4877 172.227 14.2112 171.922 13.8514 171.699C13.4953 171.475 13.0748 171.364 12.59 171.364C12.0559 171.364 11.5938 171.496 11.2036 171.761C10.8173 172.023 10.5199 172.364 10.3116 172.784C10.1033 173.205 9.99909 173.655 9.99909 174.136V174.909C9.99909 175.568 10.1127 176.127 10.34 176.585C10.5711 177.04 10.8911 177.386 11.3002 177.625C11.7093 177.86 12.1847 177.977 12.7264 177.977C13.0786 177.977 13.3968 177.928 13.6809 177.83C13.9688 177.727 14.2169 177.576 14.4252 177.375C14.6336 177.17 14.7945 176.917 14.9082 176.614L16.2036 176.977C16.0673 177.417 15.8381 177.803 15.5161 178.136C15.1942 178.466 14.7964 178.723 14.323 178.909C13.8495 179.091 13.3173 179.182 12.7264 179.182ZM20.788 179.205C20.2349 179.205 19.733 179.1 19.2823 178.892C18.8315 178.68 18.4736 178.375 18.2084 177.977C17.9433 177.576 17.8107 177.091 17.8107 176.523C17.8107 176.023 17.9092 175.617 18.1061 175.307C18.3031 174.992 18.5664 174.746 18.8959 174.568C19.2255 174.39 19.5891 174.258 19.9868 174.17C20.3883 174.08 20.7917 174.008 21.197 173.955C21.7273 173.886 22.1573 173.835 22.4868 173.801C22.8202 173.763 23.0626 173.701 23.2141 173.614C23.3694 173.527 23.447 173.375 23.447 173.159V173.114C23.447 172.553 23.2936 172.117 22.9868 171.807C22.6838 171.496 22.2236 171.341 21.6061 171.341C20.966 171.341 20.4641 171.481 20.1005 171.761C19.7368 172.042 19.4811 172.341 19.3334 172.659L18.0607 172.205C18.288 171.674 18.591 171.261 18.9698 170.966C19.3523 170.667 19.769 170.458 20.2198 170.341C20.6743 170.22 21.1213 170.159 21.5607 170.159C21.841 170.159 22.163 170.193 22.5266 170.261C22.894 170.326 23.2482 170.46 23.5891 170.665C23.9338 170.869 24.2198 171.178 24.447 171.591C24.6743 172.004 24.788 172.557 24.788 173.25V179H23.447V177.818H23.3789C23.288 178.008 23.1364 178.21 22.9243 178.426C22.7122 178.642 22.43 178.826 22.0777 178.977C21.7255 179.129 21.2955 179.205 20.788 179.205ZM20.9925 178C21.5228 178 21.9698 177.896 22.3334 177.688C22.7008 177.479 22.9773 177.21 23.163 176.881C23.3523 176.551 23.447 176.205 23.447 175.841V174.614C23.3902 174.682 23.2652 174.744 23.072 174.801C22.8827 174.854 22.663 174.902 22.413 174.943C22.1667 174.981 21.9262 175.015 21.6914 175.045C21.4603 175.072 21.2728 175.095 21.1289 175.114C20.7804 175.159 20.4546 175.233 20.1516 175.335C19.8523 175.434 19.6099 175.583 19.4243 175.784C19.2425 175.981 19.1516 176.25 19.1516 176.591C19.1516 177.057 19.3239 177.409 19.6686 177.648C20.0171 177.883 20.4584 178 20.9925 178ZM27.0754 179V170.273H28.3709V171.591H28.4618C28.6209 171.159 28.9087 170.809 29.3254 170.54C29.7421 170.271 30.2118 170.136 30.7345 170.136C30.833 170.136 30.9561 170.138 31.1038 170.142C31.2515 170.146 31.3633 170.152 31.439 170.159V171.523C31.3936 171.511 31.2894 171.494 31.1265 171.472C30.9674 171.445 30.7989 171.432 30.6209 171.432C30.1966 171.432 29.8178 171.521 29.4845 171.699C29.1549 171.873 28.8936 172.116 28.7004 172.426C28.511 172.733 28.4163 173.083 28.4163 173.477V179H27.0754ZM34.2094 173.75V179H32.8685V170.273H34.164V171.636H34.2776C34.4822 171.193 34.7928 170.837 35.2094 170.568C35.6261 170.295 36.164 170.159 36.8231 170.159C37.414 170.159 37.931 170.28 38.3742 170.523C38.8174 170.761 39.1621 171.125 39.4083 171.614C39.6545 172.098 39.7776 172.712 39.7776 173.455V179H38.4367V173.545C38.4367 172.86 38.2587 172.326 37.9026 171.943C37.5466 171.557 37.0579 171.364 36.4367 171.364C36.0087 171.364 35.6261 171.456 35.289 171.642C34.9556 171.828 34.6924 172.098 34.4992 172.455C34.306 172.811 34.2094 173.242 34.2094 173.75ZM46.4079 179V170.273H47.7034V171.636H47.817C47.9988 171.17 48.2924 170.809 48.6977 170.551C49.103 170.29 49.5897 170.159 50.1579 170.159C50.7337 170.159 51.2128 170.29 51.5954 170.551C51.9818 170.809 52.2829 171.17 52.4988 171.636H52.5897C52.8132 171.186 53.1484 170.828 53.5954 170.562C54.0424 170.294 54.5784 170.159 55.2034 170.159C55.9837 170.159 56.6219 170.403 57.1181 170.892C57.6143 171.377 57.8624 172.133 57.8624 173.159V179H56.5215V173.159C56.5215 172.515 56.3454 172.055 55.9931 171.778C55.6409 171.502 55.2261 171.364 54.7488 171.364C54.1352 171.364 53.6598 171.549 53.3227 171.92C52.9856 172.288 52.817 172.754 52.817 173.318V179H51.4534V173.023C51.4534 172.527 51.2924 172.127 50.9704 171.824C50.6484 171.517 50.2337 171.364 49.7261 171.364C49.3776 171.364 49.0518 171.456 48.7488 171.642C48.4496 171.828 48.2071 172.085 48.0215 172.415C47.8397 172.741 47.7488 173.117 47.7488 173.545V179H46.4079ZM63.6996 179.182C62.9117 179.182 62.2204 178.994 61.6257 178.619C61.0348 178.244 60.5727 177.72 60.2394 177.045C59.9098 176.371 59.7451 175.583 59.7451 174.682C59.7451 173.773 59.9098 172.979 60.2394 172.301C60.5727 171.623 61.0348 171.097 61.6257 170.722C62.2204 170.347 62.9117 170.159 63.6996 170.159C64.4875 170.159 65.1769 170.347 65.7678 170.722C66.3625 171.097 66.8246 171.623 67.1541 172.301C67.4875 172.979 67.6541 173.773 67.6541 174.682C67.6541 175.583 67.4875 176.371 67.1541 177.045C66.8246 177.72 66.3625 178.244 65.7678 178.619C65.1769 178.994 64.4875 179.182 63.6996 179.182ZM63.6996 177.977C64.2981 177.977 64.7905 177.824 65.1769 177.517C65.5632 177.21 65.8492 176.807 66.0348 176.307C66.2204 175.807 66.3132 175.265 66.3132 174.682C66.3132 174.098 66.2204 173.555 66.0348 173.051C65.8492 172.547 65.5632 172.14 65.1769 171.83C64.7905 171.519 64.2981 171.364 63.6996 171.364C63.1011 171.364 62.6087 171.519 62.2223 171.83C61.836 172.14 61.55 172.547 61.3644 173.051C61.1788 173.555 61.086 174.098 61.086 174.682C61.086 175.265 61.1788 175.807 61.3644 176.307C61.55 176.807 61.836 177.21 62.2223 177.517C62.6087 177.824 63.1011 177.977 63.6996 177.977ZM69.541 179V170.273H70.8365V171.591H70.9274C71.0865 171.159 71.3744 170.809 71.791 170.54C72.2077 170.271 72.6774 170.136 73.2001 170.136C73.2986 170.136 73.4217 170.138 73.5694 170.142C73.7172 170.146 73.8289 170.152 73.9047 170.159V171.523C73.8592 171.511 73.755 171.494 73.5922 171.472C73.4331 171.445 73.2645 171.432 73.0865 171.432C72.6622 171.432 72.2834 171.521 71.9501 171.699C71.6206 171.873 71.3592 172.116 71.166 172.426C70.9766 172.733 70.8819 173.083 70.8819 173.477V179H69.541ZM78.7276 179.182C77.8867 179.182 77.1613 178.996 76.5515 178.625C75.9454 178.25 75.4776 177.727 75.1481 177.057C74.8223 176.383 74.6594 175.598 74.6594 174.705C74.6594 173.811 74.8223 173.023 75.1481 172.341C75.4776 171.655 75.9359 171.121 76.5231 170.739C77.114 170.352 77.8034 170.159 78.5912 170.159C79.0458 170.159 79.4947 170.235 79.9378 170.386C80.381 170.538 80.7844 170.784 81.1481 171.125C81.5117 171.462 81.8015 171.909 82.0174 172.466C82.2333 173.023 82.3412 173.708 82.3412 174.523V175.091H75.614V173.932H80.9776C80.9776 173.439 80.8791 173 80.6822 172.614C80.489 172.227 80.2125 171.922 79.8526 171.699C79.4966 171.475 79.0761 171.364 78.5912 171.364C78.0572 171.364 77.595 171.496 77.2049 171.761C76.8185 172.023 76.5212 172.364 76.3128 172.784C76.1045 173.205 76.0003 173.655 76.0003 174.136V174.909C76.0003 175.568 76.114 176.127 76.3412 176.585C76.5723 177.04 76.8924 177.386 77.3015 177.625C77.7106 177.86 78.1859 177.977 78.7276 177.977C79.0799 177.977 79.3981 177.928 79.6822 177.83C79.97 177.727 80.2181 177.576 80.4265 177.375C80.6348 177.17 80.7958 176.917 80.9094 176.614L82.2049 176.977C82.0685 177.417 81.8394 177.803 81.5174 178.136C81.1954 178.466 80.7977 178.723 80.3242 178.909C79.8507 179.091 79.3185 179.182 78.7276 179.182Z" fill="black"/>
<path d="M104.031 174.031L99.5306 178.531C99.3897 178.672 99.1986 178.751 98.9994 178.751C98.8001 178.751 98.609 178.672 98.4681 178.531C98.3272 178.39 98.2481 178.199 98.2481 177.999C98.2481 177.8 98.3272 177.609 98.4681 177.468L101.688 174.25H92.5C92.3011 174.25 92.1103 174.171 91.9697 174.03C91.829 173.89 91.75 173.699 91.75 173.5C91.75 173.301 91.829 173.11 91.9697 172.97C92.1103 172.829 92.3011 172.75 92.5 172.75H101.688L98.4694 169.53C98.3285 169.389 98.2493 169.198 98.2493 168.999C98.2493 168.799 98.3285 168.608 98.4694 168.467C98.6103 168.327 98.8014 168.247 99.0006 168.247C99.1999 168.247 99.391 168.327 99.5319 168.467L104.032 172.967C104.102 173.037 104.157 173.12 104.195 173.211C104.233 173.303 104.252 173.401 104.252 173.499C104.252 173.598 104.232 173.696 104.194 173.787C104.156 173.878 104.101 173.961 104.031 174.031Z" fill="black"/>
</svg>
