<svg width="144" height="60" viewBox="0 0 144 60" fill="none" xmlns="http://www.w3.org/2000/svg">
<path d="M14.256 52.698V48.54C10.764 48.144 7.92 46.92 5.724 44.868C3.528 42.816 2.394 40.062 2.322 36.606H9.612C9.684 38.046 10.116 39.306 10.908 40.386C11.736 41.466 12.852 42.204 14.256 42.6V31.206C13.932 31.098 13.59 30.99 13.23 30.882C12.906 30.774 12.564 30.666 12.204 30.558C9.288 29.55 7.056 28.254 5.508 26.67C3.996 25.086 3.24 22.98 3.24 20.352C3.204 17.256 4.212 14.772 6.264 12.9C8.316 10.992 10.98 9.894 14.256 9.606V5.232H17.874V9.66C21.114 9.984 23.724 11.118 25.704 13.062C27.72 14.97 28.782 17.436 28.89 20.46H21.492C21.456 19.416 21.114 18.462 20.466 17.598C19.854 16.698 18.99 16.068 17.874 15.708V25.752C18.162 25.86 18.45 25.968 18.738 26.076C19.026 26.148 19.314 26.238 19.602 26.346C21.474 26.994 23.184 27.75 24.732 28.614C26.28 29.478 27.522 30.63 28.458 32.07C29.394 33.474 29.862 35.292 29.862 37.524C29.862 39.396 29.394 41.142 28.458 42.762C27.558 44.382 26.208 45.732 24.408 46.812C22.644 47.856 20.466 48.45 17.874 48.594V52.698H14.256ZM10.476 19.866C10.476 21.018 10.818 21.954 11.502 22.674C12.186 23.358 13.104 23.952 14.256 24.456V15.492C13.14 15.708 12.222 16.194 11.502 16.95C10.818 17.706 10.476 18.678 10.476 19.866ZM22.518 38.01C22.518 36.57 22.086 35.436 21.222 34.608C20.358 33.78 19.242 33.078 17.874 32.502V42.762C19.314 42.546 20.448 42.024 21.276 41.196C22.104 40.368 22.518 39.306 22.518 38.01ZM45.5587 48.648C42.9307 48.648 40.7167 48.144 38.9167 47.136C37.1167 46.092 35.7127 44.742 34.7047 43.086C33.6967 41.43 33.1027 39.648 32.9227 37.74H39.3487C39.6367 39.396 40.3207 40.674 41.4007 41.574C42.5167 42.474 43.9207 42.924 45.6127 42.924C48.0247 42.924 49.9687 41.826 51.4447 39.63C52.9207 37.398 53.7127 34.014 53.8207 29.478C52.9567 30.954 51.6427 32.178 49.8787 33.15C48.1507 34.122 46.2427 34.608 44.1547 34.608C42.0667 34.608 40.1047 34.104 38.2687 33.096C36.4327 32.088 34.9387 30.666 33.7867 28.83C32.6347 26.994 32.0587 24.834 32.0587 22.35C32.0587 20.082 32.6167 17.976 33.7327 16.032C34.8487 14.088 36.3967 12.522 38.3767 11.334C40.3567 10.146 42.6787 9.552 45.3427 9.552C48.1867 9.552 50.5807 10.074 52.5247 11.118C54.4687 12.162 56.0167 13.566 57.1687 15.33C58.3567 17.094 59.2027 19.056 59.7067 21.216C60.2467 23.376 60.5167 25.59 60.5167 27.858C60.5167 32.07 59.9227 35.742 58.7347 38.874C57.5827 41.97 55.8727 44.382 53.6047 46.11C51.3727 47.802 48.6907 48.648 45.5587 48.648ZM45.7747 28.776C47.1067 28.776 48.3127 28.488 49.3927 27.912C50.4727 27.3 51.3187 26.508 51.9307 25.536C52.5427 24.528 52.8487 23.412 52.8487 22.188C52.8487 20.244 52.1647 18.642 50.7967 17.382C49.4647 16.122 47.7727 15.492 45.7207 15.492C43.7047 15.492 42.0307 16.122 40.6987 17.382C39.3667 18.606 38.7007 20.172 38.7007 22.08C38.7007 24.096 39.3667 25.716 40.6987 26.94C42.0307 28.164 43.7227 28.776 45.7747 28.776Z" fill="white"/>
<path d="M68.414 48.3901L72.914 32.4061H75.164L70.646 48.3901H68.414ZM75.8542 46.3921V37.4641H77.8882L78.0862 38.6701C78.3742 38.2381 78.7522 37.8961 79.2202 37.6441C79.7002 37.3801 80.2522 37.2481 80.8762 37.2481C82.2562 37.2481 83.2342 37.7821 83.8102 38.8501C84.1342 38.3581 84.5662 37.9681 85.1062 37.6801C85.6582 37.3921 86.2582 37.2481 86.9062 37.2481C88.0702 37.2481 88.9642 37.5961 89.5882 38.2921C90.2122 38.9881 90.5242 40.0081 90.5242 41.3521V46.3921H88.2202V41.5681C88.2202 40.8001 88.0702 40.2121 87.7702 39.8041C87.4822 39.3961 87.0322 39.1921 86.4202 39.1921C85.7962 39.1921 85.2922 39.4201 84.9082 39.8761C84.5362 40.3321 84.3502 40.9681 84.3502 41.7841V46.3921H82.0462V41.5681C82.0462 40.8001 81.8962 40.2121 81.5962 39.8041C81.2962 39.3961 80.8342 39.1921 80.2102 39.1921C79.5982 39.1921 79.1002 39.4201 78.7162 39.8761C78.3442 40.3321 78.1582 40.9681 78.1582 41.7841V46.3921H75.8542ZM96.4376 46.6081C95.5736 46.6081 94.7936 46.4101 94.0976 46.0141C93.4136 45.6181 92.8676 45.0721 92.4596 44.3761C92.0636 43.6681 91.8656 42.8521 91.8656 41.9281C91.8656 41.0041 92.0696 40.1941 92.4776 39.4981C92.8856 38.7901 93.4316 38.2381 94.1156 37.8421C94.8116 37.4461 95.5916 37.2481 96.4556 37.2481C97.3076 37.2481 98.0756 37.4461 98.7596 37.8421C99.4556 38.2381 100.002 38.7901 100.398 39.4981C100.806 40.1941 101.01 41.0041 101.01 41.9281C101.01 42.8521 100.806 43.6681 100.398 44.3761C100.002 45.0721 99.4556 45.6181 98.7596 46.0141C98.0636 46.4101 97.2896 46.6081 96.4376 46.6081ZM96.4376 44.6101C97.0376 44.6101 97.5596 44.3881 98.0036 43.9441C98.4476 43.4881 98.6696 42.8161 98.6696 41.9281C98.6696 41.0401 98.4476 40.3741 98.0036 39.9301C97.5596 39.4741 97.0436 39.2461 96.4556 39.2461C95.8436 39.2461 95.3156 39.4741 94.8716 39.9301C94.4396 40.3741 94.2236 41.0401 94.2236 41.9281C94.2236 42.8161 94.4396 43.4881 94.8716 43.9441C95.3156 44.3881 95.8376 44.6101 96.4376 44.6101ZM102.512 46.3921V37.4641H104.546L104.726 38.9761C105.002 38.4481 105.398 38.0281 105.914 37.7161C106.442 37.4041 107.06 37.2481 107.768 37.2481C108.872 37.2481 109.73 37.5961 110.342 38.2921C110.954 38.9881 111.26 40.0081 111.26 41.3521V46.3921H108.956V41.5681C108.956 40.8001 108.8 40.2121 108.488 39.8041C108.176 39.3961 107.69 39.1921 107.03 39.1921C106.382 39.1921 105.848 39.4201 105.428 39.8761C105.02 40.3321 104.816 40.9681 104.816 41.7841V46.3921H102.512ZM116.883 46.3921C115.947 46.3921 115.197 46.1641 114.633 45.7081C114.069 45.2521 113.787 44.4421 113.787 43.2781V39.3901H112.257V37.4641H113.787L114.057 35.0701H116.091V37.4641H118.503V39.3901H116.091V43.2961C116.091 43.7281 116.181 44.0281 116.361 44.1961C116.553 44.3521 116.877 44.4301 117.333 44.4301H118.449V46.3921H116.883ZM119.923 46.3921V33.4321H122.227V38.8321C122.527 38.3401 122.929 37.9561 123.433 37.6801C123.949 37.3921 124.537 37.2481 125.197 37.2481C126.301 37.2481 127.153 37.5961 127.753 38.2921C128.365 38.9881 128.671 40.0081 128.671 41.3521V46.3921H126.385V41.5681C126.385 40.8001 126.229 40.2121 125.917 39.8041C125.617 39.3961 125.137 39.1921 124.477 39.1921C123.829 39.1921 123.289 39.4201 122.857 39.8761C122.437 40.3321 122.227 40.9681 122.227 41.7841V46.3921H119.923ZM130.316 46.3921V33.4321H132.62V46.3921H130.316ZM135.532 50.3521L137.602 45.7981H137.062L133.588 37.4641H136.09L138.592 43.7461L141.202 37.4641H143.65L137.98 50.3521H135.532Z" fill="#999999"/>
</svg>
