<svg width="148" height="60" viewBox="0 0 148 60" fill="none" xmlns="http://www.w3.org/2000/svg">
<path d="M14.256 52.698V48.54C10.764 48.144 7.92 46.92 5.724 44.868C3.528 42.816 2.394 40.062 2.322 36.606H9.612C9.684 38.046 10.116 39.306 10.908 40.386C11.736 41.466 12.852 42.204 14.256 42.6V31.206C13.932 31.098 13.59 30.99 13.23 30.882C12.906 30.774 12.564 30.666 12.204 30.558C9.288 29.55 7.056 28.254 5.508 26.67C3.996 25.086 3.24 22.98 3.24 20.352C3.204 17.256 4.212 14.772 6.264 12.9C8.316 10.992 10.98 9.894 14.256 9.606V5.232H17.874V9.66C21.114 9.984 23.724 11.118 25.704 13.062C27.72 14.97 28.782 17.436 28.89 20.46H21.492C21.456 19.416 21.114 18.462 20.466 17.598C19.854 16.698 18.99 16.068 17.874 15.708V25.752C18.162 25.86 18.45 25.968 18.738 26.076C19.026 26.148 19.314 26.238 19.602 26.346C21.474 26.994 23.184 27.75 24.732 28.614C26.28 29.478 27.522 30.63 28.458 32.07C29.394 33.474 29.862 35.292 29.862 37.524C29.862 39.396 29.394 41.142 28.458 42.762C27.558 44.382 26.208 45.732 24.408 46.812C22.644 47.856 20.466 48.45 17.874 48.594V52.698H14.256ZM10.476 19.866C10.476 21.018 10.818 21.954 11.502 22.674C12.186 23.358 13.104 23.952 14.256 24.456V15.492C13.14 15.708 12.222 16.194 11.502 16.95C10.818 17.706 10.476 18.678 10.476 19.866ZM22.518 38.01C22.518 36.57 22.086 35.436 21.222 34.608C20.358 33.78 19.242 33.078 17.874 32.502V42.762C19.314 42.546 20.448 42.024 21.276 41.196C22.104 40.368 22.518 39.306 22.518 38.01ZM48.1507 48.648C44.6587 48.648 41.6707 47.838 39.1867 46.218C36.7027 44.562 34.7767 42.276 33.4087 39.36C32.0767 36.408 31.4107 32.988 31.4107 29.1C31.4107 25.248 32.0767 21.846 33.4087 18.894C34.7767 15.942 36.7027 13.656 39.1867 12.036C41.6707 10.38 44.6587 9.552 48.1507 9.552C51.6427 9.552 54.6307 10.38 57.1147 12.036C59.5987 13.656 61.5067 15.942 62.8387 18.894C64.2067 21.846 64.8907 25.248 64.8907 29.1C64.8907 32.988 64.2067 36.408 62.8387 39.36C61.5067 42.276 59.5987 44.562 57.1147 46.218C54.6307 47.838 51.6427 48.648 48.1507 48.648ZM48.1507 42.438C50.9947 42.438 53.3167 41.25 55.1167 38.874C56.9167 36.498 57.8167 33.24 57.8167 29.1C57.8167 24.96 56.9167 21.702 55.1167 19.326C53.3167 16.95 50.9947 15.762 48.1507 15.762C45.2707 15.762 42.9307 16.95 41.1307 19.326C39.3667 21.702 38.4847 24.96 38.4847 29.1C38.4847 33.24 39.3667 36.498 41.1307 38.874C42.9307 41.25 45.2707 42.438 48.1507 42.438Z" fill="black"/>
<path d="M72.414 48.3901L76.914 32.4061H79.164L74.646 48.3901H72.414ZM79.8542 46.3921V37.4641H81.8882L82.0862 38.6701C82.3742 38.2381 82.7522 37.8961 83.2202 37.6441C83.7002 37.3801 84.2522 37.2481 84.8762 37.2481C86.2562 37.2481 87.2342 37.7821 87.8102 38.8501C88.1342 38.3581 88.5662 37.9681 89.1062 37.6801C89.6582 37.3921 90.2582 37.2481 90.9062 37.2481C92.0702 37.2481 92.9642 37.5961 93.5882 38.2921C94.2122 38.9881 94.5242 40.0081 94.5242 41.3521V46.3921H92.2202V41.5681C92.2202 40.8001 92.0702 40.2121 91.7702 39.8041C91.4822 39.3961 91.0322 39.1921 90.4202 39.1921C89.7962 39.1921 89.2922 39.4201 88.9082 39.8761C88.5362 40.3321 88.3502 40.9681 88.3502 41.7841V46.3921H86.0462V41.5681C86.0462 40.8001 85.8962 40.2121 85.5962 39.8041C85.2962 39.3961 84.8342 39.1921 84.2102 39.1921C83.5982 39.1921 83.1002 39.4201 82.7162 39.8761C82.3442 40.3321 82.1582 40.9681 82.1582 41.7841V46.3921H79.8542ZM100.438 46.6081C99.5736 46.6081 98.7936 46.4101 98.0976 46.0141C97.4136 45.6181 96.8676 45.0721 96.4596 44.3761C96.0636 43.6681 95.8656 42.8521 95.8656 41.9281C95.8656 41.0041 96.0696 40.1941 96.4776 39.4981C96.8856 38.7901 97.4316 38.2381 98.1156 37.8421C98.8116 37.4461 99.5916 37.2481 100.456 37.2481C101.308 37.2481 102.076 37.4461 102.76 37.8421C103.456 38.2381 104.002 38.7901 104.398 39.4981C104.806 40.1941 105.01 41.0041 105.01 41.9281C105.01 42.8521 104.806 43.6681 104.398 44.3761C104.002 45.0721 103.456 45.6181 102.76 46.0141C102.064 46.4101 101.29 46.6081 100.438 46.6081ZM100.438 44.6101C101.038 44.6101 101.56 44.3881 102.004 43.9441C102.448 43.4881 102.67 42.8161 102.67 41.9281C102.67 41.0401 102.448 40.3741 102.004 39.9301C101.56 39.4741 101.044 39.2461 100.456 39.2461C99.8436 39.2461 99.3156 39.4741 98.8716 39.9301C98.4396 40.3741 98.2236 41.0401 98.2236 41.9281C98.2236 42.8161 98.4396 43.4881 98.8716 43.9441C99.3156 44.3881 99.8376 44.6101 100.438 44.6101ZM106.512 46.3921V37.4641H108.546L108.726 38.9761C109.002 38.4481 109.398 38.0281 109.914 37.7161C110.442 37.4041 111.06 37.2481 111.768 37.2481C112.872 37.2481 113.73 37.5961 114.342 38.2921C114.954 38.9881 115.26 40.0081 115.26 41.3521V46.3921H112.956V41.5681C112.956 40.8001 112.8 40.2121 112.488 39.8041C112.176 39.3961 111.69 39.1921 111.03 39.1921C110.382 39.1921 109.848 39.4201 109.428 39.8761C109.02 40.3321 108.816 40.9681 108.816 41.7841V46.3921H106.512ZM120.883 46.3921C119.947 46.3921 119.197 46.1641 118.633 45.7081C118.069 45.2521 117.787 44.4421 117.787 43.2781V39.3901H116.257V37.4641H117.787L118.057 35.0701H120.091V37.4641H122.503V39.3901H120.091V43.2961C120.091 43.7281 120.181 44.0281 120.361 44.1961C120.553 44.3521 120.877 44.4301 121.333 44.4301H122.449V46.3921H120.883ZM123.923 46.3921V33.4321H126.227V38.8321C126.527 38.3401 126.929 37.9561 127.433 37.6801C127.949 37.3921 128.537 37.2481 129.197 37.2481C130.301 37.2481 131.153 37.5961 131.753 38.2921C132.365 38.9881 132.671 40.0081 132.671 41.3521V46.3921H130.385V41.5681C130.385 40.8001 130.229 40.2121 129.917 39.8041C129.617 39.3961 129.137 39.1921 128.477 39.1921C127.829 39.1921 127.289 39.4201 126.857 39.8761C126.437 40.3321 126.227 40.9681 126.227 41.7841V46.3921H123.923ZM134.316 46.3921V33.4321H136.62V46.3921H134.316ZM139.532 50.3521L141.602 45.7981H141.062L137.588 37.4641H140.09L142.592 43.7461L145.202 37.4641H147.65L141.98 50.3521H139.532Z" fill="#6F6C90"/>
</svg>
