<svg width="159" height="60" viewBox="0 0 159 60" fill="none" xmlns="http://www.w3.org/2000/svg">
<path d="M14.256 52.698V48.54C10.764 48.144 7.92 46.92 5.724 44.868C3.528 42.816 2.394 40.062 2.322 36.606H9.612C9.684 38.046 10.116 39.306 10.908 40.386C11.736 41.466 12.852 42.204 14.256 42.6V31.206C13.932 31.098 13.59 30.99 13.23 30.882C12.906 30.774 12.564 30.666 12.204 30.558C9.288 29.55 7.056 28.254 5.508 26.67C3.996 25.086 3.24 22.98 3.24 20.352C3.204 17.256 4.212 14.772 6.264 12.9C8.316 10.992 10.98 9.894 14.256 9.606V5.232H17.874V9.66C21.114 9.984 23.724 11.118 25.704 13.062C27.72 14.97 28.782 17.436 28.89 20.46H21.492C21.456 19.416 21.114 18.462 20.466 17.598C19.854 16.698 18.99 16.068 17.874 15.708V25.752C18.162 25.86 18.45 25.968 18.738 26.076C19.026 26.148 19.314 26.238 19.602 26.346C21.474 26.994 23.184 27.75 24.732 28.614C26.28 29.478 27.522 30.63 28.458 32.07C29.394 33.474 29.862 35.292 29.862 37.524C29.862 39.396 29.394 41.142 28.458 42.762C27.558 44.382 26.208 45.732 24.408 46.812C22.644 47.856 20.466 48.45 17.874 48.594V52.698H14.256ZM10.476 19.866C10.476 21.018 10.818 21.954 11.502 22.674C12.186 23.358 13.104 23.952 14.256 24.456V15.492C13.14 15.708 12.222 16.194 11.502 16.95C10.818 17.706 10.476 18.678 10.476 19.866ZM22.518 38.01C22.518 36.57 22.086 35.436 21.222 34.608C20.358 33.78 19.242 33.078 17.874 32.502V42.762C19.314 42.546 20.448 42.024 21.276 41.196C22.104 40.368 22.518 39.306 22.518 38.01ZM36.7567 48V18.084L30.5467 19.542V14.25L39.6727 10.2H43.9387V48H36.7567ZM60.9339 48.648C58.3059 48.648 56.0919 48.144 54.2919 47.136C52.4919 46.092 51.0879 44.742 50.0799 43.086C49.0719 41.43 48.4779 39.648 48.2979 37.74H54.7239C55.0119 39.396 55.6959 40.674 56.7759 41.574C57.8919 42.474 59.2959 42.924 60.9879 42.924C63.3999 42.924 65.3439 41.826 66.8199 39.63C68.2959 37.398 69.0879 34.014 69.1959 29.478C68.3319 30.954 67.0179 32.178 65.2539 33.15C63.5259 34.122 61.6179 34.608 59.5299 34.608C57.4419 34.608 55.4799 34.104 53.6439 33.096C51.8079 32.088 50.3139 30.666 49.1619 28.83C48.0099 26.994 47.4339 24.834 47.4339 22.35C47.4339 20.082 47.9919 17.976 49.1079 16.032C50.2239 14.088 51.7719 12.522 53.7519 11.334C55.7319 10.146 58.0539 9.552 60.7179 9.552C63.5619 9.552 65.9559 10.074 67.8999 11.118C69.8439 12.162 71.3919 13.566 72.5439 15.33C73.7319 17.094 74.5779 19.056 75.0819 21.216C75.6219 23.376 75.8919 25.59 75.8919 27.858C75.8919 32.07 75.2979 35.742 74.1099 38.874C72.9579 41.97 71.2479 44.382 68.9799 46.11C66.7479 47.802 64.0659 48.648 60.9339 48.648ZM61.1499 28.776C62.4819 28.776 63.6879 28.488 64.7679 27.912C65.8479 27.3 66.6939 26.508 67.3059 25.536C67.9179 24.528 68.2239 23.412 68.2239 22.188C68.2239 20.244 67.5399 18.642 66.1719 17.382C64.8399 16.122 63.1479 15.492 61.0959 15.492C59.0799 15.492 57.4059 16.122 56.0739 17.382C54.7419 18.606 54.0759 20.172 54.0759 22.08C54.0759 24.096 54.7419 25.716 56.0739 26.94C57.4059 28.164 59.0979 28.776 61.1499 28.776Z" fill="black"/>
<path d="M83.414 48.3901L87.914 32.4061H90.164L85.646 48.3901H83.414ZM90.8542 46.3921V37.4641H92.8882L93.0862 38.6701C93.3742 38.2381 93.7522 37.8961 94.2202 37.6441C94.7002 37.3801 95.2522 37.2481 95.8762 37.2481C97.2562 37.2481 98.2342 37.7821 98.8102 38.8501C99.1342 38.3581 99.5662 37.9681 100.106 37.6801C100.658 37.3921 101.258 37.2481 101.906 37.2481C103.07 37.2481 103.964 37.5961 104.588 38.2921C105.212 38.9881 105.524 40.0081 105.524 41.3521V46.3921H103.22V41.5681C103.22 40.8001 103.07 40.2121 102.77 39.8041C102.482 39.3961 102.032 39.1921 101.42 39.1921C100.796 39.1921 100.292 39.4201 99.9082 39.8761C99.5362 40.3321 99.3502 40.9681 99.3502 41.7841V46.3921H97.0462V41.5681C97.0462 40.8001 96.8962 40.2121 96.5962 39.8041C96.2962 39.3961 95.8342 39.1921 95.2102 39.1921C94.5982 39.1921 94.1002 39.4201 93.7162 39.8761C93.3442 40.3321 93.1582 40.9681 93.1582 41.7841V46.3921H90.8542ZM111.438 46.6081C110.574 46.6081 109.794 46.4101 109.098 46.0141C108.414 45.6181 107.868 45.0721 107.46 44.3761C107.064 43.6681 106.866 42.8521 106.866 41.9281C106.866 41.0041 107.07 40.1941 107.478 39.4981C107.886 38.7901 108.432 38.2381 109.116 37.8421C109.812 37.4461 110.592 37.2481 111.456 37.2481C112.308 37.2481 113.076 37.4461 113.76 37.8421C114.456 38.2381 115.002 38.7901 115.398 39.4981C115.806 40.1941 116.01 41.0041 116.01 41.9281C116.01 42.8521 115.806 43.6681 115.398 44.3761C115.002 45.0721 114.456 45.6181 113.76 46.0141C113.064 46.4101 112.29 46.6081 111.438 46.6081ZM111.438 44.6101C112.038 44.6101 112.56 44.3881 113.004 43.9441C113.448 43.4881 113.67 42.8161 113.67 41.9281C113.67 41.0401 113.448 40.3741 113.004 39.9301C112.56 39.4741 112.044 39.2461 111.456 39.2461C110.844 39.2461 110.316 39.4741 109.872 39.9301C109.44 40.3741 109.224 41.0401 109.224 41.9281C109.224 42.8161 109.44 43.4881 109.872 43.9441C110.316 44.3881 110.838 44.6101 111.438 44.6101ZM117.512 46.3921V37.4641H119.546L119.726 38.9761C120.002 38.4481 120.398 38.0281 120.914 37.7161C121.442 37.4041 122.06 37.2481 122.768 37.2481C123.872 37.2481 124.73 37.5961 125.342 38.2921C125.954 38.9881 126.26 40.0081 126.26 41.3521V46.3921H123.956V41.5681C123.956 40.8001 123.8 40.2121 123.488 39.8041C123.176 39.3961 122.69 39.1921 122.03 39.1921C121.382 39.1921 120.848 39.4201 120.428 39.8761C120.02 40.3321 119.816 40.9681 119.816 41.7841V46.3921H117.512ZM131.883 46.3921C130.947 46.3921 130.197 46.1641 129.633 45.7081C129.069 45.2521 128.787 44.4421 128.787 43.2781V39.3901H127.257V37.4641H128.787L129.057 35.0701H131.091V37.4641H133.503V39.3901H131.091V43.2961C131.091 43.7281 131.181 44.0281 131.361 44.1961C131.553 44.3521 131.877 44.4301 132.333 44.4301H133.449V46.3921H131.883ZM134.923 46.3921V33.4321H137.227V38.8321C137.527 38.3401 137.929 37.9561 138.433 37.6801C138.949 37.3921 139.537 37.2481 140.197 37.2481C141.301 37.2481 142.153 37.5961 142.753 38.2921C143.365 38.9881 143.671 40.0081 143.671 41.3521V46.3921H141.385V41.5681C141.385 40.8001 141.229 40.2121 140.917 39.8041C140.617 39.3961 140.137 39.1921 139.477 39.1921C138.829 39.1921 138.289 39.4201 137.857 39.8761C137.437 40.3321 137.227 40.9681 137.227 41.7841V46.3921H134.923ZM145.316 46.3921V33.4321H147.62V46.3921H145.316ZM150.532 50.3521L152.602 45.7981H152.062L148.588 37.4641H151.09L153.592 43.7461L156.202 37.4641H158.65L152.98 50.3521H150.532Z" fill="#6F6C90"/>
</svg>
