<svg width="260" height="225" viewBox="0 0 260 225" fill="none" xmlns="http://www.w3.org/2000/svg">
<path d="M19.5 47.125H16.875V45.25C16.875 43.9571 16.3614 42.7171 15.4471 41.8029C14.5329 40.8886 13.2929 40.375 12 40.375C10.7071 40.375 9.46709 40.8886 8.55285 41.8029C7.63861 42.7171 7.125 43.9571 7.125 45.25V47.125H4.5C4.00272 47.125 3.52581 47.3225 3.17417 47.6742C2.82254 48.0258 2.625 48.5027 2.625 49V59.5C2.625 59.9973 2.82254 60.4742 3.17417 60.8258C3.52581 61.1775 4.00272 61.375 4.5 61.375H19.5C19.9973 61.375 20.4742 61.1775 20.8258 60.8258C21.1775 60.4742 21.375 59.9973 21.375 59.5V49C21.375 48.5027 21.1775 48.0258 20.8258 47.6742C20.4742 47.3225 19.9973 47.125 19.5 47.125ZM9.375 45.25C9.375 44.5538 9.65156 43.8861 10.1438 43.3938C10.6361 42.9016 11.3038 42.625 12 42.625C12.6962 42.625 13.3639 42.9016 13.8562 43.3938C14.3484 43.8861 14.625 44.5538 14.625 45.25V47.125H9.375V45.25ZM19.125 59.125H4.875V49.375H19.125V59.125ZM13.5 54.25C13.5 54.5467 13.412 54.8367 13.2472 55.0834C13.0824 55.33 12.8481 55.5223 12.574 55.6358C12.2999 55.7494 11.9983 55.7791 11.7074 55.7212C11.4164 55.6633 11.1491 55.5204 10.9393 55.3107C10.7296 55.1009 10.5867 54.8336 10.5288 54.5426C10.4709 54.2517 10.5006 53.9501 10.6142 53.676C10.7277 53.4019 10.92 53.1676 11.1666 53.0028C11.4133 52.838 11.7033 52.75 12 52.75C12.3978 52.75 12.7794 52.908 13.0607 53.1893C13.342 53.4706 13.5 53.8522 13.5 54.25Z" fill="black"/>
<path d="M5.526 92.216C4.602 92.216 3.786 92.06 3.078 91.748C2.37 91.424 1.812 90.968 1.404 90.38C0.996 89.78 0.786 89.054 0.774 88.202H3.204C3.228 88.79 3.438 89.288 3.834 89.696C4.242 90.092 4.8 90.29 5.508 90.29C6.12 90.29 6.606 90.146 6.966 89.858C7.326 89.558 7.506 89.162 7.506 88.67C7.506 88.154 7.344 87.752 7.02 87.464C6.708 87.176 6.288 86.942 5.76 86.762C5.232 86.582 4.668 86.39 4.068 86.186C3.096 85.85 2.352 85.418 1.836 84.89C1.332 84.362 1.08 83.66 1.08 82.784C1.068 82.04 1.242 81.404 1.602 80.876C1.974 80.336 2.478 79.922 3.114 79.634C3.75 79.334 4.482 79.184 5.31 79.184C6.15 79.184 6.888 79.334 7.524 79.634C8.172 79.934 8.676 80.354 9.036 80.894C9.408 81.434 9.606 82.076 9.63 82.82H7.164C7.152 82.376 6.978 81.986 6.642 81.65C6.318 81.302 5.862 81.128 5.274 81.128C4.77 81.116 4.344 81.242 3.996 81.506C3.66 81.758 3.492 82.13 3.492 82.622C3.492 83.042 3.624 83.378 3.888 83.63C4.152 83.87 4.512 84.074 4.968 84.242C5.424 84.41 5.946 84.59 6.534 84.782C7.158 84.998 7.728 85.25 8.244 85.538C8.76 85.826 9.174 86.21 9.486 86.69C9.798 87.158 9.954 87.764 9.954 88.508C9.954 89.168 9.786 89.78 9.45 90.344C9.114 90.908 8.616 91.364 7.956 91.712C7.296 92.048 6.486 92.216 5.526 92.216ZM15.6902 92.216C14.7902 92.216 13.9922 92.024 13.2962 91.64C12.6002 91.256 12.0542 90.716 11.6582 90.02C11.2622 89.324 11.0642 88.52 11.0642 87.608C11.0642 86.684 11.2562 85.862 11.6402 85.142C12.0362 84.422 12.5762 83.864 13.2602 83.468C13.9562 83.06 14.7722 82.856 15.7082 82.856C16.5842 82.856 17.3582 83.048 18.0302 83.432C18.7022 83.816 19.2242 84.344 19.5962 85.016C19.9802 85.676 20.1722 86.414 20.1722 87.23C20.1722 87.362 20.1662 87.5 20.1542 87.644C20.1542 87.788 20.1482 87.938 20.1362 88.094H13.3502C13.3982 88.79 13.6382 89.336 14.0702 89.732C14.5142 90.128 15.0482 90.326 15.6722 90.326C16.1402 90.326 16.5302 90.224 16.8422 90.02C17.1662 89.804 17.4062 89.528 17.5622 89.192H19.9022C19.7342 89.756 19.4522 90.272 19.0562 90.74C18.6722 91.196 18.1922 91.556 17.6162 91.82C17.0522 92.084 16.4102 92.216 15.6902 92.216ZM15.7082 84.728C15.1442 84.728 14.6462 84.89 14.2142 85.214C13.7822 85.526 13.5062 86.006 13.3862 86.654H17.8322C17.7962 86.066 17.5802 85.598 17.1842 85.25C16.7882 84.902 16.2962 84.728 15.7082 84.728ZM25.926 92.216C25.014 92.216 24.21 92.018 23.514 91.622C22.818 91.226 22.266 90.674 21.858 89.966C21.462 89.258 21.264 88.448 21.264 87.536C21.264 86.624 21.462 85.814 21.858 85.106C22.266 84.398 22.818 83.846 23.514 83.45C24.21 83.054 25.014 82.856 25.926 82.856C27.066 82.856 28.026 83.156 28.806 83.756C29.586 84.344 30.084 85.16 30.3 86.204H27.87C27.75 85.772 27.51 85.436 27.15 85.196C26.802 84.944 26.388 84.818 25.908 84.818C25.272 84.818 24.732 85.058 24.288 85.538C23.844 86.018 23.622 86.684 23.622 87.536C23.622 88.388 23.844 89.054 24.288 89.534C24.732 90.014 25.272 90.254 25.908 90.254C26.388 90.254 26.802 90.134 27.15 89.894C27.51 89.654 27.75 89.312 27.87 88.868H30.3C30.084 89.876 29.586 90.686 28.806 91.298C28.026 91.91 27.066 92.216 25.926 92.216ZM35.135 92.216C34.019 92.216 33.155 91.868 32.543 91.172C31.943 90.476 31.643 89.456 31.643 88.112V83.072H33.929V87.896C33.929 88.664 34.085 89.252 34.397 89.66C34.709 90.068 35.201 90.272 35.873 90.272C36.509 90.272 37.031 90.044 37.439 89.588C37.859 89.132 38.069 88.496 38.069 87.68V83.072H40.373V92H38.339L38.159 90.488C37.883 91.016 37.481 91.436 36.953 91.748C36.437 92.06 35.831 92.216 35.135 92.216ZM42.1802 92V83.072H44.2322L44.4482 84.746C44.7722 84.17 45.2102 83.714 45.7622 83.378C46.3262 83.03 46.9862 82.856 47.7422 82.856V85.286H47.0942C46.5902 85.286 46.1402 85.364 45.7442 85.52C45.3482 85.676 45.0362 85.946 44.8082 86.33C44.5922 86.714 44.4842 87.248 44.4842 87.932V92H42.1802ZM52.9387 92.216C52.0387 92.216 51.2407 92.024 50.5447 91.64C49.8487 91.256 49.3027 90.716 48.9067 90.02C48.5107 89.324 48.3127 88.52 48.3127 87.608C48.3127 86.684 48.5047 85.862 48.8887 85.142C49.2847 84.422 49.8247 83.864 50.5087 83.468C51.2047 83.06 52.0207 82.856 52.9567 82.856C53.8327 82.856 54.6067 83.048 55.2787 83.432C55.9507 83.816 56.4727 84.344 56.8447 85.016C57.2287 85.676 57.4207 86.414 57.4207 87.23C57.4207 87.362 57.4147 87.5 57.4027 87.644C57.4027 87.788 57.3967 87.938 57.3847 88.094H50.5987C50.6467 88.79 50.8867 89.336 51.3187 89.732C51.7627 90.128 52.2967 90.326 52.9207 90.326C53.3887 90.326 53.7787 90.224 54.0907 90.02C54.4147 89.804 54.6547 89.528 54.8107 89.192H57.1507C56.9827 89.756 56.7007 90.272 56.3047 90.74C55.9207 91.196 55.4407 91.556 54.8647 91.82C54.3007 92.084 53.6587 92.216 52.9387 92.216ZM52.9567 84.728C52.3927 84.728 51.8947 84.89 51.4627 85.214C51.0307 85.526 50.7547 86.006 50.6347 86.654H55.0807C55.0447 86.066 54.8287 85.598 54.4327 85.25C54.0367 84.902 53.5447 84.728 52.9567 84.728ZM66.6356 92.216C65.7956 92.216 65.0456 92.012 64.3856 91.604C63.7256 91.196 63.2036 90.638 62.8196 89.93C62.4356 89.222 62.2436 88.418 62.2436 87.518C62.2436 86.618 62.4356 85.82 62.8196 85.124C63.2036 84.416 63.7256 83.864 64.3856 83.468C65.0456 83.06 65.7956 82.856 66.6356 82.856C67.3076 82.856 67.8956 82.982 68.3996 83.234C68.9036 83.486 69.3116 83.84 69.6236 84.296V79.04H71.9276V92H69.8756L69.6236 90.722C69.3356 91.118 68.9516 91.466 68.4716 91.766C68.0036 92.066 67.3916 92.216 66.6356 92.216ZM67.1216 90.2C67.8656 90.2 68.4716 89.954 68.9396 89.462C69.4196 88.958 69.6596 88.316 69.6596 87.536C69.6596 86.756 69.4196 86.12 68.9396 85.628C68.4716 85.124 67.8656 84.872 67.1216 84.872C66.3896 84.872 65.7836 85.118 65.3036 85.61C64.8236 86.102 64.5836 86.738 64.5836 87.518C64.5836 88.298 64.8236 88.94 65.3036 89.444C65.7836 89.948 66.3896 90.2 67.1216 90.2ZM76.7938 92.216C76.0258 92.216 75.3958 92.096 74.9038 91.856C74.4118 91.604 74.0458 91.274 73.8058 90.866C73.5658 90.458 73.4458 90.008 73.4458 89.516C73.4458 88.688 73.7698 88.016 74.4178 87.5C75.0658 86.984 76.0378 86.726 77.3338 86.726H79.6018V86.51C79.6018 85.898 79.4278 85.448 79.0798 85.16C78.7318 84.872 78.2998 84.728 77.7838 84.728C77.3158 84.728 76.9078 84.842 76.5598 85.07C76.2118 85.286 75.9958 85.61 75.9118 86.042H73.6618C73.7218 85.394 73.9378 84.83 74.3098 84.35C74.6938 83.87 75.1858 83.504 75.7858 83.252C76.3858 82.988 77.0578 82.856 77.8018 82.856C79.0738 82.856 80.0758 83.174 80.8078 83.81C81.5398 84.446 81.9058 85.346 81.9058 86.51V92H79.9438L79.7278 90.56C79.4638 91.04 79.0918 91.436 78.6118 91.748C78.1438 92.06 77.5378 92.216 76.7938 92.216ZM77.3158 90.416C77.9758 90.416 78.4858 90.2 78.8458 89.768C79.2178 89.336 79.4518 88.802 79.5478 88.166H77.5858C76.9738 88.166 76.5358 88.28 76.2718 88.508C76.0078 88.724 75.8758 88.994 75.8758 89.318C75.8758 89.666 76.0078 89.936 76.2718 90.128C76.5358 90.32 76.8838 90.416 77.3158 90.416ZM87.4014 92C86.4654 92 85.7154 91.772 85.1514 91.316C84.5874 90.86 84.3054 90.05 84.3054 88.886V84.998H82.7754V83.072H84.3054L84.5754 80.678H86.6094V83.072H89.0214V84.998H86.6094V88.904C86.6094 89.336 86.6994 89.636 86.8794 89.804C87.0714 89.96 87.3954 90.038 87.8514 90.038H88.9674V92H87.4014ZM93.5196 92.216C92.7516 92.216 92.1216 92.096 91.6296 91.856C91.1376 91.604 90.7716 91.274 90.5316 90.866C90.2916 90.458 90.1716 90.008 90.1716 89.516C90.1716 88.688 90.4956 88.016 91.1436 87.5C91.7916 86.984 92.7636 86.726 94.0596 86.726H96.3276V86.51C96.3276 85.898 96.1536 85.448 95.8056 85.16C95.4576 84.872 95.0256 84.728 94.5096 84.728C94.0416 84.728 93.6336 84.842 93.2856 85.07C92.9376 85.286 92.7216 85.61 92.6376 86.042H90.3876C90.4476 85.394 90.6636 84.83 91.0356 84.35C91.4196 83.87 91.9116 83.504 92.5116 83.252C93.1116 82.988 93.7836 82.856 94.5276 82.856C95.7996 82.856 96.8016 83.174 97.5336 83.81C98.2656 84.446 98.6316 85.346 98.6316 86.51V92H96.6696L96.4536 90.56C96.1896 91.04 95.8176 91.436 95.3376 91.748C94.8696 92.06 94.2636 92.216 93.5196 92.216ZM94.0416 90.416C94.7016 90.416 95.2116 90.2 95.5716 89.768C95.9436 89.336 96.1776 88.802 96.2736 88.166H94.3116C93.6996 88.166 93.2616 88.28 92.9976 88.508C92.7336 88.724 92.6016 88.994 92.6016 89.318C92.6016 89.666 92.7336 89.936 92.9976 90.128C93.2616 90.32 93.6096 90.416 94.0416 90.416ZM108.341 92.216C107.441 92.216 106.643 92.024 105.947 91.64C105.251 91.256 104.705 90.716 104.309 90.02C103.913 89.324 103.715 88.52 103.715 87.608C103.715 86.684 103.907 85.862 104.291 85.142C104.687 84.422 105.227 83.864 105.911 83.468C106.607 83.06 107.423 82.856 108.359 82.856C109.235 82.856 110.009 83.048 110.681 83.432C111.353 83.816 111.875 84.344 112.247 85.016C112.631 85.676 112.823 86.414 112.823 87.23C112.823 87.362 112.817 87.5 112.805 87.644C112.805 87.788 112.799 87.938 112.787 88.094H106.001C106.049 88.79 106.289 89.336 106.721 89.732C107.165 90.128 107.699 90.326 108.323 90.326C108.791 90.326 109.181 90.224 109.493 90.02C109.817 89.804 110.057 89.528 110.213 89.192H112.553C112.385 89.756 112.103 90.272 111.707 90.74C111.323 91.196 110.843 91.556 110.267 91.82C109.703 92.084 109.061 92.216 108.341 92.216ZM108.359 84.728C107.795 84.728 107.297 84.89 106.865 85.214C106.433 85.526 106.157 86.006 106.037 86.654H110.483C110.447 86.066 110.231 85.598 109.835 85.25C109.439 84.902 108.947 84.728 108.359 84.728ZM114.203 92V83.072H116.237L116.417 84.584C116.693 84.056 117.089 83.636 117.605 83.324C118.133 83.012 118.751 82.856 119.459 82.856C120.563 82.856 121.421 83.204 122.033 83.9C122.645 84.596 122.951 85.616 122.951 86.96V92H120.647V87.176C120.647 86.408 120.491 85.82 120.179 85.412C119.867 85.004 119.381 84.8 118.721 84.8C118.073 84.8 117.539 85.028 117.119 85.484C116.711 85.94 116.507 86.576 116.507 87.392V92H114.203ZM128.97 92.216C128.058 92.216 127.254 92.018 126.558 91.622C125.862 91.226 125.31 90.674 124.902 89.966C124.506 89.258 124.308 88.448 124.308 87.536C124.308 86.624 124.506 85.814 124.902 85.106C125.31 84.398 125.862 83.846 126.558 83.45C127.254 83.054 128.058 82.856 128.97 82.856C130.11 82.856 131.07 83.156 131.85 83.756C132.63 84.344 133.128 85.16 133.344 86.204H130.914C130.794 85.772 130.554 85.436 130.194 85.196C129.846 84.944 129.432 84.818 128.952 84.818C128.316 84.818 127.776 85.058 127.332 85.538C126.888 86.018 126.666 86.684 126.666 87.536C126.666 88.388 126.888 89.054 127.332 89.534C127.776 90.014 128.316 90.254 128.952 90.254C129.432 90.254 129.846 90.134 130.194 89.894C130.554 89.654 130.794 89.312 130.914 88.868H133.344C133.128 89.876 132.63 90.686 131.85 91.298C131.07 91.91 130.11 92.216 128.97 92.216ZM134.831 92V83.072H136.883L137.099 84.746C137.423 84.17 137.861 83.714 138.413 83.378C138.977 83.03 139.637 82.856 140.393 82.856V85.286H139.745C139.241 85.286 138.791 85.364 138.395 85.52C137.999 85.676 137.687 85.946 137.459 86.33C137.243 86.714 137.135 87.248 137.135 87.932V92H134.831ZM142.526 95.96L144.596 91.406H144.056L140.582 83.072H143.084L145.586 89.354L148.196 83.072H150.644L144.974 95.96H142.526ZM151.592 95.96V83.072H153.644L153.896 84.35C154.184 83.954 154.562 83.606 155.03 83.306C155.51 83.006 156.128 82.856 156.884 82.856C157.724 82.856 158.474 83.06 159.134 83.468C159.794 83.876 160.316 84.434 160.7 85.142C161.084 85.85 161.276 86.654 161.276 87.554C161.276 88.454 161.084 89.258 160.7 89.966C160.316 90.662 159.794 91.214 159.134 91.622C158.474 92.018 157.724 92.216 156.884 92.216C156.212 92.216 155.624 92.09 155.12 91.838C154.616 91.586 154.208 91.232 153.896 90.776V95.96H151.592ZM156.398 90.2C157.13 90.2 157.736 89.954 158.216 89.462C158.696 88.97 158.936 88.334 158.936 87.554C158.936 86.774 158.696 86.132 158.216 85.628C157.736 85.124 157.13 84.872 156.398 84.872C155.654 84.872 155.042 85.124 154.562 85.628C154.094 86.12 153.86 86.756 153.86 87.536C153.86 88.316 154.094 88.958 154.562 89.462C155.042 89.954 155.654 90.2 156.398 90.2ZM166.403 92C165.467 92 164.717 91.772 164.153 91.316C163.589 90.86 163.307 90.05 163.307 88.886V84.998H161.777V83.072H163.307L163.577 80.678H165.611V83.072H168.023V84.998H165.611V88.904C165.611 89.336 165.701 89.636 165.881 89.804C166.073 89.96 166.397 90.038 166.853 90.038H167.969V92H166.403ZM170.685 81.686C170.265 81.686 169.917 81.56 169.641 81.308C169.377 81.056 169.245 80.738 169.245 80.354C169.245 79.97 169.377 79.658 169.641 79.418C169.917 79.166 170.265 79.04 170.685 79.04C171.105 79.04 171.447 79.166 171.711 79.418C171.987 79.658 172.125 79.97 172.125 80.354C172.125 80.738 171.987 81.056 171.711 81.308C171.447 81.56 171.105 81.686 170.685 81.686ZM169.533 92V83.072H171.837V92H169.533ZM177.968 92.216C177.104 92.216 176.324 92.018 175.628 91.622C174.944 91.226 174.398 90.68 173.99 89.984C173.594 89.276 173.396 88.46 173.396 87.536C173.396 86.612 173.6 85.802 174.008 85.106C174.416 84.398 174.962 83.846 175.646 83.45C176.342 83.054 177.122 82.856 177.986 82.856C178.838 82.856 179.606 83.054 180.29 83.45C180.986 83.846 181.532 84.398 181.928 85.106C182.336 85.802 182.54 86.612 182.54 87.536C182.54 88.46 182.336 89.276 181.928 89.984C181.532 90.68 180.986 91.226 180.29 91.622C179.594 92.018 178.82 92.216 177.968 92.216ZM177.968 90.218C178.568 90.218 179.09 89.996 179.534 89.552C179.978 89.096 180.2 88.424 180.2 87.536C180.2 86.648 179.978 85.982 179.534 85.538C179.09 85.082 178.574 84.854 177.986 84.854C177.374 84.854 176.846 85.082 176.402 85.538C175.97 85.982 175.754 86.648 175.754 87.536C175.754 88.424 175.97 89.096 176.402 89.552C176.846 89.996 177.368 90.218 177.968 90.218ZM184.042 92V83.072H186.076L186.256 84.584C186.532 84.056 186.928 83.636 187.444 83.324C187.972 83.012 188.59 82.856 189.298 82.856C190.402 82.856 191.26 83.204 191.872 83.9C192.484 84.596 192.79 85.616 192.79 86.96V92H190.486V87.176C190.486 86.408 190.33 85.82 190.018 85.412C189.706 85.004 189.22 84.8 188.56 84.8C187.912 84.8 187.378 85.028 186.958 85.484C186.55 85.94 186.346 86.576 186.346 87.392V92H184.042Z" fill="black"/>
<path d="M1.40909 124V112.364H8.43182V113.614H2.81818V117.545H8.06818V118.795H2.81818V122.75H8.52273V124H1.40909ZM11.9707 118.75V124H10.6298V115.273H11.9252V116.636H12.0389C12.2434 116.193 12.554 115.837 12.9707 115.568C13.3873 115.295 13.9252 115.159 14.5843 115.159C15.1752 115.159 15.6923 115.28 16.1355 115.523C16.5786 115.761 16.9233 116.125 17.1695 116.614C17.4158 117.098 17.5389 117.712 17.5389 118.455V124H16.198V118.545C16.198 117.86 16.0199 117.326 15.6639 116.943C15.3078 116.557 14.8192 116.364 14.198 116.364C13.7699 116.364 13.3873 116.456 13.0502 116.642C12.7169 116.828 12.4536 117.098 12.2605 117.455C12.0673 117.811 11.9707 118.242 11.9707 118.75ZM26.011 117.227L24.8064 117.568C24.7307 117.367 24.6189 117.172 24.4712 116.983C24.3273 116.79 24.1303 116.631 23.8803 116.506C23.6303 116.381 23.3102 116.318 22.9201 116.318C22.386 116.318 21.9409 116.441 21.5848 116.688C21.2326 116.93 21.0564 117.239 21.0564 117.614C21.0564 117.947 21.1776 118.21 21.4201 118.403C21.6625 118.597 22.0413 118.758 22.5564 118.886L23.8519 119.205C24.6322 119.394 25.2136 119.684 25.5962 120.074C25.9788 120.46 26.1701 120.958 26.1701 121.568C26.1701 122.068 26.0261 122.515 25.7382 122.909C25.4541 123.303 25.0564 123.614 24.5451 123.841C24.0337 124.068 23.439 124.182 22.761 124.182C21.8708 124.182 21.1341 123.989 20.5507 123.602C19.9674 123.216 19.5981 122.652 19.4428 121.909L20.7155 121.591C20.8367 122.061 21.0659 122.413 21.403 122.648C21.7439 122.883 22.189 123 22.7382 123C23.3632 123 23.8595 122.867 24.2269 122.602C24.5981 122.333 24.7837 122.011 24.7837 121.636C24.7837 121.333 24.6776 121.08 24.4655 120.875C24.2534 120.667 23.9276 120.511 23.4882 120.409L22.0337 120.068C21.2345 119.879 20.6473 119.585 20.2723 119.188C19.9011 118.786 19.7155 118.284 19.7155 117.682C19.7155 117.189 19.8538 116.754 20.1303 116.375C20.4106 115.996 20.7913 115.699 21.2723 115.483C21.7572 115.267 22.3064 115.159 22.9201 115.159C23.7837 115.159 24.4617 115.348 24.9541 115.727C25.4504 116.106 25.8026 116.606 26.011 117.227ZM33.5285 120.432V115.273H34.8694V124H33.5285V122.523H33.4376C33.2331 122.966 32.9149 123.343 32.4831 123.653C32.0513 123.96 31.5058 124.114 30.8467 124.114C30.3013 124.114 29.8164 123.994 29.3922 123.756C28.9679 123.513 28.6346 123.15 28.3922 122.665C28.1497 122.176 28.0285 121.561 28.0285 120.818V115.273H29.3694V120.727C29.3694 121.364 29.5475 121.871 29.9035 122.25C30.2634 122.629 30.7217 122.818 31.2785 122.818C31.6119 122.818 31.9509 122.733 32.2956 122.562C32.6441 122.392 32.9357 122.131 33.1706 121.778C33.4092 121.426 33.5285 120.977 33.5285 120.432ZM37.1654 124V115.273H38.4609V116.591H38.5518C38.7109 116.159 38.9987 115.809 39.4154 115.54C39.8321 115.271 40.3018 115.136 40.8245 115.136C40.923 115.136 41.0461 115.138 41.1938 115.142C41.3415 115.146 41.4533 115.152 41.529 115.159V116.523C41.4836 116.511 41.3794 116.494 41.2165 116.472C41.0574 116.445 40.8889 116.432 40.7109 116.432C40.2866 116.432 39.9078 116.521 39.5745 116.699C39.2449 116.873 38.9836 117.116 38.7904 117.426C38.601 117.733 38.5063 118.083 38.5063 118.477V124H37.1654ZM46.352 124.182C45.5111 124.182 44.7857 123.996 44.1759 123.625C43.5698 123.25 43.102 122.727 42.7724 122.057C42.4467 121.383 42.2838 120.598 42.2838 119.705C42.2838 118.811 42.4467 118.023 42.7724 117.341C43.102 116.655 43.5603 116.121 44.1474 115.739C44.7384 115.352 45.4277 115.159 46.2156 115.159C46.6702 115.159 47.119 115.235 47.5622 115.386C48.0054 115.538 48.4088 115.784 48.7724 116.125C49.1361 116.462 49.4259 116.909 49.6418 117.466C49.8577 118.023 49.9656 118.708 49.9656 119.523V120.091H43.2384V118.932H48.602C48.602 118.439 48.5035 118 48.3065 117.614C48.1134 117.227 47.8368 116.922 47.477 116.699C47.1209 116.475 46.7005 116.364 46.2156 116.364C45.6815 116.364 45.2194 116.496 44.8293 116.761C44.4429 117.023 44.1456 117.364 43.9372 117.784C43.7289 118.205 43.6247 118.655 43.6247 119.136V119.909C43.6247 120.568 43.7384 121.127 43.9656 121.585C44.1967 122.04 44.5168 122.386 44.9259 122.625C45.3349 122.86 45.8103 122.977 46.352 122.977C46.7043 122.977 47.0224 122.928 47.3065 122.83C47.5944 122.727 47.8425 122.576 48.0509 122.375C48.2592 122.17 48.4202 121.917 48.5338 121.614L49.8293 121.977C49.6929 122.417 49.4637 122.803 49.1418 123.136C48.8198 123.466 48.4221 123.723 47.9486 123.909C47.4751 124.091 46.9429 124.182 46.352 124.182ZM57.049 127.273C56.8218 127.273 56.6191 127.254 56.4411 127.216C56.2631 127.182 56.1399 127.148 56.0718 127.114L56.4127 125.932C56.7384 126.015 57.0263 126.045 57.2763 126.023C57.5263 126 57.7479 125.888 57.9411 125.688C58.1381 125.491 58.318 125.17 58.4809 124.727L58.7309 124.045L55.5036 115.273H56.9581L59.3672 122.227H59.4581L61.8672 115.273H63.3218L59.6172 125.273C59.4506 125.723 59.2441 126.097 58.9979 126.392C58.7517 126.691 58.4657 126.913 58.1399 127.057C57.818 127.201 57.4543 127.273 57.049 127.273ZM68.1646 124.182C67.3767 124.182 66.6854 123.994 66.0907 123.619C65.4998 123.244 65.0377 122.72 64.7044 122.045C64.3748 121.371 64.2101 120.583 64.2101 119.682C64.2101 118.773 64.3748 117.979 64.7044 117.301C65.0377 116.623 65.4998 116.097 66.0907 115.722C66.6854 115.347 67.3767 115.159 68.1646 115.159C68.9525 115.159 69.6419 115.347 70.2328 115.722C70.8275 116.097 71.2896 116.623 71.6191 117.301C71.9525 117.979 72.1191 118.773 72.1191 119.682C72.1191 120.583 71.9525 121.371 71.6191 122.045C71.2896 122.72 70.8275 123.244 70.2328 123.619C69.6419 123.994 68.9525 124.182 68.1646 124.182ZM68.1646 122.977C68.7631 122.977 69.2555 122.824 69.6419 122.517C70.0282 122.21 70.3142 121.807 70.4998 121.307C70.6854 120.807 70.7782 120.265 70.7782 119.682C70.7782 119.098 70.6854 118.555 70.4998 118.051C70.3142 117.547 70.0282 117.14 69.6419 116.83C69.2555 116.519 68.7631 116.364 68.1646 116.364C67.5661 116.364 67.0737 116.519 66.6873 116.83C66.301 117.14 66.015 117.547 65.8294 118.051C65.6438 118.555 65.551 119.098 65.551 119.682C65.551 120.265 65.6438 120.807 65.8294 121.307C66.015 121.807 66.301 122.21 66.6873 122.517C67.0737 122.824 67.5661 122.977 68.1646 122.977ZM79.506 120.432V115.273H80.8469V124H79.506V122.523H79.4151C79.2106 122.966 78.8924 123.343 78.4606 123.653C78.0287 123.96 77.4833 124.114 76.8242 124.114C76.2787 124.114 75.7939 123.994 75.3697 123.756C74.9454 123.513 74.6121 123.15 74.3697 122.665C74.1272 122.176 74.006 121.561 74.006 120.818V115.273H75.3469V120.727C75.3469 121.364 75.525 121.871 75.881 122.25C76.2409 122.629 76.6992 122.818 77.256 122.818C77.5894 122.818 77.9284 122.733 78.2731 122.562C78.6216 122.392 78.9132 122.131 79.1481 121.778C79.3867 121.426 79.506 120.977 79.506 120.432ZM83.1429 124V115.273H84.4384V116.591H84.5293C84.6884 116.159 84.9762 115.809 85.3929 115.54C85.8096 115.271 86.2793 115.136 86.802 115.136C86.9005 115.136 87.0236 115.138 87.1713 115.142C87.319 115.146 87.4308 115.152 87.5065 115.159V116.523C87.4611 116.511 87.3569 116.494 87.194 116.472C87.0349 116.445 86.8664 116.432 86.6884 116.432C86.2641 116.432 85.8853 116.521 85.552 116.699C85.2224 116.873 84.9611 117.116 84.7679 117.426C84.5785 117.733 84.4838 118.083 84.4838 118.477V124H83.1429ZM96.5715 124.182C95.8442 124.182 95.2022 123.998 94.6453 123.631C94.0885 123.259 93.6529 122.737 93.3385 122.062C93.0241 121.384 92.8669 120.583 92.8669 119.659C92.8669 118.742 93.0241 117.947 93.3385 117.273C93.6529 116.598 94.0904 116.078 94.651 115.71C95.2116 115.343 95.8594 115.159 96.5942 115.159C97.1624 115.159 97.6113 115.254 97.9408 115.443C98.2741 115.629 98.5279 115.841 98.7022 116.08C98.8802 116.314 99.0184 116.508 99.1169 116.659H99.2306V112.364H100.571V124H99.276V122.659H99.1169C99.0184 122.818 98.8783 123.019 98.6965 123.261C98.5147 123.5 98.2552 123.714 97.9181 123.903C97.5809 124.089 97.1321 124.182 96.5715 124.182ZM96.7533 122.977C97.2912 122.977 97.7457 122.837 98.1169 122.557C98.4881 122.273 98.7703 121.881 98.9635 121.381C99.1567 120.877 99.2533 120.295 99.2533 119.636C99.2533 118.985 99.1586 118.415 98.9692 117.926C98.7798 117.434 98.4995 117.051 98.1283 116.778C97.7571 116.502 97.2988 116.364 96.7533 116.364C96.1851 116.364 95.7116 116.509 95.3328 116.801C94.9578 117.089 94.6756 117.481 94.4863 117.977C94.3006 118.47 94.2078 119.023 94.2078 119.636C94.2078 120.258 94.3025 120.822 94.4919 121.33C94.6851 121.833 94.9692 122.235 95.3442 122.534C95.723 122.83 96.1927 122.977 96.7533 122.977ZM105.622 124.205C105.069 124.205 104.567 124.1 104.116 123.892C103.665 123.68 103.307 123.375 103.042 122.977C102.777 122.576 102.644 122.091 102.644 121.523C102.644 121.023 102.743 120.617 102.94 120.307C103.137 119.992 103.4 119.746 103.73 119.568C104.059 119.39 104.423 119.258 104.821 119.17C105.222 119.08 105.625 119.008 106.031 118.955C106.561 118.886 106.991 118.835 107.321 118.801C107.654 118.763 107.896 118.701 108.048 118.614C108.203 118.527 108.281 118.375 108.281 118.159V118.114C108.281 117.553 108.127 117.117 107.821 116.807C107.518 116.496 107.057 116.341 106.44 116.341C105.8 116.341 105.298 116.481 104.934 116.761C104.571 117.042 104.315 117.341 104.167 117.659L102.894 117.205C103.122 116.674 103.425 116.261 103.804 115.966C104.186 115.667 104.603 115.458 105.054 115.341C105.508 115.22 105.955 115.159 106.394 115.159C106.675 115.159 106.997 115.193 107.36 115.261C107.728 115.326 108.082 115.46 108.423 115.665C108.768 115.869 109.054 116.178 109.281 116.591C109.508 117.004 109.622 117.557 109.622 118.25V124H108.281V122.818H108.213C108.122 123.008 107.97 123.21 107.758 123.426C107.546 123.642 107.264 123.826 106.911 123.977C106.559 124.129 106.129 124.205 105.622 124.205ZM105.826 123C106.357 123 106.804 122.896 107.167 122.688C107.535 122.479 107.811 122.21 107.997 121.881C108.186 121.551 108.281 121.205 108.281 120.841V119.614C108.224 119.682 108.099 119.744 107.906 119.801C107.716 119.854 107.497 119.902 107.247 119.943C107 119.981 106.76 120.015 106.525 120.045C106.294 120.072 106.107 120.095 105.963 120.114C105.614 120.159 105.288 120.233 104.985 120.335C104.686 120.434 104.444 120.583 104.258 120.784C104.076 120.981 103.985 121.25 103.985 121.591C103.985 122.057 104.158 122.409 104.502 122.648C104.851 122.883 105.292 123 105.826 123ZM115.705 115.273V116.409H111.182V115.273H115.705ZM112.5 113.182H113.841V121.5C113.841 121.879 113.896 122.163 114.006 122.352C114.119 122.538 114.263 122.663 114.438 122.727C114.616 122.788 114.803 122.818 115 122.818C115.148 122.818 115.269 122.811 115.364 122.795C115.458 122.777 115.534 122.761 115.591 122.75L115.864 123.955C115.773 123.989 115.646 124.023 115.483 124.057C115.32 124.095 115.114 124.114 114.864 124.114C114.485 124.114 114.114 124.032 113.75 123.869C113.39 123.706 113.091 123.458 112.852 123.125C112.617 122.792 112.5 122.371 112.5 121.864V113.182ZM120.13 124.205C119.577 124.205 119.075 124.1 118.624 123.892C118.173 123.68 117.815 123.375 117.55 122.977C117.285 122.576 117.153 122.091 117.153 121.523C117.153 121.023 117.251 120.617 117.448 120.307C117.645 119.992 117.908 119.746 118.238 119.568C118.567 119.39 118.931 119.258 119.329 119.17C119.73 119.08 120.134 119.008 120.539 118.955C121.069 118.886 121.499 118.835 121.829 118.801C122.162 118.763 122.404 118.701 122.556 118.614C122.711 118.527 122.789 118.375 122.789 118.159V118.114C122.789 117.553 122.636 117.117 122.329 116.807C122.026 116.496 121.565 116.341 120.948 116.341C120.308 116.341 119.806 116.481 119.442 116.761C119.079 117.042 118.823 117.341 118.675 117.659L117.403 117.205C117.63 116.674 117.933 116.261 118.312 115.966C118.694 115.667 119.111 115.458 119.562 115.341C120.016 115.22 120.463 115.159 120.903 115.159C121.183 115.159 121.505 115.193 121.868 115.261C122.236 115.326 122.59 115.46 122.931 115.665C123.276 115.869 123.562 116.178 123.789 116.591C124.016 117.004 124.13 117.557 124.13 118.25V124H122.789V122.818H122.721C122.63 123.008 122.478 123.21 122.266 123.426C122.054 123.642 121.772 123.826 121.42 123.977C121.067 124.129 120.637 124.205 120.13 124.205ZM120.334 123C120.865 123 121.312 122.896 121.675 122.688C122.043 122.479 122.319 122.21 122.505 121.881C122.694 121.551 122.789 121.205 122.789 120.841V119.614C122.732 119.682 122.607 119.744 122.414 119.801C122.225 119.854 122.005 119.902 121.755 119.943C121.509 119.981 121.268 120.015 121.033 120.045C120.802 120.072 120.615 120.095 120.471 120.114C120.122 120.159 119.796 120.233 119.493 120.335C119.194 120.434 118.952 120.583 118.766 120.784C118.584 120.981 118.493 121.25 118.493 121.591C118.493 122.057 118.666 122.409 119.011 122.648C119.359 122.883 119.8 123 120.334 123ZM127.599 112.364V113.386C127.599 113.697 127.542 114.028 127.429 114.381C127.319 114.729 127.156 115.068 126.94 115.398C126.728 115.723 126.47 116.008 126.167 116.25L125.44 115.659C125.679 115.318 125.885 114.964 126.059 114.597C126.237 114.225 126.326 113.83 126.326 113.409V112.364H127.599ZM134.158 117.227L132.953 117.568C132.878 117.367 132.766 117.172 132.618 116.983C132.474 116.79 132.277 116.631 132.027 116.506C131.777 116.381 131.457 116.318 131.067 116.318C130.533 116.318 130.088 116.441 129.732 116.688C129.379 116.93 129.203 117.239 129.203 117.614C129.203 117.947 129.325 118.21 129.567 118.403C129.809 118.597 130.188 118.758 130.703 118.886L131.999 119.205C132.779 119.394 133.36 119.684 133.743 120.074C134.126 120.46 134.317 120.958 134.317 121.568C134.317 122.068 134.173 122.515 133.885 122.909C133.601 123.303 133.203 123.614 132.692 123.841C132.181 124.068 131.586 124.182 130.908 124.182C130.018 124.182 129.281 123.989 128.698 123.602C128.114 123.216 127.745 122.652 127.59 121.909L128.862 121.591C128.984 122.061 129.213 122.413 129.55 122.648C129.891 122.883 130.336 123 130.885 123C131.51 123 132.006 122.867 132.374 122.602C132.745 122.333 132.931 122.011 132.931 121.636C132.931 121.333 132.825 121.08 132.612 120.875C132.4 120.667 132.075 120.511 131.635 120.409L130.181 120.068C129.381 119.879 128.794 119.585 128.419 119.188C128.048 118.786 127.862 118.284 127.862 117.682C127.862 117.189 128.001 116.754 128.277 116.375C128.557 115.996 128.938 115.699 129.419 115.483C129.904 115.267 130.453 115.159 131.067 115.159C131.931 115.159 132.609 115.348 133.101 115.727C133.597 116.106 133.95 116.606 134.158 117.227ZM146.697 117.227L145.493 117.568C145.417 117.367 145.305 117.172 145.157 116.983C145.014 116.79 144.817 116.631 144.567 116.506C144.317 116.381 143.996 116.318 143.606 116.318C143.072 116.318 142.627 116.441 142.271 116.688C141.919 116.93 141.743 117.239 141.743 117.614C141.743 117.947 141.864 118.21 142.106 118.403C142.349 118.597 142.728 118.758 143.243 118.886L144.538 119.205C145.318 119.394 145.9 119.684 146.282 120.074C146.665 120.46 146.856 120.958 146.856 121.568C146.856 122.068 146.712 122.515 146.424 122.909C146.14 123.303 145.743 123.614 145.231 123.841C144.72 124.068 144.125 124.182 143.447 124.182C142.557 124.182 141.82 123.989 141.237 123.602C140.654 123.216 140.284 122.652 140.129 121.909L141.402 121.591C141.523 122.061 141.752 122.413 142.089 122.648C142.43 122.883 142.875 123 143.424 123C144.049 123 144.546 122.867 144.913 122.602C145.284 122.333 145.47 122.011 145.47 121.636C145.47 121.333 145.364 121.08 145.152 120.875C144.94 120.667 144.614 120.511 144.174 120.409L142.72 120.068C141.921 119.879 141.334 119.585 140.959 119.188C140.587 118.786 140.402 118.284 140.402 117.682C140.402 117.189 140.54 116.754 140.817 116.375C141.097 115.996 141.478 115.699 141.959 115.483C142.443 115.267 142.993 115.159 143.606 115.159C144.47 115.159 145.148 115.348 145.64 115.727C146.137 116.106 146.489 116.606 146.697 117.227ZM151.283 124.205C150.73 124.205 150.228 124.1 149.777 123.892C149.327 123.68 148.969 123.375 148.703 122.977C148.438 122.576 148.306 122.091 148.306 121.523C148.306 121.023 148.404 120.617 148.601 120.307C148.798 119.992 149.061 119.746 149.391 119.568C149.72 119.39 150.084 119.258 150.482 119.17C150.883 119.08 151.287 119.008 151.692 118.955C152.222 118.886 152.652 118.835 152.982 118.801C153.315 118.763 153.558 118.701 153.709 118.614C153.864 118.527 153.942 118.375 153.942 118.159V118.114C153.942 117.553 153.789 117.117 153.482 116.807C153.179 116.496 152.719 116.341 152.101 116.341C151.461 116.341 150.959 116.481 150.595 116.761C150.232 117.042 149.976 117.341 149.828 117.659L148.556 117.205C148.783 116.674 149.086 116.261 149.465 115.966C149.847 115.667 150.264 115.458 150.715 115.341C151.169 115.22 151.616 115.159 152.056 115.159C152.336 115.159 152.658 115.193 153.022 115.261C153.389 115.326 153.743 115.46 154.084 115.665C154.429 115.869 154.715 116.178 154.942 116.591C155.169 117.004 155.283 117.557 155.283 118.25V124H153.942V122.818H153.874C153.783 123.008 153.631 123.21 153.419 123.426C153.207 123.642 152.925 123.826 152.573 123.977C152.22 124.129 151.791 124.205 151.283 124.205ZM151.488 123C152.018 123 152.465 122.896 152.828 122.688C153.196 122.479 153.472 122.21 153.658 121.881C153.847 121.551 153.942 121.205 153.942 120.841V119.614C153.885 119.682 153.76 119.744 153.567 119.801C153.378 119.854 153.158 119.902 152.908 119.943C152.662 119.981 152.421 120.015 152.186 120.045C151.955 120.072 151.768 120.095 151.624 120.114C151.275 120.159 150.95 120.233 150.647 120.335C150.347 120.434 150.105 120.583 149.919 120.784C149.738 120.981 149.647 121.25 149.647 121.591C149.647 122.057 149.819 122.409 150.164 122.648C150.512 122.883 150.953 123 151.488 123ZM161.457 115.273V116.409H156.752V115.273H161.457ZM158.161 124V114.068C158.161 113.568 158.279 113.152 158.514 112.818C158.748 112.485 159.053 112.235 159.428 112.068C159.803 111.902 160.199 111.818 160.616 111.818C160.945 111.818 161.214 111.845 161.423 111.898C161.631 111.951 161.786 112 161.889 112.045L161.502 113.205C161.434 113.182 161.339 113.153 161.218 113.119C161.101 113.085 160.945 113.068 160.752 113.068C160.309 113.068 159.989 113.18 159.792 113.403C159.599 113.627 159.502 113.955 159.502 114.386V124H158.161ZM166.476 124.182C165.635 124.182 164.909 123.996 164.3 123.625C163.694 123.25 163.226 122.727 162.896 122.057C162.57 121.383 162.408 120.598 162.408 119.705C162.408 118.811 162.57 118.023 162.896 117.341C163.226 116.655 163.684 116.121 164.271 115.739C164.862 115.352 165.551 115.159 166.339 115.159C166.794 115.159 167.243 115.235 167.686 115.386C168.129 115.538 168.533 115.784 168.896 116.125C169.26 116.462 169.55 116.909 169.766 117.466C169.981 118.023 170.089 118.708 170.089 119.523V120.091H163.362V118.932H168.726C168.726 118.439 168.627 118 168.43 117.614C168.237 117.227 167.961 116.922 167.601 116.699C167.245 116.475 166.824 116.364 166.339 116.364C165.805 116.364 165.343 116.496 164.953 116.761C164.567 117.023 164.269 117.364 164.061 117.784C163.853 118.205 163.748 118.655 163.748 119.136V119.909C163.748 120.568 163.862 121.127 164.089 121.585C164.32 122.04 164.641 122.386 165.05 122.625C165.459 122.86 165.934 122.977 166.476 122.977C166.828 122.977 167.146 122.928 167.43 122.83C167.718 122.727 167.966 122.576 168.175 122.375C168.383 122.17 168.544 121.917 168.658 121.614L169.953 121.977C169.817 122.417 169.587 122.803 169.266 123.136C168.944 123.466 168.546 123.723 168.072 123.909C167.599 124.091 167.067 124.182 166.476 124.182ZM175.765 115.273V116.409H171.242V115.273H175.765ZM172.56 113.182H173.901V121.5C173.901 121.879 173.956 122.163 174.066 122.352C174.179 122.538 174.323 122.663 174.498 122.727C174.676 122.788 174.863 122.818 175.06 122.818C175.208 122.818 175.329 122.811 175.424 122.795C175.518 122.777 175.594 122.761 175.651 122.75L175.924 123.955C175.833 123.989 175.706 124.023 175.543 124.057C175.38 124.095 175.174 124.114 174.924 124.114C174.545 124.114 174.174 124.032 173.81 123.869C173.45 123.706 173.151 123.458 172.912 123.125C172.677 122.792 172.56 122.371 172.56 121.864V113.182ZM178.485 127.273C178.258 127.273 178.055 127.254 177.877 127.216C177.699 127.182 177.576 127.148 177.508 127.114L177.849 125.932C178.175 126.015 178.463 126.045 178.713 126.023C178.963 126 179.184 125.888 179.377 125.688C179.574 125.491 179.754 125.17 179.917 124.727L180.167 124.045L176.94 115.273H178.394L180.803 122.227H180.894L183.303 115.273H184.758L181.053 125.273C180.887 125.723 180.68 126.097 180.434 126.392C180.188 126.691 179.902 126.913 179.576 127.057C179.254 127.201 178.891 127.273 178.485 127.273ZM192.685 124L190.026 115.273H191.435L193.322 121.955H193.412L195.276 115.273H196.708L198.549 121.932H198.64L200.526 115.273H201.935L199.276 124H197.958L196.049 117.295H195.912L194.003 124H192.685ZM203.548 124V115.273H204.889V124H203.548ZM204.23 113.818C203.968 113.818 203.743 113.729 203.554 113.551C203.368 113.373 203.275 113.159 203.275 112.909C203.275 112.659 203.368 112.445 203.554 112.267C203.743 112.089 203.968 112 204.23 112C204.491 112 204.715 112.089 204.9 112.267C205.09 112.445 205.184 112.659 205.184 112.909C205.184 113.159 205.09 113.373 204.9 113.551C204.715 113.729 204.491 113.818 204.23 113.818ZM210.98 115.273V116.409H206.458V115.273H210.98ZM207.776 113.182H209.117V121.5C209.117 121.879 209.172 122.163 209.281 122.352C209.395 122.538 209.539 122.663 209.713 122.727C209.891 122.788 210.079 122.818 210.276 122.818C210.423 122.818 210.545 122.811 210.639 122.795C210.734 122.777 210.81 122.761 210.867 122.75L211.139 123.955C211.048 123.989 210.922 124.023 210.759 124.057C210.596 124.095 210.389 124.114 210.139 124.114C209.761 124.114 209.389 124.032 209.026 123.869C208.666 123.706 208.367 123.458 208.128 123.125C207.893 122.792 207.776 122.371 207.776 121.864V113.182ZM214.366 118.75V124H213.025V112.364H214.366V116.636H214.479C214.684 116.186 214.991 115.828 215.4 115.562C215.813 115.294 216.362 115.159 217.048 115.159C217.642 115.159 218.163 115.278 218.61 115.517C219.057 115.752 219.404 116.114 219.65 116.602C219.9 117.087 220.025 117.705 220.025 118.455V124H218.684V118.545C218.684 117.852 218.504 117.316 218.144 116.938C217.788 116.555 217.294 116.364 216.661 116.364C216.222 116.364 215.828 116.456 215.479 116.642C215.135 116.828 214.862 117.098 214.661 117.455C214.464 117.811 214.366 118.242 214.366 118.75ZM230.453 115.273V116.409H225.931V115.273H230.453ZM227.249 113.182H228.59V121.5C228.59 121.879 228.645 122.163 228.754 122.352C228.868 122.538 229.012 122.663 229.186 122.727C229.364 122.788 229.552 122.818 229.749 122.818C229.897 122.818 230.018 122.811 230.112 122.795C230.207 122.777 230.283 122.761 230.34 122.75L230.612 123.955C230.522 123.989 230.395 124.023 230.232 124.057C230.069 124.095 229.862 124.114 229.612 124.114C229.234 124.114 228.862 124.032 228.499 123.869C228.139 123.706 227.84 123.458 227.601 123.125C227.366 122.792 227.249 122.371 227.249 121.864V113.182ZM235.762 124.182C234.974 124.182 234.283 123.994 233.688 123.619C233.097 123.244 232.635 122.72 232.302 122.045C231.972 121.371 231.808 120.583 231.808 119.682C231.808 118.773 231.972 117.979 232.302 117.301C232.635 116.623 233.097 116.097 233.688 115.722C234.283 115.347 234.974 115.159 235.762 115.159C236.55 115.159 237.239 115.347 237.83 115.722C238.425 116.097 238.887 116.623 239.217 117.301C239.55 117.979 239.717 118.773 239.717 119.682C239.717 120.583 239.55 121.371 239.217 122.045C238.887 122.72 238.425 123.244 237.83 123.619C237.239 123.994 236.55 124.182 235.762 124.182ZM235.762 122.977C236.361 122.977 236.853 122.824 237.239 122.517C237.626 122.21 237.912 121.807 238.097 121.307C238.283 120.807 238.376 120.265 238.376 119.682C238.376 119.098 238.283 118.555 238.097 118.051C237.912 117.547 237.626 117.14 237.239 116.83C236.853 116.519 236.361 116.364 235.762 116.364C235.164 116.364 234.671 116.519 234.285 116.83C233.898 117.14 233.612 117.547 233.427 118.051C233.241 118.555 233.148 119.098 233.148 119.682C233.148 120.265 233.241 120.807 233.427 121.307C233.612 121.807 233.898 122.21 234.285 122.517C234.671 122.824 235.164 122.977 235.762 122.977ZM241.604 127.273V115.273H242.899V116.659H243.058C243.157 116.508 243.293 116.314 243.467 116.08C243.645 115.841 243.899 115.629 244.229 115.443C244.562 115.254 245.013 115.159 245.581 115.159C246.316 115.159 246.963 115.343 247.524 115.71C248.085 116.078 248.522 116.598 248.836 117.273C249.151 117.947 249.308 118.742 249.308 119.659C249.308 120.583 249.151 121.384 248.836 122.062C248.522 122.737 248.086 123.259 247.53 123.631C246.973 123.998 246.331 124.182 245.604 124.182C245.043 124.182 244.594 124.089 244.257 123.903C243.92 123.714 243.66 123.5 243.479 123.261C243.297 123.019 243.157 122.818 243.058 122.659H242.944V127.273H241.604ZM242.922 119.636C242.922 120.295 243.018 120.877 243.211 121.381C243.405 121.881 243.687 122.273 244.058 122.557C244.429 122.837 244.884 122.977 245.422 122.977C245.982 122.977 246.45 122.83 246.825 122.534C247.204 122.235 247.488 121.833 247.677 121.33C247.871 120.822 247.967 120.258 247.967 119.636C247.967 119.023 247.872 118.47 247.683 117.977C247.497 117.481 247.215 117.089 246.836 116.801C246.461 116.509 245.99 116.364 245.422 116.364C244.876 116.364 244.418 116.502 244.047 116.778C243.675 117.051 243.395 117.434 243.206 117.926C243.016 118.415 242.922 118.985 242.922 119.636ZM256.194 118.386V119.636H251.103V118.386H256.194ZM5.02273 138.273V139.409H0.5V138.273H5.02273ZM1.81818 136.182H3.15909V144.5C3.15909 144.879 3.21402 145.163 3.32386 145.352C3.4375 145.538 3.58144 145.663 3.75568 145.727C3.93371 145.788 4.12121 145.818 4.31818 145.818C4.46591 145.818 4.58712 145.811 4.68182 145.795C4.77652 145.777 4.85227 145.761 4.90909 145.75L5.18182 146.955C5.09091 146.989 4.96402 147.023 4.80114 147.057C4.63826 147.095 4.43182 147.114 4.18182 147.114C3.80303 147.114 3.43182 147.032 3.06818 146.869C2.70833 146.706 2.40909 146.458 2.17045 146.125C1.93561 145.792 1.81818 145.371 1.81818 144.864V136.182ZM6.87977 147V138.273H8.22068V147H6.87977ZM7.56159 136.818C7.30023 136.818 7.07485 136.729 6.88545 136.551C6.69985 136.373 6.60705 136.159 6.60705 135.909C6.60705 135.659 6.69985 135.445 6.88545 135.267C7.07485 135.089 7.30023 135 7.56159 135C7.82295 135 8.04644 135.089 8.23205 135.267C8.42144 135.445 8.51614 135.659 8.51614 135.909C8.51614 136.159 8.42144 136.373 8.23205 136.551C8.04644 136.729 7.82295 136.818 7.56159 136.818ZM14.1757 147.182C13.3348 147.182 12.6095 146.996 11.9996 146.625C11.3935 146.25 10.9257 145.727 10.5962 145.057C10.2704 144.383 10.1076 143.598 10.1076 142.705C10.1076 141.811 10.2704 141.023 10.5962 140.341C10.9257 139.655 11.3841 139.121 11.9712 138.739C12.5621 138.352 13.2515 138.159 14.0394 138.159C14.4939 138.159 14.9428 138.235 15.386 138.386C15.8291 138.538 16.2326 138.784 16.5962 139.125C16.9598 139.462 17.2496 139.909 17.4655 140.466C17.6814 141.023 17.7894 141.708 17.7894 142.523V143.091H11.0621V141.932H16.4257C16.4257 141.439 16.3273 141 16.1303 140.614C15.9371 140.227 15.6606 139.922 15.3007 139.699C14.9447 139.475 14.5242 139.364 14.0394 139.364C13.5053 139.364 13.0432 139.496 12.653 139.761C12.2666 140.023 11.9693 140.364 11.761 140.784C11.5526 141.205 11.4485 141.655 11.4485 142.136V142.909C11.4485 143.568 11.5621 144.127 11.7894 144.585C12.0204 145.04 12.3405 145.386 12.7496 145.625C13.1587 145.86 13.6341 145.977 14.1757 145.977C14.528 145.977 14.8462 145.928 15.1303 145.83C15.4182 145.727 15.6663 145.576 15.8746 145.375C16.0829 145.17 16.2439 144.917 16.3576 144.614L17.653 144.977C17.5166 145.417 17.2875 145.803 16.9655 146.136C16.6435 146.466 16.2458 146.723 15.7723 146.909C15.2988 147.091 14.7666 147.182 14.1757 147.182ZM19.6691 147V138.273H20.9646V139.591H21.0555C21.2146 139.159 21.5025 138.809 21.9191 138.54C22.3358 138.271 22.8055 138.136 23.3282 138.136C23.4267 138.136 23.5498 138.138 23.6976 138.142C23.8453 138.146 23.957 138.152 24.0328 138.159V139.523C23.9873 139.511 23.8832 139.494 23.7203 139.472C23.5612 139.445 23.3926 139.432 23.2146 139.432C22.7904 139.432 22.4116 139.521 22.0782 139.699C21.7487 139.873 21.4873 140.116 21.2941 140.426C21.1048 140.733 21.0101 141.083 21.0101 141.477V147H19.6691ZM33.4614 147.182C32.6205 147.182 31.8951 146.996 31.2852 146.625C30.6792 146.25 30.2114 145.727 29.8818 145.057C29.5561 144.383 29.3932 143.598 29.3932 142.705C29.3932 141.811 29.5561 141.023 29.8818 140.341C30.2114 139.655 30.6697 139.121 31.2568 138.739C31.8477 138.352 32.5371 138.159 33.325 138.159C33.7795 138.159 34.2284 138.235 34.6716 138.386C35.1148 138.538 35.5182 138.784 35.8818 139.125C36.2455 139.462 36.5352 139.909 36.7511 140.466C36.967 141.023 37.075 141.708 37.075 142.523V143.091H30.3477V141.932H35.7114C35.7114 141.439 35.6129 141 35.4159 140.614C35.2227 140.227 34.9462 139.922 34.5864 139.699C34.2303 139.475 33.8098 139.364 33.325 139.364C32.7909 139.364 32.3288 139.496 31.9386 139.761C31.5523 140.023 31.2549 140.364 31.0466 140.784C30.8383 141.205 30.7341 141.655 30.7341 142.136V142.909C30.7341 143.568 30.8477 144.127 31.075 144.585C31.3061 145.04 31.6261 145.386 32.0352 145.625C32.4443 145.86 32.9197 145.977 33.4614 145.977C33.8136 145.977 34.1318 145.928 34.4159 145.83C34.7038 145.727 34.9519 145.576 35.1602 145.375C35.3686 145.17 35.5295 144.917 35.6432 144.614L36.9386 144.977C36.8023 145.417 36.5731 145.803 36.2511 146.136C35.9292 146.466 35.5314 146.723 35.058 146.909C34.5845 147.091 34.0523 147.182 33.4614 147.182ZM40.2957 141.75V147H38.9548V138.273H40.2502V139.636H40.3639C40.5684 139.193 40.879 138.837 41.2957 138.568C41.7123 138.295 42.2502 138.159 42.9093 138.159C43.5002 138.159 44.0173 138.28 44.4605 138.523C44.9036 138.761 45.2483 139.125 45.4945 139.614C45.7408 140.098 45.8639 140.712 45.8639 141.455V147H44.523V141.545C44.523 140.86 44.3449 140.326 43.9889 139.943C43.6328 139.557 43.1442 139.364 42.523 139.364C42.0949 139.364 41.7123 139.456 41.3752 139.642C41.0419 139.828 40.7786 140.098 40.5855 140.455C40.3923 140.811 40.2957 141.242 40.2957 141.75ZM51.6996 147.182C50.8814 147.182 50.1769 146.989 49.586 146.602C48.9951 146.216 48.5405 145.684 48.2223 145.006C47.9041 144.328 47.7451 143.553 47.7451 142.682C47.7451 141.795 47.9079 141.013 48.2337 140.335C48.5632 139.653 49.0216 139.121 49.6087 138.739C50.1996 138.352 50.889 138.159 51.6769 138.159C52.2905 138.159 52.8435 138.273 53.336 138.5C53.8284 138.727 54.2318 139.045 54.5462 139.455C54.8606 139.864 55.0557 140.341 55.1314 140.886H53.7905C53.6882 140.489 53.461 140.136 53.1087 139.83C52.7602 139.519 52.2905 139.364 51.6996 139.364C51.1769 139.364 50.7185 139.5 50.3246 139.773C49.9345 140.042 49.6295 140.422 49.4098 140.915C49.1939 141.403 49.086 141.977 49.086 142.636C49.086 143.311 49.192 143.898 49.4041 144.398C49.6201 144.898 49.9231 145.286 50.3132 145.562C50.7072 145.839 51.1693 145.977 51.6996 145.977C52.0481 145.977 52.3644 145.917 52.6485 145.795C52.9326 145.674 53.1731 145.5 53.3701 145.273C53.567 145.045 53.7072 144.773 53.7905 144.455H55.1314C55.0557 144.97 54.8682 145.434 54.5689 145.847C54.2735 146.256 53.8814 146.581 53.3928 146.824C52.9079 147.062 52.3435 147.182 51.6996 147.182ZM56.9316 147V138.273H58.2271V139.591H58.318C58.4771 139.159 58.765 138.809 59.1816 138.54C59.5983 138.271 60.068 138.136 60.5907 138.136C60.6892 138.136 60.8123 138.138 60.9601 138.142C61.1078 138.146 61.2195 138.152 61.2953 138.159V139.523C61.2498 139.511 61.1457 139.494 60.9828 139.472C60.8237 139.445 60.6551 139.432 60.4771 139.432C60.0529 139.432 59.6741 139.521 59.3407 139.699C59.0112 139.873 58.7498 140.116 58.5566 140.426C58.3673 140.733 58.2726 141.083 58.2726 141.477V147H56.9316ZM63.854 150.273C63.6268 150.273 63.4241 150.254 63.2461 150.216C63.0681 150.182 62.9449 150.148 62.8768 150.114L63.2177 148.932C63.5434 149.015 63.8313 149.045 64.0813 149.023C64.3313 149 64.5529 148.888 64.7461 148.688C64.9431 148.491 65.123 148.17 65.2859 147.727L65.5359 147.045L62.3086 138.273H63.7631L66.1722 145.227H66.2631L68.6722 138.273H70.1268L66.4222 148.273C66.2556 148.723 66.0491 149.097 65.8029 149.392C65.5567 149.691 65.2707 149.913 64.9449 150.057C64.623 150.201 64.2593 150.273 63.854 150.273ZM71.7366 150.273V138.273H73.0321V139.659H73.1912C73.2897 139.508 73.426 139.314 73.6003 139.08C73.7783 138.841 74.0321 138.629 74.3616 138.443C74.695 138.254 75.1457 138.159 75.7139 138.159C76.4488 138.159 77.0965 138.343 77.6571 138.71C78.2177 139.078 78.6552 139.598 78.9696 140.273C79.284 140.947 79.4412 141.742 79.4412 142.659C79.4412 143.583 79.284 144.384 78.9696 145.062C78.6552 145.737 78.2196 146.259 77.6628 146.631C77.106 146.998 76.4639 147.182 75.7366 147.182C75.176 147.182 74.7272 147.089 74.3901 146.903C74.0529 146.714 73.7935 146.5 73.6116 146.261C73.4298 146.019 73.2897 145.818 73.1912 145.659H73.0776V150.273H71.7366ZM73.0548 142.636C73.0548 143.295 73.1514 143.877 73.3446 144.381C73.5378 144.881 73.82 145.273 74.1912 145.557C74.5624 145.837 75.017 145.977 75.5548 145.977C76.1154 145.977 76.5832 145.83 76.9582 145.534C77.337 145.235 77.6211 144.833 77.8105 144.33C78.0037 143.822 78.1003 143.258 78.1003 142.636C78.1003 142.023 78.0056 141.47 77.8162 140.977C77.6306 140.481 77.3484 140.089 76.9696 139.801C76.5946 139.509 76.123 139.364 75.5548 139.364C75.0094 139.364 74.551 139.502 74.1798 139.778C73.8086 140.051 73.5283 140.434 73.3389 140.926C73.1495 141.415 73.0548 141.985 73.0548 142.636ZM85.1221 138.273V139.409H80.5994V138.273H85.1221ZM81.9176 136.182H83.2585V144.5C83.2585 144.879 83.3134 145.163 83.4232 145.352C83.5369 145.538 83.6808 145.663 83.8551 145.727C84.0331 145.788 84.2206 145.818 84.4176 145.818C84.5653 145.818 84.6865 145.811 84.7812 145.795C84.8759 145.777 84.9516 145.761 85.0085 145.75L85.2812 146.955C85.1903 146.989 85.0634 147.023 84.9005 147.057C84.7376 147.095 84.5312 147.114 84.2812 147.114C83.9024 147.114 83.5312 147.032 83.1676 146.869C82.8077 146.706 82.5085 146.458 82.2698 146.125C82.035 145.792 81.9176 145.371 81.9176 144.864V136.182ZM86.9791 147V138.273H88.3201V147H86.9791ZM87.661 136.818C87.3996 136.818 87.1742 136.729 86.9848 136.551C86.7992 136.373 86.7064 136.159 86.7064 135.909C86.7064 135.659 86.7992 135.445 86.9848 135.267C87.1742 135.089 87.3996 135 87.661 135C87.9223 135 88.1458 135.089 88.3314 135.267C88.5208 135.445 88.6155 135.659 88.6155 135.909C88.6155 136.159 88.5208 136.373 88.3314 136.551C88.1458 136.729 87.9223 136.818 87.661 136.818ZM94.1615 147.182C93.3736 147.182 92.6823 146.994 92.0876 146.619C91.4967 146.244 91.0346 145.72 90.7012 145.045C90.3717 144.371 90.2069 143.583 90.2069 142.682C90.2069 141.773 90.3717 140.979 90.7012 140.301C91.0346 139.623 91.4967 139.097 92.0876 138.722C92.6823 138.347 93.3736 138.159 94.1615 138.159C94.9494 138.159 95.6387 138.347 96.2297 138.722C96.8244 139.097 97.2865 139.623 97.616 140.301C97.9494 140.979 98.116 141.773 98.116 142.682C98.116 143.583 97.9494 144.371 97.616 145.045C97.2865 145.72 96.8244 146.244 96.2297 146.619C95.6387 146.994 94.9494 147.182 94.1615 147.182ZM94.1615 145.977C94.76 145.977 95.2524 145.824 95.6387 145.517C96.0251 145.21 96.3111 144.807 96.4967 144.307C96.6823 143.807 96.7751 143.265 96.7751 142.682C96.7751 142.098 96.6823 141.555 96.4967 141.051C96.3111 140.547 96.0251 140.14 95.6387 139.83C95.2524 139.519 94.76 139.364 94.1615 139.364C93.563 139.364 93.0706 139.519 92.6842 139.83C92.2978 140.14 92.0119 140.547 91.8262 141.051C91.6406 141.555 91.5478 142.098 91.5478 142.682C91.5478 143.265 91.6406 143.807 91.8262 144.307C92.0119 144.807 92.2978 145.21 92.6842 145.517C93.0706 145.824 93.563 145.977 94.1615 145.977ZM101.344 141.75V147H100.003V138.273H101.298V139.636H101.412C101.617 139.193 101.927 138.837 102.344 138.568C102.76 138.295 103.298 138.159 103.957 138.159C104.548 138.159 105.065 138.28 105.509 138.523C105.952 138.761 106.296 139.125 106.543 139.614C106.789 140.098 106.912 140.712 106.912 141.455V147H105.571V141.545C105.571 140.86 105.393 140.326 105.037 139.943C104.681 139.557 104.192 139.364 103.571 139.364C103.143 139.364 102.76 139.456 102.423 139.642C102.09 139.828 101.827 140.098 101.634 140.455C101.44 140.811 101.344 141.242 101.344 141.75ZM110.18 147.091C109.899 147.091 109.659 146.991 109.458 146.79C109.257 146.589 109.157 146.348 109.157 146.068C109.157 145.788 109.257 145.547 109.458 145.347C109.659 145.146 109.899 145.045 110.18 145.045C110.46 145.045 110.7 145.146 110.901 145.347C111.102 145.547 111.202 145.788 111.202 146.068C111.202 146.254 111.155 146.424 111.06 146.58C110.969 146.735 110.846 146.86 110.691 146.955C110.539 147.045 110.369 147.091 110.18 147.091Z" fill="black"/>
<path d="M0.409091 179V167.364H1.81818V177.75H7.22727V179H0.409091ZM12.7264 179.182C11.8855 179.182 11.1601 178.996 10.5502 178.625C9.94417 178.25 9.47636 177.727 9.14682 177.057C8.82106 176.383 8.65818 175.598 8.65818 174.705C8.65818 173.811 8.82106 173.023 9.14682 172.341C9.47636 171.655 9.9347 171.121 10.5218 170.739C11.1127 170.352 11.8021 170.159 12.59 170.159C13.0445 170.159 13.4934 170.235 13.9366 170.386C14.3798 170.538 14.7832 170.784 15.1468 171.125C15.5105 171.462 15.8002 171.909 16.0161 172.466C16.232 173.023 16.34 173.708 16.34 174.523V175.091H9.61273V173.932H14.9764C14.9764 173.439 14.8779 173 14.6809 172.614C14.4877 172.227 14.2112 171.922 13.8514 171.699C13.4953 171.475 13.0748 171.364 12.59 171.364C12.0559 171.364 11.5938 171.496 11.2036 171.761C10.8173 172.023 10.5199 172.364 10.3116 172.784C10.1033 173.205 9.99909 173.655 9.99909 174.136V174.909C9.99909 175.568 10.1127 176.127 10.34 176.585C10.5711 177.04 10.8911 177.386 11.3002 177.625C11.7093 177.86 12.1847 177.977 12.7264 177.977C13.0786 177.977 13.3968 177.928 13.6809 177.83C13.9688 177.727 14.2169 177.576 14.4252 177.375C14.6336 177.17 14.7945 176.917 14.9082 176.614L16.2036 176.977C16.0673 177.417 15.8381 177.803 15.5161 178.136C15.1942 178.466 14.7964 178.723 14.323 178.909C13.8495 179.091 13.3173 179.182 12.7264 179.182ZM20.788 179.205C20.2349 179.205 19.733 179.1 19.2823 178.892C18.8315 178.68 18.4736 178.375 18.2084 177.977C17.9433 177.576 17.8107 177.091 17.8107 176.523C17.8107 176.023 17.9092 175.617 18.1061 175.307C18.3031 174.992 18.5664 174.746 18.8959 174.568C19.2255 174.39 19.5891 174.258 19.9868 174.17C20.3883 174.08 20.7917 174.008 21.197 173.955C21.7273 173.886 22.1573 173.835 22.4868 173.801C22.8202 173.763 23.0626 173.701 23.2141 173.614C23.3694 173.527 23.447 173.375 23.447 173.159V173.114C23.447 172.553 23.2936 172.117 22.9868 171.807C22.6838 171.496 22.2236 171.341 21.6061 171.341C20.966 171.341 20.4641 171.481 20.1005 171.761C19.7368 172.042 19.4811 172.341 19.3334 172.659L18.0607 172.205C18.288 171.674 18.591 171.261 18.9698 170.966C19.3523 170.667 19.769 170.458 20.2198 170.341C20.6743 170.22 21.1213 170.159 21.5607 170.159C21.841 170.159 22.163 170.193 22.5266 170.261C22.894 170.326 23.2482 170.46 23.5891 170.665C23.9338 170.869 24.2198 171.178 24.447 171.591C24.6743 172.004 24.788 172.557 24.788 173.25V179H23.447V177.818H23.3789C23.288 178.008 23.1364 178.21 22.9243 178.426C22.7122 178.642 22.43 178.826 22.0777 178.977C21.7255 179.129 21.2955 179.205 20.788 179.205ZM20.9925 178C21.5228 178 21.9698 177.896 22.3334 177.688C22.7008 177.479 22.9773 177.21 23.163 176.881C23.3523 176.551 23.447 176.205 23.447 175.841V174.614C23.3902 174.682 23.2652 174.744 23.072 174.801C22.8827 174.854 22.663 174.902 22.413 174.943C22.1667 174.981 21.9262 175.015 21.6914 175.045C21.4603 175.072 21.2728 175.095 21.1289 175.114C20.7804 175.159 20.4546 175.233 20.1516 175.335C19.8523 175.434 19.6099 175.583 19.4243 175.784C19.2425 175.981 19.1516 176.25 19.1516 176.591C19.1516 177.057 19.3239 177.409 19.6686 177.648C20.0171 177.883 20.4584 178 20.9925 178ZM27.0754 179V170.273H28.3709V171.591H28.4618C28.6209 171.159 28.9087 170.809 29.3254 170.54C29.7421 170.271 30.2118 170.136 30.7345 170.136C30.833 170.136 30.9561 170.138 31.1038 170.142C31.2515 170.146 31.3633 170.152 31.439 170.159V171.523C31.3936 171.511 31.2894 171.494 31.1265 171.472C30.9674 171.445 30.7989 171.432 30.6209 171.432C30.1966 171.432 29.8178 171.521 29.4845 171.699C29.1549 171.873 28.8936 172.116 28.7004 172.426C28.511 172.733 28.4163 173.083 28.4163 173.477V179H27.0754ZM34.2094 173.75V179H32.8685V170.273H34.164V171.636H34.2776C34.4822 171.193 34.7928 170.837 35.2094 170.568C35.6261 170.295 36.164 170.159 36.8231 170.159C37.414 170.159 37.931 170.28 38.3742 170.523C38.8174 170.761 39.1621 171.125 39.4083 171.614C39.6545 172.098 39.7776 172.712 39.7776 173.455V179H38.4367V173.545C38.4367 172.86 38.2587 172.326 37.9026 171.943C37.5466 171.557 37.0579 171.364 36.4367 171.364C36.0087 171.364 35.6261 171.456 35.289 171.642C34.9556 171.828 34.6924 172.098 34.4992 172.455C34.306 172.811 34.2094 173.242 34.2094 173.75ZM46.4079 179V170.273H47.7034V171.636H47.817C47.9988 171.17 48.2924 170.809 48.6977 170.551C49.103 170.29 49.5897 170.159 50.1579 170.159C50.7337 170.159 51.2128 170.29 51.5954 170.551C51.9818 170.809 52.2829 171.17 52.4988 171.636H52.5897C52.8132 171.186 53.1484 170.828 53.5954 170.562C54.0424 170.294 54.5784 170.159 55.2034 170.159C55.9837 170.159 56.6219 170.403 57.1181 170.892C57.6143 171.377 57.8624 172.133 57.8624 173.159V179H56.5215V173.159C56.5215 172.515 56.3454 172.055 55.9931 171.778C55.6409 171.502 55.2261 171.364 54.7488 171.364C54.1352 171.364 53.6598 171.549 53.3227 171.92C52.9856 172.288 52.817 172.754 52.817 173.318V179H51.4534V173.023C51.4534 172.527 51.2924 172.127 50.9704 171.824C50.6484 171.517 50.2337 171.364 49.7261 171.364C49.3776 171.364 49.0518 171.456 48.7488 171.642C48.4496 171.828 48.2071 172.085 48.0215 172.415C47.8397 172.741 47.7488 173.117 47.7488 173.545V179H46.4079ZM63.6996 179.182C62.9117 179.182 62.2204 178.994 61.6257 178.619C61.0348 178.244 60.5727 177.72 60.2394 177.045C59.9098 176.371 59.7451 175.583 59.7451 174.682C59.7451 173.773 59.9098 172.979 60.2394 172.301C60.5727 171.623 61.0348 171.097 61.6257 170.722C62.2204 170.347 62.9117 170.159 63.6996 170.159C64.4875 170.159 65.1769 170.347 65.7678 170.722C66.3625 171.097 66.8246 171.623 67.1541 172.301C67.4875 172.979 67.6541 173.773 67.6541 174.682C67.6541 175.583 67.4875 176.371 67.1541 177.045C66.8246 177.72 66.3625 178.244 65.7678 178.619C65.1769 178.994 64.4875 179.182 63.6996 179.182ZM63.6996 177.977C64.2981 177.977 64.7905 177.824 65.1769 177.517C65.5632 177.21 65.8492 176.807 66.0348 176.307C66.2204 175.807 66.3132 175.265 66.3132 174.682C66.3132 174.098 66.2204 173.555 66.0348 173.051C65.8492 172.547 65.5632 172.14 65.1769 171.83C64.7905 171.519 64.2981 171.364 63.6996 171.364C63.1011 171.364 62.6087 171.519 62.2223 171.83C61.836 172.14 61.55 172.547 61.3644 173.051C61.1788 173.555 61.086 174.098 61.086 174.682C61.086 175.265 61.1788 175.807 61.3644 176.307C61.55 176.807 61.836 177.21 62.2223 177.517C62.6087 177.824 63.1011 177.977 63.6996 177.977ZM69.541 179V170.273H70.8365V171.591H70.9274C71.0865 171.159 71.3744 170.809 71.791 170.54C72.2077 170.271 72.6774 170.136 73.2001 170.136C73.2986 170.136 73.4217 170.138 73.5694 170.142C73.7172 170.146 73.8289 170.152 73.9047 170.159V171.523C73.8592 171.511 73.755 171.494 73.5922 171.472C73.4331 171.445 73.2645 171.432 73.0865 171.432C72.6622 171.432 72.2834 171.521 71.9501 171.699C71.6206 171.873 71.3592 172.116 71.166 172.426C70.9766 172.733 70.8819 173.083 70.8819 173.477V179H69.541ZM78.7276 179.182C77.8867 179.182 77.1613 178.996 76.5515 178.625C75.9454 178.25 75.4776 177.727 75.1481 177.057C74.8223 176.383 74.6594 175.598 74.6594 174.705C74.6594 173.811 74.8223 173.023 75.1481 172.341C75.4776 171.655 75.9359 171.121 76.5231 170.739C77.114 170.352 77.8034 170.159 78.5912 170.159C79.0458 170.159 79.4947 170.235 79.9378 170.386C80.381 170.538 80.7844 170.784 81.1481 171.125C81.5117 171.462 81.8015 171.909 82.0174 172.466C82.2333 173.023 82.3412 173.708 82.3412 174.523V175.091H75.614V173.932H80.9776C80.9776 173.439 80.8791 173 80.6822 172.614C80.489 172.227 80.2125 171.922 79.8526 171.699C79.4966 171.475 79.0761 171.364 78.5912 171.364C78.0572 171.364 77.595 171.496 77.2049 171.761C76.8185 172.023 76.5212 172.364 76.3128 172.784C76.1045 173.205 76.0003 173.655 76.0003 174.136V174.909C76.0003 175.568 76.114 176.127 76.3412 176.585C76.5723 177.04 76.8924 177.386 77.3015 177.625C77.7106 177.86 78.1859 177.977 78.7276 177.977C79.0799 177.977 79.3981 177.928 79.6822 177.83C79.97 177.727 80.2181 177.576 80.4265 177.375C80.6348 177.17 80.7958 176.917 80.9094 176.614L82.2049 176.977C82.0685 177.417 81.8394 177.803 81.5174 178.136C81.1954 178.466 80.7977 178.723 80.3242 178.909C79.8507 179.091 79.3185 179.182 78.7276 179.182Z" fill="black"/>
<path d="M104.031 174.031L99.5306 178.531C99.3897 178.672 99.1986 178.751 98.9994 178.751C98.8001 178.751 98.609 178.672 98.4681 178.531C98.3272 178.39 98.2481 178.199 98.2481 177.999C98.2481 177.8 98.3272 177.609 98.4681 177.468L101.688 174.25H92.5C92.3011 174.25 92.1103 174.171 91.9697 174.03C91.829 173.89 91.75 173.699 91.75 173.5C91.75 173.301 91.829 173.11 91.9697 172.97C92.1103 172.829 92.3011 172.75 92.5 172.75H101.688L98.4694 169.53C98.3285 169.389 98.2493 169.198 98.2493 168.999C98.2493 168.799 98.3285 168.608 98.4694 168.467C98.6103 168.327 98.8014 168.247 99.0006 168.247C99.1999 168.247 99.391 168.327 99.5319 168.467L104.032 172.967C104.102 173.037 104.157 173.12 104.195 173.211C104.233 173.303 104.252 173.401 104.252 173.499C104.252 173.598 104.232 173.696 104.194 173.787C104.156 173.878 104.101 173.961 104.031 174.031Z" fill="black"/>
</svg>
