<svg width="260" height="225" viewBox="0 0 260 225" fill="none" xmlns="http://www.w3.org/2000/svg">
<path d="M21.4931 48.475C22.2996 50.6412 22.3406 53.0182 21.6093 55.211C20.878 57.4038 19.4184 59.2803 17.4731 60.5288C15.5278 61.7773 13.2138 62.3225 10.9157 62.074C8.61761 61.8254 6.47373 60.798 4.84031 59.1625C3.00548 57.3337 1.94143 54.8712 1.86712 52.2817C1.7928 49.6922 2.71389 47.1727 4.44082 45.2417C6.16776 43.3107 8.56916 42.1151 11.1509 41.9009C13.7326 41.6867 16.2982 42.4703 18.3197 44.0903L20.2041 42.205C20.3087 42.1003 20.4329 42.0173 20.5697 41.9607C20.7064 41.9041 20.8529 41.8749 21.0009 41.8749C21.1489 41.8749 21.2955 41.9041 21.4322 41.9607C21.5689 42.0173 21.6932 42.1003 21.7978 42.205C21.9025 42.3096 21.9855 42.4339 22.0421 42.5706C22.0987 42.7073 22.1279 42.8539 22.1279 43.0019C22.1279 43.1499 22.0987 43.2964 22.0421 43.4331C21.9855 43.5699 21.9025 43.6941 21.7978 43.7987L12.7978 52.7987C12.6932 52.9034 12.5689 52.9864 12.4322 53.043C12.2955 53.0997 12.1489 53.1288 12.0009 53.1288C11.8529 53.1288 11.7064 53.0997 11.5697 53.043C11.4329 52.9864 11.3087 52.9034 11.2041 52.7987C11.0994 52.6941 11.0164 52.5699 10.9598 52.4331C10.9031 52.2964 10.874 52.1499 10.874 52.0019C10.874 51.8539 10.9031 51.7073 10.9598 51.5706C11.0164 51.4339 11.0994 51.3096 11.2041 51.205L13.4541 48.955C12.8199 48.652 12.107 48.5546 11.4148 48.6762C10.7226 48.7979 10.0857 49.1326 9.59287 49.6337C9.10007 50.1348 8.77598 50.7772 8.66583 51.4713C8.55568 52.1654 8.66497 52.8766 8.97845 53.5057C9.29193 54.1347 9.79396 54.6501 10.4145 54.9801C11.035 55.3101 11.7431 55.4382 12.4398 55.3464C13.1366 55.2546 13.7874 54.9476 14.3013 54.4682C14.8152 53.9888 15.1666 53.3609 15.3066 52.6722C15.3655 52.3797 15.5382 52.1225 15.7867 51.9573C16.0352 51.7922 16.3392 51.7325 16.6317 51.7914C16.9242 51.8503 17.1814 52.023 17.3466 52.2716C17.5117 52.5201 17.5714 52.824 17.5125 53.1166C17.2729 54.297 16.6606 55.3694 15.7659 56.1758C14.8711 56.9823 13.7411 57.4802 12.5422 57.5963C11.3432 57.7124 10.1387 57.4406 9.1058 56.8208C8.07292 56.2011 7.26627 55.2661 6.80456 54.1536C6.34286 53.041 6.25048 51.8096 6.54103 50.6407C6.83159 49.4717 7.48972 48.4268 8.41857 47.6599C9.34742 46.893 10.4979 46.4445 11.7008 46.3804C12.9036 46.3164 14.0953 46.6401 15.1003 47.3041L16.7156 45.6944C15.1983 44.5612 13.3234 44.0127 11.4345 44.1495C9.54569 44.2863 7.7694 45.0992 6.43119 46.4393C5.09298 47.7793 4.28248 49.5567 4.14824 51.4457C4.01399 53.3347 4.56499 55.2089 5.70024 56.7247C6.8355 58.2405 8.47898 59.2964 10.3295 59.699C12.18 60.1015 14.1136 59.8237 15.776 58.9165C17.4383 58.0093 18.7181 56.5334 19.3807 54.7593C20.0433 52.9852 20.0444 51.0317 19.3838 49.2569C19.3312 49.1181 19.3065 48.9703 19.3113 48.822C19.3161 48.6737 19.3502 48.5278 19.4116 48.3927C19.473 48.2576 19.5605 48.136 19.6691 48.0349C19.7777 47.9337 19.9052 47.8551 20.0443 47.8035C20.1834 47.7518 20.3314 47.7282 20.4797 47.734C20.628 47.7398 20.7736 47.7749 20.9083 47.8372C21.0429 47.8996 21.164 47.9879 21.2643 48.0972C21.3647 48.2065 21.4425 48.3346 21.4931 48.4741V48.475Z" fill="black"/>
<path d="M6.732 92.216C5.544 92.216 4.506 91.946 3.618 91.406C2.73 90.866 2.04 90.116 1.548 89.156C1.056 88.184 0.81 87.056 0.81 85.772C0.81 84.476 1.062 83.336 1.566 82.352C2.082 81.356 2.808 80.582 3.744 80.03C4.692 79.466 5.814 79.184 7.11 79.184C8.586 79.184 9.81 79.538 10.782 80.246C11.754 80.954 12.384 81.932 12.672 83.18H10.098C9.906 82.592 9.558 82.136 9.054 81.812C8.55 81.476 7.902 81.308 7.11 81.308C5.85 81.308 4.878 81.71 4.194 82.514C3.51 83.306 3.168 84.398 3.168 85.79C3.168 87.182 3.504 88.262 4.176 89.03C4.86 89.786 5.784 90.164 6.948 90.164C8.088 90.164 8.946 89.858 9.522 89.246C10.11 88.622 10.464 87.806 10.584 86.798H7.398V85.07H12.906V92H10.782L10.602 90.344C10.194 90.944 9.684 91.406 9.072 91.73C8.46 92.054 7.68 92.216 6.732 92.216ZM18.8179 92.216C17.9539 92.216 17.1739 92.018 16.4779 91.622C15.7939 91.226 15.2479 90.68 14.8399 89.984C14.4439 89.276 14.2459 88.46 14.2459 87.536C14.2459 86.612 14.4499 85.802 14.8579 85.106C15.2659 84.398 15.8119 83.846 16.4959 83.45C17.1919 83.054 17.9719 82.856 18.8359 82.856C19.6879 82.856 20.4559 83.054 21.1399 83.45C21.8359 83.846 22.3819 84.398 22.7779 85.106C23.1859 85.802 23.3899 86.612 23.3899 87.536C23.3899 88.46 23.1859 89.276 22.7779 89.984C22.3819 90.68 21.8359 91.226 21.1399 91.622C20.4439 92.018 19.6699 92.216 18.8179 92.216ZM18.8179 90.218C19.4179 90.218 19.9399 89.996 20.3839 89.552C20.8279 89.096 21.0499 88.424 21.0499 87.536C21.0499 86.648 20.8279 85.982 20.3839 85.538C19.9399 85.082 19.4239 84.854 18.8359 84.854C18.2239 84.854 17.6959 85.082 17.2519 85.538C16.8199 85.982 16.6039 86.648 16.6039 87.536C16.6039 88.424 16.8199 89.096 17.2519 89.552C17.6959 89.996 18.2179 90.218 18.8179 90.218ZM27.9699 92.216C27.2019 92.216 26.5719 92.096 26.0799 91.856C25.5879 91.604 25.2219 91.274 24.9819 90.866C24.7419 90.458 24.6219 90.008 24.6219 89.516C24.6219 88.688 24.9459 88.016 25.5939 87.5C26.2419 86.984 27.2139 86.726 28.5099 86.726H30.7779V86.51C30.7779 85.898 30.6039 85.448 30.2559 85.16C29.9079 84.872 29.4759 84.728 28.9599 84.728C28.4919 84.728 28.0839 84.842 27.7359 85.07C27.3879 85.286 27.1719 85.61 27.0879 86.042H24.8379C24.8979 85.394 25.1139 84.83 25.4859 84.35C25.8699 83.87 26.3619 83.504 26.9619 83.252C27.5619 82.988 28.2339 82.856 28.9779 82.856C30.2499 82.856 31.2519 83.174 31.9839 83.81C32.7159 84.446 33.0819 85.346 33.0819 86.51V92H31.1199L30.9039 90.56C30.6399 91.04 30.2679 91.436 29.7879 91.748C29.3199 92.06 28.7139 92.216 27.9699 92.216ZM28.4919 90.416C29.1519 90.416 29.6619 90.2 30.0219 89.768C30.3939 89.336 30.6279 88.802 30.7239 88.166H28.7619C28.1499 88.166 27.7119 88.28 27.4479 88.508C27.1839 88.724 27.0519 88.994 27.0519 89.318C27.0519 89.666 27.1839 89.936 27.4479 90.128C27.7119 90.32 28.0599 90.416 28.4919 90.416ZM34.7226 92V79.04H37.0266V92H34.7226ZM46.2438 92.216C45.4518 92.216 44.7558 92.09 44.1558 91.838C43.5558 91.574 43.0758 91.214 42.7158 90.758C42.3558 90.302 42.1398 89.774 42.0678 89.174H44.3898C44.4618 89.522 44.6538 89.822 44.9658 90.074C45.2898 90.314 45.7038 90.434 46.2078 90.434C46.7118 90.434 47.0778 90.332 47.3058 90.128C47.5458 89.924 47.6658 89.69 47.6658 89.426C47.6658 89.042 47.4978 88.784 47.1618 88.652C46.8258 88.508 46.3578 88.37 45.7578 88.238C45.3738 88.154 44.9838 88.052 44.5878 87.932C44.1918 87.812 43.8258 87.662 43.4898 87.482C43.1658 87.29 42.9018 87.05 42.6978 86.762C42.4938 86.462 42.3918 86.096 42.3918 85.664C42.3918 84.872 42.7038 84.206 43.3278 83.666C43.9638 83.126 44.8518 82.856 45.9918 82.856C47.0478 82.856 47.8878 83.102 48.5118 83.594C49.1478 84.086 49.5258 84.764 49.6458 85.628H47.4678C47.3358 84.968 46.8378 84.638 45.9738 84.638C45.5418 84.638 45.2058 84.722 44.9658 84.89C44.7378 85.058 44.6238 85.268 44.6238 85.52C44.6238 85.784 44.7978 85.994 45.1458 86.15C45.4938 86.306 45.9558 86.45 46.5318 86.582C47.1558 86.726 47.7258 86.888 48.2418 87.068C48.7698 87.236 49.1898 87.494 49.5018 87.842C49.8138 88.178 49.9698 88.664 49.9698 89.3C49.9818 89.852 49.8378 90.35 49.5378 90.794C49.2378 91.238 48.8058 91.586 48.2418 91.838C47.6778 92.09 47.0118 92.216 46.2438 92.216ZM55.7909 92.216C54.8909 92.216 54.0929 92.024 53.3969 91.64C52.7009 91.256 52.1549 90.716 51.7589 90.02C51.3629 89.324 51.1649 88.52 51.1649 87.608C51.1649 86.684 51.3569 85.862 51.7409 85.142C52.1369 84.422 52.6769 83.864 53.3609 83.468C54.0569 83.06 54.8729 82.856 55.8089 82.856C56.6849 82.856 57.4589 83.048 58.1309 83.432C58.8029 83.816 59.3249 84.344 59.6969 85.016C60.0809 85.676 60.2729 86.414 60.2729 87.23C60.2729 87.362 60.2669 87.5 60.2549 87.644C60.2549 87.788 60.2489 87.938 60.2369 88.094H53.4509C53.4989 88.79 53.7389 89.336 54.1709 89.732C54.6149 90.128 55.1489 90.326 55.7729 90.326C56.2409 90.326 56.6309 90.224 56.9429 90.02C57.2669 89.804 57.5069 89.528 57.6629 89.192H60.0029C59.8349 89.756 59.5529 90.272 59.1569 90.74C58.7729 91.196 58.2929 91.556 57.7169 91.82C57.1529 92.084 56.5109 92.216 55.7909 92.216ZM55.8089 84.728C55.2449 84.728 54.7469 84.89 54.3149 85.214C53.8829 85.526 53.6069 86.006 53.4869 86.654H57.9329C57.8969 86.066 57.6809 85.598 57.2849 85.25C56.8889 84.902 56.3969 84.728 55.8089 84.728ZM65.4725 92C64.5365 92 63.7865 91.772 63.2225 91.316C62.6585 90.86 62.3765 90.05 62.3765 88.886V84.998H60.8465V83.072H62.3765L62.6465 80.678H64.6805V83.072H67.0925V84.998H64.6805V88.904C64.6805 89.336 64.7705 89.636 64.9505 89.804C65.1425 89.96 65.4665 90.038 65.9225 90.038H67.0385V92H65.4725ZM72.4906 92C71.5546 92 70.8046 91.772 70.2406 91.316C69.6766 90.86 69.3946 90.05 69.3946 88.886V84.998H67.8646V83.072H69.3946L69.6646 80.678H71.6986V83.072H74.1106V84.998H71.6986V88.904C71.6986 89.336 71.7886 89.636 71.9686 89.804C72.1606 89.96 72.4846 90.038 72.9406 90.038H74.0566V92H72.4906ZM76.7728 81.686C76.3528 81.686 76.0048 81.56 75.7288 81.308C75.4648 81.056 75.3328 80.738 75.3328 80.354C75.3328 79.97 75.4648 79.658 75.7288 79.418C76.0048 79.166 76.3528 79.04 76.7728 79.04C77.1928 79.04 77.5348 79.166 77.7988 79.418C78.0748 79.658 78.2128 79.97 78.2128 80.354C78.2128 80.738 78.0748 81.056 77.7988 81.308C77.5348 81.56 77.1928 81.686 76.7728 81.686ZM75.6208 92V83.072H77.9248V92H75.6208ZM79.7716 92V83.072H81.8056L81.9856 84.584C82.2616 84.056 82.6576 83.636 83.1736 83.324C83.7016 83.012 84.3196 82.856 85.0276 82.856C86.1316 82.856 86.9896 83.204 87.6016 83.9C88.2136 84.596 88.5196 85.616 88.5196 86.96V92H86.2156V87.176C86.2156 86.408 86.0596 85.82 85.7476 85.412C85.4356 85.004 84.9496 84.8 84.2896 84.8C83.6416 84.8 83.1076 85.028 82.6876 85.484C82.2796 85.94 82.0756 86.576 82.0756 87.392V92H79.7716ZM93.9448 89.336C93.5128 89.336 93.1108 89.288 92.7388 89.192L92.0728 89.858C92.2768 89.966 92.5528 90.056 92.9008 90.128C93.2488 90.2 93.8128 90.272 94.5928 90.344C95.7808 90.452 96.6448 90.734 97.1848 91.19C97.7248 91.646 97.9948 92.276 97.9948 93.08C97.9948 93.608 97.8508 94.106 97.5628 94.574C97.2748 95.054 96.8308 95.438 96.2308 95.726C95.6308 96.026 94.8628 96.176 93.9268 96.176C92.6548 96.176 91.6288 95.936 90.8488 95.456C90.0688 94.988 89.6788 94.28 89.6788 93.332C89.6788 92.528 90.0688 91.832 90.8488 91.244C90.6088 91.136 90.3988 91.022 90.2188 90.902C90.0508 90.782 89.9008 90.656 89.7688 90.524V90.11L91.3348 88.454C90.6388 87.842 90.2908 87.056 90.2908 86.096C90.2908 85.496 90.4348 84.95 90.7228 84.458C91.0228 83.966 91.4428 83.576 91.9828 83.288C92.5228 83 93.1768 82.856 93.9448 82.856C94.4488 82.856 94.9168 82.928 95.3488 83.072H98.7328V84.476L97.2028 84.584C97.4428 85.04 97.5628 85.544 97.5628 86.096C97.5628 86.696 97.4188 87.242 97.1308 87.734C96.8428 88.226 96.4228 88.616 95.8708 88.904C95.3308 89.192 94.6888 89.336 93.9448 89.336ZM93.9448 87.572C94.4128 87.572 94.7968 87.446 95.0968 87.194C95.4088 86.942 95.5648 86.582 95.5648 86.114C95.5648 85.646 95.4088 85.286 95.0968 85.034C94.7968 84.782 94.4128 84.656 93.9448 84.656C93.4528 84.656 93.0568 84.782 92.7568 85.034C92.4568 85.286 92.3068 85.646 92.3068 86.114C92.3068 86.582 92.4568 86.942 92.7568 87.194C93.0568 87.446 93.4528 87.572 93.9448 87.572ZM91.7848 93.098C91.7848 93.542 91.9888 93.872 92.3968 94.088C92.8168 94.316 93.3268 94.43 93.9268 94.43C94.5028 94.43 94.9708 94.31 95.3308 94.07C95.6908 93.842 95.8708 93.53 95.8708 93.134C95.8708 92.81 95.7508 92.54 95.5108 92.324C95.2828 92.108 94.8208 91.976 94.1248 91.928C93.6328 91.892 93.1768 91.838 92.7568 91.766C92.4088 91.958 92.1568 92.168 92.0008 92.396C91.8568 92.624 91.7848 92.858 91.7848 93.098ZM106.664 92.216C105.896 92.216 105.266 92.096 104.774 91.856C104.282 91.604 103.916 91.274 103.676 90.866C103.436 90.458 103.316 90.008 103.316 89.516C103.316 88.688 103.64 88.016 104.288 87.5C104.936 86.984 105.908 86.726 107.204 86.726H109.472V86.51C109.472 85.898 109.298 85.448 108.95 85.16C108.602 84.872 108.17 84.728 107.654 84.728C107.186 84.728 106.778 84.842 106.43 85.07C106.082 85.286 105.866 85.61 105.782 86.042H103.532C103.592 85.394 103.808 84.83 104.18 84.35C104.564 83.87 105.056 83.504 105.656 83.252C106.256 82.988 106.928 82.856 107.672 82.856C108.944 82.856 109.946 83.174 110.678 83.81C111.41 84.446 111.776 85.346 111.776 86.51V92H109.814L109.598 90.56C109.334 91.04 108.962 91.436 108.482 91.748C108.014 92.06 107.408 92.216 106.664 92.216ZM107.186 90.416C107.846 90.416 108.356 90.2 108.716 89.768C109.088 89.336 109.322 88.802 109.418 88.166H107.456C106.844 88.166 106.406 88.28 106.142 88.508C105.878 88.724 105.746 88.994 105.746 89.318C105.746 89.666 105.878 89.936 106.142 90.128C106.406 90.32 106.754 90.416 107.186 90.416ZM113.417 92V83.072H115.451L115.631 84.584C115.907 84.056 116.303 83.636 116.819 83.324C117.347 83.012 117.965 82.856 118.673 82.856C119.777 82.856 120.635 83.204 121.247 83.9C121.859 84.596 122.165 85.616 122.165 86.96V92H119.861V87.176C119.861 86.408 119.705 85.82 119.393 85.412C119.081 85.004 118.595 84.8 117.935 84.8C117.287 84.8 116.753 85.028 116.333 85.484C115.925 85.94 115.721 86.576 115.721 87.392V92H113.417ZM127.914 92.216C127.074 92.216 126.324 92.012 125.664 91.604C125.004 91.196 124.482 90.638 124.098 89.93C123.714 89.222 123.522 88.418 123.522 87.518C123.522 86.618 123.714 85.82 124.098 85.124C124.482 84.416 125.004 83.864 125.664 83.468C126.324 83.06 127.074 82.856 127.914 82.856C128.586 82.856 129.174 82.982 129.678 83.234C130.182 83.486 130.59 83.84 130.902 84.296V79.04H133.206V92H131.154L130.902 90.722C130.614 91.118 130.23 91.466 129.75 91.766C129.282 92.066 128.67 92.216 127.914 92.216ZM128.4 90.2C129.144 90.2 129.75 89.954 130.218 89.462C130.698 88.958 130.938 88.316 130.938 87.536C130.938 86.756 130.698 86.12 130.218 85.628C129.75 85.124 129.144 84.872 128.4 84.872C127.668 84.872 127.062 85.118 126.582 85.61C126.102 86.102 125.862 86.738 125.862 87.518C125.862 88.298 126.102 88.94 126.582 89.444C127.062 89.948 127.668 90.2 128.4 90.2ZM142.703 92C141.767 92 141.017 91.772 140.453 91.316C139.889 90.86 139.607 90.05 139.607 88.886V84.998H138.077V83.072H139.607L139.877 80.678H141.911V83.072H144.323V84.998H141.911V88.904C141.911 89.336 142.001 89.636 142.181 89.804C142.373 89.96 142.697 90.038 143.153 90.038H144.269V92H142.703ZM145.743 92V83.072H147.795L148.011 84.746C148.335 84.17 148.773 83.714 149.325 83.378C149.889 83.03 150.549 82.856 151.305 82.856V85.286H150.657C150.153 85.286 149.703 85.364 149.307 85.52C148.911 85.676 148.599 85.946 148.371 86.33C148.155 86.714 148.047 87.248 148.047 87.932V92H145.743ZM155.4 92.216C154.632 92.216 154.002 92.096 153.51 91.856C153.018 91.604 152.652 91.274 152.412 90.866C152.172 90.458 152.052 90.008 152.052 89.516C152.052 88.688 152.376 88.016 153.024 87.5C153.672 86.984 154.644 86.726 155.94 86.726H158.208V86.51C158.208 85.898 158.034 85.448 157.686 85.16C157.338 84.872 156.906 84.728 156.39 84.728C155.922 84.728 155.514 84.842 155.166 85.07C154.818 85.286 154.602 85.61 154.518 86.042H152.268C152.328 85.394 152.544 84.83 152.916 84.35C153.3 83.87 153.792 83.504 154.392 83.252C154.992 82.988 155.664 82.856 156.408 82.856C157.68 82.856 158.682 83.174 159.414 83.81C160.146 84.446 160.512 85.346 160.512 86.51V92H158.55L158.334 90.56C158.07 91.04 157.698 91.436 157.218 91.748C156.75 92.06 156.144 92.216 155.4 92.216ZM155.922 90.416C156.582 90.416 157.092 90.2 157.452 89.768C157.824 89.336 158.058 88.802 158.154 88.166H156.192C155.58 88.166 155.142 88.28 154.878 88.508C154.614 88.724 154.482 88.994 154.482 89.318C154.482 89.666 154.614 89.936 154.878 90.128C155.142 90.32 155.49 90.416 155.922 90.416ZM166.527 92.216C165.615 92.216 164.811 92.018 164.115 91.622C163.419 91.226 162.867 90.674 162.459 89.966C162.063 89.258 161.865 88.448 161.865 87.536C161.865 86.624 162.063 85.814 162.459 85.106C162.867 84.398 163.419 83.846 164.115 83.45C164.811 83.054 165.615 82.856 166.527 82.856C167.667 82.856 168.627 83.156 169.407 83.756C170.187 84.344 170.685 85.16 170.901 86.204H168.471C168.351 85.772 168.111 85.436 167.751 85.196C167.403 84.944 166.989 84.818 166.509 84.818C165.873 84.818 165.333 85.058 164.889 85.538C164.445 86.018 164.223 86.684 164.223 87.536C164.223 88.388 164.445 89.054 164.889 89.534C165.333 90.014 165.873 90.254 166.509 90.254C166.989 90.254 167.403 90.134 167.751 89.894C168.111 89.654 168.351 89.312 168.471 88.868H170.901C170.685 89.876 170.187 90.686 169.407 91.298C168.627 91.91 167.667 92.216 166.527 92.216ZM172.388 92V79.04H174.692V86.69L177.86 83.072H180.596L176.942 87.14L181.19 92H178.31L174.692 87.518V92H172.388ZM183.302 81.686C182.882 81.686 182.534 81.56 182.258 81.308C181.994 81.056 181.862 80.738 181.862 80.354C181.862 79.97 181.994 79.658 182.258 79.418C182.534 79.166 182.882 79.04 183.302 79.04C183.722 79.04 184.064 79.166 184.328 79.418C184.604 79.658 184.742 79.97 184.742 80.354C184.742 80.738 184.604 81.056 184.328 81.308C184.064 81.56 183.722 81.686 183.302 81.686ZM182.15 92V83.072H184.454V92H182.15ZM186.301 92V83.072H188.335L188.515 84.584C188.791 84.056 189.187 83.636 189.703 83.324C190.231 83.012 190.849 82.856 191.557 82.856C192.661 82.856 193.519 83.204 194.131 83.9C194.743 84.596 195.049 85.616 195.049 86.96V92H192.745V87.176C192.745 86.408 192.589 85.82 192.277 85.412C191.965 85.004 191.479 84.8 190.819 84.8C190.171 84.8 189.637 85.028 189.217 85.484C188.809 85.94 188.605 86.576 188.605 87.392V92H186.301ZM200.474 89.336C200.042 89.336 199.64 89.288 199.268 89.192L198.602 89.858C198.806 89.966 199.082 90.056 199.43 90.128C199.778 90.2 200.342 90.272 201.122 90.344C202.31 90.452 203.174 90.734 203.714 91.19C204.254 91.646 204.524 92.276 204.524 93.08C204.524 93.608 204.38 94.106 204.092 94.574C203.804 95.054 203.36 95.438 202.76 95.726C202.16 96.026 201.392 96.176 200.456 96.176C199.184 96.176 198.158 95.936 197.378 95.456C196.598 94.988 196.208 94.28 196.208 93.332C196.208 92.528 196.598 91.832 197.378 91.244C197.138 91.136 196.928 91.022 196.748 90.902C196.58 90.782 196.43 90.656 196.298 90.524V90.11L197.864 88.454C197.168 87.842 196.82 87.056 196.82 86.096C196.82 85.496 196.964 84.95 197.252 84.458C197.552 83.966 197.972 83.576 198.512 83.288C199.052 83 199.706 82.856 200.474 82.856C200.978 82.856 201.446 82.928 201.878 83.072H205.262V84.476L203.732 84.584C203.972 85.04 204.092 85.544 204.092 86.096C204.092 86.696 203.948 87.242 203.66 87.734C203.372 88.226 202.952 88.616 202.4 88.904C201.86 89.192 201.218 89.336 200.474 89.336ZM200.474 87.572C200.942 87.572 201.326 87.446 201.626 87.194C201.938 86.942 202.094 86.582 202.094 86.114C202.094 85.646 201.938 85.286 201.626 85.034C201.326 84.782 200.942 84.656 200.474 84.656C199.982 84.656 199.586 84.782 199.286 85.034C198.986 85.286 198.836 85.646 198.836 86.114C198.836 86.582 198.986 86.942 199.286 87.194C199.586 87.446 199.982 87.572 200.474 87.572ZM198.314 93.098C198.314 93.542 198.518 93.872 198.926 94.088C199.346 94.316 199.856 94.43 200.456 94.43C201.032 94.43 201.5 94.31 201.86 94.07C202.22 93.842 202.4 93.53 202.4 93.134C202.4 92.81 202.28 92.54 202.04 92.324C201.812 92.108 201.35 91.976 200.654 91.928C200.162 91.892 199.706 91.838 199.286 91.766C198.938 91.958 198.686 92.168 198.53 92.396C198.386 92.624 198.314 92.858 198.314 93.098Z" fill="black"/>
<path d="M7.77273 115.273C7.70455 114.697 7.42803 114.25 6.94318 113.932C6.45833 113.614 5.86364 113.455 5.15909 113.455C4.64394 113.455 4.19318 113.538 3.80682 113.705C3.42424 113.871 3.125 114.1 2.90909 114.392C2.69697 114.684 2.59091 115.015 2.59091 115.386C2.59091 115.697 2.66477 115.964 2.8125 116.188C2.96402 116.407 3.1572 116.591 3.39205 116.739C3.62689 116.883 3.87311 117.002 4.13068 117.097C4.38826 117.187 4.625 117.261 4.84091 117.318L6.02273 117.636C6.32576 117.716 6.66288 117.826 7.03409 117.966C7.40909 118.106 7.76705 118.297 8.10795 118.54C8.45265 118.778 8.73674 119.085 8.96023 119.46C9.18371 119.835 9.29545 120.295 9.29545 120.841C9.29545 121.47 9.13068 122.038 8.80114 122.545C8.47538 123.053 7.99811 123.456 7.36932 123.756C6.74432 124.055 5.98485 124.205 5.09091 124.205C4.25758 124.205 3.53598 124.07 2.92614 123.801C2.32008 123.532 1.8428 123.157 1.49432 122.676C1.14962 122.195 0.954545 121.636 0.909091 121H2.36364C2.40152 121.439 2.54924 121.803 2.80682 122.091C3.06818 122.375 3.39773 122.587 3.79545 122.727C4.19697 122.864 4.62879 122.932 5.09091 122.932C5.62879 122.932 6.11174 122.845 6.53977 122.67C6.9678 122.492 7.30682 122.246 7.55682 121.932C7.80682 121.614 7.93182 121.242 7.93182 120.818C7.93182 120.432 7.82386 120.117 7.60795 119.875C7.39205 119.633 7.10795 119.436 6.75568 119.284C6.40341 119.133 6.02273 119 5.61364 118.886L4.18182 118.477C3.27273 118.216 2.55303 117.843 2.02273 117.358C1.49242 116.873 1.22727 116.239 1.22727 115.455C1.22727 114.803 1.40341 114.235 1.75568 113.75C2.11174 113.261 2.58902 112.883 3.1875 112.614C3.78977 112.341 4.46212 112.205 5.20455 112.205C5.95455 112.205 6.62121 112.339 7.20455 112.608C7.78788 112.873 8.25 113.237 8.59091 113.699C8.93561 114.161 9.11742 114.686 9.13636 115.273H7.77273ZM14.9295 124.182C14.0886 124.182 13.3632 123.996 12.7534 123.625C12.1473 123.25 11.6795 122.727 11.3499 122.057C11.0242 121.383 10.8613 120.598 10.8613 119.705C10.8613 118.811 11.0242 118.023 11.3499 117.341C11.6795 116.655 12.1378 116.121 12.7249 115.739C13.3159 115.352 14.0052 115.159 14.7931 115.159C15.2477 115.159 15.6965 115.235 16.1397 115.386C16.5829 115.538 16.9863 115.784 17.3499 116.125C17.7136 116.462 18.0034 116.909 18.2193 117.466C18.4352 118.023 18.5431 118.708 18.5431 119.523V120.091H11.8159V118.932H17.1795C17.1795 118.439 17.081 118 16.884 117.614C16.6909 117.227 16.4143 116.922 16.0545 116.699C15.6984 116.475 15.278 116.364 14.7931 116.364C14.259 116.364 13.7969 116.496 13.4068 116.761C13.0204 117.023 12.723 117.364 12.5147 117.784C12.3064 118.205 12.2022 118.655 12.2022 119.136V119.909C12.2022 120.568 12.3159 121.127 12.5431 121.585C12.7742 122.04 13.0943 122.386 13.5034 122.625C13.9124 122.86 14.3878 122.977 14.9295 122.977C15.2818 122.977 15.5999 122.928 15.884 122.83C16.1719 122.727 16.42 122.576 16.6284 122.375C16.8367 122.17 16.9977 121.917 17.1113 121.614L18.4068 121.977C18.2704 122.417 18.0412 122.803 17.7193 123.136C17.3973 123.466 16.9996 123.723 16.5261 123.909C16.0526 124.091 15.5204 124.182 14.9295 124.182ZM24.2184 115.273V116.409H19.6956V115.273H24.2184ZM21.0138 113.182H22.3547V121.5C22.3547 121.879 22.4096 122.163 22.5195 122.352C22.6331 122.538 22.7771 122.663 22.9513 122.727C23.1293 122.788 23.3168 122.818 23.5138 122.818C23.6615 122.818 23.7827 122.811 23.8774 122.795C23.9721 122.777 24.0479 122.761 24.1047 122.75L24.3774 123.955C24.2865 123.989 24.1596 124.023 23.9968 124.057C23.8339 124.095 23.6274 124.114 23.3774 124.114C22.9987 124.114 22.6274 124.032 22.2638 123.869C21.904 123.706 21.6047 123.458 21.3661 123.125C21.1312 122.792 21.0138 122.371 21.0138 121.864V113.182ZM32.9836 124.205C32.4306 124.205 31.9287 124.1 31.4779 123.892C31.0271 123.68 30.6692 123.375 30.404 122.977C30.1389 122.576 30.0063 122.091 30.0063 121.523C30.0063 121.023 30.1048 120.617 30.3018 120.307C30.4987 119.992 30.762 119.746 31.0915 119.568C31.4211 119.39 31.7847 119.258 32.1824 119.17C32.584 119.08 32.9874 119.008 33.3927 118.955C33.923 118.886 34.3529 118.835 34.6824 118.801C35.0158 118.763 35.2582 118.701 35.4097 118.614C35.565 118.527 35.6427 118.375 35.6427 118.159V118.114C35.6427 117.553 35.4893 117.117 35.1824 116.807C34.8794 116.496 34.4192 116.341 33.8018 116.341C33.1616 116.341 32.6597 116.481 32.2961 116.761C31.9324 117.042 31.6768 117.341 31.529 117.659L30.2563 117.205C30.4836 116.674 30.7866 116.261 31.1654 115.966C31.548 115.667 31.9646 115.458 32.4154 115.341C32.8699 115.22 33.3169 115.159 33.7563 115.159C34.0366 115.159 34.3586 115.193 34.7222 115.261C35.0896 115.326 35.4438 115.46 35.7847 115.665C36.1294 115.869 36.4154 116.178 36.6427 116.591C36.8699 117.004 36.9836 117.557 36.9836 118.25V124H35.6427V122.818H35.5745C35.4836 123.008 35.3321 123.21 35.1199 123.426C34.9078 123.642 34.6256 123.826 34.2734 123.977C33.9211 124.129 33.4912 124.205 32.9836 124.205ZM33.1881 123C33.7184 123 34.1654 122.896 34.529 122.688C34.8965 122.479 35.173 122.21 35.3586 121.881C35.548 121.551 35.6427 121.205 35.6427 120.841V119.614C35.5859 119.682 35.4609 119.744 35.2677 119.801C35.0783 119.854 34.8586 119.902 34.6086 119.943C34.3624 119.981 34.1218 120.015 33.887 120.045C33.6559 120.072 33.4684 120.095 33.3245 120.114C32.976 120.159 32.6502 120.233 32.3472 120.335C32.048 120.434 31.8055 120.583 31.6199 120.784C31.4381 120.981 31.3472 121.25 31.3472 121.591C31.3472 122.057 31.5196 122.409 31.8643 122.648C32.2127 122.883 32.654 123 33.1881 123ZM40.6119 118.75V124H39.271V115.273H40.5665V116.636H40.6801C40.8847 116.193 41.1953 115.837 41.6119 115.568C42.0286 115.295 42.5665 115.159 43.2256 115.159C43.8165 115.159 44.3335 115.28 44.7767 115.523C45.2199 115.761 45.5646 116.125 45.8108 116.614C46.057 117.098 46.1801 117.712 46.1801 118.455V124H44.8392V118.545C44.8392 117.86 44.6612 117.326 44.3051 116.943C43.9491 116.557 43.4604 116.364 42.8392 116.364C42.4112 116.364 42.0286 116.456 41.6915 116.642C41.3581 116.828 41.0949 117.098 40.9017 117.455C40.7085 117.811 40.6119 118.242 40.6119 118.75ZM51.7659 124.182C51.0386 124.182 50.3965 123.998 49.8397 123.631C49.2829 123.259 48.8473 122.737 48.5329 122.062C48.2185 121.384 48.0613 120.583 48.0613 119.659C48.0613 118.742 48.2185 117.947 48.5329 117.273C48.8473 116.598 49.2848 116.078 49.8454 115.71C50.406 115.343 51.0537 115.159 51.7886 115.159C52.3568 115.159 52.8056 115.254 53.1352 115.443C53.4685 115.629 53.7223 115.841 53.8965 116.08C54.0746 116.314 54.2128 116.508 54.3113 116.659H54.4249V112.364H55.7659V124H54.4704V122.659H54.3113C54.2128 122.818 54.0727 123.019 53.8909 123.261C53.709 123.5 53.4496 123.714 53.1124 123.903C52.7753 124.089 52.3265 124.182 51.7659 124.182ZM51.9477 122.977C52.4856 122.977 52.9401 122.837 53.3113 122.557C53.6825 122.273 53.9647 121.881 54.1579 121.381C54.3511 120.877 54.4477 120.295 54.4477 119.636C54.4477 118.985 54.353 118.415 54.1636 117.926C53.9742 117.434 53.6939 117.051 53.3227 116.778C52.9515 116.502 52.4931 116.364 51.9477 116.364C51.3795 116.364 50.906 116.509 50.5272 116.801C50.1522 117.089 49.87 117.481 49.6806 117.977C49.495 118.47 49.4022 119.023 49.4022 119.636C49.4022 120.258 49.4969 120.822 49.6863 121.33C49.8795 121.833 50.1636 122.235 50.5386 122.534C50.9174 122.83 51.3871 122.977 51.9477 122.977ZM66.3834 115.273V116.409H61.8606V115.273H66.3834ZM63.1788 113.182H64.5197V121.5C64.5197 121.879 64.5746 122.163 64.6845 122.352C64.7981 122.538 64.9421 122.663 65.1163 122.727C65.2943 122.788 65.4818 122.818 65.6788 122.818C65.8265 122.818 65.9477 122.811 66.0424 122.795C66.1371 122.777 66.2129 122.761 66.2697 122.75L66.5424 123.955C66.4515 123.989 66.3246 124.023 66.1618 124.057C65.9989 124.095 65.7924 124.114 65.5424 124.114C65.1637 124.114 64.7924 124.032 64.4288 123.869C64.069 123.706 63.7697 123.458 63.5311 123.125C63.2962 122.792 63.1788 122.371 63.1788 121.864V113.182ZM68.2404 124V115.273H69.5358V116.591H69.6268C69.7858 116.159 70.0737 115.809 70.4904 115.54C70.9071 115.271 71.3768 115.136 71.8995 115.136C71.998 115.136 72.1211 115.138 72.2688 115.142C72.4165 115.146 72.5283 115.152 72.604 115.159V116.523C72.5586 116.511 72.4544 116.494 72.2915 116.472C72.1324 116.445 71.9639 116.432 71.7859 116.432C71.3616 116.432 70.9828 116.521 70.6495 116.699C70.3199 116.873 70.0586 117.116 69.8654 117.426C69.676 117.733 69.5813 118.083 69.5813 118.477V124H68.2404ZM76.6017 124.205C76.0487 124.205 75.5468 124.1 75.096 123.892C74.6453 123.68 74.2873 123.375 74.0222 122.977C73.757 122.576 73.6244 122.091 73.6244 121.523C73.6244 121.023 73.7229 120.617 73.9199 120.307C74.1169 119.992 74.3801 119.746 74.7097 119.568C75.0392 119.39 75.4028 119.258 75.8006 119.17C76.2021 119.08 76.6055 119.008 77.0108 118.955C77.5411 118.886 77.971 118.835 78.3006 118.801C78.6339 118.763 78.8763 118.701 79.0278 118.614C79.1831 118.527 79.2608 118.375 79.2608 118.159V118.114C79.2608 117.553 79.1074 117.117 78.8006 116.807C78.4975 116.496 78.0373 116.341 77.4199 116.341C76.7797 116.341 76.2778 116.481 75.9142 116.761C75.5506 117.042 75.2949 117.341 75.1472 117.659L73.8744 117.205C74.1017 116.674 74.4047 116.261 74.7835 115.966C75.1661 115.667 75.5828 115.458 76.0335 115.341C76.4881 115.22 76.935 115.159 77.3744 115.159C77.6547 115.159 77.9767 115.193 78.3403 115.261C78.7078 115.326 79.0619 115.46 79.4028 115.665C79.7475 115.869 80.0335 116.178 80.2608 116.591C80.4881 117.004 80.6017 117.557 80.6017 118.25V124H79.2608V122.818H79.1926C79.1017 123.008 78.9502 123.21 78.7381 123.426C78.5259 123.642 78.2438 123.826 77.8915 123.977C77.5392 124.129 77.1093 124.205 76.6017 124.205ZM76.8063 123C77.3366 123 77.7835 122.896 78.1472 122.688C78.5146 122.479 78.7911 122.21 78.9767 121.881C79.1661 121.551 79.2608 121.205 79.2608 120.841V119.614C79.204 119.682 79.079 119.744 78.8858 119.801C78.6964 119.854 78.4767 119.902 78.2267 119.943C77.9805 119.981 77.74 120.015 77.5051 120.045C77.2741 120.072 77.0866 120.095 76.9426 120.114C76.5941 120.159 76.2684 120.233 75.9653 120.335C75.6661 120.434 75.4237 120.583 75.2381 120.784C75.0563 120.981 74.9653 121.25 74.9653 121.591C74.9653 122.057 75.1377 122.409 75.4824 122.648C75.8309 122.883 76.2722 123 76.8063 123ZM86.4346 124.182C85.6164 124.182 84.9119 123.989 84.321 123.602C83.7301 123.216 83.2755 122.684 82.9573 122.006C82.6391 121.328 82.4801 120.553 82.4801 119.682C82.4801 118.795 82.6429 118.013 82.9687 117.335C83.2982 116.653 83.7566 116.121 84.3437 115.739C84.9346 115.352 85.624 115.159 86.4119 115.159C87.0255 115.159 87.5785 115.273 88.071 115.5C88.5634 115.727 88.9668 116.045 89.2812 116.455C89.5956 116.864 89.7907 117.341 89.8664 117.886H88.5255C88.4232 117.489 88.196 117.136 87.8437 116.83C87.4952 116.519 87.0255 116.364 86.4346 116.364C85.9119 116.364 85.4535 116.5 85.0596 116.773C84.6694 117.042 84.3645 117.422 84.1448 117.915C83.9289 118.403 83.821 118.977 83.821 119.636C83.821 120.311 83.927 120.898 84.1391 121.398C84.3551 121.898 84.6581 122.286 85.0482 122.562C85.4422 122.839 85.9043 122.977 86.4346 122.977C86.7831 122.977 87.0994 122.917 87.3835 122.795C87.6676 122.674 87.9081 122.5 88.1051 122.273C88.302 122.045 88.4422 121.773 88.5255 121.455H89.8664C89.7907 121.97 89.6032 122.434 89.3039 122.847C89.0085 123.256 88.6164 123.581 88.1278 123.824C87.6429 124.062 87.0785 124.182 86.4346 124.182ZM92.9166 120.818L92.8939 119.159H93.1666L96.9848 115.273H98.6439L94.5757 119.386H94.4621L92.9166 120.818ZM91.6666 124V112.364H93.0076V124H91.6666ZM97.2121 124L93.803 119.682L94.7576 118.75L98.9166 124H97.2121ZM108.073 127.455C107.425 127.455 106.868 127.371 106.402 127.205C105.936 127.042 105.548 126.826 105.237 126.557C104.93 126.292 104.686 126.008 104.504 125.705L105.573 124.955C105.694 125.114 105.847 125.295 106.033 125.5C106.218 125.708 106.472 125.888 106.794 126.04C107.12 126.195 107.546 126.273 108.073 126.273C108.777 126.273 109.358 126.102 109.817 125.761C110.275 125.42 110.504 124.886 110.504 124.159V122.386H110.391C110.292 122.545 110.152 122.742 109.97 122.977C109.792 123.208 109.535 123.415 109.198 123.597C108.864 123.775 108.413 123.864 107.845 123.864C107.141 123.864 106.508 123.697 105.948 123.364C105.391 123.03 104.949 122.545 104.624 121.909C104.302 121.273 104.141 120.5 104.141 119.591C104.141 118.697 104.298 117.919 104.612 117.256C104.927 116.589 105.364 116.074 105.925 115.71C106.485 115.343 107.133 115.159 107.868 115.159C108.436 115.159 108.887 115.254 109.22 115.443C109.557 115.629 109.815 115.841 109.993 116.08C110.175 116.314 110.315 116.508 110.413 116.659H110.55V115.273H111.845V124.25C111.845 125 111.675 125.61 111.334 126.08C110.997 126.553 110.542 126.9 109.97 127.119C109.402 127.343 108.769 127.455 108.073 127.455ZM108.027 122.659C108.565 122.659 109.019 122.536 109.391 122.29C109.762 122.044 110.044 121.689 110.237 121.227C110.43 120.765 110.527 120.212 110.527 119.568C110.527 118.939 110.432 118.384 110.243 117.903C110.054 117.422 109.773 117.045 109.402 116.773C109.031 116.5 108.573 116.364 108.027 116.364C107.459 116.364 106.985 116.508 106.607 116.795C106.232 117.083 105.949 117.47 105.76 117.955C105.574 118.439 105.482 118.977 105.482 119.568C105.482 120.174 105.576 120.71 105.766 121.176C105.959 121.638 106.243 122.002 106.618 122.267C106.997 122.528 107.466 122.659 108.027 122.659ZM117.685 124.182C116.897 124.182 116.206 123.994 115.611 123.619C115.02 123.244 114.558 122.72 114.225 122.045C113.895 121.371 113.731 120.583 113.731 119.682C113.731 118.773 113.895 117.979 114.225 117.301C114.558 116.623 115.02 116.097 115.611 115.722C116.206 115.347 116.897 115.159 117.685 115.159C118.473 115.159 119.162 115.347 119.753 115.722C120.348 116.097 120.81 116.623 121.14 117.301C121.473 117.979 121.64 118.773 121.64 119.682C121.64 120.583 121.473 121.371 121.14 122.045C120.81 122.72 120.348 123.244 119.753 123.619C119.162 123.994 118.473 124.182 117.685 124.182ZM117.685 122.977C118.284 122.977 118.776 122.824 119.162 122.517C119.549 122.21 119.835 121.807 120.02 121.307C120.206 120.807 120.299 120.265 120.299 119.682C120.299 119.098 120.206 118.555 120.02 118.051C119.835 117.547 119.549 117.14 119.162 116.83C118.776 116.519 118.284 116.364 117.685 116.364C117.087 116.364 116.594 116.519 116.208 116.83C115.822 117.14 115.536 117.547 115.35 118.051C115.164 118.555 115.072 119.098 115.072 119.682C115.072 120.265 115.164 120.807 115.35 121.307C115.536 121.807 115.822 122.21 116.208 122.517C116.594 122.824 117.087 122.977 117.685 122.977ZM126.095 124.205C125.542 124.205 125.04 124.1 124.589 123.892C124.138 123.68 123.78 123.375 123.515 122.977C123.25 122.576 123.118 122.091 123.118 121.523C123.118 121.023 123.216 120.617 123.413 120.307C123.61 119.992 123.873 119.746 124.203 119.568C124.532 119.39 124.896 119.258 125.294 119.17C125.695 119.08 126.099 119.008 126.504 118.955C127.034 118.886 127.464 118.835 127.794 118.801C128.127 118.763 128.369 118.701 128.521 118.614C128.676 118.527 128.754 118.375 128.754 118.159V118.114C128.754 117.553 128.601 117.117 128.294 116.807C127.991 116.496 127.53 116.341 126.913 116.341C126.273 116.341 125.771 116.481 125.407 116.761C125.044 117.042 124.788 117.341 124.64 117.659L123.368 117.205C123.595 116.674 123.898 116.261 124.277 115.966C124.659 115.667 125.076 115.458 125.527 115.341C125.981 115.22 126.428 115.159 126.868 115.159C127.148 115.159 127.47 115.193 127.833 115.261C128.201 115.326 128.555 115.46 128.896 115.665C129.241 115.869 129.527 116.178 129.754 116.591C129.981 117.004 130.095 117.557 130.095 118.25V124H128.754V122.818H128.686C128.595 123.008 128.443 123.21 128.231 123.426C128.019 123.642 127.737 123.826 127.385 123.977C127.032 124.129 126.602 124.205 126.095 124.205ZM126.299 123C126.83 123 127.277 122.896 127.64 122.688C128.008 122.479 128.284 122.21 128.47 121.881C128.659 121.551 128.754 121.205 128.754 120.841V119.614C128.697 119.682 128.572 119.744 128.379 119.801C128.19 119.854 127.97 119.902 127.72 119.943C127.474 119.981 127.233 120.015 126.998 120.045C126.767 120.072 126.58 120.095 126.436 120.114C126.087 120.159 125.761 120.233 125.458 120.335C125.159 120.434 124.917 120.583 124.731 120.784C124.549 120.981 124.458 121.25 124.458 121.591C124.458 122.057 124.631 122.409 124.976 122.648C125.324 122.883 125.765 123 126.299 123ZM133.723 112.364V124H132.382V112.364H133.723ZM142.201 117.227L140.996 117.568C140.921 117.367 140.809 117.172 140.661 116.983C140.517 116.79 140.32 116.631 140.07 116.506C139.82 116.381 139.5 116.318 139.11 116.318C138.576 116.318 138.131 116.441 137.775 116.688C137.423 116.93 137.246 117.239 137.246 117.614C137.246 117.947 137.368 118.21 137.61 118.403C137.852 118.597 138.231 118.758 138.746 118.886L140.042 119.205C140.822 119.394 141.404 119.684 141.786 120.074C142.169 120.46 142.36 120.958 142.36 121.568C142.36 122.068 142.216 122.515 141.928 122.909C141.644 123.303 141.246 123.614 140.735 123.841C140.224 124.068 139.629 124.182 138.951 124.182C138.061 124.182 137.324 123.989 136.741 123.602C136.157 123.216 135.788 122.652 135.633 121.909L136.906 121.591C137.027 122.061 137.256 122.413 137.593 122.648C137.934 122.883 138.379 123 138.928 123C139.553 123 140.049 122.867 140.417 122.602C140.788 122.333 140.974 122.011 140.974 121.636C140.974 121.333 140.868 121.08 140.656 120.875C140.443 120.667 140.118 120.511 139.678 120.409L138.224 120.068C137.424 119.879 136.837 119.585 136.462 119.188C136.091 118.786 135.906 118.284 135.906 117.682C135.906 117.189 136.044 116.754 136.32 116.375C136.601 115.996 136.981 115.699 137.462 115.483C137.947 115.267 138.496 115.159 139.11 115.159C139.974 115.159 140.652 115.348 141.144 115.727C141.64 116.106 141.993 116.606 142.201 117.227ZM150.536 124L147.877 115.273H149.286L151.172 121.955H151.263L153.127 115.273H154.559L156.399 121.932H156.49L158.377 115.273H159.786L157.127 124H155.809L153.899 117.295H153.763L151.854 124H150.536ZM161.399 124V115.273H162.739V124H161.399ZM162.08 113.818C161.819 113.818 161.594 113.729 161.404 113.551C161.219 113.373 161.126 113.159 161.126 112.909C161.126 112.659 161.219 112.445 161.404 112.267C161.594 112.089 161.819 112 162.08 112C162.342 112 162.565 112.089 162.751 112.267C162.94 112.445 163.035 112.659 163.035 112.909C163.035 113.159 162.94 113.373 162.751 113.551C162.565 113.729 162.342 113.818 162.08 113.818ZM168.831 115.273V116.409H164.308V115.273H168.831ZM165.626 113.182H166.967V121.5C166.967 121.879 167.022 122.163 167.132 122.352C167.246 122.538 167.39 122.663 167.564 122.727C167.742 122.788 167.929 122.818 168.126 122.818C168.274 122.818 168.395 122.811 168.49 122.795C168.585 122.777 168.66 122.761 168.717 122.75L168.99 123.955C168.899 123.989 168.772 124.023 168.609 124.057C168.446 124.095 168.24 124.114 167.99 124.114C167.611 124.114 167.24 124.032 166.876 123.869C166.516 123.706 166.217 123.458 165.979 123.125C165.744 122.792 165.626 122.371 165.626 121.864V113.182ZM172.216 118.75V124H170.875V112.364H172.216V116.636H172.33C172.534 116.186 172.841 115.828 173.25 115.562C173.663 115.294 174.213 115.159 174.898 115.159C175.493 115.159 176.014 115.278 176.461 115.517C176.908 115.752 177.254 116.114 177.5 116.602C177.75 117.087 177.875 117.705 177.875 118.455V124H176.534V118.545C176.534 117.852 176.355 117.316 175.995 116.938C175.639 116.555 175.144 116.364 174.512 116.364C174.072 116.364 173.678 116.456 173.33 116.642C172.985 116.828 172.713 117.098 172.512 117.455C172.315 117.811 172.216 118.242 172.216 118.75ZM1.22727 147V138.273H2.52273V139.636H2.63636C2.81818 139.17 3.11174 138.809 3.51705 138.551C3.92235 138.29 4.40909 138.159 4.97727 138.159C5.55303 138.159 6.0322 138.29 6.41477 138.551C6.80114 138.809 7.10227 139.17 7.31818 139.636H7.40909C7.63258 139.186 7.9678 138.828 8.41477 138.562C8.86174 138.294 9.39773 138.159 10.0227 138.159C10.803 138.159 11.4413 138.403 11.9375 138.892C12.4337 139.377 12.6818 140.133 12.6818 141.159V147H11.3409V141.159C11.3409 140.515 11.1648 140.055 10.8125 139.778C10.4602 139.502 10.0455 139.364 9.56818 139.364C8.95455 139.364 8.47917 139.549 8.14205 139.92C7.80492 140.288 7.63636 140.754 7.63636 141.318V147H6.27273V141.023C6.27273 140.527 6.11174 140.127 5.78977 139.824C5.4678 139.517 5.05303 139.364 4.54545 139.364C4.19697 139.364 3.87121 139.456 3.56818 139.642C3.26894 139.828 3.02652 140.085 2.84091 140.415C2.65909 140.741 2.56818 141.117 2.56818 141.545V147H1.22727ZM17.5417 147.205C16.9887 147.205 16.4868 147.1 16.036 146.892C15.5853 146.68 15.2273 146.375 14.9622 145.977C14.697 145.576 14.5644 145.091 14.5644 144.523C14.5644 144.023 14.6629 143.617 14.8599 143.307C15.0569 142.992 15.3201 142.746 15.6497 142.568C15.9792 142.39 16.3428 142.258 16.7406 142.17C17.1421 142.08 17.5455 142.008 17.9508 141.955C18.4811 141.886 18.911 141.835 19.2406 141.801C19.5739 141.763 19.8163 141.701 19.9678 141.614C20.1231 141.527 20.2008 141.375 20.2008 141.159V141.114C20.2008 140.553 20.0474 140.117 19.7406 139.807C19.4375 139.496 18.9773 139.341 18.3599 139.341C17.7197 139.341 17.2178 139.481 16.8542 139.761C16.4906 140.042 16.2349 140.341 16.0872 140.659L14.8144 140.205C15.0417 139.674 15.3447 139.261 15.7235 138.966C16.1061 138.667 16.5228 138.458 16.9735 138.341C17.4281 138.22 17.875 138.159 18.3144 138.159C18.5947 138.159 18.9167 138.193 19.2803 138.261C19.6478 138.326 20.0019 138.46 20.3428 138.665C20.6875 138.869 20.9735 139.178 21.2008 139.591C21.4281 140.004 21.5417 140.557 21.5417 141.25V147H20.2008V145.818H20.1326C20.0417 146.008 19.8902 146.21 19.6781 146.426C19.4659 146.642 19.1838 146.826 18.8315 146.977C18.4792 147.129 18.0493 147.205 17.5417 147.205ZM17.7463 146C18.2766 146 18.7235 145.896 19.0872 145.688C19.4546 145.479 19.7311 145.21 19.9167 144.881C20.1061 144.551 20.2008 144.205 20.2008 143.841V142.614C20.144 142.682 20.019 142.744 19.8258 142.801C19.6364 142.854 19.4167 142.902 19.1667 142.943C18.9205 142.981 18.68 143.015 18.4451 143.045C18.2141 143.072 18.0266 143.095 17.8826 143.114C17.5341 143.159 17.2084 143.233 16.9053 143.335C16.6061 143.434 16.3637 143.583 16.1781 143.784C15.9963 143.981 15.9053 144.25 15.9053 144.591C15.9053 145.057 16.0777 145.409 16.4224 145.648C16.7709 145.883 17.2122 146 17.7463 146ZM25.1701 141.75V147H23.8291V138.273H25.1246V139.636H25.2382C25.4428 139.193 25.7534 138.837 26.1701 138.568C26.5867 138.295 27.1246 138.159 27.7837 138.159C28.3746 138.159 28.8916 138.28 29.3348 138.523C29.778 138.761 30.1227 139.125 30.3689 139.614C30.6151 140.098 30.7382 140.712 30.7382 141.455V147H29.3973V141.545C29.3973 140.86 29.2193 140.326 28.8632 139.943C28.5072 139.557 28.0185 139.364 27.3973 139.364C26.9693 139.364 26.5867 139.456 26.2496 139.642C25.9163 139.828 25.653 140.098 25.4598 140.455C25.2666 140.811 25.1701 141.242 25.1701 141.75ZM35.5967 147.205C35.0437 147.205 34.5418 147.1 34.091 146.892C33.6403 146.68 33.2823 146.375 33.0172 145.977C32.752 145.576 32.6194 145.091 32.6194 144.523C32.6194 144.023 32.7179 143.617 32.9149 143.307C33.1119 142.992 33.3751 142.746 33.7047 142.568C34.0342 142.39 34.3978 142.258 34.7956 142.17C35.1971 142.08 35.6005 142.008 36.0058 141.955C36.5361 141.886 36.966 141.835 37.2956 141.801C37.6289 141.763 37.8713 141.701 38.0228 141.614C38.1781 141.527 38.2558 141.375 38.2558 141.159V141.114C38.2558 140.553 38.1024 140.117 37.7956 139.807C37.4925 139.496 37.0323 139.341 36.4149 139.341C35.7747 139.341 35.2728 139.481 34.9092 139.761C34.5456 140.042 34.2899 140.341 34.1422 140.659L32.8694 140.205C33.0967 139.674 33.3997 139.261 33.7785 138.966C34.1611 138.667 34.5778 138.458 35.0285 138.341C35.4831 138.22 35.93 138.159 36.3694 138.159C36.6497 138.159 36.9717 138.193 37.3353 138.261C37.7028 138.326 38.0569 138.46 38.3978 138.665C38.7425 138.869 39.0285 139.178 39.2558 139.591C39.4831 140.004 39.5967 140.557 39.5967 141.25V147H38.2558V145.818H38.1876C38.0967 146.008 37.9452 146.21 37.7331 146.426C37.5209 146.642 37.2388 146.826 36.8865 146.977C36.5342 147.129 36.1043 147.205 35.5967 147.205ZM35.8013 146C36.3316 146 36.7785 145.896 37.1422 145.688C37.5096 145.479 37.7861 145.21 37.9717 144.881C38.1611 144.551 38.2558 144.205 38.2558 143.841V142.614C38.199 142.682 38.074 142.744 37.8808 142.801C37.6914 142.854 37.4717 142.902 37.2217 142.943C36.9755 142.981 36.735 143.015 36.5001 143.045C36.2691 143.072 36.0816 143.095 35.9376 143.114C35.5891 143.159 35.2634 143.233 34.9603 143.335C34.6611 143.434 34.4187 143.583 34.2331 143.784C34.0513 143.981 33.9603 144.25 33.9603 144.591C33.9603 145.057 34.1327 145.409 34.4774 145.648C34.8259 145.883 35.2672 146 35.8013 146ZM45.4069 150.455C44.7591 150.455 44.2023 150.371 43.7364 150.205C43.2705 150.042 42.8823 149.826 42.5716 149.557C42.2648 149.292 42.0205 149.008 41.8387 148.705L42.9069 147.955C43.0281 148.114 43.1815 148.295 43.3671 148.5C43.5527 148.708 43.8065 148.888 44.1285 149.04C44.4542 149.195 44.8804 149.273 45.4069 149.273C46.1114 149.273 46.6929 149.102 47.1512 148.761C47.6095 148.42 47.8387 147.886 47.8387 147.159V145.386H47.7251C47.6266 145.545 47.4864 145.742 47.3046 145.977C47.1266 146.208 46.869 146.415 46.5319 146.597C46.1985 146.775 45.7478 146.864 45.1796 146.864C44.4751 146.864 43.8425 146.697 43.2819 146.364C42.7251 146.03 42.2838 145.545 41.958 144.909C41.636 144.273 41.4751 143.5 41.4751 142.591C41.4751 141.697 41.6323 140.919 41.9466 140.256C42.261 139.589 42.6985 139.074 43.2591 138.71C43.8198 138.343 44.4675 138.159 45.2023 138.159C45.7705 138.159 46.2213 138.254 46.5546 138.443C46.8917 138.629 47.1493 138.841 47.3273 139.08C47.5091 139.314 47.6493 139.508 47.7478 139.659H47.8841V138.273H49.1796V147.25C49.1796 148 49.0091 148.61 48.6682 149.08C48.3311 149.553 47.8766 149.9 47.3046 150.119C46.7364 150.343 46.1038 150.455 45.4069 150.455ZM45.3614 145.659C45.8993 145.659 46.3538 145.536 46.7251 145.29C47.0963 145.044 47.3785 144.689 47.5716 144.227C47.7648 143.765 47.8614 143.212 47.8614 142.568C47.8614 141.939 47.7667 141.384 47.5773 140.903C47.3879 140.422 47.1076 140.045 46.7364 139.773C46.3652 139.5 45.9069 139.364 45.3614 139.364C44.7932 139.364 44.3198 139.508 43.941 139.795C43.566 140.083 43.2838 140.47 43.0944 140.955C42.9088 141.439 42.816 141.977 42.816 142.568C42.816 143.174 42.9107 143.71 43.1001 144.176C43.2932 144.638 43.5773 145.002 43.9523 145.267C44.3311 145.528 44.8008 145.659 45.3614 145.659ZM55.1332 147.182C54.2923 147.182 53.567 146.996 52.9571 146.625C52.351 146.25 51.8832 145.727 51.5537 145.057C51.2279 144.383 51.0651 143.598 51.0651 142.705C51.0651 141.811 51.2279 141.023 51.5537 140.341C51.8832 139.655 52.3416 139.121 52.9287 138.739C53.5196 138.352 54.209 138.159 54.9969 138.159C55.4514 138.159 55.9003 138.235 56.3435 138.386C56.7866 138.538 57.1901 138.784 57.5537 139.125C57.9173 139.462 58.2071 139.909 58.423 140.466C58.6389 141.023 58.7469 141.708 58.7469 142.523V143.091H52.0196V141.932H57.3832C57.3832 141.439 57.2848 141 57.0878 140.614C56.8946 140.227 56.6181 139.922 56.2582 139.699C55.9022 139.475 55.4817 139.364 54.9969 139.364C54.4628 139.364 54.0007 139.496 53.6105 139.761C53.2241 140.023 52.9268 140.364 52.7185 140.784C52.5101 141.205 52.406 141.655 52.406 142.136V142.909C52.406 143.568 52.5196 144.127 52.7469 144.585C52.9779 145.04 53.298 145.386 53.7071 145.625C54.1162 145.86 54.5916 145.977 55.1332 145.977C55.4855 145.977 55.8037 145.928 56.0878 145.83C56.3757 145.727 56.6238 145.576 56.8321 145.375C57.0404 145.17 57.2014 144.917 57.3151 144.614L58.6105 144.977C58.4741 145.417 58.245 145.803 57.923 146.136C57.601 146.466 57.2033 146.723 56.7298 146.909C56.2563 147.091 55.7241 147.182 55.1332 147.182ZM63.1948 147.205C62.6418 147.205 62.1399 147.1 61.6891 146.892C61.2384 146.68 60.8804 146.375 60.6153 145.977C60.3501 145.576 60.2176 145.091 60.2176 144.523C60.2176 144.023 60.316 143.617 60.513 143.307C60.71 142.992 60.9732 142.746 61.3028 142.568C61.6323 142.39 61.996 142.258 62.3937 142.17C62.7952 142.08 63.1986 142.008 63.6039 141.955C64.1342 141.886 64.5641 141.835 64.8937 141.801C65.227 141.763 65.4695 141.701 65.621 141.614C65.7763 141.527 65.8539 141.375 65.8539 141.159V141.114C65.8539 140.553 65.7005 140.117 65.3937 139.807C65.0907 139.496 64.6304 139.341 64.013 139.341C63.3729 139.341 62.871 139.481 62.5073 139.761C62.1437 140.042 61.888 140.341 61.7403 140.659L60.4676 140.205C60.6948 139.674 60.9979 139.261 61.3766 138.966C61.7592 138.667 62.1759 138.458 62.6266 138.341C63.0812 138.22 63.5282 138.159 63.9676 138.159C64.2479 138.159 64.5698 138.193 64.9335 138.261C65.3009 138.326 65.6551 138.46 65.996 138.665C66.3407 138.869 66.6266 139.178 66.8539 139.591C67.0812 140.004 67.1948 140.557 67.1948 141.25V147H65.8539V145.818H65.7857C65.6948 146.008 65.5433 146.21 65.3312 146.426C65.1191 146.642 64.8369 146.826 64.4846 146.977C64.1323 147.129 63.7024 147.205 63.1948 147.205ZM63.3994 146C63.9297 146 64.3766 145.896 64.7403 145.688C65.1077 145.479 65.3842 145.21 65.5698 144.881C65.7592 144.551 65.8539 144.205 65.8539 143.841V142.614C65.7971 142.682 65.6721 142.744 65.4789 142.801C65.2895 142.854 65.0698 142.902 64.8198 142.943C64.5736 142.981 64.3331 143.015 64.0982 143.045C63.8672 143.072 63.6797 143.095 63.5357 143.114C63.1873 143.159 62.8615 143.233 62.5585 143.335C62.2592 143.434 62.0168 143.583 61.8312 143.784C61.6494 143.981 61.5585 144.25 61.5585 144.591C61.5585 145.057 61.7308 145.409 62.0755 145.648C62.424 145.883 62.8653 146 63.3994 146ZM69.6641 147V135.364H71.005V139.659H71.1186C71.2171 139.508 71.3535 139.314 71.5277 139.08C71.7058 138.841 71.9595 138.629 72.2891 138.443C72.6224 138.254 73.0732 138.159 73.6414 138.159C74.3762 138.159 75.0239 138.343 75.5845 138.71C76.1451 139.078 76.5826 139.598 76.897 140.273C77.2114 140.947 77.3686 141.742 77.3686 142.659C77.3686 143.583 77.2114 144.384 76.897 145.062C76.5826 145.737 76.147 146.259 75.5902 146.631C75.0334 146.998 74.3914 147.182 73.6641 147.182C73.1035 147.182 72.6546 147.089 72.3175 146.903C71.9804 146.714 71.7209 146.5 71.5391 146.261C71.3573 146.019 71.2171 145.818 71.1186 145.659H70.9595V147H69.6641ZM70.9823 142.636C70.9823 143.295 71.0789 143.877 71.272 144.381C71.4652 144.881 71.7474 145.273 72.1186 145.557C72.4898 145.837 72.9444 145.977 73.4823 145.977C74.0429 145.977 74.5107 145.83 74.8857 145.534C75.2645 145.235 75.5486 144.833 75.738 144.33C75.9311 143.822 76.0277 143.258 76.0277 142.636C76.0277 142.023 75.933 141.47 75.7436 140.977C75.558 140.481 75.2758 140.089 74.897 139.801C74.522 139.509 74.0505 139.364 73.4823 139.364C72.9368 139.364 72.4785 139.502 72.1073 139.778C71.7361 140.051 71.4558 140.434 71.2664 140.926C71.077 141.415 70.9823 141.985 70.9823 142.636ZM80.6007 135.364V147H79.2598V135.364H80.6007ZM86.5557 147.182C85.7148 147.182 84.9894 146.996 84.3796 146.625C83.7735 146.25 83.3057 145.727 82.9762 145.057C82.6504 144.383 82.4876 143.598 82.4876 142.705C82.4876 141.811 82.6504 141.023 82.9762 140.341C83.3057 139.655 83.7641 139.121 84.3512 138.739C84.9421 138.352 85.6315 138.159 86.4194 138.159C86.8739 138.159 87.3228 138.235 87.766 138.386C88.2091 138.538 88.6126 138.784 88.9762 139.125C89.3398 139.462 89.6296 139.909 89.8455 140.466C90.0614 141.023 90.1694 141.708 90.1694 142.523V143.091H83.4421V141.932H88.8057C88.8057 141.439 88.7073 141 88.5103 140.614C88.3171 140.227 88.0406 139.922 87.6807 139.699C87.3247 139.475 86.9042 139.364 86.4194 139.364C85.8853 139.364 85.4232 139.496 85.033 139.761C84.6466 140.023 84.3493 140.364 84.141 140.784C83.9326 141.205 83.8285 141.655 83.8285 142.136V142.909C83.8285 143.568 83.9421 144.127 84.1694 144.585C84.4004 145.04 84.7205 145.386 85.1296 145.625C85.5387 145.86 86.0141 145.977 86.5557 145.977C86.908 145.977 87.2262 145.928 87.5103 145.83C87.7982 145.727 88.0463 145.576 88.2546 145.375C88.4629 145.17 88.6239 144.917 88.7376 144.614L90.033 144.977C89.8966 145.417 89.6675 145.803 89.3455 146.136C89.0235 146.466 88.6258 146.723 88.1523 146.909C87.6788 147.091 87.1466 147.182 86.5557 147.182ZM100.185 138.273V139.409H95.6619V138.273H100.185ZM96.9801 136.182H98.321V144.5C98.321 144.879 98.3759 145.163 98.4857 145.352C98.5994 145.538 98.7433 145.663 98.9176 145.727C99.0956 145.788 99.2831 145.818 99.4801 145.818C99.6278 145.818 99.749 145.811 99.8437 145.795C99.9384 145.777 100.014 145.761 100.071 145.75L100.344 146.955C100.253 146.989 100.126 147.023 99.963 147.057C99.8001 147.095 99.5937 147.114 99.3437 147.114C98.9649 147.114 98.5937 147.032 98.2301 146.869C97.8702 146.706 97.571 146.458 97.3323 146.125C97.0975 145.792 96.9801 145.371 96.9801 144.864V136.182ZM104.61 147.205C104.057 147.205 103.555 147.1 103.104 146.892C102.653 146.68 102.295 146.375 102.03 145.977C101.765 145.576 101.633 145.091 101.633 144.523C101.633 144.023 101.731 143.617 101.928 143.307C102.125 142.992 102.388 142.746 102.718 142.568C103.047 142.39 103.411 142.258 103.809 142.17C104.21 142.08 104.614 142.008 105.019 141.955C105.549 141.886 105.979 141.835 106.309 141.801C106.642 141.763 106.884 141.701 107.036 141.614C107.191 141.527 107.269 141.375 107.269 141.159V141.114C107.269 140.553 107.116 140.117 106.809 139.807C106.506 139.496 106.045 139.341 105.428 139.341C104.788 139.341 104.286 139.481 103.922 139.761C103.559 140.042 103.303 140.341 103.155 140.659L101.883 140.205C102.11 139.674 102.413 139.261 102.792 138.966C103.174 138.667 103.591 138.458 104.042 138.341C104.496 138.22 104.943 138.159 105.383 138.159C105.663 138.159 105.985 138.193 106.348 138.261C106.716 138.326 107.07 138.46 107.411 138.665C107.756 138.869 108.042 139.178 108.269 139.591C108.496 140.004 108.61 140.557 108.61 141.25V147H107.269V145.818H107.201C107.11 146.008 106.958 146.21 106.746 146.426C106.534 146.642 106.252 146.826 105.9 146.977C105.547 147.129 105.117 147.205 104.61 147.205ZM104.814 146C105.345 146 105.792 145.896 106.155 145.688C106.523 145.479 106.799 145.21 106.985 144.881C107.174 144.551 107.269 144.205 107.269 143.841V142.614C107.212 142.682 107.087 142.744 106.894 142.801C106.705 142.854 106.485 142.902 106.235 142.943C105.989 142.981 105.748 143.015 105.513 143.045C105.282 143.072 105.095 143.095 104.951 143.114C104.602 143.159 104.276 143.233 103.973 143.335C103.674 143.434 103.432 143.583 103.246 143.784C103.064 143.981 102.973 144.25 102.973 144.591C102.973 145.057 103.146 145.409 103.491 145.648C103.839 145.883 104.28 146 104.814 146ZM117.079 140.227L115.875 140.568C115.799 140.367 115.687 140.172 115.539 139.983C115.395 139.79 115.198 139.631 114.948 139.506C114.698 139.381 114.378 139.318 113.988 139.318C113.454 139.318 113.009 139.441 112.653 139.688C112.301 139.93 112.125 140.239 112.125 140.614C112.125 140.947 112.246 141.21 112.488 141.403C112.731 141.597 113.109 141.758 113.625 141.886L114.92 142.205C115.7 142.394 116.282 142.684 116.664 143.074C117.047 143.46 117.238 143.958 117.238 144.568C117.238 145.068 117.094 145.515 116.806 145.909C116.522 146.303 116.125 146.614 115.613 146.841C115.102 147.068 114.507 147.182 113.829 147.182C112.939 147.182 112.202 146.989 111.619 146.602C111.036 146.216 110.666 145.652 110.511 144.909L111.784 144.591C111.905 145.061 112.134 145.413 112.471 145.648C112.812 145.883 113.257 146 113.806 146C114.431 146 114.928 145.867 115.295 145.602C115.666 145.333 115.852 145.011 115.852 144.636C115.852 144.333 115.746 144.08 115.534 143.875C115.322 143.667 114.996 143.511 114.556 143.409L113.102 143.068C112.303 142.879 111.715 142.585 111.34 142.188C110.969 141.786 110.784 141.284 110.784 140.682C110.784 140.189 110.922 139.754 111.198 139.375C111.479 138.996 111.859 138.699 112.34 138.483C112.825 138.267 113.375 138.159 113.988 138.159C114.852 138.159 115.53 138.348 116.022 138.727C116.518 139.106 116.871 139.606 117.079 140.227ZM120.347 143.818L120.324 142.159H120.597L124.415 138.273H126.074L122.006 142.386H121.892L120.347 143.818ZM119.097 147V135.364H120.438V147H119.097ZM124.642 147L121.233 142.682L122.188 141.75L126.347 147H124.642ZM132.162 147V135.364H133.503V139.659H133.616C133.715 139.508 133.851 139.314 134.025 139.08C134.203 138.841 134.457 138.629 134.787 138.443C135.12 138.254 135.571 138.159 136.139 138.159C136.874 138.159 137.521 138.343 138.082 138.71C138.643 139.078 139.08 139.598 139.395 140.273C139.709 140.947 139.866 141.742 139.866 142.659C139.866 143.583 139.709 144.384 139.395 145.062C139.08 145.737 138.645 146.259 138.088 146.631C137.531 146.998 136.889 147.182 136.162 147.182C135.601 147.182 135.152 147.089 134.815 146.903C134.478 146.714 134.218 146.5 134.037 146.261C133.855 146.019 133.715 145.818 133.616 145.659H133.457V147H132.162ZM133.48 142.636C133.48 143.295 133.576 143.877 133.77 144.381C133.963 144.881 134.245 145.273 134.616 145.557C134.987 145.837 135.442 145.977 135.98 145.977C136.54 145.977 137.008 145.83 137.383 145.534C137.762 145.235 138.046 144.833 138.235 144.33C138.429 143.822 138.525 143.258 138.525 142.636C138.525 142.023 138.431 141.47 138.241 140.977C138.056 140.481 137.773 140.089 137.395 139.801C137.02 139.509 136.548 139.364 135.98 139.364C135.434 139.364 134.976 139.502 134.605 139.778C134.234 140.051 133.953 140.434 133.764 140.926C133.574 141.415 133.48 141.985 133.48 142.636ZM141.757 147V138.273H143.053V139.591H143.144C143.303 139.159 143.591 138.809 144.007 138.54C144.424 138.271 144.894 138.136 145.416 138.136C145.515 138.136 145.638 138.138 145.786 138.142C145.933 138.146 146.045 138.152 146.121 138.159V139.523C146.075 139.511 145.971 139.494 145.808 139.472C145.649 139.445 145.481 139.432 145.303 139.432C144.878 139.432 144.5 139.521 144.166 139.699C143.837 139.873 143.575 140.116 143.382 140.426C143.193 140.733 143.098 141.083 143.098 141.477V147H141.757ZM150.944 147.182C150.103 147.182 149.378 146.996 148.768 146.625C148.162 146.25 147.694 145.727 147.364 145.057C147.039 144.383 146.876 143.598 146.876 142.705C146.876 141.811 147.039 141.023 147.364 140.341C147.694 139.655 148.152 139.121 148.739 138.739C149.33 138.352 150.02 138.159 150.807 138.159C151.262 138.159 151.711 138.235 152.154 138.386C152.597 138.538 153.001 138.784 153.364 139.125C153.728 139.462 154.018 139.909 154.234 140.466C154.45 141.023 154.557 141.708 154.557 142.523V143.091H147.83V141.932H153.194C153.194 141.439 153.095 141 152.898 140.614C152.705 140.227 152.429 139.922 152.069 139.699C151.713 139.475 151.292 139.364 150.807 139.364C150.273 139.364 149.811 139.496 149.421 139.761C149.035 140.023 148.737 140.364 148.529 140.784C148.321 141.205 148.217 141.655 148.217 142.136V142.909C148.217 143.568 148.33 144.127 148.557 144.585C148.789 145.04 149.109 145.386 149.518 145.625C149.927 145.86 150.402 145.977 150.944 145.977C151.296 145.977 151.614 145.928 151.898 145.83C152.186 145.727 152.434 145.576 152.643 145.375C152.851 145.17 153.012 144.917 153.126 144.614L154.421 144.977C154.285 145.417 154.056 145.803 153.734 146.136C153.412 146.466 153.014 146.723 152.54 146.909C152.067 147.091 151.535 147.182 150.944 147.182ZM159.005 147.205C158.452 147.205 157.951 147.1 157.5 146.892C157.049 146.68 156.691 146.375 156.426 145.977C156.161 145.576 156.028 145.091 156.028 144.523C156.028 144.023 156.127 143.617 156.324 143.307C156.521 142.992 156.784 142.746 157.113 142.568C157.443 142.39 157.807 142.258 158.204 142.17C158.606 142.08 159.009 142.008 159.415 141.955C159.945 141.886 160.375 141.835 160.704 141.801C161.038 141.763 161.28 141.701 161.432 141.614C161.587 141.527 161.665 141.375 161.665 141.159V141.114C161.665 140.553 161.511 140.117 161.204 139.807C160.901 139.496 160.441 139.341 159.824 139.341C159.183 139.341 158.682 139.481 158.318 139.761C157.954 140.042 157.699 140.341 157.551 140.659L156.278 140.205C156.505 139.674 156.808 139.261 157.187 138.966C157.57 138.667 157.987 138.458 158.437 138.341C158.892 138.22 159.339 138.159 159.778 138.159C160.058 138.159 160.38 138.193 160.744 138.261C161.112 138.326 161.466 138.46 161.807 138.665C162.151 138.869 162.437 139.178 162.665 139.591C162.892 140.004 163.005 140.557 163.005 141.25V147H161.665V145.818H161.596C161.505 146.008 161.354 146.21 161.142 146.426C160.93 146.642 160.648 146.826 160.295 146.977C159.943 147.129 159.513 147.205 159.005 147.205ZM159.21 146C159.74 146 160.187 145.896 160.551 145.688C160.918 145.479 161.195 145.21 161.38 144.881C161.57 144.551 161.665 144.205 161.665 143.841V142.614C161.608 142.682 161.483 142.744 161.29 142.801C161.1 142.854 160.88 142.902 160.63 142.943C160.384 142.981 160.144 143.015 159.909 143.045C159.678 143.072 159.49 143.095 159.346 143.114C158.998 143.159 158.672 143.233 158.369 143.335C158.07 143.434 157.827 143.583 157.642 143.784C157.46 143.981 157.369 144.25 157.369 144.591C157.369 145.057 157.541 145.409 157.886 145.648C158.235 145.883 158.676 146 159.21 146ZM166.543 143.818L166.52 142.159H166.793L170.611 138.273H172.27L168.202 142.386H168.088L166.543 143.818ZM165.293 147V135.364H166.634V147H165.293ZM170.838 147L167.429 142.682L168.384 141.75L172.543 147H170.838ZM176.772 147.182C176.045 147.182 175.403 146.998 174.846 146.631C174.289 146.259 173.854 145.737 173.539 145.062C173.225 144.384 173.068 143.583 173.068 142.659C173.068 141.742 173.225 140.947 173.539 140.273C173.854 139.598 174.291 139.078 174.852 138.71C175.412 138.343 176.06 138.159 176.795 138.159C177.363 138.159 177.812 138.254 178.141 138.443C178.475 138.629 178.729 138.841 178.903 139.08C179.081 139.314 179.219 139.508 179.318 139.659H179.431V135.364H180.772V147H179.477V145.659H179.318C179.219 145.818 179.079 146.019 178.897 146.261C178.715 146.5 178.456 146.714 178.119 146.903C177.782 147.089 177.333 147.182 176.772 147.182ZM176.954 145.977C177.492 145.977 177.946 145.837 178.318 145.557C178.689 145.273 178.971 144.881 179.164 144.381C179.357 143.877 179.454 143.295 179.454 142.636C179.454 141.985 179.359 141.415 179.17 140.926C178.98 140.434 178.7 140.051 178.329 139.778C177.958 139.502 177.499 139.364 176.954 139.364C176.386 139.364 175.912 139.509 175.533 139.801C175.158 140.089 174.876 140.481 174.687 140.977C174.501 141.47 174.408 142.023 174.408 142.636C174.408 143.258 174.503 143.822 174.693 144.33C174.886 144.833 175.17 145.235 175.545 145.534C175.924 145.83 176.393 145.977 176.954 145.977ZM186.8 147.182C186.012 147.182 185.32 146.994 184.726 146.619C184.135 146.244 183.673 145.72 183.339 145.045C183.01 144.371 182.845 143.583 182.845 142.682C182.845 141.773 183.01 140.979 183.339 140.301C183.673 139.623 184.135 139.097 184.726 138.722C185.32 138.347 186.012 138.159 186.8 138.159C187.587 138.159 188.277 138.347 188.868 138.722C189.462 139.097 189.925 139.623 190.254 140.301C190.587 140.979 190.754 141.773 190.754 142.682C190.754 143.583 190.587 144.371 190.254 145.045C189.925 145.72 189.462 146.244 188.868 146.619C188.277 146.994 187.587 147.182 186.8 147.182ZM186.8 145.977C187.398 145.977 187.891 145.824 188.277 145.517C188.663 145.21 188.949 144.807 189.135 144.307C189.32 143.807 189.413 143.265 189.413 142.682C189.413 142.098 189.32 141.555 189.135 141.051C188.949 140.547 188.663 140.14 188.277 139.83C187.891 139.519 187.398 139.364 186.8 139.364C186.201 139.364 185.709 139.519 185.322 139.83C184.936 140.14 184.65 140.547 184.464 141.051C184.279 141.555 184.186 142.098 184.186 142.682C184.186 143.265 184.279 143.807 184.464 144.307C184.65 144.807 184.936 145.21 185.322 145.517C185.709 145.824 186.201 145.977 186.8 145.977ZM194.321 147L191.662 138.273H193.071L194.958 144.955H195.049L196.912 138.273H198.344L200.185 144.932H200.276L202.162 138.273H203.571L200.912 147H199.594L197.685 140.295H197.549L195.64 147H194.321ZM206.525 141.75V147H205.184V138.273H206.48V139.636H206.593C206.798 139.193 207.108 138.837 207.525 138.568C207.942 138.295 208.48 138.159 209.139 138.159C209.73 138.159 210.247 138.28 210.69 138.523C211.133 138.761 211.478 139.125 211.724 139.614C211.97 140.098 212.093 140.712 212.093 141.455V147H210.752V141.545C210.752 140.86 210.574 140.326 210.218 139.943C209.862 139.557 209.374 139.364 208.752 139.364C208.324 139.364 207.942 139.456 207.605 139.642C207.271 139.828 207.008 140.098 206.815 140.455C206.622 140.811 206.525 141.242 206.525 141.75ZM220.565 140.227L219.361 140.568C219.285 140.367 219.173 140.172 219.026 139.983C218.882 139.79 218.685 139.631 218.435 139.506C218.185 139.381 217.865 139.318 217.474 139.318C216.94 139.318 216.495 139.441 216.139 139.688C215.787 139.93 215.611 140.239 215.611 140.614C215.611 140.947 215.732 141.21 215.974 141.403C216.217 141.597 216.596 141.758 217.111 141.886L218.406 142.205C219.187 142.394 219.768 142.684 220.151 143.074C220.533 143.46 220.724 143.958 220.724 144.568C220.724 145.068 220.58 145.515 220.293 145.909C220.009 146.303 219.611 146.614 219.099 146.841C218.588 147.068 217.993 147.182 217.315 147.182C216.425 147.182 215.688 146.989 215.105 146.602C214.522 146.216 214.152 145.652 213.997 144.909L215.27 144.591C215.391 145.061 215.62 145.413 215.957 145.648C216.298 145.883 216.743 146 217.293 146C217.918 146 218.414 145.867 218.781 145.602C219.152 145.333 219.338 145.011 219.338 144.636C219.338 144.333 219.232 144.08 219.02 143.875C218.808 143.667 218.482 143.511 218.043 143.409L216.588 143.068C215.789 142.879 215.202 142.585 214.827 142.188C214.455 141.786 214.27 141.284 214.27 140.682C214.27 140.189 214.408 139.754 214.685 139.375C214.965 138.996 215.346 138.699 215.827 138.483C216.312 138.267 216.861 138.159 217.474 138.159C218.338 138.159 219.016 138.348 219.509 138.727C220.005 139.106 220.357 139.606 220.565 140.227ZM223.56 147.091C223.28 147.091 223.039 146.991 222.839 146.79C222.638 146.589 222.537 146.348 222.537 146.068C222.537 145.788 222.638 145.547 222.839 145.347C223.039 145.146 223.28 145.045 223.56 145.045C223.84 145.045 224.081 145.146 224.282 145.347C224.483 145.547 224.583 145.788 224.583 146.068C224.583 146.254 224.536 146.424 224.441 146.58C224.35 146.735 224.227 146.86 224.072 146.955C223.92 147.045 223.75 147.091 223.56 147.091Z" fill="black"/>
<path d="M0.409091 179V167.364H1.81818V177.75H7.22727V179H0.409091ZM12.7264 179.182C11.8855 179.182 11.1601 178.996 10.5502 178.625C9.94417 178.25 9.47636 177.727 9.14682 177.057C8.82106 176.383 8.65818 175.598 8.65818 174.705C8.65818 173.811 8.82106 173.023 9.14682 172.341C9.47636 171.655 9.9347 171.121 10.5218 170.739C11.1127 170.352 11.8021 170.159 12.59 170.159C13.0445 170.159 13.4934 170.235 13.9366 170.386C14.3798 170.538 14.7832 170.784 15.1468 171.125C15.5105 171.462 15.8002 171.909 16.0161 172.466C16.232 173.023 16.34 173.708 16.34 174.523V175.091H9.61273V173.932H14.9764C14.9764 173.439 14.8779 173 14.6809 172.614C14.4877 172.227 14.2112 171.922 13.8514 171.699C13.4953 171.475 13.0748 171.364 12.59 171.364C12.0559 171.364 11.5938 171.496 11.2036 171.761C10.8173 172.023 10.5199 172.364 10.3116 172.784C10.1033 173.205 9.99909 173.655 9.99909 174.136V174.909C9.99909 175.568 10.1127 176.127 10.34 176.585C10.5711 177.04 10.8911 177.386 11.3002 177.625C11.7093 177.86 12.1847 177.977 12.7264 177.977C13.0786 177.977 13.3968 177.928 13.6809 177.83C13.9688 177.727 14.2169 177.576 14.4252 177.375C14.6336 177.17 14.7945 176.917 14.9082 176.614L16.2036 176.977C16.0673 177.417 15.8381 177.803 15.5161 178.136C15.1942 178.466 14.7964 178.723 14.323 178.909C13.8495 179.091 13.3173 179.182 12.7264 179.182ZM20.788 179.205C20.2349 179.205 19.733 179.1 19.2823 178.892C18.8315 178.68 18.4736 178.375 18.2084 177.977C17.9433 177.576 17.8107 177.091 17.8107 176.523C17.8107 176.023 17.9092 175.617 18.1061 175.307C18.3031 174.992 18.5664 174.746 18.8959 174.568C19.2255 174.39 19.5891 174.258 19.9868 174.17C20.3883 174.08 20.7917 174.008 21.197 173.955C21.7273 173.886 22.1573 173.835 22.4868 173.801C22.8202 173.763 23.0626 173.701 23.2141 173.614C23.3694 173.527 23.447 173.375 23.447 173.159V173.114C23.447 172.553 23.2936 172.117 22.9868 171.807C22.6838 171.496 22.2236 171.341 21.6061 171.341C20.966 171.341 20.4641 171.481 20.1005 171.761C19.7368 172.042 19.4811 172.341 19.3334 172.659L18.0607 172.205C18.288 171.674 18.591 171.261 18.9698 170.966C19.3523 170.667 19.769 170.458 20.2198 170.341C20.6743 170.22 21.1213 170.159 21.5607 170.159C21.841 170.159 22.163 170.193 22.5266 170.261C22.894 170.326 23.2482 170.46 23.5891 170.665C23.9338 170.869 24.2198 171.178 24.447 171.591C24.6743 172.004 24.788 172.557 24.788 173.25V179H23.447V177.818H23.3789C23.288 178.008 23.1364 178.21 22.9243 178.426C22.7122 178.642 22.43 178.826 22.0777 178.977C21.7255 179.129 21.2955 179.205 20.788 179.205ZM20.9925 178C21.5228 178 21.9698 177.896 22.3334 177.688C22.7008 177.479 22.9773 177.21 23.163 176.881C23.3523 176.551 23.447 176.205 23.447 175.841V174.614C23.3902 174.682 23.2652 174.744 23.072 174.801C22.8827 174.854 22.663 174.902 22.413 174.943C22.1667 174.981 21.9262 175.015 21.6914 175.045C21.4603 175.072 21.2728 175.095 21.1289 175.114C20.7804 175.159 20.4546 175.233 20.1516 175.335C19.8523 175.434 19.6099 175.583 19.4243 175.784C19.2425 175.981 19.1516 176.25 19.1516 176.591C19.1516 177.057 19.3239 177.409 19.6686 177.648C20.0171 177.883 20.4584 178 20.9925 178ZM27.0754 179V170.273H28.3709V171.591H28.4618C28.6209 171.159 28.9087 170.809 29.3254 170.54C29.7421 170.271 30.2118 170.136 30.7345 170.136C30.833 170.136 30.9561 170.138 31.1038 170.142C31.2515 170.146 31.3633 170.152 31.439 170.159V171.523C31.3936 171.511 31.2894 171.494 31.1265 171.472C30.9674 171.445 30.7989 171.432 30.6209 171.432C30.1966 171.432 29.8178 171.521 29.4845 171.699C29.1549 171.873 28.8936 172.116 28.7004 172.426C28.511 172.733 28.4163 173.083 28.4163 173.477V179H27.0754ZM34.2094 173.75V179H32.8685V170.273H34.164V171.636H34.2776C34.4822 171.193 34.7928 170.837 35.2094 170.568C35.6261 170.295 36.164 170.159 36.8231 170.159C37.414 170.159 37.931 170.28 38.3742 170.523C38.8174 170.761 39.1621 171.125 39.4083 171.614C39.6545 172.098 39.7776 172.712 39.7776 173.455V179H38.4367V173.545C38.4367 172.86 38.2587 172.326 37.9026 171.943C37.5466 171.557 37.0579 171.364 36.4367 171.364C36.0087 171.364 35.6261 171.456 35.289 171.642C34.9556 171.828 34.6924 172.098 34.4992 172.455C34.306 172.811 34.2094 173.242 34.2094 173.75ZM46.4079 179V170.273H47.7034V171.636H47.817C47.9988 171.17 48.2924 170.809 48.6977 170.551C49.103 170.29 49.5897 170.159 50.1579 170.159C50.7337 170.159 51.2128 170.29 51.5954 170.551C51.9818 170.809 52.2829 171.17 52.4988 171.636H52.5897C52.8132 171.186 53.1484 170.828 53.5954 170.562C54.0424 170.294 54.5784 170.159 55.2034 170.159C55.9837 170.159 56.6219 170.403 57.1181 170.892C57.6143 171.377 57.8624 172.133 57.8624 173.159V179H56.5215V173.159C56.5215 172.515 56.3454 172.055 55.9931 171.778C55.6409 171.502 55.2261 171.364 54.7488 171.364C54.1352 171.364 53.6598 171.549 53.3227 171.92C52.9856 172.288 52.817 172.754 52.817 173.318V179H51.4534V173.023C51.4534 172.527 51.2924 172.127 50.9704 171.824C50.6484 171.517 50.2337 171.364 49.7261 171.364C49.3776 171.364 49.0518 171.456 48.7488 171.642C48.4496 171.828 48.2071 172.085 48.0215 172.415C47.8397 172.741 47.7488 173.117 47.7488 173.545V179H46.4079ZM63.6996 179.182C62.9117 179.182 62.2204 178.994 61.6257 178.619C61.0348 178.244 60.5727 177.72 60.2394 177.045C59.9098 176.371 59.7451 175.583 59.7451 174.682C59.7451 173.773 59.9098 172.979 60.2394 172.301C60.5727 171.623 61.0348 171.097 61.6257 170.722C62.2204 170.347 62.9117 170.159 63.6996 170.159C64.4875 170.159 65.1769 170.347 65.7678 170.722C66.3625 171.097 66.8246 171.623 67.1541 172.301C67.4875 172.979 67.6541 173.773 67.6541 174.682C67.6541 175.583 67.4875 176.371 67.1541 177.045C66.8246 177.72 66.3625 178.244 65.7678 178.619C65.1769 178.994 64.4875 179.182 63.6996 179.182ZM63.6996 177.977C64.2981 177.977 64.7905 177.824 65.1769 177.517C65.5632 177.21 65.8492 176.807 66.0348 176.307C66.2204 175.807 66.3132 175.265 66.3132 174.682C66.3132 174.098 66.2204 173.555 66.0348 173.051C65.8492 172.547 65.5632 172.14 65.1769 171.83C64.7905 171.519 64.2981 171.364 63.6996 171.364C63.1011 171.364 62.6087 171.519 62.2223 171.83C61.836 172.14 61.55 172.547 61.3644 173.051C61.1788 173.555 61.086 174.098 61.086 174.682C61.086 175.265 61.1788 175.807 61.3644 176.307C61.55 176.807 61.836 177.21 62.2223 177.517C62.6087 177.824 63.1011 177.977 63.6996 177.977ZM69.541 179V170.273H70.8365V171.591H70.9274C71.0865 171.159 71.3744 170.809 71.791 170.54C72.2077 170.271 72.6774 170.136 73.2001 170.136C73.2986 170.136 73.4217 170.138 73.5694 170.142C73.7172 170.146 73.8289 170.152 73.9047 170.159V171.523C73.8592 171.511 73.755 171.494 73.5922 171.472C73.4331 171.445 73.2645 171.432 73.0865 171.432C72.6622 171.432 72.2834 171.521 71.9501 171.699C71.6206 171.873 71.3592 172.116 71.166 172.426C70.9766 172.733 70.8819 173.083 70.8819 173.477V179H69.541ZM78.7276 179.182C77.8867 179.182 77.1613 178.996 76.5515 178.625C75.9454 178.25 75.4776 177.727 75.1481 177.057C74.8223 176.383 74.6594 175.598 74.6594 174.705C74.6594 173.811 74.8223 173.023 75.1481 172.341C75.4776 171.655 75.9359 171.121 76.5231 170.739C77.114 170.352 77.8034 170.159 78.5912 170.159C79.0458 170.159 79.4947 170.235 79.9378 170.386C80.381 170.538 80.7844 170.784 81.1481 171.125C81.5117 171.462 81.8015 171.909 82.0174 172.466C82.2333 173.023 82.3412 173.708 82.3412 174.523V175.091H75.614V173.932H80.9776C80.9776 173.439 80.8791 173 80.6822 172.614C80.489 172.227 80.2125 171.922 79.8526 171.699C79.4966 171.475 79.0761 171.364 78.5912 171.364C78.0572 171.364 77.595 171.496 77.2049 171.761C76.8185 172.023 76.5212 172.364 76.3128 172.784C76.1045 173.205 76.0003 173.655 76.0003 174.136V174.909C76.0003 175.568 76.114 176.127 76.3412 176.585C76.5723 177.04 76.8924 177.386 77.3015 177.625C77.7106 177.86 78.1859 177.977 78.7276 177.977C79.0799 177.977 79.3981 177.928 79.6822 177.83C79.97 177.727 80.2181 177.576 80.4265 177.375C80.6348 177.17 80.7958 176.917 80.9094 176.614L82.2049 176.977C82.0685 177.417 81.8394 177.803 81.5174 178.136C81.1954 178.466 80.7977 178.723 80.3242 178.909C79.8507 179.091 79.3185 179.182 78.7276 179.182Z" fill="black"/>
<path d="M104.031 174.031L99.5306 178.531C99.3897 178.672 99.1986 178.751 98.9994 178.751C98.8001 178.751 98.609 178.672 98.4681 178.531C98.3272 178.39 98.2481 178.199 98.2481 177.999C98.2481 177.8 98.3272 177.609 98.4681 177.468L101.688 174.25H92.5C92.3011 174.25 92.1103 174.171 91.9697 174.03C91.829 173.89 91.75 173.699 91.75 173.5C91.75 173.301 91.829 173.11 91.9697 172.97C92.1103 172.829 92.3011 172.75 92.5 172.75H101.688L98.4694 169.53C98.3285 169.389 98.2493 169.198 98.2493 168.999C98.2493 168.799 98.3285 168.608 98.4694 168.467C98.6103 168.327 98.8014 168.247 99.0006 168.247C99.1999 168.247 99.391 168.327 99.5319 168.467L104.032 172.967C104.102 173.037 104.157 173.12 104.195 173.211C104.233 173.303 104.252 173.401 104.252 173.499C104.252 173.598 104.232 173.696 104.194 173.787C104.156 173.878 104.101 173.961 104.031 174.031Z" fill="black"/>
</svg>
