<svg width="260" height="225" viewBox="0 0 260 225" fill="none" xmlns="http://www.w3.org/2000/svg">
<path d="M21.1209 55.5559C20.3072 54.1562 19.875 52.1472 19.875 49.75C19.875 47.6614 19.0453 45.6584 17.5685 44.1815C16.0916 42.7047 14.0886 41.875 12 41.875C9.91142 41.875 7.90838 42.7047 6.43153 44.1815C4.95468 45.6584 4.125 47.6614 4.125 49.75C4.125 52.1481 3.69468 54.1562 2.88093 55.5559C2.71488 55.8414 2.62687 56.1656 2.62571 56.4958C2.62456 56.8261 2.71032 57.1509 2.87437 57.4375C3.03739 57.7243 3.27399 57.9624 3.55977 58.1272C3.84554 58.292 4.17012 58.3775 4.5 58.375H7.89187C7.9849 59.4003 8.45794 60.3537 9.21808 61.048C9.97822 61.7423 10.9705 62.1273 12 62.1273C13.0295 62.1273 14.0218 61.7423 14.7819 61.048C15.542 60.3537 16.0151 59.4003 16.1081 58.375H19.5C19.8294 58.377 20.1534 58.2913 20.4386 58.1265C20.7239 57.9617 20.96 57.7239 21.1228 57.4375C21.2876 57.1513 21.3741 56.8267 21.3738 56.4965C21.3735 56.1662 21.2863 55.8418 21.1209 55.5559ZM12 59.875C11.5678 59.8751 11.1488 59.7258 10.8139 59.4525C10.4791 59.1791 10.2489 58.7985 10.1625 58.375H13.8375C13.751 58.7985 13.5209 59.1791 13.1861 59.4525C12.8512 59.7258 12.4322 59.8751 12 59.875ZM5.12437 56.125C5.95406 54.4375 6.375 52.2944 6.375 49.75C6.375 48.2582 6.96763 46.8274 8.02252 45.7725C9.07741 44.7176 10.5082 44.125 12 44.125C13.4918 44.125 14.9226 44.7176 15.9775 45.7725C17.0324 46.8274 17.625 48.2582 17.625 49.75C17.625 52.2934 18.045 54.4375 18.8747 56.125H5.12437Z" fill="black"/>
<path d="M6.93 92.216C5.658 92.216 4.566 91.946 3.654 91.406C2.742 90.854 2.04 90.092 1.548 89.12C1.056 88.136 0.81 87.002 0.81 85.718C0.81 84.434 1.056 83.3 1.548 82.316C2.04 81.332 2.742 80.564 3.654 80.012C4.566 79.46 5.658 79.184 6.93 79.184C8.442 79.184 9.678 79.562 10.638 80.318C11.61 81.062 12.216 82.112 12.456 83.468H9.918C9.762 82.784 9.426 82.25 8.91 81.866C8.406 81.47 7.734 81.272 6.894 81.272C5.73 81.272 4.818 81.668 4.158 82.46C3.498 83.252 3.168 84.338 3.168 85.718C3.168 87.098 3.498 88.184 4.158 88.976C4.818 89.756 5.73 90.146 6.894 90.146C7.734 90.146 8.406 89.966 8.91 89.606C9.426 89.234 9.762 88.724 9.918 88.076H12.456C12.216 89.372 11.61 90.386 10.638 91.118C9.678 91.85 8.442 92.216 6.93 92.216ZM17.2315 92.216C16.1155 92.216 15.2515 91.868 14.6395 91.172C14.0395 90.476 13.7395 89.456 13.7395 88.112V83.072H16.0255V87.896C16.0255 88.664 16.1815 89.252 16.4935 89.66C16.8055 90.068 17.2975 90.272 17.9695 90.272C18.6055 90.272 19.1275 90.044 19.5355 89.588C19.9555 89.132 20.1655 88.496 20.1655 87.68V83.072H22.4695V92H20.4355L20.2555 90.488C19.9795 91.016 19.5775 91.436 19.0495 91.748C18.5335 92.06 17.9275 92.216 17.2315 92.216ZM27.9667 92.216C27.1747 92.216 26.4787 92.09 25.8787 91.838C25.2787 91.574 24.7987 91.214 24.4387 90.758C24.0787 90.302 23.8627 89.774 23.7907 89.174H26.1127C26.1847 89.522 26.3767 89.822 26.6887 90.074C27.0127 90.314 27.4267 90.434 27.9307 90.434C28.4347 90.434 28.8007 90.332 29.0287 90.128C29.2687 89.924 29.3887 89.69 29.3887 89.426C29.3887 89.042 29.2207 88.784 28.8847 88.652C28.5487 88.508 28.0807 88.37 27.4807 88.238C27.0967 88.154 26.7067 88.052 26.3107 87.932C25.9147 87.812 25.5487 87.662 25.2127 87.482C24.8887 87.29 24.6247 87.05 24.4207 86.762C24.2167 86.462 24.1147 86.096 24.1147 85.664C24.1147 84.872 24.4267 84.206 25.0507 83.666C25.6867 83.126 26.5747 82.856 27.7147 82.856C28.7707 82.856 29.6107 83.102 30.2347 83.594C30.8707 84.086 31.2487 84.764 31.3687 85.628H29.1907C29.0587 84.968 28.5607 84.638 27.6967 84.638C27.2647 84.638 26.9287 84.722 26.6887 84.89C26.4607 85.058 26.3467 85.268 26.3467 85.52C26.3467 85.784 26.5207 85.994 26.8687 86.15C27.2167 86.306 27.6787 86.45 28.2547 86.582C28.8787 86.726 29.4487 86.888 29.9647 87.068C30.4927 87.236 30.9127 87.494 31.2247 87.842C31.5367 88.178 31.6927 88.664 31.6927 89.3C31.7047 89.852 31.5607 90.35 31.2607 90.794C30.9607 91.238 30.5287 91.586 29.9647 91.838C29.4007 92.09 28.7347 92.216 27.9667 92.216ZM36.8724 92C35.9364 92 35.1864 91.772 34.6224 91.316C34.0584 90.86 33.7764 90.05 33.7764 88.886V84.998H32.2464V83.072H33.7764L34.0464 80.678H36.0804V83.072H38.4924V84.998H36.0804V88.904C36.0804 89.336 36.1704 89.636 36.3504 89.804C36.5424 89.96 36.8664 90.038 37.3224 90.038H38.4384V92H36.8724ZM43.9681 92.216C43.1041 92.216 42.3241 92.018 41.6281 91.622C40.9441 91.226 40.3981 90.68 39.9901 89.984C39.5941 89.276 39.3961 88.46 39.3961 87.536C39.3961 86.612 39.6001 85.802 40.0081 85.106C40.4161 84.398 40.9621 83.846 41.6461 83.45C42.3421 83.054 43.1221 82.856 43.9861 82.856C44.8381 82.856 45.6061 83.054 46.2901 83.45C46.9861 83.846 47.5321 84.398 47.9281 85.106C48.3361 85.802 48.5401 86.612 48.5401 87.536C48.5401 88.46 48.3361 89.276 47.9281 89.984C47.5321 90.68 46.9861 91.226 46.2901 91.622C45.5941 92.018 44.8201 92.216 43.9681 92.216ZM43.9681 90.218C44.5681 90.218 45.0901 89.996 45.5341 89.552C45.9781 89.096 46.2001 88.424 46.2001 87.536C46.2001 86.648 45.9781 85.982 45.5341 85.538C45.0901 85.082 44.5741 84.854 43.9861 84.854C43.3741 84.854 42.8461 85.082 42.4021 85.538C41.9701 85.982 41.7541 86.648 41.7541 87.536C41.7541 88.424 41.9701 89.096 42.4021 89.552C42.8461 89.996 43.3681 90.218 43.9681 90.218ZM50.0421 92V83.072H52.0761L52.2741 84.278C52.5621 83.846 52.9401 83.504 53.4081 83.252C53.8881 82.988 54.4401 82.856 55.0641 82.856C56.4441 82.856 57.4221 83.39 57.9981 84.458C58.3221 83.966 58.7541 83.576 59.2941 83.288C59.8461 83 60.4461 82.856 61.0941 82.856C62.2581 82.856 63.1521 83.204 63.7761 83.9C64.4001 84.596 64.7121 85.616 64.7121 86.96V92H62.4081V87.176C62.4081 86.408 62.2581 85.82 61.9581 85.412C61.6701 85.004 61.2201 84.8 60.6081 84.8C59.9841 84.8 59.4801 85.028 59.0961 85.484C58.7241 85.94 58.5381 86.576 58.5381 87.392V92H56.2341V87.176C56.2341 86.408 56.0841 85.82 55.7841 85.412C55.4841 85.004 55.0221 84.8 54.3981 84.8C53.7861 84.8 53.2881 85.028 52.9041 85.484C52.5321 85.94 52.3461 86.576 52.3461 87.392V92H50.0421ZM67.5835 81.686C67.1635 81.686 66.8155 81.56 66.5395 81.308C66.2755 81.056 66.1435 80.738 66.1435 80.354C66.1435 79.97 66.2755 79.658 66.5395 79.418C66.8155 79.166 67.1635 79.04 67.5835 79.04C68.0035 79.04 68.3455 79.166 68.6095 79.418C68.8855 79.658 69.0235 79.97 69.0235 80.354C69.0235 80.738 68.8855 81.056 68.6095 81.308C68.3455 81.56 68.0035 81.686 67.5835 81.686ZM66.4315 92V83.072H68.7355V92H66.4315ZM70.0064 92V90.146L74.5604 84.98H70.0604V83.072H77.1884V84.926L72.5624 90.092H77.2784V92H70.0064ZM81.7156 92.216C80.9476 92.216 80.3176 92.096 79.8256 91.856C79.3336 91.604 78.9676 91.274 78.7276 90.866C78.4876 90.458 78.3676 90.008 78.3676 89.516C78.3676 88.688 78.6916 88.016 79.3396 87.5C79.9876 86.984 80.9596 86.726 82.2556 86.726H84.5236V86.51C84.5236 85.898 84.3496 85.448 84.0016 85.16C83.6536 84.872 83.2216 84.728 82.7056 84.728C82.2376 84.728 81.8296 84.842 81.4816 85.07C81.1336 85.286 80.9176 85.61 80.8336 86.042H78.5836C78.6436 85.394 78.8596 84.83 79.2316 84.35C79.6156 83.87 80.1076 83.504 80.7076 83.252C81.3076 82.988 81.9796 82.856 82.7236 82.856C83.9956 82.856 84.9976 83.174 85.7296 83.81C86.4616 84.446 86.8276 85.346 86.8276 86.51V92H84.8656L84.6496 90.56C84.3856 91.04 84.0136 91.436 83.5336 91.748C83.0656 92.06 82.4596 92.216 81.7156 92.216ZM82.2376 90.416C82.8976 90.416 83.4076 90.2 83.7676 89.768C84.1396 89.336 84.3736 88.802 84.4696 88.166H82.5076C81.8956 88.166 81.4576 88.28 81.1936 88.508C80.9296 88.724 80.7976 88.994 80.7976 89.318C80.7976 89.666 80.9296 89.936 81.1936 90.128C81.4576 90.32 81.8056 90.416 82.2376 90.416ZM93.7603 92.216C93.0883 92.216 92.5003 92.09 91.9963 91.838C91.4923 91.586 91.0843 91.232 90.7723 90.776L90.5203 92H88.4683V79.04H90.7723V84.35C91.0603 83.954 91.4383 83.606 91.9063 83.306C92.3863 83.006 93.0043 82.856 93.7603 82.856C94.6003 82.856 95.3503 83.06 96.0103 83.468C96.6703 83.876 97.1923 84.434 97.5763 85.142C97.9603 85.85 98.1523 86.654 98.1523 87.554C98.1523 88.454 97.9603 89.258 97.5763 89.966C97.1923 90.662 96.6703 91.214 96.0103 91.622C95.3503 92.018 94.6003 92.216 93.7603 92.216ZM93.2743 90.2C94.0063 90.2 94.6123 89.954 95.0923 89.462C95.5723 88.97 95.8123 88.334 95.8123 87.554C95.8123 86.774 95.5723 86.132 95.0923 85.628C94.6123 85.124 94.0063 84.872 93.2743 84.872C92.5303 84.872 91.9183 85.124 91.4383 85.628C90.9703 86.12 90.7363 86.756 90.7363 87.536C90.7363 88.316 90.9703 88.958 91.4383 89.462C91.9183 89.954 92.5303 90.2 93.2743 90.2ZM99.6525 92V79.04H101.956V92H99.6525ZM108.091 92.216C107.191 92.216 106.393 92.024 105.697 91.64C105.001 91.256 104.455 90.716 104.059 90.02C103.663 89.324 103.465 88.52 103.465 87.608C103.465 86.684 103.657 85.862 104.041 85.142C104.437 84.422 104.977 83.864 105.661 83.468C106.357 83.06 107.173 82.856 108.109 82.856C108.985 82.856 109.759 83.048 110.431 83.432C111.103 83.816 111.625 84.344 111.997 85.016C112.381 85.676 112.573 86.414 112.573 87.23C112.573 87.362 112.567 87.5 112.555 87.644C112.555 87.788 112.549 87.938 112.537 88.094H105.751C105.799 88.79 106.039 89.336 106.471 89.732C106.915 90.128 107.449 90.326 108.073 90.326C108.541 90.326 108.931 90.224 109.243 90.02C109.567 89.804 109.807 89.528 109.963 89.192H112.303C112.135 89.756 111.853 90.272 111.457 90.74C111.073 91.196 110.593 91.556 110.017 91.82C109.453 92.084 108.811 92.216 108.091 92.216ZM108.109 84.728C107.545 84.728 107.047 84.89 106.615 85.214C106.183 85.526 105.907 86.006 105.787 86.654H110.233C110.197 86.066 109.981 85.598 109.585 85.25C109.189 84.902 108.697 84.728 108.109 84.728ZM117.684 92V83.072H119.718L119.898 84.584C120.174 84.056 120.57 83.636 121.086 83.324C121.614 83.012 122.232 82.856 122.94 82.856C124.044 82.856 124.902 83.204 125.514 83.9C126.126 84.596 126.432 85.616 126.432 86.96V92H124.128V87.176C124.128 86.408 123.972 85.82 123.66 85.412C123.348 85.004 122.862 84.8 122.202 84.8C121.554 84.8 121.02 85.028 120.6 85.484C120.192 85.94 119.988 86.576 119.988 87.392V92H117.684ZM132.361 92.216C131.497 92.216 130.717 92.018 130.021 91.622C129.337 91.226 128.791 90.68 128.383 89.984C127.987 89.276 127.789 88.46 127.789 87.536C127.789 86.612 127.993 85.802 128.401 85.106C128.809 84.398 129.355 83.846 130.039 83.45C130.735 83.054 131.515 82.856 132.379 82.856C133.231 82.856 133.999 83.054 134.683 83.45C135.379 83.846 135.925 84.398 136.321 85.106C136.729 85.802 136.933 86.612 136.933 87.536C136.933 88.46 136.729 89.276 136.321 89.984C135.925 90.68 135.379 91.226 134.683 91.622C133.987 92.018 133.213 92.216 132.361 92.216ZM132.361 90.218C132.961 90.218 133.483 89.996 133.927 89.552C134.371 89.096 134.593 88.424 134.593 87.536C134.593 86.648 134.371 85.982 133.927 85.538C133.483 85.082 132.967 84.854 132.379 84.854C131.767 84.854 131.239 85.082 130.795 85.538C130.363 85.982 130.147 86.648 130.147 87.536C130.147 88.424 130.363 89.096 130.795 89.552C131.239 89.996 131.761 90.218 132.361 90.218ZM142.061 92C141.125 92 140.375 91.772 139.811 91.316C139.247 90.86 138.965 90.05 138.965 88.886V84.998H137.435V83.072H138.965L139.235 80.678H141.269V83.072H143.681V84.998H141.269V88.904C141.269 89.336 141.359 89.636 141.539 89.804C141.731 89.96 142.055 90.038 142.511 90.038H143.627V92H142.061ZM146.343 81.686C145.923 81.686 145.575 81.56 145.299 81.308C145.035 81.056 144.903 80.738 144.903 80.354C144.903 79.97 145.035 79.658 145.299 79.418C145.575 79.166 145.923 79.04 146.343 79.04C146.763 79.04 147.105 79.166 147.369 79.418C147.645 79.658 147.783 79.97 147.783 80.354C147.783 80.738 147.645 81.056 147.369 81.308C147.105 81.56 146.763 81.686 146.343 81.686ZM145.191 92V83.072H147.495V92H145.191ZM149.756 92V84.998H148.532V83.072H149.756V82.028C149.756 80.948 150.026 80.18 150.566 79.724C151.118 79.268 151.862 79.04 152.798 79.04H153.788V81.002H153.158C152.762 81.002 152.48 81.08 152.312 81.236C152.144 81.392 152.06 81.656 152.06 82.028V83.072H157.82V92H155.516V84.998H152.06V92H149.756ZM156.686 81.794C156.266 81.794 155.918 81.668 155.642 81.416C155.378 81.164 155.246 80.846 155.246 80.462C155.246 80.078 155.378 79.766 155.642 79.526C155.918 79.274 156.266 79.148 156.686 79.148C157.106 79.148 157.448 79.274 157.712 79.526C157.988 79.766 158.126 80.078 158.126 80.462C158.126 80.846 157.988 81.164 157.712 81.416C157.448 81.668 157.106 81.794 156.686 81.794ZM164.074 92.216C163.162 92.216 162.358 92.018 161.662 91.622C160.966 91.226 160.414 90.674 160.006 89.966C159.61 89.258 159.412 88.448 159.412 87.536C159.412 86.624 159.61 85.814 160.006 85.106C160.414 84.398 160.966 83.846 161.662 83.45C162.358 83.054 163.162 82.856 164.074 82.856C165.214 82.856 166.174 83.156 166.954 83.756C167.734 84.344 168.232 85.16 168.448 86.204H166.018C165.898 85.772 165.658 85.436 165.298 85.196C164.95 84.944 164.536 84.818 164.056 84.818C163.42 84.818 162.88 85.058 162.436 85.538C161.992 86.018 161.77 86.684 161.77 87.536C161.77 88.388 161.992 89.054 162.436 89.534C162.88 90.014 163.42 90.254 164.056 90.254C164.536 90.254 164.95 90.134 165.298 89.894C165.658 89.654 165.898 89.312 166.018 88.868H168.448C168.232 89.876 167.734 90.686 166.954 91.298C166.174 91.91 165.214 92.216 164.074 92.216ZM173.013 92.216C172.245 92.216 171.615 92.096 171.123 91.856C170.631 91.604 170.265 91.274 170.025 90.866C169.785 90.458 169.665 90.008 169.665 89.516C169.665 88.688 169.989 88.016 170.637 87.5C171.285 86.984 172.257 86.726 173.553 86.726H175.821V86.51C175.821 85.898 175.647 85.448 175.299 85.16C174.951 84.872 174.519 84.728 174.003 84.728C173.535 84.728 173.127 84.842 172.779 85.07C172.431 85.286 172.215 85.61 172.131 86.042H169.881C169.941 85.394 170.157 84.83 170.529 84.35C170.913 83.87 171.405 83.504 172.005 83.252C172.605 82.988 173.277 82.856 174.021 82.856C175.293 82.856 176.295 83.174 177.027 83.81C177.759 84.446 178.125 85.346 178.125 86.51V92H176.163L175.947 90.56C175.683 91.04 175.311 91.436 174.831 91.748C174.363 92.06 173.757 92.216 173.013 92.216ZM173.535 90.416C174.195 90.416 174.705 90.2 175.065 89.768C175.437 89.336 175.671 88.802 175.767 88.166H173.805C173.193 88.166 172.755 88.28 172.491 88.508C172.227 88.724 172.095 88.994 172.095 89.318C172.095 89.666 172.227 89.936 172.491 90.128C172.755 90.32 173.103 90.416 173.535 90.416ZM183.621 92C182.685 92 181.935 91.772 181.371 91.316C180.807 90.86 180.525 90.05 180.525 88.886V84.998H178.995V83.072H180.525L180.795 80.678H182.829V83.072H185.241V84.998H182.829V88.904C182.829 89.336 182.919 89.636 183.099 89.804C183.291 89.96 183.615 90.038 184.071 90.038H185.187V92H183.621ZM187.903 81.686C187.483 81.686 187.135 81.56 186.859 81.308C186.595 81.056 186.463 80.738 186.463 80.354C186.463 79.97 186.595 79.658 186.859 79.418C187.135 79.166 187.483 79.04 187.903 79.04C188.323 79.04 188.665 79.166 188.929 79.418C189.205 79.658 189.343 79.97 189.343 80.354C189.343 80.738 189.205 81.056 188.929 81.308C188.665 81.56 188.323 81.686 187.903 81.686ZM186.751 92V83.072H189.055V92H186.751ZM195.186 92.216C194.322 92.216 193.542 92.018 192.846 91.622C192.162 91.226 191.616 90.68 191.208 89.984C190.812 89.276 190.614 88.46 190.614 87.536C190.614 86.612 190.818 85.802 191.226 85.106C191.634 84.398 192.18 83.846 192.864 83.45C193.56 83.054 194.34 82.856 195.204 82.856C196.056 82.856 196.824 83.054 197.508 83.45C198.204 83.846 198.75 84.398 199.146 85.106C199.554 85.802 199.758 86.612 199.758 87.536C199.758 88.46 199.554 89.276 199.146 89.984C198.75 90.68 198.204 91.226 197.508 91.622C196.812 92.018 196.038 92.216 195.186 92.216ZM195.186 90.218C195.786 90.218 196.308 89.996 196.752 89.552C197.196 89.096 197.418 88.424 197.418 87.536C197.418 86.648 197.196 85.982 196.752 85.538C196.308 85.082 195.792 84.854 195.204 84.854C194.592 84.854 194.064 85.082 193.62 85.538C193.188 85.982 192.972 86.648 192.972 87.536C192.972 88.424 193.188 89.096 193.62 89.552C194.064 89.996 194.586 90.218 195.186 90.218ZM201.26 92V83.072H203.294L203.474 84.584C203.75 84.056 204.146 83.636 204.662 83.324C205.19 83.012 205.808 82.856 206.516 82.856C207.62 82.856 208.478 83.204 209.09 83.9C209.702 84.596 210.008 85.616 210.008 86.96V92H207.704V87.176C207.704 86.408 207.548 85.82 207.236 85.412C206.924 85.004 206.438 84.8 205.778 84.8C205.13 84.8 204.596 85.028 204.176 85.484C203.768 85.94 203.564 86.576 203.564 87.392V92H201.26ZM215.343 92.216C214.551 92.216 213.855 92.09 213.255 91.838C212.655 91.574 212.175 91.214 211.815 90.758C211.455 90.302 211.239 89.774 211.167 89.174H213.489C213.561 89.522 213.753 89.822 214.065 90.074C214.389 90.314 214.803 90.434 215.307 90.434C215.811 90.434 216.177 90.332 216.405 90.128C216.645 89.924 216.765 89.69 216.765 89.426C216.765 89.042 216.597 88.784 216.261 88.652C215.925 88.508 215.457 88.37 214.857 88.238C214.473 88.154 214.083 88.052 213.687 87.932C213.291 87.812 212.925 87.662 212.589 87.482C212.265 87.29 212.001 87.05 211.797 86.762C211.593 86.462 211.491 86.096 211.491 85.664C211.491 84.872 211.803 84.206 212.427 83.666C213.063 83.126 213.951 82.856 215.091 82.856C216.147 82.856 216.987 83.102 217.611 83.594C218.247 84.086 218.625 84.764 218.745 85.628H216.567C216.435 84.968 215.937 84.638 215.073 84.638C214.641 84.638 214.305 84.722 214.065 84.89C213.837 85.058 213.723 85.268 213.723 85.52C213.723 85.784 213.897 85.994 214.245 86.15C214.593 86.306 215.055 86.45 215.631 86.582C216.255 86.726 216.825 86.888 217.341 87.068C217.869 87.236 218.289 87.494 218.601 87.842C218.913 88.178 219.069 88.664 219.069 89.3C219.081 89.852 218.937 90.35 218.637 90.794C218.337 91.238 217.905 91.586 217.341 91.838C216.777 92.09 216.111 92.216 215.343 92.216Z" fill="black"/>
<path d="M9.36364 116C9.23864 115.617 9.07386 115.275 8.86932 114.972C8.66856 114.665 8.42803 114.403 8.14773 114.188C7.87121 113.972 7.55682 113.807 7.20455 113.693C6.85227 113.58 6.46591 113.523 6.04545 113.523C5.35606 113.523 4.72917 113.701 4.16477 114.057C3.60038 114.413 3.15152 114.938 2.81818 115.631C2.48485 116.324 2.31818 117.174 2.31818 118.182C2.31818 119.189 2.48674 120.04 2.82386 120.733C3.16098 121.426 3.61742 121.951 4.19318 122.307C4.76894 122.663 5.41667 122.841 6.13636 122.841C6.80303 122.841 7.39015 122.699 7.89773 122.415C8.40909 122.127 8.80682 121.722 9.09091 121.199C9.37879 120.672 9.52273 120.053 9.52273 119.341L9.95455 119.432H6.45455V118.182H10.8864V119.432C10.8864 120.39 10.6818 121.223 10.2727 121.932C9.86742 122.64 9.30682 123.189 8.59091 123.58C7.87879 123.966 7.06061 124.159 6.13636 124.159C5.10606 124.159 4.20076 123.917 3.42045 123.432C2.64394 122.947 2.03788 122.258 1.60227 121.364C1.17045 120.47 0.954545 119.409 0.954545 118.182C0.954545 117.261 1.07765 116.434 1.32386 115.699C1.57386 114.96 1.92614 114.331 2.38068 113.812C2.83523 113.294 3.37311 112.896 3.99432 112.619C4.61553 112.343 5.29924 112.205 6.04545 112.205C6.65909 112.205 7.23106 112.297 7.76136 112.483C8.29545 112.665 8.77083 112.924 9.1875 113.261C9.60795 113.595 9.95833 113.994 10.2386 114.46C10.5189 114.922 10.7121 115.436 10.8182 116H9.36364ZM16.617 124.182C15.7761 124.182 15.0507 123.996 14.4409 123.625C13.8348 123.25 13.367 122.727 13.0374 122.057C12.7117 121.383 12.5488 120.598 12.5488 119.705C12.5488 118.811 12.7117 118.023 13.0374 117.341C13.367 116.655 13.8253 116.121 14.4124 115.739C15.0034 115.352 15.6927 115.159 16.4806 115.159C16.9352 115.159 17.384 115.235 17.8272 115.386C18.2704 115.538 18.6738 115.784 19.0374 116.125C19.4011 116.462 19.6909 116.909 19.9068 117.466C20.1227 118.023 20.2306 118.708 20.2306 119.523V120.091H13.5034V118.932H18.867C18.867 118.439 18.7685 118 18.5715 117.614C18.3784 117.227 18.1018 116.922 17.742 116.699C17.3859 116.475 16.9655 116.364 16.4806 116.364C15.9465 116.364 15.4844 116.496 15.0943 116.761C14.7079 117.023 14.4105 117.364 14.2022 117.784C13.9939 118.205 13.8897 118.655 13.8897 119.136V119.909C13.8897 120.568 14.0034 121.127 14.2306 121.585C14.4617 122.04 14.7818 122.386 15.1909 122.625C15.5999 122.86 16.0753 122.977 16.617 122.977C16.9693 122.977 17.2874 122.928 17.5715 122.83C17.8594 122.727 18.1075 122.576 18.3159 122.375C18.5242 122.17 18.6852 121.917 18.7988 121.614L20.0943 121.977C19.9579 122.417 19.7287 122.803 19.4068 123.136C19.0848 123.466 18.6871 123.723 18.2136 123.909C17.7401 124.091 17.2079 124.182 16.617 124.182ZM25.9059 115.273V116.409H21.3831V115.273H25.9059ZM22.7013 113.182H24.0422V121.5C24.0422 121.879 24.0971 122.163 24.207 122.352C24.3206 122.538 24.4646 122.663 24.6388 122.727C24.8168 122.788 25.0043 122.818 25.2013 122.818C25.349 122.818 25.4702 122.811 25.5649 122.795C25.6596 122.777 25.7354 122.761 25.7922 122.75L26.0649 123.955C25.974 123.989 25.8471 124.023 25.6843 124.057C25.5214 124.095 25.3149 124.114 25.0649 124.114C24.6862 124.114 24.3149 124.032 23.9513 123.869C23.5915 123.706 23.2922 123.458 23.0536 123.125C22.8187 122.792 22.7013 122.371 22.7013 121.864V113.182ZM34.6711 124.205C34.1181 124.205 33.6162 124.1 33.1654 123.892C32.7146 123.68 32.3567 123.375 32.0915 122.977C31.8264 122.576 31.6938 122.091 31.6938 121.523C31.6938 121.023 31.7923 120.617 31.9893 120.307C32.1862 119.992 32.4495 119.746 32.779 119.568C33.1086 119.39 33.4722 119.258 33.8699 119.17C34.2715 119.08 34.6749 119.008 35.0802 118.955C35.6105 118.886 36.0404 118.835 36.3699 118.801C36.7033 118.763 36.9457 118.701 37.0972 118.614C37.2525 118.527 37.3302 118.375 37.3302 118.159V118.114C37.3302 117.553 37.1768 117.117 36.8699 116.807C36.5669 116.496 36.1067 116.341 35.4893 116.341C34.8491 116.341 34.3472 116.481 33.9836 116.761C33.6199 117.042 33.3643 117.341 33.2165 117.659L31.9438 117.205C32.1711 116.674 32.4741 116.261 32.8529 115.966C33.2355 115.667 33.6521 115.458 34.1029 115.341C34.5574 115.22 35.0044 115.159 35.4438 115.159C35.7241 115.159 36.0461 115.193 36.4097 115.261C36.7771 115.326 37.1313 115.46 37.4722 115.665C37.8169 115.869 38.1029 116.178 38.3302 116.591C38.5574 117.004 38.6711 117.557 38.6711 118.25V124H37.3302V122.818H37.262C37.1711 123.008 37.0196 123.21 36.8074 123.426C36.5953 123.642 36.3131 123.826 35.9609 123.977C35.6086 124.129 35.1787 124.205 34.6711 124.205ZM34.8756 123C35.4059 123 35.8529 122.896 36.2165 122.688C36.584 122.479 36.8605 122.21 37.0461 121.881C37.2355 121.551 37.3302 121.205 37.3302 120.841V119.614C37.2734 119.682 37.1484 119.744 36.9552 119.801C36.7658 119.854 36.5461 119.902 36.2961 119.943C36.0499 119.981 35.8093 120.015 35.5745 120.045C35.3434 120.072 35.1559 120.095 35.012 120.114C34.6635 120.159 34.3377 120.233 34.0347 120.335C33.7355 120.434 33.493 120.583 33.3074 120.784C33.1256 120.981 33.0347 121.25 33.0347 121.591C33.0347 122.057 33.2071 122.409 33.5518 122.648C33.9002 122.883 34.3415 123 34.8756 123ZM42.2994 112.364V124H40.9585V112.364H42.2994ZM48.2545 124.182C47.4136 124.182 46.6882 123.996 46.0784 123.625C45.4723 123.25 45.0045 122.727 44.6749 122.057C44.3492 121.383 44.1863 120.598 44.1863 119.705C44.1863 118.811 44.3492 118.023 44.6749 117.341C45.0045 116.655 45.4628 116.121 46.0499 115.739C46.6409 115.352 47.3302 115.159 48.1181 115.159C48.5727 115.159 49.0215 115.235 49.4647 115.386C49.9079 115.538 50.3113 115.784 50.6749 116.125C51.0386 116.462 51.3284 116.909 51.5443 117.466C51.7602 118.023 51.8681 118.708 51.8681 119.523V120.091H45.1409V118.932H50.5045C50.5045 118.439 50.406 118 50.209 117.614C50.0159 117.227 49.7393 116.922 49.3795 116.699C49.0234 116.475 48.603 116.364 48.1181 116.364C47.584 116.364 47.1219 116.496 46.7318 116.761C46.3454 117.023 46.0481 117.364 45.8397 117.784C45.6314 118.205 45.5272 118.655 45.5272 119.136V119.909C45.5272 120.568 45.6409 121.127 45.8681 121.585C46.0992 122.04 46.4193 122.386 46.8284 122.625C47.2374 122.86 47.7128 122.977 48.2545 122.977C48.6068 122.977 48.9249 122.928 49.209 122.83C49.4969 122.727 49.745 122.576 49.9534 122.375C50.1617 122.17 50.3227 121.917 50.4363 121.614L51.7318 121.977C51.5954 122.417 51.3662 122.803 51.0443 123.136C50.7223 123.466 50.3246 123.723 49.8511 123.909C49.3776 124.091 48.8454 124.182 48.2545 124.182ZM53.7479 124V115.273H55.0434V116.591H55.1343C55.2934 116.159 55.5812 115.809 55.9979 115.54C56.4146 115.271 56.8843 115.136 57.407 115.136C57.5055 115.136 57.6286 115.138 57.7763 115.142C57.924 115.146 58.0358 115.152 58.1115 115.159V116.523C58.0661 116.511 57.9619 116.494 57.799 116.472C57.6399 116.445 57.4714 116.432 57.2934 116.432C56.8691 116.432 56.4903 116.521 56.157 116.699C55.8274 116.873 55.5661 117.116 55.3729 117.426C55.1835 117.733 55.0888 118.083 55.0888 118.477V124H53.7479ZM63.8834 115.273V116.409H59.3606V115.273H63.8834ZM60.6788 113.182H62.0197V121.5C62.0197 121.879 62.0746 122.163 62.1845 122.352C62.2981 122.538 62.4421 122.663 62.6163 122.727C62.7943 122.788 62.9818 122.818 63.1788 122.818C63.3265 122.818 63.4477 122.811 63.5424 122.795C63.6371 122.777 63.7129 122.761 63.7697 122.75L64.0424 123.955C63.9515 123.989 63.8246 124.023 63.6618 124.057C63.4989 124.095 63.2924 124.114 63.0424 124.114C62.6637 124.114 62.2924 124.032 61.9288 123.869C61.569 123.706 61.2697 123.458 61.0311 123.125C60.7962 122.792 60.6788 122.371 60.6788 121.864V113.182ZM71.766 117.227L70.5614 117.568C70.4857 117.367 70.3739 117.172 70.2262 116.983C70.0823 116.79 69.8853 116.631 69.6353 116.506C69.3853 116.381 69.0652 116.318 68.6751 116.318C68.141 116.318 67.6959 116.441 67.3398 116.688C66.9876 116.93 66.8114 117.239 66.8114 117.614C66.8114 117.947 66.9326 118.21 67.1751 118.403C67.4175 118.597 67.7963 118.758 68.3114 118.886L69.6069 119.205C70.3872 119.394 70.9686 119.684 71.3512 120.074C71.7338 120.46 71.9251 120.958 71.9251 121.568C71.9251 122.068 71.7811 122.515 71.4932 122.909C71.2091 123.303 70.8114 123.614 70.3001 123.841C69.7887 124.068 69.194 124.182 68.516 124.182C67.6258 124.182 66.8891 123.989 66.3057 123.602C65.7224 123.216 65.3531 122.652 65.1978 121.909L66.4705 121.591C66.5917 122.061 66.8209 122.413 67.158 122.648C67.4989 122.883 67.944 123 68.4932 123C69.1182 123 69.6144 122.867 69.9819 122.602C70.3531 122.333 70.5387 122.011 70.5387 121.636C70.5387 121.333 70.4326 121.08 70.2205 120.875C70.0084 120.667 69.6826 120.511 69.2432 120.409L67.7887 120.068C66.9894 119.879 66.4023 119.585 66.0273 119.188C65.6561 118.786 65.4705 118.284 65.4705 117.682C65.4705 117.189 65.6088 116.754 65.8853 116.375C66.1656 115.996 66.5463 115.699 67.0273 115.483C67.5122 115.267 68.0614 115.159 68.6751 115.159C69.5387 115.159 70.2167 115.348 70.7091 115.727C71.2054 116.106 71.5576 116.606 71.766 117.227ZM81.669 124.182C80.8811 124.182 80.1898 123.994 79.5951 123.619C79.0042 123.244 78.5421 122.72 78.2087 122.045C77.8792 121.371 77.7144 120.583 77.7144 119.682C77.7144 118.773 77.8792 117.979 78.2087 117.301C78.5421 116.623 79.0042 116.097 79.5951 115.722C80.1898 115.347 80.8811 115.159 81.669 115.159C82.4569 115.159 83.1462 115.347 83.7372 115.722C84.3319 116.097 84.794 116.623 85.1235 117.301C85.4569 117.979 85.6235 118.773 85.6235 119.682C85.6235 120.583 85.4569 121.371 85.1235 122.045C84.794 122.72 84.3319 123.244 83.7372 123.619C83.1462 123.994 82.4569 124.182 81.669 124.182ZM81.669 122.977C82.2675 122.977 82.7599 122.824 83.1462 122.517C83.5326 122.21 83.8186 121.807 84.0042 121.307C84.1898 120.807 84.2826 120.265 84.2826 119.682C84.2826 119.098 84.1898 118.555 84.0042 118.051C83.8186 117.547 83.5326 117.14 83.1462 116.83C82.7599 116.519 82.2675 116.364 81.669 116.364C81.0705 116.364 80.5781 116.519 80.1917 116.83C79.8053 117.14 79.5194 117.547 79.3337 118.051C79.1481 118.555 79.0553 119.098 79.0553 119.682C79.0553 120.265 79.1481 120.807 79.3337 121.307C79.5194 121.807 79.8053 122.21 80.1917 122.517C80.5781 122.824 81.0705 122.977 81.669 122.977ZM88.8513 118.75V124H87.5104V115.273H88.8059V116.636H88.9195C89.124 116.193 89.4346 115.837 89.8513 115.568C90.268 115.295 90.8059 115.159 91.4649 115.159C92.0559 115.159 92.5729 115.28 93.0161 115.523C93.4593 115.761 93.804 116.125 94.0502 116.614C94.2964 117.098 94.4195 117.712 94.4195 118.455V124H93.0786V118.545C93.0786 117.86 92.9006 117.326 92.5445 116.943C92.1884 116.557 91.6998 116.364 91.0786 116.364C90.6506 116.364 90.268 116.456 89.9309 116.642C89.5975 116.828 89.3343 117.098 89.1411 117.455C88.9479 117.811 88.8513 118.242 88.8513 118.75ZM104.845 115.273V116.409H100.323V115.273H104.845ZM101.641 113.182H102.982V121.5C102.982 121.879 103.037 122.163 103.146 122.352C103.26 122.538 103.404 122.663 103.578 122.727C103.756 122.788 103.944 122.818 104.141 122.818C104.288 122.818 104.41 122.811 104.504 122.795C104.599 122.777 104.675 122.761 104.732 122.75L105.004 123.955C104.913 123.989 104.787 124.023 104.624 124.057C104.461 124.095 104.254 124.114 104.004 124.114C103.626 124.114 103.254 124.032 102.891 123.869C102.531 123.706 102.232 123.458 101.993 123.125C101.758 122.792 101.641 122.371 101.641 121.864V113.182ZM109.27 124.205C108.717 124.205 108.216 124.1 107.765 123.892C107.314 123.68 106.956 123.375 106.691 122.977C106.426 122.576 106.293 122.091 106.293 121.523C106.293 121.023 106.392 120.617 106.589 120.307C106.786 119.992 107.049 119.746 107.378 119.568C107.708 119.39 108.072 119.258 108.469 119.17C108.871 119.08 109.274 119.008 109.68 118.955C110.21 118.886 110.64 118.835 110.969 118.801C111.303 118.763 111.545 118.701 111.697 118.614C111.852 118.527 111.93 118.375 111.93 118.159V118.114C111.93 117.553 111.776 117.117 111.469 116.807C111.166 116.496 110.706 116.341 110.089 116.341C109.448 116.341 108.947 116.481 108.583 116.761C108.219 117.042 107.964 117.341 107.816 117.659L106.543 117.205C106.77 116.674 107.073 116.261 107.452 115.966C107.835 115.667 108.252 115.458 108.702 115.341C109.157 115.22 109.604 115.159 110.043 115.159C110.323 115.159 110.645 115.193 111.009 115.261C111.377 115.326 111.731 115.46 112.072 115.665C112.416 115.869 112.702 116.178 112.93 116.591C113.157 117.004 113.27 117.557 113.27 118.25V124H111.93V122.818H111.861C111.77 123.008 111.619 123.21 111.407 123.426C111.195 123.642 110.912 123.826 110.56 123.977C110.208 124.129 109.778 124.205 109.27 124.205ZM109.475 123C110.005 123 110.452 122.896 110.816 122.688C111.183 122.479 111.46 122.21 111.645 121.881C111.835 121.551 111.93 121.205 111.93 120.841V119.614C111.873 119.682 111.748 119.744 111.555 119.801C111.365 119.854 111.145 119.902 110.895 119.943C110.649 119.981 110.409 120.015 110.174 120.045C109.943 120.072 109.755 120.095 109.611 120.114C109.263 120.159 108.937 120.233 108.634 120.335C108.335 120.434 108.092 120.583 107.907 120.784C107.725 120.981 107.634 121.25 107.634 121.591C107.634 122.057 107.806 122.409 108.151 122.648C108.5 122.883 108.941 123 109.475 123ZM121.74 117.227L120.535 117.568C120.459 117.367 120.348 117.172 120.2 116.983C120.056 116.79 119.859 116.631 119.609 116.506C119.359 116.381 119.039 116.318 118.649 116.318C118.115 116.318 117.67 116.441 117.314 116.688C116.961 116.93 116.785 117.239 116.785 117.614C116.785 117.947 116.906 118.21 117.149 118.403C117.391 118.597 117.77 118.758 118.285 118.886L119.581 119.205C120.361 119.394 120.942 119.684 121.325 120.074C121.708 120.46 121.899 120.958 121.899 121.568C121.899 122.068 121.755 122.515 121.467 122.909C121.183 123.303 120.785 123.614 120.274 123.841C119.762 124.068 119.168 124.182 118.49 124.182C117.6 124.182 116.863 123.989 116.279 123.602C115.696 123.216 115.327 122.652 115.172 121.909L116.444 121.591C116.565 122.061 116.795 122.413 117.132 122.648C117.473 122.883 117.918 123 118.467 123C119.092 123 119.588 122.867 119.956 122.602C120.327 122.333 120.512 122.011 120.512 121.636C120.512 121.333 120.406 121.08 120.194 120.875C119.982 120.667 119.656 120.511 119.217 120.409L117.762 120.068C116.963 119.879 116.376 119.585 116.001 119.188C115.63 118.786 115.444 118.284 115.444 117.682C115.444 117.189 115.583 116.754 115.859 116.375C116.139 115.996 116.52 115.699 117.001 115.483C117.486 115.267 118.035 115.159 118.649 115.159C119.512 115.159 120.19 115.348 120.683 115.727C121.179 116.106 121.531 116.606 121.74 117.227ZM125.007 120.818L124.985 119.159H125.257L129.075 115.273H130.735L126.666 119.386H126.553L125.007 120.818ZM123.757 124V112.364H125.098V124H123.757ZM129.303 124L125.894 119.682L126.848 118.75L131.007 124H129.303ZM138.482 117.227L137.278 117.568C137.202 117.367 137.09 117.172 136.942 116.983C136.798 116.79 136.602 116.631 136.352 116.506C136.102 116.381 135.781 116.318 135.391 116.318C134.857 116.318 134.412 116.441 134.056 116.688C133.704 116.93 133.528 117.239 133.528 117.614C133.528 117.947 133.649 118.21 133.891 118.403C134.134 118.597 134.513 118.758 135.028 118.886L136.323 119.205C137.103 119.394 137.685 119.684 138.067 120.074C138.45 120.46 138.641 120.958 138.641 121.568C138.641 122.068 138.497 122.515 138.209 122.909C137.925 123.303 137.528 123.614 137.016 123.841C136.505 124.068 135.91 124.182 135.232 124.182C134.342 124.182 133.605 123.989 133.022 123.602C132.439 123.216 132.069 122.652 131.914 121.909L133.187 121.591C133.308 122.061 133.537 122.413 133.874 122.648C134.215 122.883 134.66 123 135.209 123C135.834 123 136.331 122.867 136.698 122.602C137.069 122.333 137.255 122.011 137.255 121.636C137.255 121.333 137.149 121.08 136.937 120.875C136.725 120.667 136.399 120.511 135.959 120.409L134.505 120.068C133.706 119.879 133.119 119.585 132.744 119.188C132.372 118.786 132.187 118.284 132.187 117.682C132.187 117.189 132.325 116.754 132.602 116.375C132.882 115.996 133.263 115.699 133.744 115.483C134.228 115.267 134.778 115.159 135.391 115.159C136.255 115.159 136.933 115.348 137.425 115.727C137.922 116.106 138.274 116.606 138.482 117.227ZM147.408 124.205C146.855 124.205 146.353 124.1 145.902 123.892C145.452 123.68 145.094 123.375 144.828 122.977C144.563 122.576 144.431 122.091 144.431 121.523C144.431 121.023 144.529 120.617 144.726 120.307C144.923 119.992 145.186 119.746 145.516 119.568C145.845 119.39 146.209 119.258 146.607 119.17C147.008 119.08 147.412 119.008 147.817 118.955C148.347 118.886 148.777 118.835 149.107 118.801C149.44 118.763 149.683 118.701 149.834 118.614C149.989 118.527 150.067 118.375 150.067 118.159V118.114C150.067 117.553 149.914 117.117 149.607 116.807C149.304 116.496 148.844 116.341 148.226 116.341C147.586 116.341 147.084 116.481 146.72 116.761C146.357 117.042 146.101 117.341 145.953 117.659L144.681 117.205C144.908 116.674 145.211 116.261 145.59 115.966C145.972 115.667 146.389 115.458 146.84 115.341C147.294 115.22 147.741 115.159 148.181 115.159C148.461 115.159 148.783 115.193 149.147 115.261C149.514 115.326 149.868 115.46 150.209 115.665C150.554 115.869 150.84 116.178 151.067 116.591C151.294 117.004 151.408 117.557 151.408 118.25V124H150.067V122.818H149.999C149.908 123.008 149.756 123.21 149.544 123.426C149.332 123.642 149.05 123.826 148.698 123.977C148.345 124.129 147.916 124.205 147.408 124.205ZM147.613 123C148.143 123 148.59 122.896 148.953 122.688C149.321 122.479 149.597 122.21 149.783 121.881C149.972 121.551 150.067 121.205 150.067 120.841V119.614C150.01 119.682 149.885 119.744 149.692 119.801C149.503 119.854 149.283 119.902 149.033 119.943C148.787 119.981 148.546 120.015 148.311 120.045C148.08 120.072 147.893 120.095 147.749 120.114C147.4 120.159 147.075 120.233 146.772 120.335C146.472 120.434 146.23 120.583 146.044 120.784C145.863 120.981 145.772 121.25 145.772 121.591C145.772 122.057 145.944 122.409 146.289 122.648C146.637 122.883 147.078 123 147.613 123ZM155.036 118.75V124H153.695V115.273H154.991V116.636H155.104C155.309 116.193 155.62 115.837 156.036 115.568C156.453 115.295 156.991 115.159 157.65 115.159C158.241 115.159 158.758 115.28 159.201 115.523C159.644 115.761 159.989 116.125 160.235 116.614C160.481 117.098 160.604 117.712 160.604 118.455V124H159.264V118.545C159.264 117.86 159.086 117.326 158.729 116.943C158.373 116.557 157.885 116.364 157.264 116.364C156.836 116.364 156.453 116.456 156.116 116.642C155.783 116.828 155.519 117.098 155.326 117.455C155.133 117.811 155.036 118.242 155.036 118.75ZM166.19 124.182C165.463 124.182 164.821 123.998 164.264 123.631C163.707 123.259 163.272 122.737 162.957 122.062C162.643 121.384 162.486 120.583 162.486 119.659C162.486 118.742 162.643 117.947 162.957 117.273C163.272 116.598 163.709 116.078 164.27 115.71C164.83 115.343 165.478 115.159 166.213 115.159C166.781 115.159 167.23 115.254 167.56 115.443C167.893 115.629 168.147 115.841 168.321 116.08C168.499 116.314 168.637 116.508 168.736 116.659H168.849V112.364H170.19V124H168.895V122.659H168.736C168.637 122.818 168.497 123.019 168.315 123.261C168.133 123.5 167.874 123.714 167.537 123.903C167.2 124.089 166.751 124.182 166.19 124.182ZM166.372 122.977C166.91 122.977 167.364 122.837 167.736 122.557C168.107 122.273 168.389 121.881 168.582 121.381C168.775 120.877 168.872 120.295 168.872 119.636C168.872 118.985 168.777 118.415 168.588 117.926C168.399 117.434 168.118 117.051 167.747 116.778C167.376 116.502 166.917 116.364 166.372 116.364C165.804 116.364 165.33 116.509 164.952 116.801C164.577 117.089 164.294 117.481 164.105 117.977C163.919 118.47 163.827 119.023 163.827 119.636C163.827 120.258 163.921 120.822 164.111 121.33C164.304 121.833 164.588 122.235 164.963 122.534C165.342 122.83 165.811 122.977 166.372 122.977ZM180.308 124.182C179.58 124.182 178.938 123.998 178.382 123.631C177.825 123.259 177.389 122.737 177.075 122.062C176.76 121.384 176.603 120.583 176.603 119.659C176.603 118.742 176.76 117.947 177.075 117.273C177.389 116.598 177.827 116.078 178.387 115.71C178.948 115.343 179.596 115.159 180.33 115.159C180.899 115.159 181.348 115.254 181.677 115.443C182.01 115.629 182.264 115.841 182.438 116.08C182.616 116.314 182.755 116.508 182.853 116.659H182.967V112.364H184.308V124H183.012V122.659H182.853C182.755 122.818 182.615 123.019 182.433 123.261C182.251 123.5 181.991 123.714 181.654 123.903C181.317 124.089 180.868 124.182 180.308 124.182ZM180.49 122.977C181.027 122.977 181.482 122.837 181.853 122.557C182.224 122.273 182.507 121.881 182.7 121.381C182.893 120.877 182.99 120.295 182.99 119.636C182.99 118.985 182.895 118.415 182.705 117.926C182.516 117.434 182.236 117.051 181.865 116.778C181.493 116.502 181.035 116.364 180.49 116.364C179.921 116.364 179.448 116.509 179.069 116.801C178.694 117.089 178.412 117.481 178.223 117.977C178.037 118.47 177.944 119.023 177.944 119.636C177.944 120.258 178.039 120.822 178.228 121.33C178.421 121.833 178.705 122.235 179.08 122.534C179.459 122.83 179.929 122.977 180.49 122.977ZM190.449 124.182C189.608 124.182 188.883 123.996 188.273 123.625C187.667 123.25 187.199 122.727 186.869 122.057C186.544 121.383 186.381 120.598 186.381 119.705C186.381 118.811 186.544 118.023 186.869 117.341C187.199 116.655 187.657 116.121 188.244 115.739C188.835 115.352 189.525 115.159 190.312 115.159C190.767 115.159 191.216 115.235 191.659 115.386C192.102 115.538 192.506 115.784 192.869 116.125C193.233 116.462 193.523 116.909 193.739 117.466C193.955 118.023 194.062 118.708 194.062 119.523V120.091H187.335V118.932H192.699C192.699 118.439 192.6 118 192.403 117.614C192.21 117.227 191.934 116.922 191.574 116.699C191.218 116.475 190.797 116.364 190.312 116.364C189.778 116.364 189.316 116.496 188.926 116.761C188.54 117.023 188.242 117.364 188.034 117.784C187.826 118.205 187.722 118.655 187.722 119.136V119.909C187.722 120.568 187.835 121.127 188.062 121.585C188.294 122.04 188.614 122.386 189.023 122.625C189.432 122.86 189.907 122.977 190.449 122.977C190.801 122.977 191.119 122.928 191.403 122.83C191.691 122.727 191.939 122.576 192.148 122.375C192.356 122.17 192.517 121.917 192.631 121.614L193.926 121.977C193.79 122.417 193.561 122.803 193.239 123.136C192.917 123.466 192.519 123.723 192.045 123.909C191.572 124.091 191.04 124.182 190.449 124.182ZM198.51 124.205C197.957 124.205 197.456 124.1 197.005 123.892C196.554 123.68 196.196 123.375 195.931 122.977C195.666 122.576 195.533 122.091 195.533 121.523C195.533 121.023 195.632 120.617 195.829 120.307C196.026 119.992 196.289 119.746 196.618 119.568C196.948 119.39 197.312 119.258 197.709 119.17C198.111 119.08 198.514 119.008 198.92 118.955C199.45 118.886 199.88 118.835 200.209 118.801C200.543 118.763 200.785 118.701 200.937 118.614C201.092 118.527 201.17 118.375 201.17 118.159V118.114C201.17 117.553 201.016 117.117 200.709 116.807C200.406 116.496 199.946 116.341 199.329 116.341C198.688 116.341 198.187 116.481 197.823 116.761C197.459 117.042 197.204 117.341 197.056 117.659L195.783 117.205C196.01 116.674 196.313 116.261 196.692 115.966C197.075 115.667 197.492 115.458 197.942 115.341C198.397 115.22 198.844 115.159 199.283 115.159C199.563 115.159 199.885 115.193 200.249 115.261C200.617 115.326 200.971 115.46 201.312 115.665C201.656 115.869 201.942 116.178 202.17 116.591C202.397 117.004 202.51 117.557 202.51 118.25V124H201.17V122.818H201.101C201.01 123.008 200.859 123.21 200.647 123.426C200.435 123.642 200.152 123.826 199.8 123.977C199.448 124.129 199.018 124.205 198.51 124.205ZM198.715 123C199.245 123 199.692 122.896 200.056 122.688C200.423 122.479 200.7 122.21 200.885 121.881C201.075 121.551 201.17 121.205 201.17 120.841V119.614C201.113 119.682 200.988 119.744 200.795 119.801C200.605 119.854 200.385 119.902 200.135 119.943C199.889 119.981 199.649 120.015 199.414 120.045C199.183 120.072 198.995 120.095 198.851 120.114C198.503 120.159 198.177 120.233 197.874 120.335C197.575 120.434 197.332 120.583 197.147 120.784C196.965 120.981 196.874 121.25 196.874 121.591C196.874 122.057 197.046 122.409 197.391 122.648C197.74 122.883 198.181 123 198.715 123ZM208.093 124.182C207.366 124.182 206.724 123.998 206.167 123.631C205.61 123.259 205.175 122.737 204.86 122.062C204.546 121.384 204.389 120.583 204.389 119.659C204.389 118.742 204.546 117.947 204.86 117.273C205.175 116.598 205.612 116.078 206.173 115.71C206.733 115.343 207.381 115.159 208.116 115.159C208.684 115.159 209.133 115.254 209.463 115.443C209.796 115.629 210.05 115.841 210.224 116.08C210.402 116.314 210.54 116.508 210.639 116.659H210.752V112.364H212.093V124H210.798V122.659H210.639C210.54 122.818 210.4 123.019 210.218 123.261C210.037 123.5 209.777 123.714 209.44 123.903C209.103 124.089 208.654 124.182 208.093 124.182ZM208.275 122.977C208.813 122.977 209.268 122.837 209.639 122.557C210.01 122.273 210.292 121.881 210.485 121.381C210.679 120.877 210.775 120.295 210.775 119.636C210.775 118.985 210.68 118.415 210.491 117.926C210.302 117.434 210.021 117.051 209.65 116.778C209.279 116.502 208.821 116.364 208.275 116.364C207.707 116.364 207.233 116.509 206.855 116.801C206.48 117.089 206.198 117.481 206.008 117.977C205.823 118.47 205.73 119.023 205.73 119.636C205.73 120.258 205.824 120.822 206.014 121.33C206.207 121.833 206.491 122.235 206.866 122.534C207.245 122.83 207.715 122.977 208.275 122.977ZM215.916 112.364V124H214.575V112.364H215.916ZM218.212 124V115.273H219.553V124H218.212ZM218.894 113.818C218.633 113.818 218.407 113.729 218.218 113.551C218.032 113.373 217.94 113.159 217.94 112.909C217.94 112.659 218.032 112.445 218.218 112.267C218.407 112.089 218.633 112 218.894 112C219.155 112 219.379 112.089 219.565 112.267C219.754 112.445 219.849 112.659 219.849 112.909C219.849 113.159 219.754 113.373 219.565 113.551C219.379 113.729 219.155 113.818 218.894 113.818ZM223.19 118.75V124H221.849V115.273H223.145V116.636H223.258C223.463 116.193 223.773 115.837 224.19 115.568C224.607 115.295 225.145 115.159 225.804 115.159C226.395 115.159 226.912 115.28 227.355 115.523C227.798 115.761 228.143 116.125 228.389 116.614C228.635 117.098 228.758 117.712 228.758 118.455V124H227.417V118.545C227.417 117.86 227.239 117.326 226.883 116.943C226.527 116.557 226.039 116.364 225.417 116.364C224.989 116.364 224.607 116.456 224.27 116.642C223.936 116.828 223.673 117.098 223.48 117.455C223.287 117.811 223.19 118.242 223.19 118.75ZM234.708 124.182C233.867 124.182 233.141 123.996 232.531 123.625C231.925 123.25 231.458 122.727 231.128 122.057C230.802 121.383 230.639 120.598 230.639 119.705C230.639 118.811 230.802 118.023 231.128 117.341C231.458 116.655 231.916 116.121 232.503 115.739C233.094 115.352 233.783 115.159 234.571 115.159C235.026 115.159 235.475 115.235 235.918 115.386C236.361 115.538 236.764 115.784 237.128 116.125C237.492 116.462 237.781 116.909 237.997 117.466C238.213 118.023 238.321 118.708 238.321 119.523V120.091H231.594V118.932H236.958C236.958 118.439 236.859 118 236.662 117.614C236.469 117.227 236.192 116.922 235.833 116.699C235.477 116.475 235.056 116.364 234.571 116.364C234.037 116.364 233.575 116.496 233.185 116.761C232.799 117.023 232.501 117.364 232.293 117.784C232.085 118.205 231.98 118.655 231.98 119.136V119.909C231.98 120.568 232.094 121.127 232.321 121.585C232.552 122.04 232.872 122.386 233.281 122.625C233.691 122.86 234.166 122.977 234.708 122.977C235.06 122.977 235.378 122.928 235.662 122.83C235.95 122.727 236.198 122.576 236.406 122.375C236.615 122.17 236.776 121.917 236.889 121.614L238.185 121.977C238.049 122.417 237.819 122.803 237.497 123.136C237.175 123.466 236.778 123.723 236.304 123.909C235.831 124.091 235.299 124.182 234.708 124.182ZM246.383 117.227L245.178 117.568C245.103 117.367 244.991 117.172 244.843 116.983C244.699 116.79 244.502 116.631 244.252 116.506C244.002 116.381 243.682 116.318 243.292 116.318C242.758 116.318 242.313 116.441 241.957 116.688C241.604 116.93 241.428 117.239 241.428 117.614C241.428 117.947 241.55 118.21 241.792 118.403C242.034 118.597 242.413 118.758 242.928 118.886L244.224 119.205C245.004 119.394 245.585 119.684 245.968 120.074C246.351 120.46 246.542 120.958 246.542 121.568C246.542 122.068 246.398 122.515 246.11 122.909C245.826 123.303 245.428 123.614 244.917 123.841C244.406 124.068 243.811 124.182 243.133 124.182C242.243 124.182 241.506 123.989 240.923 123.602C240.339 123.216 239.97 122.652 239.815 121.909L241.087 121.591C241.209 122.061 241.438 122.413 241.775 122.648C242.116 122.883 242.561 123 243.11 123C243.735 123 244.231 122.867 244.599 122.602C244.97 122.333 245.156 122.011 245.156 121.636C245.156 121.333 245.05 121.08 244.837 120.875C244.625 120.667 244.3 120.511 243.86 120.409L242.406 120.068C241.606 119.879 241.019 119.585 240.644 119.188C240.273 118.786 240.087 118.284 240.087 117.682C240.087 117.189 240.226 116.754 240.502 116.375C240.782 115.996 241.163 115.699 241.644 115.483C242.129 115.267 242.678 115.159 243.292 115.159C244.156 115.159 244.834 115.348 245.326 115.727C245.822 116.106 246.175 116.606 246.383 117.227ZM5.02273 138.273V139.409H0.5V138.273H5.02273ZM1.81818 136.182H3.15909V144.5C3.15909 144.879 3.21402 145.163 3.32386 145.352C3.4375 145.538 3.58144 145.663 3.75568 145.727C3.93371 145.788 4.12121 145.818 4.31818 145.818C4.46591 145.818 4.58712 145.811 4.68182 145.795C4.77652 145.777 4.85227 145.761 4.90909 145.75L5.18182 146.955C5.09091 146.989 4.96402 147.023 4.80114 147.057C4.63826 147.095 4.43182 147.114 4.18182 147.114C3.80303 147.114 3.43182 147.032 3.06818 146.869C2.70833 146.706 2.40909 146.458 2.17045 146.125C1.93561 145.792 1.81818 145.371 1.81818 144.864V136.182ZM8.40818 141.75V147H7.06727V135.364H8.40818V139.636H8.52182C8.72636 139.186 9.03318 138.828 9.44227 138.562C9.85515 138.294 10.4044 138.159 11.09 138.159C11.6847 138.159 12.2055 138.278 12.6525 138.517C13.0995 138.752 13.4461 139.114 13.6923 139.602C13.9423 140.087 14.0673 140.705 14.0673 141.455V147H12.7264V141.545C12.7264 140.852 12.5464 140.316 12.1866 139.938C11.8305 139.555 11.3362 139.364 10.7036 139.364C10.2642 139.364 9.8703 139.456 9.52182 139.642C9.17712 139.828 8.90439 140.098 8.70364 140.455C8.50667 140.811 8.40818 141.242 8.40818 141.75ZM18.9286 147.205C18.3755 147.205 17.8737 147.1 17.4229 146.892C16.9721 146.68 16.6142 146.375 16.349 145.977C16.0839 145.576 15.9513 145.091 15.9513 144.523C15.9513 144.023 16.0498 143.617 16.2468 143.307C16.4437 142.992 16.707 142.746 17.0365 142.568C17.3661 142.39 17.7297 142.258 18.1274 142.17C18.529 142.08 18.9324 142.008 19.3377 141.955C19.868 141.886 20.2979 141.835 20.6274 141.801C20.9608 141.763 21.2032 141.701 21.3547 141.614C21.51 141.527 21.5877 141.375 21.5877 141.159V141.114C21.5877 140.553 21.4343 140.117 21.1274 139.807C20.8244 139.496 20.3642 139.341 19.7468 139.341C19.1066 139.341 18.6047 139.481 18.2411 139.761C17.8774 140.042 17.6218 140.341 17.474 140.659L16.2013 140.205C16.4286 139.674 16.7316 139.261 17.1104 138.966C17.493 138.667 17.9096 138.458 18.3604 138.341C18.8149 138.22 19.2619 138.159 19.7013 138.159C19.9816 138.159 20.3036 138.193 20.6672 138.261C21.0346 138.326 21.3888 138.46 21.7297 138.665C22.0744 138.869 22.3604 139.178 22.5877 139.591C22.8149 140.004 22.9286 140.557 22.9286 141.25V147H21.5877V145.818H21.5195C21.4286 146.008 21.2771 146.21 21.0649 146.426C20.8528 146.642 20.5706 146.826 20.2184 146.977C19.8661 147.129 19.4362 147.205 18.9286 147.205ZM19.1331 146C19.6634 146 20.1104 145.896 20.474 145.688C20.8415 145.479 21.118 145.21 21.3036 144.881C21.493 144.551 21.5877 144.205 21.5877 143.841V142.614C21.5309 142.682 21.4059 142.744 21.2127 142.801C21.0233 142.854 20.8036 142.902 20.5536 142.943C20.3074 142.981 20.0668 143.015 19.832 143.045C19.6009 143.072 19.4134 143.095 19.2695 143.114C18.921 143.159 18.5952 143.233 18.2922 143.335C17.993 143.434 17.7505 143.583 17.5649 143.784C17.3831 143.981 17.2922 144.25 17.2922 144.591C17.2922 145.057 17.4646 145.409 17.8093 145.648C18.1577 145.883 18.599 146 19.1331 146ZM29.0115 138.273V139.409H24.4888V138.273H29.0115ZM25.8069 136.182H27.1478V144.5C27.1478 144.879 27.2028 145.163 27.3126 145.352C27.4263 145.538 27.5702 145.663 27.7444 145.727C27.9225 145.788 28.11 145.818 28.3069 145.818C28.4547 145.818 28.5759 145.811 28.6706 145.795C28.7653 145.777 28.841 145.761 28.8978 145.75L29.1706 146.955C29.0797 146.989 28.9528 147.023 28.7899 147.057C28.627 147.095 28.4206 147.114 28.1706 147.114C27.7918 147.114 27.4206 147.032 27.0569 146.869C26.6971 146.706 26.3978 146.458 26.1592 146.125C25.9244 145.792 25.8069 145.371 25.8069 144.864V136.182ZM35.2085 147V138.273H36.504V139.636H36.6176C36.7994 139.17 37.093 138.809 37.4983 138.551C37.9036 138.29 38.3903 138.159 38.9585 138.159C39.5343 138.159 40.0134 138.29 40.396 138.551C40.7824 138.809 41.0835 139.17 41.2994 139.636H41.3903C41.6138 139.186 41.9491 138.828 42.396 138.562C42.843 138.294 43.379 138.159 44.004 138.159C44.7843 138.159 45.4225 138.403 45.9188 138.892C46.415 139.377 46.6631 140.133 46.6631 141.159V147H45.3222V141.159C45.3222 140.515 45.146 140.055 44.7938 139.778C44.4415 139.502 44.0267 139.364 43.5494 139.364C42.9358 139.364 42.4604 139.549 42.1233 139.92C41.7862 140.288 41.6176 140.754 41.6176 141.318V147H40.254V141.023C40.254 140.527 40.093 140.127 39.771 139.824C39.4491 139.517 39.0343 139.364 38.5267 139.364C38.1782 139.364 37.8525 139.456 37.5494 139.642C37.2502 139.828 37.0078 140.085 36.8222 140.415C36.6403 140.741 36.5494 141.117 36.5494 141.545V147H35.2085ZM51.523 147.205C50.9699 147.205 50.468 147.1 50.0173 146.892C49.5665 146.68 49.2086 146.375 48.9434 145.977C48.6783 145.576 48.5457 145.091 48.5457 144.523C48.5457 144.023 48.6442 143.617 48.8411 143.307C49.0381 142.992 49.3014 142.746 49.6309 142.568C49.9605 142.39 50.3241 142.258 50.7218 142.17C51.1233 142.08 51.5267 142.008 51.932 141.955C52.4623 141.886 52.8923 141.835 53.2218 141.801C53.5552 141.763 53.7976 141.701 53.9491 141.614C54.1044 141.527 54.182 141.375 54.182 141.159V141.114C54.182 140.553 54.0286 140.117 53.7218 139.807C53.4188 139.496 52.9586 139.341 52.3411 139.341C51.701 139.341 51.1991 139.481 50.8355 139.761C50.4718 140.042 50.2161 140.341 50.0684 140.659L48.7957 140.205C49.023 139.674 49.326 139.261 49.7048 138.966C50.0873 138.667 50.504 138.458 50.9548 138.341C51.4093 138.22 51.8563 138.159 52.2957 138.159C52.576 138.159 52.898 138.193 53.2616 138.261C53.629 138.326 53.9832 138.46 54.3241 138.665C54.6688 138.869 54.9548 139.178 55.182 139.591C55.4093 140.004 55.523 140.557 55.523 141.25V147H54.182V145.818H54.1139C54.023 146.008 53.8714 146.21 53.6593 146.426C53.4472 146.642 53.165 146.826 52.8127 146.977C52.4605 147.129 52.0305 147.205 51.523 147.205ZM51.7275 146C52.2578 146 52.7048 145.896 53.0684 145.688C53.4358 145.479 53.7123 145.21 53.898 144.881C54.0873 144.551 54.182 144.205 54.182 143.841V142.614C54.1252 142.682 54.0002 142.744 53.807 142.801C53.6177 142.854 53.398 142.902 53.148 142.943C52.9017 142.981 52.6612 143.015 52.4264 143.045C52.1953 143.072 52.0078 143.095 51.8639 143.114C51.5154 143.159 51.1896 143.233 50.8866 143.335C50.5873 143.434 50.3449 143.583 50.1593 143.784C49.9775 143.981 49.8866 144.25 49.8866 144.591C49.8866 145.057 50.0589 145.409 50.4036 145.648C50.7521 145.883 51.1934 146 51.7275 146ZM61.6059 138.273V139.409H57.0831V138.273H61.6059ZM58.4013 136.182H59.7422V144.5C59.7422 144.879 59.7971 145.163 59.907 145.352C60.0206 145.538 60.1646 145.663 60.3388 145.727C60.5168 145.788 60.7043 145.818 60.9013 145.818C61.049 145.818 61.1702 145.811 61.2649 145.795C61.3596 145.777 61.4354 145.761 61.4922 145.75L61.7649 146.955C61.674 146.989 61.5471 147.023 61.3843 147.057C61.2214 147.095 61.0149 147.114 60.7649 147.114C60.3862 147.114 60.0149 147.032 59.6513 146.869C59.2915 146.706 58.9922 146.458 58.7536 146.125C58.5187 145.792 58.4013 145.371 58.4013 144.864V136.182ZM67.2584 138.273V139.409H62.7356V138.273H67.2584ZM64.0538 136.182H65.3947V144.5C65.3947 144.879 65.4496 145.163 65.5595 145.352C65.6731 145.538 65.8171 145.663 65.9913 145.727C66.1693 145.788 66.3568 145.818 66.5538 145.818C66.7015 145.818 66.8227 145.811 66.9174 145.795C67.0121 145.777 67.0879 145.761 67.1447 145.75L67.4174 146.955C67.3265 146.989 67.1996 147.023 67.0368 147.057C66.8739 147.095 66.6674 147.114 66.4174 147.114C66.0387 147.114 65.6674 147.032 65.3038 146.869C64.944 146.706 64.6447 146.458 64.4061 146.125C64.1712 145.792 64.0538 145.371 64.0538 144.864V136.182ZM72.6807 147.182C71.8398 147.182 71.1144 146.996 70.5046 146.625C69.8985 146.25 69.4307 145.727 69.1012 145.057C68.7754 144.383 68.6126 143.598 68.6126 142.705C68.6126 141.811 68.7754 141.023 69.1012 140.341C69.4307 139.655 69.8891 139.121 70.4762 138.739C71.0671 138.352 71.7565 138.159 72.5444 138.159C72.9989 138.159 73.4478 138.235 73.891 138.386C74.3341 138.538 74.7376 138.784 75.1012 139.125C75.4648 139.462 75.7546 139.909 75.9705 140.466C76.1864 141.023 76.2944 141.708 76.2944 142.523V143.091H69.5671V141.932H74.9307C74.9307 141.439 74.8323 141 74.6353 140.614C74.4421 140.227 74.1656 139.922 73.8057 139.699C73.4497 139.475 73.0292 139.364 72.5444 139.364C72.0103 139.364 71.5482 139.496 71.158 139.761C70.7716 140.023 70.4743 140.364 70.266 140.784C70.0576 141.205 69.9535 141.655 69.9535 142.136V142.909C69.9535 143.568 70.0671 144.127 70.2944 144.585C70.5254 145.04 70.8455 145.386 71.2546 145.625C71.6637 145.86 72.1391 145.977 72.6807 145.977C73.033 145.977 73.3512 145.928 73.6353 145.83C73.9232 145.727 74.1713 145.576 74.3796 145.375C74.5879 145.17 74.7489 144.917 74.8626 144.614L76.158 144.977C76.0216 145.417 75.7925 145.803 75.4705 146.136C75.1485 146.466 74.7508 146.723 74.2773 146.909C73.8038 147.091 73.2716 147.182 72.6807 147.182ZM78.1741 147V138.273H79.4696V139.591H79.5605C79.7196 139.159 80.0075 138.809 80.4241 138.54C80.8408 138.271 81.3105 138.136 81.8332 138.136C81.9317 138.136 82.0548 138.138 82.2026 138.142C82.3503 138.146 82.462 138.152 82.5378 138.159V139.523C82.4923 139.511 82.3882 139.494 82.2253 139.472C82.0662 139.445 81.8976 139.432 81.7196 139.432C81.2954 139.432 80.9166 139.521 80.5832 139.699C80.2537 139.873 79.9923 140.116 79.7991 140.426C79.6098 140.733 79.5151 141.083 79.5151 141.477V147H78.1741ZM88.3073 147V138.273H89.6027V139.636H89.7164C89.8982 139.17 90.1917 138.809 90.597 138.551C91.0024 138.29 91.4891 138.159 92.0573 138.159C92.633 138.159 93.1122 138.29 93.4948 138.551C93.8811 138.809 94.1823 139.17 94.3982 139.636H94.4891C94.7126 139.186 95.0478 138.828 95.4948 138.562C95.9417 138.294 96.4777 138.159 97.1027 138.159C97.883 138.159 98.5213 138.403 99.0175 138.892C99.5137 139.377 99.7618 140.133 99.7618 141.159V147H98.4209V141.159C98.4209 140.515 98.2448 140.055 97.8925 139.778C97.5402 139.502 97.1255 139.364 96.6482 139.364C96.0345 139.364 95.5592 139.549 95.222 139.92C94.8849 140.288 94.7164 140.754 94.7164 141.318V147H93.3527V141.023C93.3527 140.527 93.1917 140.127 92.8698 139.824C92.5478 139.517 92.133 139.364 91.6255 139.364C91.277 139.364 90.9512 139.456 90.6482 139.642C90.3489 139.828 90.1065 140.085 89.9209 140.415C89.7391 140.741 89.6482 141.117 89.6482 141.545V147H88.3073ZM105.599 147.182C104.811 147.182 104.12 146.994 103.525 146.619C102.934 146.244 102.472 145.72 102.139 145.045C101.809 144.371 101.644 143.583 101.644 142.682C101.644 141.773 101.809 140.979 102.139 140.301C102.472 139.623 102.934 139.097 103.525 138.722C104.12 138.347 104.811 138.159 105.599 138.159C106.387 138.159 107.076 138.347 107.667 138.722C108.262 139.097 108.724 139.623 109.054 140.301C109.387 140.979 109.554 141.773 109.554 142.682C109.554 143.583 109.387 144.371 109.054 145.045C108.724 145.72 108.262 146.244 107.667 146.619C107.076 146.994 106.387 147.182 105.599 147.182ZM105.599 145.977C106.197 145.977 106.69 145.824 107.076 145.517C107.463 145.21 107.749 144.807 107.934 144.307C108.12 143.807 108.213 143.265 108.213 142.682C108.213 142.098 108.12 141.555 107.934 141.051C107.749 140.547 107.463 140.14 107.076 139.83C106.69 139.519 106.197 139.364 105.599 139.364C105 139.364 104.508 139.519 104.122 139.83C103.735 140.14 103.449 140.547 103.264 141.051C103.078 141.555 102.985 142.098 102.985 142.682C102.985 143.265 103.078 143.807 103.264 144.307C103.449 144.807 103.735 145.21 104.122 145.517C104.508 145.824 105 145.977 105.599 145.977ZM117.622 140.227L116.418 140.568C116.342 140.367 116.23 140.172 116.082 139.983C115.939 139.79 115.742 139.631 115.492 139.506C115.242 139.381 114.921 139.318 114.531 139.318C113.997 139.318 113.552 139.441 113.196 139.688C112.844 139.93 112.668 140.239 112.668 140.614C112.668 140.947 112.789 141.21 113.031 141.403C113.274 141.597 113.653 141.758 114.168 141.886L115.463 142.205C116.243 142.394 116.825 142.684 117.207 143.074C117.59 143.46 117.781 143.958 117.781 144.568C117.781 145.068 117.637 145.515 117.349 145.909C117.065 146.303 116.668 146.614 116.156 146.841C115.645 147.068 115.05 147.182 114.372 147.182C113.482 147.182 112.745 146.989 112.162 146.602C111.579 146.216 111.209 145.652 111.054 144.909L112.327 144.591C112.448 145.061 112.677 145.413 113.014 145.648C113.355 145.883 113.8 146 114.349 146C114.974 146 115.471 145.867 115.838 145.602C116.209 145.333 116.395 145.011 116.395 144.636C116.395 144.333 116.289 144.08 116.077 143.875C115.865 143.667 115.539 143.511 115.099 143.409L113.645 143.068C112.846 142.879 112.259 142.585 111.884 142.188C111.512 141.786 111.327 141.284 111.327 140.682C111.327 140.189 111.465 139.754 111.742 139.375C112.022 138.996 112.403 138.699 112.884 138.483C113.368 138.267 113.918 138.159 114.531 138.159C115.395 138.159 116.073 138.348 116.565 138.727C117.062 139.106 117.414 139.606 117.622 140.227ZM123.435 138.273V139.409H118.912V138.273H123.435ZM120.231 136.182H121.572V144.5C121.572 144.879 121.627 145.163 121.736 145.352C121.85 145.538 121.994 145.663 122.168 145.727C122.346 145.788 122.534 145.818 122.731 145.818C122.878 145.818 123 145.811 123.094 145.795C123.189 145.777 123.265 145.761 123.322 145.75L123.594 146.955C123.503 146.989 123.377 147.023 123.214 147.057C123.051 147.095 122.844 147.114 122.594 147.114C122.216 147.114 121.844 147.032 121.481 146.869C121.121 146.706 120.822 146.458 120.583 146.125C120.348 145.792 120.231 145.371 120.231 144.864V136.182ZM126.27 147.091C125.989 147.091 125.749 146.991 125.548 146.79C125.347 146.589 125.247 146.348 125.247 146.068C125.247 145.788 125.347 145.547 125.548 145.347C125.749 145.146 125.989 145.045 126.27 145.045C126.55 145.045 126.79 145.146 126.991 145.347C127.192 145.547 127.292 145.788 127.292 146.068C127.292 146.254 127.245 146.424 127.15 146.58C127.059 146.735 126.936 146.86 126.781 146.955C126.629 147.045 126.459 147.091 126.27 147.091Z" fill="black"/>
<path d="M0.409091 179V167.364H1.81818V177.75H7.22727V179H0.409091ZM12.7264 179.182C11.8855 179.182 11.1601 178.996 10.5502 178.625C9.94417 178.25 9.47636 177.727 9.14682 177.057C8.82106 176.383 8.65818 175.598 8.65818 174.705C8.65818 173.811 8.82106 173.023 9.14682 172.341C9.47636 171.655 9.9347 171.121 10.5218 170.739C11.1127 170.352 11.8021 170.159 12.59 170.159C13.0445 170.159 13.4934 170.235 13.9366 170.386C14.3798 170.538 14.7832 170.784 15.1468 171.125C15.5105 171.462 15.8002 171.909 16.0161 172.466C16.232 173.023 16.34 173.708 16.34 174.523V175.091H9.61273V173.932H14.9764C14.9764 173.439 14.8779 173 14.6809 172.614C14.4877 172.227 14.2112 171.922 13.8514 171.699C13.4953 171.475 13.0748 171.364 12.59 171.364C12.0559 171.364 11.5938 171.496 11.2036 171.761C10.8173 172.023 10.5199 172.364 10.3116 172.784C10.1033 173.205 9.99909 173.655 9.99909 174.136V174.909C9.99909 175.568 10.1127 176.127 10.34 176.585C10.5711 177.04 10.8911 177.386 11.3002 177.625C11.7093 177.86 12.1847 177.977 12.7264 177.977C13.0786 177.977 13.3968 177.928 13.6809 177.83C13.9688 177.727 14.2169 177.576 14.4252 177.375C14.6336 177.17 14.7945 176.917 14.9082 176.614L16.2036 176.977C16.0673 177.417 15.8381 177.803 15.5161 178.136C15.1942 178.466 14.7964 178.723 14.323 178.909C13.8495 179.091 13.3173 179.182 12.7264 179.182ZM20.788 179.205C20.2349 179.205 19.733 179.1 19.2823 178.892C18.8315 178.68 18.4736 178.375 18.2084 177.977C17.9433 177.576 17.8107 177.091 17.8107 176.523C17.8107 176.023 17.9092 175.617 18.1061 175.307C18.3031 174.992 18.5664 174.746 18.8959 174.568C19.2255 174.39 19.5891 174.258 19.9868 174.17C20.3883 174.08 20.7917 174.008 21.197 173.955C21.7273 173.886 22.1573 173.835 22.4868 173.801C22.8202 173.763 23.0626 173.701 23.2141 173.614C23.3694 173.527 23.447 173.375 23.447 173.159V173.114C23.447 172.553 23.2936 172.117 22.9868 171.807C22.6838 171.496 22.2236 171.341 21.6061 171.341C20.966 171.341 20.4641 171.481 20.1005 171.761C19.7368 172.042 19.4811 172.341 19.3334 172.659L18.0607 172.205C18.288 171.674 18.591 171.261 18.9698 170.966C19.3523 170.667 19.769 170.458 20.2198 170.341C20.6743 170.22 21.1213 170.159 21.5607 170.159C21.841 170.159 22.163 170.193 22.5266 170.261C22.894 170.326 23.2482 170.46 23.5891 170.665C23.9338 170.869 24.2198 171.178 24.447 171.591C24.6743 172.004 24.788 172.557 24.788 173.25V179H23.447V177.818H23.3789C23.288 178.008 23.1364 178.21 22.9243 178.426C22.7122 178.642 22.43 178.826 22.0777 178.977C21.7255 179.129 21.2955 179.205 20.788 179.205ZM20.9925 178C21.5228 178 21.9698 177.896 22.3334 177.688C22.7008 177.479 22.9773 177.21 23.163 176.881C23.3523 176.551 23.447 176.205 23.447 175.841V174.614C23.3902 174.682 23.2652 174.744 23.072 174.801C22.8827 174.854 22.663 174.902 22.413 174.943C22.1667 174.981 21.9262 175.015 21.6914 175.045C21.4603 175.072 21.2728 175.095 21.1289 175.114C20.7804 175.159 20.4546 175.233 20.1516 175.335C19.8523 175.434 19.6099 175.583 19.4243 175.784C19.2425 175.981 19.1516 176.25 19.1516 176.591C19.1516 177.057 19.3239 177.409 19.6686 177.648C20.0171 177.883 20.4584 178 20.9925 178ZM27.0754 179V170.273H28.3709V171.591H28.4618C28.6209 171.159 28.9087 170.809 29.3254 170.54C29.7421 170.271 30.2118 170.136 30.7345 170.136C30.833 170.136 30.9561 170.138 31.1038 170.142C31.2515 170.146 31.3633 170.152 31.439 170.159V171.523C31.3936 171.511 31.2894 171.494 31.1265 171.472C30.9674 171.445 30.7989 171.432 30.6209 171.432C30.1966 171.432 29.8178 171.521 29.4845 171.699C29.1549 171.873 28.8936 172.116 28.7004 172.426C28.511 172.733 28.4163 173.083 28.4163 173.477V179H27.0754ZM34.2094 173.75V179H32.8685V170.273H34.164V171.636H34.2776C34.4822 171.193 34.7928 170.837 35.2094 170.568C35.6261 170.295 36.164 170.159 36.8231 170.159C37.414 170.159 37.931 170.28 38.3742 170.523C38.8174 170.761 39.1621 171.125 39.4083 171.614C39.6545 172.098 39.7776 172.712 39.7776 173.455V179H38.4367V173.545C38.4367 172.86 38.2587 172.326 37.9026 171.943C37.5466 171.557 37.0579 171.364 36.4367 171.364C36.0087 171.364 35.6261 171.456 35.289 171.642C34.9556 171.828 34.6924 172.098 34.4992 172.455C34.306 172.811 34.2094 173.242 34.2094 173.75ZM46.4079 179V170.273H47.7034V171.636H47.817C47.9988 171.17 48.2924 170.809 48.6977 170.551C49.103 170.29 49.5897 170.159 50.1579 170.159C50.7337 170.159 51.2128 170.29 51.5954 170.551C51.9818 170.809 52.2829 171.17 52.4988 171.636H52.5897C52.8132 171.186 53.1484 170.828 53.5954 170.562C54.0424 170.294 54.5784 170.159 55.2034 170.159C55.9837 170.159 56.6219 170.403 57.1181 170.892C57.6143 171.377 57.8624 172.133 57.8624 173.159V179H56.5215V173.159C56.5215 172.515 56.3454 172.055 55.9931 171.778C55.6409 171.502 55.2261 171.364 54.7488 171.364C54.1352 171.364 53.6598 171.549 53.3227 171.92C52.9856 172.288 52.817 172.754 52.817 173.318V179H51.4534V173.023C51.4534 172.527 51.2924 172.127 50.9704 171.824C50.6484 171.517 50.2337 171.364 49.7261 171.364C49.3776 171.364 49.0518 171.456 48.7488 171.642C48.4496 171.828 48.2071 172.085 48.0215 172.415C47.8397 172.741 47.7488 173.117 47.7488 173.545V179H46.4079ZM63.6996 179.182C62.9117 179.182 62.2204 178.994 61.6257 178.619C61.0348 178.244 60.5727 177.72 60.2394 177.045C59.9098 176.371 59.7451 175.583 59.7451 174.682C59.7451 173.773 59.9098 172.979 60.2394 172.301C60.5727 171.623 61.0348 171.097 61.6257 170.722C62.2204 170.347 62.9117 170.159 63.6996 170.159C64.4875 170.159 65.1769 170.347 65.7678 170.722C66.3625 171.097 66.8246 171.623 67.1541 172.301C67.4875 172.979 67.6541 173.773 67.6541 174.682C67.6541 175.583 67.4875 176.371 67.1541 177.045C66.8246 177.72 66.3625 178.244 65.7678 178.619C65.1769 178.994 64.4875 179.182 63.6996 179.182ZM63.6996 177.977C64.2981 177.977 64.7905 177.824 65.1769 177.517C65.5632 177.21 65.8492 176.807 66.0348 176.307C66.2204 175.807 66.3132 175.265 66.3132 174.682C66.3132 174.098 66.2204 173.555 66.0348 173.051C65.8492 172.547 65.5632 172.14 65.1769 171.83C64.7905 171.519 64.2981 171.364 63.6996 171.364C63.1011 171.364 62.6087 171.519 62.2223 171.83C61.836 172.14 61.55 172.547 61.3644 173.051C61.1788 173.555 61.086 174.098 61.086 174.682C61.086 175.265 61.1788 175.807 61.3644 176.307C61.55 176.807 61.836 177.21 62.2223 177.517C62.6087 177.824 63.1011 177.977 63.6996 177.977ZM69.541 179V170.273H70.8365V171.591H70.9274C71.0865 171.159 71.3744 170.809 71.791 170.54C72.2077 170.271 72.6774 170.136 73.2001 170.136C73.2986 170.136 73.4217 170.138 73.5694 170.142C73.7172 170.146 73.8289 170.152 73.9047 170.159V171.523C73.8592 171.511 73.755 171.494 73.5922 171.472C73.4331 171.445 73.2645 171.432 73.0865 171.432C72.6622 171.432 72.2834 171.521 71.9501 171.699C71.6206 171.873 71.3592 172.116 71.166 172.426C70.9766 172.733 70.8819 173.083 70.8819 173.477V179H69.541ZM78.7276 179.182C77.8867 179.182 77.1613 178.996 76.5515 178.625C75.9454 178.25 75.4776 177.727 75.1481 177.057C74.8223 176.383 74.6594 175.598 74.6594 174.705C74.6594 173.811 74.8223 173.023 75.1481 172.341C75.4776 171.655 75.9359 171.121 76.5231 170.739C77.114 170.352 77.8034 170.159 78.5912 170.159C79.0458 170.159 79.4947 170.235 79.9378 170.386C80.381 170.538 80.7844 170.784 81.1481 171.125C81.5117 171.462 81.8015 171.909 82.0174 172.466C82.2333 173.023 82.3412 173.708 82.3412 174.523V175.091H75.614V173.932H80.9776C80.9776 173.439 80.8791 173 80.6822 172.614C80.489 172.227 80.2125 171.922 79.8526 171.699C79.4966 171.475 79.0761 171.364 78.5912 171.364C78.0572 171.364 77.595 171.496 77.2049 171.761C76.8185 172.023 76.5212 172.364 76.3128 172.784C76.1045 173.205 76.0003 173.655 76.0003 174.136V174.909C76.0003 175.568 76.114 176.127 76.3412 176.585C76.5723 177.04 76.8924 177.386 77.3015 177.625C77.7106 177.86 78.1859 177.977 78.7276 177.977C79.0799 177.977 79.3981 177.928 79.6822 177.83C79.97 177.727 80.2181 177.576 80.4265 177.375C80.6348 177.17 80.7958 176.917 80.9094 176.614L82.2049 176.977C82.0685 177.417 81.8394 177.803 81.5174 178.136C81.1954 178.466 80.7977 178.723 80.3242 178.909C79.8507 179.091 79.3185 179.182 78.7276 179.182Z" fill="black"/>
<path d="M104.031 174.031L99.5306 178.531C99.3897 178.672 99.1986 178.751 98.9994 178.751C98.8001 178.751 98.609 178.672 98.4681 178.531C98.3272 178.39 98.2481 178.199 98.2481 177.999C98.2481 177.8 98.3272 177.609 98.4681 177.468L101.688 174.25H92.5C92.3011 174.25 92.1103 174.171 91.9697 174.03C91.829 173.89 91.75 173.699 91.75 173.5C91.75 173.301 91.829 173.11 91.9697 172.97C92.1103 172.829 92.3011 172.75 92.5 172.75H101.688L98.4694 169.53C98.3285 169.389 98.2493 169.198 98.2493 168.999C98.2493 168.799 98.3285 168.608 98.4694 168.467C98.6103 168.327 98.8014 168.247 99.0006 168.247C99.1999 168.247 99.391 168.327 99.5319 168.467L104.032 172.967C104.102 173.037 104.157 173.12 104.195 173.211C104.233 173.303 104.252 173.401 104.252 173.499C104.252 173.598 104.232 173.696 104.194 173.787C104.156 173.878 104.101 173.961 104.031 174.031Z" fill="black"/>
</svg>
