<svg width="109" height="41" viewBox="0 0 109 41" fill="none" xmlns="http://www.w3.org/2000/svg">
<path d="M1.5072 26V14.3636H3.26288V24.4886H8.53561V26H1.5072ZM13.8434 26.1761C12.9836 26.1761 12.2431 25.9924 11.6219 25.625C11.0044 25.2538 10.5272 24.733 10.19 24.0625C9.85671 23.3883 9.69004 22.5985 9.69004 21.6932C9.69004 20.7992 9.85671 20.0114 10.19 19.3295C10.5272 18.6477 10.9969 18.1155 11.5991 17.733C12.2052 17.3504 12.9135 17.1591 13.7241 17.1591C14.2166 17.1591 14.6938 17.2405 15.156 17.4034C15.6181 17.5663 16.0328 17.822 16.4003 18.1705C16.7677 18.5189 17.0575 18.9716 17.2696 19.5284C17.4817 20.0814 17.5878 20.7538 17.5878 21.5455V22.1477H10.6503V20.875H15.923C15.923 20.428 15.8321 20.0322 15.6503 19.6875C15.4684 19.339 15.2128 19.0644 14.8832 18.8636C14.5575 18.6629 14.1749 18.5625 13.7355 18.5625C13.2582 18.5625 12.8416 18.6799 12.4855 18.9148C12.1332 19.1458 11.8605 19.4489 11.6673 19.8239C11.4779 20.1951 11.3832 20.5985 11.3832 21.0341V22.0284C11.3832 22.6117 11.4855 23.108 11.69 23.517C11.8984 23.9261 12.1881 24.2386 12.5594 24.4545C12.9306 24.6667 13.3643 24.7727 13.8605 24.7727C14.1825 24.7727 14.476 24.7273 14.7412 24.6364C15.0063 24.5417 15.2355 24.4015 15.4287 24.2159C15.6219 24.0303 15.7696 23.8011 15.8719 23.5284L17.4798 23.8182C17.351 24.2917 17.12 24.7064 16.7866 25.0625C16.4571 25.4148 16.0423 25.6894 15.5423 25.8864C15.0461 26.0795 14.4798 26.1761 13.8434 26.1761ZM21.6925 26.1932C21.1395 26.1932 20.6395 26.0909 20.1925 25.8864C19.7455 25.678 19.3913 25.3769 19.13 24.983C18.8724 24.589 18.7436 24.1061 18.7436 23.5341C18.7436 23.0417 18.8383 22.6364 19.0277 22.3182C19.2171 22 19.4728 21.7481 19.7948 21.5625C20.1167 21.3769 20.4766 21.2367 20.8743 21.142C21.272 21.0473 21.6773 20.9754 22.0902 20.9261C22.6129 20.8655 23.0372 20.8163 23.3629 20.7784C23.6887 20.7367 23.9254 20.6705 24.0732 20.5795C24.2209 20.4886 24.2948 20.3409 24.2948 20.1364V20.0966C24.2948 19.6004 24.1546 19.2159 23.8743 18.9432C23.5978 18.6705 23.1849 18.5341 22.6357 18.5341C22.0637 18.5341 21.6129 18.661 21.2834 18.9148C20.9576 19.1648 20.7323 19.4432 20.6073 19.75L19.0107 19.3864C19.2001 18.8561 19.4766 18.428 19.8402 18.1023C20.2076 17.7727 20.63 17.5341 21.1073 17.3864C21.5845 17.2348 22.0864 17.1591 22.6129 17.1591C22.9614 17.1591 23.3307 17.2008 23.7209 17.2841C24.1148 17.3636 24.4823 17.5114 24.8232 17.7273C25.1679 17.9432 25.4501 18.2519 25.6698 18.6534C25.8895 19.0511 25.9993 19.5682 25.9993 20.2045V26H24.3402V24.8068H24.272C24.1622 25.0265 23.9974 25.2424 23.7777 25.4545C23.558 25.6667 23.2758 25.8428 22.9311 25.983C22.5864 26.1231 22.1735 26.1932 21.6925 26.1932ZM22.0618 24.8295C22.5315 24.8295 22.933 24.7367 23.2663 24.5511C23.6035 24.3655 23.8592 24.1231 24.0334 23.8239C24.2114 23.5208 24.3004 23.197 24.3004 22.8523V21.7273C24.2398 21.7879 24.1224 21.8447 23.9482 21.8977C23.7777 21.947 23.5826 21.9905 23.3629 22.0284C23.1432 22.0625 22.9292 22.0947 22.7209 22.125C22.5126 22.1515 22.3383 22.1742 22.1982 22.1932C21.8686 22.2348 21.5675 22.3049 21.2948 22.4034C21.0258 22.5019 20.8099 22.6439 20.647 22.8295C20.4879 23.0114 20.4084 23.2538 20.4084 23.5568C20.4084 23.9773 20.5637 24.2955 20.8743 24.5114C21.1849 24.7235 21.5807 24.8295 22.0618 24.8295ZM27.9421 26V17.2727H29.5841V18.6591H29.675C29.8341 18.1894 30.1144 17.8201 30.516 17.5511C30.9213 17.2784 31.3796 17.142 31.891 17.142C31.997 17.142 32.122 17.1458 32.266 17.1534C32.4137 17.161 32.5292 17.1705 32.6125 17.1818V18.8068C32.5444 18.7879 32.4231 18.767 32.2489 18.7443C32.0747 18.7178 31.9004 18.7045 31.7262 18.7045C31.3247 18.7045 30.9667 18.7898 30.6523 18.9602C30.3417 19.1269 30.0955 19.3598 29.9137 19.6591C29.7319 19.9545 29.641 20.2917 29.641 20.6705V26H27.9421ZM35.4616 20.8182V26H33.7627V17.2727H35.3934V18.6932H35.5013C35.7021 18.2311 36.0165 17.8598 36.4445 17.5795C36.8763 17.2992 37.4199 17.1591 38.0752 17.1591C38.6699 17.1591 39.1907 17.2841 39.6377 17.5341C40.0847 17.7803 40.4313 18.1477 40.6775 18.6364C40.9237 19.125 41.0468 19.7292 41.0468 20.4489V26H39.3479V20.6534C39.3479 20.0208 39.1832 19.5265 38.8536 19.1705C38.5241 18.8106 38.0714 18.6307 37.4957 18.6307C37.1017 18.6307 36.7513 18.7159 36.4445 18.8864C36.1415 19.0568 35.901 19.3068 35.7229 19.6364C35.5487 19.9621 35.4616 20.3561 35.4616 20.8182ZM46.9196 26V17.2727H48.5503V18.6932H48.6582C48.84 18.2121 49.1374 17.8371 49.5503 17.5682C49.9631 17.2955 50.4575 17.1591 51.0332 17.1591C51.6166 17.1591 52.1052 17.2955 52.4991 17.5682C52.8969 17.8409 53.1904 18.2159 53.3798 18.6932H53.4707C53.6791 18.2273 54.0105 17.8561 54.465 17.5795C54.9196 17.2992 55.4613 17.1591 56.09 17.1591C56.8817 17.1591 57.5275 17.4072 58.0275 17.9034C58.5313 18.3996 58.7832 19.1477 58.7832 20.1477V26H57.0844V20.3068C57.0844 19.7159 56.9234 19.2879 56.6014 19.0227C56.2794 18.7576 55.895 18.625 55.448 18.625C54.895 18.625 54.465 18.7955 54.1582 19.1364C53.8514 19.4735 53.698 19.9072 53.698 20.4375V26H52.0048V20.1989C52.0048 19.7254 51.8571 19.3447 51.5616 19.0568C51.2662 18.7689 50.8817 18.625 50.4082 18.625C50.0863 18.625 49.7889 18.7102 49.5162 18.8807C49.2472 19.0473 49.0294 19.2803 48.8628 19.5795C48.6999 19.8788 48.6185 20.2254 48.6185 20.6193V26H46.9196ZM64.4163 26.1761C63.5982 26.1761 62.8841 25.9886 62.2743 25.6136C61.6645 25.2386 61.191 24.714 60.8538 24.0398C60.5167 23.3655 60.3482 22.5777 60.3482 21.6761C60.3482 20.7708 60.5167 19.9792 60.8538 19.3011C61.191 18.6231 61.6645 18.0966 62.2743 17.7216C62.8841 17.3466 63.5982 17.1591 64.4163 17.1591C65.2345 17.1591 65.9485 17.3466 66.5584 17.7216C67.1682 18.0966 67.6417 18.6231 67.9788 19.3011C68.316 19.9792 68.4845 20.7708 68.4845 21.6761C68.4845 22.5777 68.316 23.3655 67.9788 24.0398C67.6417 24.714 67.1682 25.2386 66.5584 25.6136C65.9485 25.9886 65.2345 26.1761 64.4163 26.1761ZM64.422 24.75C64.9523 24.75 65.3917 24.6098 65.7402 24.3295C66.0887 24.0492 66.3463 23.6761 66.5129 23.2102C66.6834 22.7443 66.7686 22.2311 66.7686 21.6705C66.7686 21.1136 66.6834 20.6023 66.5129 20.1364C66.3463 19.6667 66.0887 19.2898 65.7402 19.0057C65.3917 18.7216 64.9523 18.5795 64.422 18.5795C63.8879 18.5795 63.4448 18.7216 63.0925 19.0057C62.744 19.2898 62.4845 19.6667 62.3141 20.1364C62.1474 20.6023 62.0641 21.1136 62.0641 21.6705C62.0641 22.2311 62.1474 22.7443 62.3141 23.2102C62.4845 23.6761 62.744 24.0492 63.0925 24.3295C63.4448 24.6098 63.8879 24.75 64.422 24.75ZM70.0608 26V17.2727H71.7029V18.6591H71.7938C71.9529 18.1894 72.2332 17.8201 72.6347 17.5511C73.04 17.2784 73.4983 17.142 74.0097 17.142C74.1158 17.142 74.2408 17.1458 74.3847 17.1534C74.5324 17.161 74.648 17.1705 74.7313 17.1818V18.8068C74.6631 18.7879 74.5419 18.767 74.3677 18.7443C74.1934 18.7178 74.0192 18.7045 73.8449 18.7045C73.4434 18.7045 73.0855 18.7898 72.7711 18.9602C72.4605 19.1269 72.2142 19.3598 72.0324 19.6591C71.8506 19.9545 71.7597 20.2917 71.7597 20.6705V26H70.0608ZM79.3303 26.1761C78.4705 26.1761 77.7299 25.9924 77.1087 25.625C76.4913 25.2538 76.014 24.733 75.6769 24.0625C75.3436 23.3883 75.1769 22.5985 75.1769 21.6932C75.1769 20.7992 75.3436 20.0114 75.6769 19.3295C76.014 18.6477 76.4837 18.1155 77.086 17.733C77.6921 17.3504 78.4004 17.1591 79.211 17.1591C79.7034 17.1591 80.1807 17.2405 80.6428 17.4034C81.1049 17.5663 81.5197 17.822 81.8871 18.1705C82.2546 18.5189 82.5443 18.9716 82.7565 19.5284C82.9686 20.0814 83.0746 20.7538 83.0746 21.5455V22.1477H76.1371V20.875H81.4099C81.4099 20.428 81.319 20.0322 81.1371 19.6875C80.9553 19.339 80.6996 19.0644 80.3701 18.8636C80.0443 18.6629 79.6618 18.5625 79.2224 18.5625C78.7451 18.5625 78.3284 18.6799 77.9724 18.9148C77.6201 19.1458 77.3474 19.4489 77.1542 19.8239C76.9648 20.1951 76.8701 20.5985 76.8701 21.0341V22.0284C76.8701 22.6117 76.9724 23.108 77.1769 23.517C77.3853 23.9261 77.675 24.2386 78.0462 24.4545C78.4174 24.6667 78.8512 24.7727 79.3474 24.7727C79.6693 24.7727 79.9629 24.7273 80.2281 24.6364C80.4932 24.5417 80.7224 24.4015 80.9156 24.2159C81.1087 24.0303 81.2565 23.8011 81.3587 23.5284L82.9667 23.8182C82.8379 24.2917 82.6068 24.7064 82.2735 25.0625C81.944 25.4148 81.5292 25.6894 81.0292 25.8864C80.533 26.0795 79.9667 26.1761 79.3303 26.1761Z" fill="black"/>
<path d="M104.259 21.0306L99.7594 25.5306C99.6185 25.6715 99.4274 25.7507 99.2282 25.7507C99.0289 25.7507 98.8378 25.6715 98.6969 25.5306C98.556 25.3897 98.4769 25.1986 98.4769 24.9994C98.4769 24.8001 98.556 24.609 98.6969 24.4681L101.916 21.25H92.7288C92.5299 21.25 92.3391 21.171 92.1985 21.0303C92.0578 20.8897 91.9788 20.6989 91.9788 20.5C91.9788 20.3011 92.0578 20.1103 92.1985 19.9697C92.3391 19.829 92.5299 19.75 92.7288 19.75H101.916L98.6982 16.53C98.5573 16.3891 98.4781 16.198 98.4781 15.9987C98.4781 15.7995 98.5573 15.6084 98.6982 15.4675C98.8391 15.3266 99.0302 15.2474 99.2294 15.2474C99.4287 15.2474 99.6198 15.3266 99.7607 15.4675L104.261 19.9675C104.331 20.0373 104.386 20.1202 104.424 20.2114C104.462 20.3027 104.481 20.4005 104.481 20.4993C104.481 20.5981 104.461 20.6959 104.423 20.7871C104.385 20.8782 104.33 20.961 104.259 21.0306Z" fill="black"/>
</svg>
