<svg width="271" height="39" viewBox="0 0 271 39" fill="none" xmlns="http://www.w3.org/2000/svg">
<rect width="271" height="39" rx="10" fill="white"/>
<path d="M97.625 16.4205C97.5644 15.8826 97.3144 15.4659 96.875 15.1705C96.4356 14.8712 95.8826 14.7216 95.2159 14.7216C94.7386 14.7216 94.3258 14.7973 93.9773 14.9489C93.6288 15.0966 93.358 15.3011 93.1648 15.5625C92.9754 15.8201 92.8807 16.1136 92.8807 16.4432C92.8807 16.7197 92.9451 16.9583 93.0739 17.1591C93.2064 17.3598 93.3788 17.5284 93.5909 17.6648C93.8068 17.7973 94.0379 17.9091 94.2841 18C94.5303 18.0871 94.767 18.1591 94.9943 18.2159L96.1307 18.5114C96.5019 18.6023 96.8826 18.7254 97.2727 18.8807C97.6629 19.036 98.0246 19.2405 98.358 19.4943C98.6913 19.7481 98.9602 20.0625 99.1648 20.4375C99.3731 20.8125 99.4773 21.2614 99.4773 21.7841C99.4773 22.4432 99.3068 23.0284 98.9659 23.5398C98.6288 24.0511 98.1383 24.4545 97.4943 24.75C96.8542 25.0455 96.0795 25.1932 95.1705 25.1932C94.2992 25.1932 93.5455 25.0549 92.9091 24.7784C92.2727 24.5019 91.7746 24.1098 91.4148 23.6023C91.0549 23.0909 90.8561 22.4848 90.8182 21.7841H92.5795C92.6136 22.2045 92.75 22.5549 92.9886 22.8352C93.2311 23.1117 93.5398 23.3182 93.9148 23.4545C94.2936 23.5871 94.7083 23.6534 95.1591 23.6534C95.6553 23.6534 96.0966 23.5758 96.483 23.4205C96.8731 23.2614 97.1799 23.0417 97.4034 22.7614C97.6269 22.4773 97.7386 22.1458 97.7386 21.767C97.7386 21.4223 97.6402 21.1402 97.4432 20.9205C97.25 20.7008 96.9867 20.5189 96.6534 20.375C96.3239 20.2311 95.9508 20.1042 95.5341 19.9943L94.1591 19.6193C93.2273 19.3655 92.4886 18.9924 91.9432 18.5C91.4015 18.0076 91.1307 17.3561 91.1307 16.5455C91.1307 15.875 91.3125 15.2898 91.6761 14.7898C92.0398 14.2898 92.5322 13.9015 93.1534 13.625C93.7746 13.3447 94.4754 13.2045 95.2557 13.2045C96.0436 13.2045 96.7386 13.3428 97.3409 13.6193C97.947 13.8958 98.4242 14.2765 98.7727 14.7614C99.1212 15.2424 99.303 15.7955 99.3182 16.4205H97.625ZM101.119 25V16.2727H102.818V25H101.119ZM101.977 14.9261C101.681 14.9261 101.428 14.8277 101.216 14.6307C101.007 14.4299 100.903 14.1913 100.903 13.9148C100.903 13.6345 101.007 13.3958 101.216 13.1989C101.428 12.9981 101.681 12.8977 101.977 12.8977C102.272 12.8977 102.524 12.9981 102.733 13.1989C102.945 13.3958 103.051 13.6345 103.051 13.9148C103.051 14.1913 102.945 14.4299 102.733 14.6307C102.524 14.8277 102.272 14.9261 101.977 14.9261ZM108.442 28.4545C107.749 28.4545 107.153 28.3636 106.653 28.1818C106.156 28 105.751 27.7595 105.437 27.4602C105.122 27.161 104.887 26.8333 104.732 26.4773L106.192 25.875C106.295 26.0417 106.431 26.2178 106.601 26.4034C106.776 26.5928 107.011 26.7538 107.306 26.8864C107.605 27.0189 107.99 27.0852 108.459 27.0852C109.103 27.0852 109.636 26.928 110.056 26.6136C110.476 26.303 110.687 25.8068 110.687 25.125V23.4091H110.579C110.476 23.5947 110.329 23.8011 110.136 24.0284C109.946 24.2557 109.685 24.4527 109.351 24.6193C109.018 24.786 108.584 24.8693 108.05 24.8693C107.361 24.8693 106.74 24.7083 106.187 24.3864C105.637 24.0606 105.202 23.5814 104.88 22.9489C104.562 22.3125 104.403 21.5303 104.403 20.6023C104.403 19.6742 104.56 18.8788 104.874 18.2159C105.192 17.553 105.628 17.0455 106.181 16.6932C106.734 16.3371 107.361 16.1591 108.062 16.1591C108.603 16.1591 109.041 16.25 109.374 16.4318C109.708 16.6098 109.967 16.8182 110.153 17.0568C110.342 17.2955 110.488 17.5057 110.59 17.6875H110.715V16.2727H112.38V25.1932C112.38 25.9432 112.206 26.5587 111.857 27.0398C111.509 27.5208 111.037 27.8769 110.442 28.108C109.851 28.339 109.185 28.4545 108.442 28.4545ZM108.425 23.4602C108.914 23.4602 109.327 23.3466 109.664 23.1193C110.005 22.8883 110.262 22.5587 110.437 22.1307C110.615 21.6989 110.704 21.1818 110.704 20.5795C110.704 19.9924 110.617 19.4754 110.442 19.0284C110.268 18.5814 110.012 18.233 109.675 17.983C109.338 17.7292 108.922 17.6023 108.425 17.6023C107.914 17.6023 107.488 17.7348 107.147 18C106.806 18.2614 106.548 18.6174 106.374 19.0682C106.204 19.5189 106.119 20.0227 106.119 20.5795C106.119 21.1515 106.206 21.6534 106.38 22.0852C106.554 22.517 106.812 22.8542 107.153 23.0966C107.497 23.339 107.922 23.4602 108.425 23.4602ZM116.037 19.8182V25H114.338V16.2727H115.969V17.6932H116.077C116.278 17.2311 116.592 16.8598 117.02 16.5795C117.452 16.2992 117.995 16.1591 118.651 16.1591C119.245 16.1591 119.766 16.2841 120.213 16.5341C120.66 16.7803 121.007 17.1477 121.253 17.6364C121.499 18.125 121.622 18.7292 121.622 19.4489V25H119.924V19.6534C119.924 19.0208 119.759 18.5265 119.429 18.1705C119.1 17.8106 118.647 17.6307 118.071 17.6307C117.677 17.6307 117.327 17.7159 117.02 17.8864C116.717 18.0568 116.477 18.3068 116.299 18.6364C116.124 18.9621 116.037 19.3561 116.037 19.8182ZM133.024 21.3807V16.2727H134.728V25H133.058V23.4886H132.967C132.766 23.9545 132.444 24.3428 132.001 24.6534C131.561 24.9602 131.014 25.1136 130.359 25.1136C129.798 25.1136 129.302 24.9905 128.87 24.7443C128.442 24.4943 128.105 24.125 127.859 23.6364C127.616 23.1477 127.495 22.5436 127.495 21.8239V16.2727H129.194V21.6193C129.194 22.214 129.359 22.6875 129.688 23.0398C130.018 23.392 130.446 23.5682 130.972 23.5682C131.291 23.5682 131.607 23.4886 131.921 23.3295C132.239 23.1705 132.503 22.9299 132.711 22.608C132.923 22.286 133.027 21.8769 133.024 21.3807ZM136.691 28.2727V16.2727H138.35V17.6875H138.492C138.59 17.5057 138.732 17.2955 138.918 17.0568C139.104 16.8182 139.361 16.6098 139.691 16.4318C140.02 16.25 140.456 16.1591 140.998 16.1591C141.702 16.1591 142.331 16.3371 142.884 16.6932C143.437 17.0492 143.871 17.5625 144.185 18.233C144.503 18.9034 144.662 19.7102 144.662 20.6534C144.662 21.5966 144.505 22.4053 144.191 23.0795C143.876 23.75 143.445 24.267 142.895 24.6307C142.346 24.9905 141.719 25.1705 141.015 25.1705C140.484 25.1705 140.051 25.0814 139.714 24.9034C139.38 24.7254 139.119 24.517 138.929 24.2784C138.74 24.0398 138.594 23.8277 138.492 23.642H138.39V28.2727H136.691ZM138.356 20.6364C138.356 21.25 138.445 21.7879 138.623 22.25C138.801 22.7121 139.058 23.0739 139.395 23.3352C139.732 23.5928 140.145 23.7216 140.634 23.7216C141.142 23.7216 141.566 23.5871 141.907 23.3182C142.248 23.0455 142.505 22.6761 142.679 22.2102C142.857 21.7443 142.946 21.2197 142.946 20.6364C142.946 20.0606 142.859 19.5436 142.685 19.0852C142.515 18.6269 142.257 18.2652 141.912 18C141.571 17.7348 141.145 17.6023 140.634 17.6023C140.142 17.6023 139.725 17.7292 139.384 17.983C139.047 18.2367 138.791 18.5909 138.617 19.0455C138.443 19.5 138.356 20.0303 138.356 20.6364ZM151.859 19.8182V25H150.16V16.2727H151.791V17.6932H151.899C152.1 17.2311 152.414 16.8598 152.842 16.5795C153.274 16.2992 153.817 16.1591 154.473 16.1591C155.067 16.1591 155.588 16.2841 156.035 16.5341C156.482 16.7803 156.829 17.1477 157.075 17.6364C157.321 18.125 157.444 18.7292 157.444 19.4489V25H155.745V19.6534C155.745 19.0208 155.581 18.5265 155.251 18.1705C154.922 17.8106 154.469 17.6307 153.893 17.6307C153.499 17.6307 153.149 17.7159 152.842 17.8864C152.539 18.0568 152.298 18.3068 152.12 18.6364C151.946 18.9621 151.859 19.3561 151.859 19.8182ZM163.079 25.1761C162.261 25.1761 161.547 24.9886 160.937 24.6136C160.327 24.2386 159.853 23.714 159.516 23.0398C159.179 22.3655 159.011 21.5777 159.011 20.6761C159.011 19.7708 159.179 18.9792 159.516 18.3011C159.853 17.6231 160.327 17.0966 160.937 16.7216C161.547 16.3466 162.261 16.1591 163.079 16.1591C163.897 16.1591 164.611 16.3466 165.221 16.7216C165.831 17.0966 166.304 17.6231 166.641 18.3011C166.978 18.9792 167.147 19.7708 167.147 20.6761C167.147 21.5777 166.978 22.3655 166.641 23.0398C166.304 23.714 165.831 24.2386 165.221 24.6136C164.611 24.9886 163.897 25.1761 163.079 25.1761ZM163.084 23.75C163.615 23.75 164.054 23.6098 164.403 23.3295C164.751 23.0492 165.009 22.6761 165.175 22.2102C165.346 21.7443 165.431 21.2311 165.431 20.6705C165.431 20.1136 165.346 19.6023 165.175 19.1364C165.009 18.6667 164.751 18.2898 164.403 18.0057C164.054 17.7216 163.615 17.5795 163.084 17.5795C162.55 17.5795 162.107 17.7216 161.755 18.0057C161.406 18.2898 161.147 18.6667 160.977 19.1364C160.81 19.6023 160.727 20.1136 160.727 20.6705C160.727 21.2311 160.81 21.7443 160.977 22.2102C161.147 22.6761 161.406 23.0492 161.755 23.3295C162.107 23.6098 162.55 23.75 163.084 23.75ZM170.35 25L167.782 16.2727H169.537L171.247 22.6818H171.333L173.049 16.2727H174.804L176.509 22.6534H176.594L178.293 16.2727H180.049L177.486 25H175.753L173.98 18.6989H173.85L172.077 25H170.35Z" fill="black"/>
</svg>
