<svg width="271" height="39" viewBox="0 0 271 39" fill="none" xmlns="http://www.w3.org/2000/svg">
<rect width="271" height="39" rx="10" fill="black"/>
<path d="M73.6534 17.0398C73.5436 16.6951 73.3958 16.3864 73.2102 16.1136C73.0284 15.8371 72.8106 15.6023 72.5568 15.4091C72.303 15.2121 72.0133 15.0625 71.6875 14.9602C71.3655 14.858 71.0114 14.8068 70.625 14.8068C69.9697 14.8068 69.3788 14.9754 68.8523 15.3125C68.3258 15.6496 67.9091 16.1439 67.6023 16.7955C67.2992 17.4432 67.1477 18.2367 67.1477 19.1761C67.1477 20.1193 67.3011 20.9167 67.608 21.5682C67.9148 22.2197 68.3352 22.714 68.8693 23.0511C69.4034 23.3883 70.0114 23.5568 70.6932 23.5568C71.3258 23.5568 71.8769 23.428 72.3466 23.1705C72.8201 22.9129 73.1856 22.5492 73.4432 22.0795C73.7045 21.6061 73.8352 21.0492 73.8352 20.4091L74.2898 20.4943H70.9602V19.0455H75.5341V20.3693C75.5341 21.3466 75.3258 22.1951 74.9091 22.9148C74.4962 23.6307 73.9242 24.1837 73.1932 24.5739C72.4659 24.964 71.6326 25.1591 70.6932 25.1591C69.6402 25.1591 68.7159 24.9167 67.9205 24.4318C67.1288 23.947 66.5114 23.2595 66.0682 22.3693C65.625 21.4754 65.4034 20.4148 65.4034 19.1875C65.4034 18.2595 65.5322 17.4261 65.7898 16.6875C66.0473 15.9489 66.4091 15.322 66.875 14.8068C67.3447 14.2879 67.8958 13.892 68.5284 13.6193C69.1648 13.3428 69.8598 13.2045 70.6136 13.2045C71.2424 13.2045 71.8277 13.2973 72.3693 13.483C72.9148 13.6686 73.3996 13.9318 73.8239 14.2727C74.2519 14.6136 74.6061 15.0189 74.8864 15.4886C75.1667 15.9545 75.3561 16.4716 75.4545 17.0398H73.6534ZM81.0678 25.1761C80.2079 25.1761 79.4674 24.9924 78.8462 24.625C78.2288 24.2538 77.7515 23.733 77.4144 23.0625C77.081 22.3883 76.9144 21.5985 76.9144 20.6932C76.9144 19.7992 77.081 19.0114 77.4144 18.3295C77.7515 17.6477 78.2212 17.1155 78.8235 16.733C79.4295 16.3504 80.1379 16.1591 80.9485 16.1591C81.4409 16.1591 81.9182 16.2405 82.3803 16.4034C82.8424 16.5663 83.2572 16.822 83.6246 17.1705C83.992 17.5189 84.2818 17.9716 84.4939 18.5284C84.706 19.0814 84.8121 19.7538 84.8121 20.5455V21.1477H77.8746V19.875H83.1473C83.1473 19.428 83.0564 19.0322 82.8746 18.6875C82.6928 18.339 82.4371 18.0644 82.1076 17.8636C81.7818 17.6629 81.3992 17.5625 80.9598 17.5625C80.4826 17.5625 80.0659 17.6799 79.7098 17.9148C79.3576 18.1458 79.0848 18.4489 78.8916 18.8239C78.7023 19.1951 78.6076 19.5985 78.6076 20.0341V21.0284C78.6076 21.6117 78.7098 22.108 78.9144 22.517C79.1227 22.9261 79.4125 23.2386 79.7837 23.4545C80.1549 23.6667 80.5886 23.7727 81.0848 23.7727C81.4068 23.7727 81.7004 23.7273 81.9655 23.6364C82.2307 23.5417 82.4598 23.4015 82.653 23.2159C82.8462 23.0303 82.9939 22.8011 83.0962 22.5284L84.7041 22.8182C84.5754 23.2917 84.3443 23.7064 84.011 24.0625C83.6814 24.4148 83.2666 24.6894 82.7666 24.8864C82.2704 25.0795 81.7041 25.1761 81.0678 25.1761ZM90.4509 16.2727V17.6364H85.6839V16.2727H90.4509ZM86.9623 14.1818H88.6611V22.4375C88.6611 22.767 88.7104 23.0152 88.8089 23.1818C88.9073 23.3447 89.0342 23.4564 89.1895 23.517C89.3486 23.5739 89.521 23.6023 89.7066 23.6023C89.843 23.6023 89.9623 23.5928 90.0645 23.5739C90.1668 23.5549 90.2464 23.5398 90.3032 23.5284L90.61 24.9318C90.5115 24.9697 90.3714 25.0076 90.1895 25.0455C90.0077 25.0871 89.7805 25.1098 89.5077 25.1136C89.0608 25.1212 88.6441 25.0417 88.2577 24.875C87.8714 24.7083 87.5589 24.4508 87.3202 24.1023C87.0816 23.7538 86.9623 23.3163 86.9623 22.7898V14.1818ZM102.464 18.4034L100.925 18.6761C100.86 18.4792 100.758 18.2917 100.618 18.1136C100.481 17.9356 100.296 17.7898 100.061 17.6761C99.8261 17.5625 99.5325 17.5057 99.1802 17.5057C98.6992 17.5057 98.2977 17.6136 97.9757 17.8295C97.6537 18.0417 97.4927 18.3163 97.4927 18.6534C97.4927 18.9451 97.6007 19.1799 97.8166 19.358C98.0325 19.536 98.381 19.6818 98.862 19.7955L100.248 20.1136C101.051 20.2992 101.65 20.5852 102.044 20.9716C102.438 21.358 102.635 21.8598 102.635 22.4773C102.635 23 102.483 23.4659 102.18 23.875C101.881 24.2803 101.462 24.5985 100.925 24.8295C100.39 25.0606 99.7711 25.1761 99.0666 25.1761C98.0893 25.1761 97.292 24.9678 96.6745 24.5511C96.0571 24.1307 95.6783 23.5341 95.5382 22.7614L97.1802 22.5114C97.2825 22.9394 97.4927 23.2633 97.8109 23.483C98.1291 23.6989 98.5439 23.8068 99.0552 23.8068C99.612 23.8068 100.057 23.6913 100.39 23.4602C100.724 23.2254 100.89 22.9394 100.89 22.6023C100.89 22.3295 100.788 22.1004 100.584 21.9148C100.383 21.7292 100.074 21.589 99.6575 21.4943L98.1802 21.1705C97.3658 20.9848 96.7636 20.6894 96.3734 20.2841C95.987 19.8788 95.7939 19.3655 95.7939 18.7443C95.7939 18.2292 95.9378 17.7784 96.2257 17.392C96.5136 17.0057 96.9113 16.7045 97.4189 16.4886C97.9264 16.2689 98.5079 16.1591 99.1632 16.1591C100.106 16.1591 100.849 16.3636 101.39 16.7727C101.932 17.178 102.29 17.7216 102.464 18.4034ZM108.257 16.2727V17.6364H103.489V16.2727H108.257ZM104.768 14.1818H106.467V22.4375C106.467 22.767 106.516 23.0152 106.614 23.1818C106.713 23.3447 106.84 23.4564 106.995 23.517C107.154 23.5739 107.327 23.6023 107.512 23.6023C107.649 23.6023 107.768 23.5928 107.87 23.5739C107.972 23.5549 108.052 23.5398 108.109 23.5284L108.416 24.9318C108.317 24.9697 108.177 25.0076 107.995 25.0455C107.813 25.0871 107.586 25.1098 107.313 25.1136C106.866 25.1212 106.45 25.0417 106.063 24.875C105.677 24.7083 105.364 24.4508 105.126 24.1023C104.887 23.7538 104.768 23.3163 104.768 22.7898V14.1818ZM112.356 25.1932C111.803 25.1932 111.303 25.0909 110.856 24.8864C110.409 24.678 110.054 24.3769 109.793 23.983C109.535 23.589 109.407 23.1061 109.407 22.5341C109.407 22.0417 109.501 21.6364 109.691 21.3182C109.88 21 110.136 20.7481 110.458 20.5625C110.78 20.3769 111.14 20.2367 111.537 20.142C111.935 20.0473 112.34 19.9754 112.753 19.9261C113.276 19.8655 113.7 19.8163 114.026 19.7784C114.352 19.7367 114.589 19.6705 114.736 19.5795C114.884 19.4886 114.958 19.3409 114.958 19.1364V19.0966C114.958 18.6004 114.818 18.2159 114.537 17.9432C114.261 17.6705 113.848 17.5341 113.299 17.5341C112.727 17.5341 112.276 17.661 111.946 17.9148C111.621 18.1648 111.395 18.4432 111.27 18.75L109.674 18.3864C109.863 17.8561 110.14 17.428 110.503 17.1023C110.871 16.7727 111.293 16.5341 111.77 16.3864C112.248 16.2348 112.75 16.1591 113.276 16.1591C113.625 16.1591 113.994 16.2008 114.384 16.2841C114.778 16.3636 115.145 16.5114 115.486 16.7273C115.831 16.9432 116.113 17.2519 116.333 17.6534C116.553 18.0511 116.662 18.5682 116.662 19.2045V25H115.003V23.8068H114.935C114.825 24.0265 114.66 24.2424 114.441 24.4545C114.221 24.6667 113.939 24.8428 113.594 24.983C113.25 25.1231 112.837 25.1932 112.356 25.1932ZM112.725 23.8295C113.195 23.8295 113.596 23.7367 113.929 23.5511C114.267 23.3655 114.522 23.1231 114.696 22.8239C114.875 22.5208 114.964 22.197 114.964 21.8523V20.7273C114.903 20.7879 114.785 20.8447 114.611 20.8977C114.441 20.947 114.246 20.9905 114.026 21.0284C113.806 21.0625 113.592 21.0947 113.384 21.125C113.176 21.1515 113.001 21.1742 112.861 21.1932C112.532 21.2348 112.231 21.3049 111.958 21.4034C111.689 21.5019 111.473 21.6439 111.31 21.8295C111.151 22.0114 111.071 22.2538 111.071 22.5568C111.071 22.9773 111.227 23.2955 111.537 23.5114C111.848 23.7235 112.244 23.8295 112.725 23.8295ZM118.605 25V16.2727H120.247V17.6591H120.338C120.497 17.1894 120.778 16.8201 121.179 16.5511C121.584 16.2784 122.043 16.142 122.554 16.142C122.66 16.142 122.785 16.1458 122.929 16.1534C123.077 16.161 123.192 16.1705 123.276 16.1818V17.8068C123.207 17.7879 123.086 17.767 122.912 17.7443C122.738 17.7178 122.564 17.7045 122.389 17.7045C121.988 17.7045 121.63 17.7898 121.315 17.9602C121.005 18.1269 120.759 18.3598 120.577 18.6591C120.395 18.9545 120.304 19.2917 120.304 19.6705V25H118.605ZM129.015 16.2727V17.6364H124.248V16.2727H129.015ZM125.527 14.1818H127.226V22.4375C127.226 22.767 127.275 23.0152 127.373 23.1818C127.472 23.3447 127.599 23.4564 127.754 23.517C127.913 23.5739 128.085 23.6023 128.271 23.6023C128.407 23.6023 128.527 23.5928 128.629 23.5739C128.731 23.5549 128.811 23.5398 128.868 23.5284L129.174 24.9318C129.076 24.9697 128.936 25.0076 128.754 25.0455C128.572 25.0871 128.345 25.1098 128.072 25.1136C127.625 25.1212 127.208 25.0417 126.822 24.875C126.436 24.7083 126.123 24.4508 125.885 24.1023C125.646 23.7538 125.527 23.3163 125.527 22.7898V14.1818ZM134.242 25.1761C133.382 25.1761 132.642 24.9924 132.021 24.625C131.403 24.2538 130.926 23.733 130.589 23.0625C130.255 22.3883 130.089 21.5985 130.089 20.6932C130.089 19.7992 130.255 19.0114 130.589 18.3295C130.926 17.6477 131.396 17.1155 131.998 16.733C132.604 16.3504 133.312 16.1591 134.123 16.1591C134.615 16.1591 135.093 16.2405 135.555 16.4034C136.017 16.5663 136.432 16.822 136.799 17.1705C137.166 17.5189 137.456 17.9716 137.668 18.5284C137.88 19.0814 137.986 19.7538 137.986 20.5455V21.1477H131.049V19.875H136.322C136.322 19.428 136.231 19.0322 136.049 18.6875C135.867 18.339 135.611 18.0644 135.282 17.8636C134.956 17.6629 134.574 17.5625 134.134 17.5625C133.657 17.5625 133.24 17.6799 132.884 17.9148C132.532 18.1458 132.259 18.4489 132.066 18.8239C131.877 19.1951 131.782 19.5985 131.782 20.0341V21.0284C131.782 21.6117 131.884 22.108 132.089 22.517C132.297 22.9261 132.587 23.2386 132.958 23.4545C133.329 23.6667 133.763 23.7727 134.259 23.7727C134.581 23.7727 134.875 23.7273 135.14 23.6364C135.405 23.5417 135.634 23.4015 135.827 23.2159C136.021 23.0303 136.168 22.8011 136.271 22.5284L137.879 22.8182C137.75 23.2917 137.519 23.7064 137.185 24.0625C136.856 24.4148 136.441 24.6894 135.941 24.8864C135.445 25.0795 134.879 25.1761 134.242 25.1761ZM142.818 25.1705C142.114 25.1705 141.485 24.9905 140.932 24.6307C140.383 24.267 139.951 23.75 139.637 23.0795C139.326 22.4053 139.171 21.5966 139.171 20.6534C139.171 19.7102 139.328 18.9034 139.642 18.233C139.961 17.5625 140.396 17.0492 140.949 16.6932C141.502 16.3371 142.129 16.1591 142.83 16.1591C143.371 16.1591 143.807 16.25 144.137 16.4318C144.47 16.6098 144.728 16.8182 144.909 17.0568C145.095 17.2955 145.239 17.5057 145.341 17.6875H145.443V13.3636H147.142V25H145.483V23.642H145.341C145.239 23.8277 145.091 24.0398 144.898 24.2784C144.709 24.517 144.447 24.7254 144.114 24.9034C143.781 25.0814 143.349 25.1705 142.818 25.1705ZM143.193 23.7216C143.682 23.7216 144.095 23.5928 144.432 23.3352C144.773 23.0739 145.031 22.7121 145.205 22.25C145.383 21.7879 145.472 21.25 145.472 20.6364C145.472 20.0303 145.385 19.5 145.211 19.0455C145.036 18.5909 144.781 18.2367 144.443 17.983C144.106 17.7292 143.69 17.6023 143.193 17.6023C142.682 17.6023 142.256 17.7348 141.915 18C141.574 18.2652 141.317 18.6269 141.142 19.0852C140.972 19.5436 140.887 20.0606 140.887 20.6364C140.887 21.2197 140.974 21.7443 141.148 22.2102C141.322 22.6761 141.58 23.0455 141.921 23.3182C142.265 23.5871 142.69 23.7216 143.193 23.7216ZM157.315 16.2727V17.6364H152.383V16.2727H157.315ZM153.735 25V15.2614C153.735 14.7159 153.855 14.2633 154.093 13.9034C154.332 13.5398 154.648 13.2689 155.042 13.0909C155.436 12.9091 155.864 12.8182 156.326 12.8182C156.667 12.8182 156.959 12.8466 157.201 12.9034C157.444 12.9564 157.624 13.0057 157.741 13.0511L157.343 14.4261C157.264 14.4034 157.161 14.3769 157.036 14.3466C156.911 14.3125 156.76 14.2955 156.582 14.2955C156.169 14.2955 155.874 14.3977 155.696 14.6023C155.521 14.8068 155.434 15.1023 155.434 15.4886V25H153.735ZM162.08 25.1761C161.262 25.1761 160.548 24.9886 159.938 24.6136C159.328 24.2386 158.855 23.714 158.518 23.0398C158.18 22.3655 158.012 21.5777 158.012 20.6761C158.012 19.7708 158.18 18.9792 158.518 18.3011C158.855 17.6231 159.328 17.0966 159.938 16.7216C160.548 16.3466 161.262 16.1591 162.08 16.1591C162.898 16.1591 163.612 16.3466 164.222 16.7216C164.832 17.0966 165.305 17.6231 165.643 18.3011C165.98 18.9792 166.148 19.7708 166.148 20.6761C166.148 21.5777 165.98 22.3655 165.643 23.0398C165.305 23.714 164.832 24.2386 164.222 24.6136C163.612 24.9886 162.898 25.1761 162.08 25.1761ZM162.086 23.75C162.616 23.75 163.055 23.6098 163.404 23.3295C163.752 23.0492 164.01 22.6761 164.177 22.2102C164.347 21.7443 164.432 21.2311 164.432 20.6705C164.432 20.1136 164.347 19.6023 164.177 19.1364C164.01 18.6667 163.752 18.2898 163.404 18.0057C163.055 17.7216 162.616 17.5795 162.086 17.5795C161.552 17.5795 161.108 17.7216 160.756 18.0057C160.408 18.2898 160.148 18.6667 159.978 19.1364C159.811 19.6023 159.728 20.1136 159.728 20.6705C159.728 21.2311 159.811 21.7443 159.978 22.2102C160.148 22.6761 160.408 23.0492 160.756 23.3295C161.108 23.6098 161.552 23.75 162.086 23.75ZM167.725 25V16.2727H169.367V17.6591H169.457C169.617 17.1894 169.897 16.8201 170.298 16.5511C170.704 16.2784 171.162 16.142 171.673 16.142C171.779 16.142 171.904 16.1458 172.048 16.1534C172.196 16.161 172.312 16.1705 172.395 16.1818V17.8068C172.327 17.7879 172.206 17.767 172.031 17.7443C171.857 17.7178 171.683 17.7045 171.509 17.7045C171.107 17.7045 170.749 17.7898 170.435 17.9602C170.124 18.1269 169.878 18.3598 169.696 18.6591C169.514 18.9545 169.423 19.2917 169.423 19.6705V25H167.725ZM181.613 16.2727V17.6364H176.681V16.2727H181.613ZM178.033 25V15.2614C178.033 14.7159 178.153 14.2633 178.391 13.9034C178.63 13.5398 178.946 13.2689 179.34 13.0909C179.734 12.9091 180.162 12.8182 180.624 12.8182C180.965 12.8182 181.257 12.8466 181.499 12.9034C181.742 12.9564 181.922 13.0057 182.039 13.0511L181.641 14.4261C181.562 14.4034 181.46 14.3769 181.335 14.3466C181.21 14.3125 181.058 14.2955 180.88 14.2955C180.467 14.2955 180.172 14.3977 179.994 14.6023C179.819 14.8068 179.732 15.1023 179.732 15.4886V25H178.033ZM183.046 25V16.2727H184.688V17.6591H184.779C184.938 17.1894 185.218 16.8201 185.62 16.5511C186.025 16.2784 186.483 16.142 186.995 16.142C187.101 16.142 187.226 16.1458 187.37 16.1534C187.517 16.161 187.633 16.1705 187.716 16.1818V17.8068C187.648 17.7879 187.527 17.767 187.353 17.7443C187.178 17.7178 187.004 17.7045 186.83 17.7045C186.428 17.7045 186.07 17.7898 185.756 17.9602C185.445 18.1269 185.199 18.3598 185.017 18.6591C184.836 18.9545 184.745 19.2917 184.745 19.6705V25H183.046ZM192.315 25.1761C191.455 25.1761 190.715 24.9924 190.094 24.625C189.476 24.2538 188.999 23.733 188.662 23.0625C188.329 22.3883 188.162 21.5985 188.162 20.6932C188.162 19.7992 188.329 19.0114 188.662 18.3295C188.999 17.6477 189.469 17.1155 190.071 16.733C190.677 16.3504 191.385 16.1591 192.196 16.1591C192.688 16.1591 193.166 16.2405 193.628 16.4034C194.09 16.5663 194.505 16.822 194.872 17.1705C195.24 17.5189 195.529 17.9716 195.741 18.5284C195.954 19.0814 196.06 19.7538 196.06 20.5455V21.1477H189.122V19.875H194.395C194.395 19.428 194.304 19.0322 194.122 18.6875C193.94 18.339 193.685 18.0644 193.355 17.8636C193.029 17.6629 192.647 17.5625 192.207 17.5625C191.73 17.5625 191.313 17.6799 190.957 17.9148C190.605 18.1458 190.332 18.4489 190.139 18.8239C189.95 19.1951 189.855 19.5985 189.855 20.0341V21.0284C189.855 21.6117 189.957 22.108 190.162 22.517C190.37 22.9261 190.66 23.2386 191.031 23.4545C191.402 23.6667 191.836 23.7727 192.332 23.7727C192.654 23.7727 192.948 23.7273 193.213 23.6364C193.478 23.5417 193.707 23.4015 193.901 23.2159C194.094 23.0303 194.241 22.8011 194.344 22.5284L195.952 22.8182C195.823 23.2917 195.592 23.7064 195.258 24.0625C194.929 24.4148 194.514 24.6894 194.014 24.8864C193.518 25.0795 192.952 25.1761 192.315 25.1761ZM201.386 25.1761C200.526 25.1761 199.786 24.9924 199.164 24.625C198.547 24.2538 198.07 23.733 197.732 23.0625C197.399 22.3883 197.232 21.5985 197.232 20.6932C197.232 19.7992 197.399 19.0114 197.732 18.3295C198.07 17.6477 198.539 17.1155 199.142 16.733C199.748 16.3504 200.456 16.1591 201.267 16.1591C201.759 16.1591 202.236 16.2405 202.698 16.4034C203.161 16.5663 203.575 16.822 203.943 17.1705C204.31 17.5189 204.6 17.9716 204.812 18.5284C205.024 19.0814 205.13 19.7538 205.13 20.5455V21.1477H198.193V19.875H203.465C203.465 19.428 203.375 19.0322 203.193 18.6875C203.011 18.339 202.755 18.0644 202.426 17.8636C202.1 17.6629 201.717 17.5625 201.278 17.5625C200.801 17.5625 200.384 17.6799 200.028 17.9148C199.676 18.1458 199.403 18.4489 199.21 18.8239C199.02 19.1951 198.926 19.5985 198.926 20.0341V21.0284C198.926 21.6117 199.028 22.108 199.232 22.517C199.441 22.9261 199.731 23.2386 200.102 23.4545C200.473 23.6667 200.907 23.7727 201.403 23.7727C201.725 23.7727 202.018 23.7273 202.284 23.6364C202.549 23.5417 202.778 23.4015 202.971 23.2159C203.164 23.0303 203.312 22.8011 203.414 22.5284L205.022 22.8182C204.893 23.2917 204.662 23.7064 204.329 24.0625C204 24.4148 203.585 24.6894 203.085 24.8864C202.589 25.0795 202.022 25.1761 201.386 25.1761Z" fill="white"/>
</svg>
