<svg width="228" height="200" viewBox="0 0 228 200" fill="none" xmlns="http://www.w3.org/2000/svg">
<path d="M19.8367 8.43673L10.2367 18.0367C10.1531 18.1206 10.0538 18.1872 9.94438 18.2326C9.83498 18.2781 9.71769 18.3014 9.59924 18.3014C9.48079 18.3014 9.3635 18.2781 9.25411 18.2326C9.14471 18.1872 9.04535 18.1206 8.96174 18.0367L4.76174 13.8367C4.67802 13.753 4.61162 13.6536 4.56631 13.5442C4.521 13.4349 4.49768 13.3176 4.49768 13.1992C4.49768 13.0808 4.521 12.9636 4.56631 12.8542C4.61162 12.7448 4.67802 12.6454 4.76174 12.5617C4.84546 12.478 4.94485 12.4116 5.05423 12.3663C5.16361 12.321 5.28085 12.2977 5.39924 12.2977C5.51764 12.2977 5.63487 12.321 5.74425 12.3663C5.85364 12.4116 5.95302 12.478 6.03674 12.5617L9.59999 16.125L18.5632 7.16323C18.7323 6.99416 18.9616 6.89917 19.2007 6.89917C19.4398 6.89917 19.6692 6.99416 19.8382 7.16323C20.0073 7.33231 20.1023 7.56162 20.1023 7.80073C20.1023 8.03984 20.0073 8.26916 19.8382 8.43823L19.8367 8.43673Z" fill="black"/>
<path d="M47.9148 7.31818H49.1477V14.0597C49.1477 14.7557 48.9837 15.3771 48.6555 15.924C48.3307 16.4676 47.8717 16.8968 47.2784 17.2116C46.6851 17.5232 45.9891 17.679 45.1903 17.679C44.3916 17.679 43.6955 17.5232 43.1023 17.2116C42.509 16.8968 42.0483 16.4676 41.7202 15.924C41.3954 15.3771 41.233 14.7557 41.233 14.0597V7.31818H42.4659V13.9602C42.4659 14.4574 42.5753 14.8999 42.794 15.2876C43.0128 15.6721 43.3243 15.9754 43.7287 16.1974C44.1364 16.4162 44.6236 16.5256 45.1903 16.5256C45.7571 16.5256 46.2443 16.4162 46.652 16.1974C47.0597 15.9754 47.3712 15.6721 47.5866 15.2876C47.8054 14.8999 47.9148 14.4574 47.9148 13.9602V7.31818ZM51.4508 20.3636V9.86364H52.5843V11.0767H52.7235C52.8097 10.9441 52.929 10.7751 53.0815 10.5696C53.2373 10.3608 53.4593 10.1752 53.7477 10.0128C54.0394 9.84706 54.4338 9.7642 54.9309 9.7642C55.5739 9.7642 56.1407 9.92495 56.6312 10.2464C57.1217 10.5679 57.5046 11.0237 57.7797 11.6136C58.0547 12.2036 58.1923 12.8996 58.1923 13.7017C58.1923 14.5104 58.0547 15.2114 57.7797 15.8047C57.5046 16.3946 57.1234 16.852 56.6362 17.1768C56.149 17.4983 55.5872 17.6591 54.9508 17.6591C54.4603 17.6591 54.0675 17.5779 53.7725 17.4155C53.4776 17.2498 53.2505 17.0625 53.0914 16.8537C52.9324 16.6416 52.8097 16.4659 52.7235 16.3267H52.6241V20.3636H51.4508ZM52.6042 13.6818C52.6042 14.2585 52.6887 14.7673 52.8578 15.2081C53.0268 15.6456 53.2737 15.9886 53.5985 16.2372C53.9234 16.4825 54.3211 16.6051 54.7917 16.6051C55.2823 16.6051 55.6916 16.4759 56.0197 16.2173C56.3511 15.9555 56.5997 15.6042 56.7654 15.1634C56.9345 14.7192 57.019 14.2254 57.019 13.6818C57.019 13.1449 56.9361 12.661 56.7704 12.2301C56.608 11.7959 56.3611 11.4529 56.0297 11.201C55.7015 10.9458 55.2889 10.8182 54.7917 10.8182C54.3145 10.8182 53.9134 10.9392 53.5886 11.1811C53.2638 11.4197 53.0185 11.7545 52.8528 12.1854C52.6871 12.6129 52.6042 13.1117 52.6042 13.6818ZM67.2406 9.86364V10.858H63.2832V9.86364H67.2406ZM64.4366 8.03409H65.6099V15.3125C65.6099 15.6439 65.658 15.8925 65.7541 16.0582C65.8535 16.2206 65.9795 16.33 66.1319 16.3864C66.2877 16.4394 66.4518 16.4659 66.6241 16.4659C66.7534 16.4659 66.8594 16.4593 66.9423 16.446C67.0252 16.4295 67.0914 16.4162 67.1412 16.4062L67.3798 17.4602C67.3002 17.4901 67.1892 17.5199 67.0467 17.5497C66.9042 17.5829 66.7235 17.5994 66.5048 17.5994C66.1734 17.5994 65.8485 17.5282 65.5304 17.3857C65.2155 17.2431 64.9537 17.026 64.7449 16.7344C64.5394 16.4427 64.4366 16.0748 64.4366 15.6307V8.03409ZM72.0257 17.6591C71.3364 17.6591 70.7315 17.495 70.2111 17.1669C69.6941 16.8388 69.2897 16.3797 68.998 15.7898C68.7097 15.1998 68.5655 14.5104 68.5655 13.7216C68.5655 12.9261 68.7097 12.2318 68.998 11.6385C69.2897 11.0452 69.6941 10.5845 70.2111 10.2564C70.7315 9.92827 71.3364 9.7642 72.0257 9.7642C72.7151 9.7642 73.3184 9.92827 73.8354 10.2564C74.3558 10.5845 74.7601 11.0452 75.0485 11.6385C75.3401 12.2318 75.486 12.9261 75.486 13.7216C75.486 14.5104 75.3401 15.1998 75.0485 15.7898C74.7601 16.3797 74.3558 16.8388 73.8354 17.1669C73.3184 17.495 72.7151 17.6591 72.0257 17.6591ZM72.0257 16.6051C72.5494 16.6051 72.9803 16.4709 73.3184 16.2024C73.6564 15.9339 73.9067 15.581 74.0691 15.1435C74.2315 14.706 74.3127 14.232 74.3127 13.7216C74.3127 13.2112 74.2315 12.7356 74.0691 12.2947C73.9067 11.8539 73.6564 11.4976 73.3184 11.2259C72.9803 10.9541 72.5494 10.8182 72.0257 10.8182C71.5021 10.8182 71.0712 10.9541 70.7331 11.2259C70.3951 11.4976 70.1448 11.8539 69.9824 12.2947C69.82 12.7356 69.7388 13.2112 69.7388 13.7216C69.7388 14.232 69.82 14.706 69.9824 15.1435C70.1448 15.581 70.3951 15.9339 70.7331 16.2024C71.0712 16.4709 71.5021 16.6051 72.0257 16.6051ZM84.3764 17.6392C83.7931 17.6392 83.2678 17.5232 82.8004 17.2912C82.3331 17.0592 81.9586 16.741 81.6768 16.3366C81.3951 15.9323 81.241 15.4716 81.2145 14.9545H82.4077C82.4541 15.4152 82.6629 15.7964 83.0341 16.098C83.4086 16.3963 83.8561 16.5455 84.3764 16.5455C84.794 16.5455 85.1652 16.4477 85.4901 16.2521C85.8182 16.0566 86.075 15.7881 86.2607 15.4467C86.4496 15.102 86.544 14.7126 86.544 14.2784C86.544 13.8343 86.4463 13.4382 86.2507 13.0902C86.0585 12.7389 85.7933 12.4621 85.4553 12.2599C85.1172 12.0578 84.7311 11.955 84.2969 11.9517C83.9853 11.9484 83.6655 11.9964 83.3374 12.0959C83.0092 12.192 82.7391 12.3163 82.527 12.4688L81.3736 12.3295L81.9901 7.31818H87.2798V8.41193H83.0241L82.6662 11.4148H82.7259C82.9347 11.2491 83.1965 11.1115 83.5114 11.0021C83.8262 10.8928 84.1544 10.8381 84.4957 10.8381C85.1188 10.8381 85.674 10.9872 86.1612 11.2855C86.6518 11.5805 87.0362 11.9848 87.3146 12.4986C87.5964 13.0123 87.7372 13.599 87.7372 14.2585C87.7372 14.9081 87.5914 15.4882 87.2997 15.9986C87.0114 16.5057 86.6136 16.9067 86.1065 17.2017C85.5994 17.4934 85.0227 17.6392 84.3764 17.6392ZM93.6696 20.3636V9.86364H94.8031V11.0767H94.9423C95.0285 10.9441 95.1478 10.7751 95.3002 10.5696C95.456 10.3608 95.6781 10.1752 95.9664 10.0128C96.2581 9.84706 96.6525 9.7642 97.1497 9.7642C97.7927 9.7642 98.3594 9.92495 98.85 10.2464C99.3405 10.5679 99.7233 11.0237 99.9984 11.6136C100.273 12.2036 100.411 12.8996 100.411 13.7017C100.411 14.5104 100.273 15.2114 99.9984 15.8047C99.7233 16.3946 99.3422 16.852 98.8549 17.1768C98.3677 17.4983 97.8059 17.6591 97.1696 17.6591C96.679 17.6591 96.2863 17.5779 95.9913 17.4155C95.6963 17.2498 95.4693 17.0625 95.3102 16.8537C95.1511 16.6416 95.0285 16.4659 94.9423 16.3267H94.8429V20.3636H93.6696ZM94.823 13.6818C94.823 14.2585 94.9075 14.7673 95.0765 15.2081C95.2456 15.6456 95.4925 15.9886 95.8173 16.2372C96.1421 16.4825 96.5398 16.6051 97.0105 16.6051C97.501 16.6051 97.9103 16.4759 98.2385 16.2173C98.5699 15.9555 98.8185 15.6042 98.9842 15.1634C99.1532 14.7192 99.2377 14.2254 99.2377 13.6818C99.2377 13.1449 99.1549 12.661 98.9892 12.2301C98.8268 11.7959 98.5798 11.4529 98.2484 11.201C97.9203 10.9458 97.5076 10.8182 97.0105 10.8182C96.5332 10.8182 96.1322 10.9392 95.8074 11.1811C95.4825 11.4197 95.2373 11.7545 95.0716 12.1854C94.9058 12.6129 94.823 13.1117 94.823 13.6818ZM102.201 17.5V9.86364H103.334V11.017H103.414C103.553 10.6392 103.805 10.3326 104.17 10.0973C104.534 9.86198 104.945 9.74432 105.403 9.74432C105.489 9.74432 105.596 9.74597 105.726 9.74929C105.855 9.7526 105.953 9.75758 106.019 9.7642V10.9574C105.979 10.9474 105.888 10.9325 105.746 10.9126C105.606 10.8894 105.459 10.8778 105.303 10.8778C104.932 10.8778 104.6 10.9557 104.309 11.1115C104.02 11.264 103.792 11.4761 103.623 11.7479C103.457 12.0163 103.374 12.3229 103.374 12.6676V17.5H102.201ZM110.28 17.6591C109.59 17.6591 108.985 17.495 108.465 17.1669C107.948 16.8388 107.544 16.3797 107.252 15.7898C106.964 15.1998 106.819 14.5104 106.819 13.7216C106.819 12.9261 106.964 12.2318 107.252 11.6385C107.544 11.0452 107.948 10.5845 108.465 10.2564C108.985 9.92827 109.59 9.7642 110.28 9.7642C110.969 9.7642 111.572 9.92827 112.089 10.2564C112.61 10.5845 113.014 11.0452 113.302 11.6385C113.594 12.2318 113.74 12.9261 113.74 13.7216C113.74 14.5104 113.594 15.1998 113.302 15.7898C113.014 16.3797 112.61 16.8388 112.089 17.1669C111.572 17.495 110.969 17.6591 110.28 17.6591ZM110.28 16.6051C110.803 16.6051 111.234 16.4709 111.572 16.2024C111.91 15.9339 112.161 15.581 112.323 15.1435C112.485 14.706 112.567 14.232 112.567 13.7216C112.567 13.2112 112.485 12.7356 112.323 12.2947C112.161 11.8539 111.91 11.4976 111.572 11.2259C111.234 10.9541 110.803 10.8182 110.28 10.8182C109.756 10.8182 109.325 10.9541 108.987 11.2259C108.649 11.4976 108.399 11.8539 108.236 12.2947C108.074 12.7356 107.993 13.2112 107.993 13.7216C107.993 14.232 108.074 14.706 108.236 15.1435C108.399 15.581 108.649 15.9339 108.987 16.2024C109.325 16.4709 109.756 16.6051 110.28 16.6051ZM115.531 9.86364H116.704V18.0568C116.704 18.5275 116.623 18.9351 116.461 19.2798C116.301 19.6245 116.06 19.8913 115.735 20.0803C115.413 20.2692 115.007 20.3636 114.517 20.3636C114.477 20.3636 114.437 20.3636 114.397 20.3636C114.358 20.3636 114.318 20.3636 114.278 20.3636V19.2699C114.318 19.2699 114.354 19.2699 114.387 19.2699C114.421 19.2699 114.457 19.2699 114.497 19.2699C114.855 19.2699 115.117 19.1638 115.282 18.9517C115.448 18.7429 115.531 18.4446 115.531 18.0568V9.86364ZM116.108 8.59091C115.879 8.59091 115.682 8.51302 115.516 8.35724C115.354 8.20147 115.272 8.0142 115.272 7.79545C115.272 7.5767 115.354 7.38944 115.516 7.23366C115.682 7.07789 115.879 7 116.108 7C116.336 7 116.532 7.07789 116.694 7.23366C116.86 7.38944 116.943 7.5767 116.943 7.79545C116.943 8.0142 116.86 8.20147 116.694 8.35724C116.532 8.51302 116.336 8.59091 116.108 8.59091ZM122.055 17.6591C121.319 17.6591 120.684 17.4967 120.151 17.1719C119.62 16.8438 119.211 16.3864 118.923 15.7997C118.638 15.2098 118.495 14.5237 118.495 13.7415C118.495 12.9593 118.638 12.2699 118.923 11.6733C119.211 11.0734 119.612 10.6061 120.126 10.2713C120.643 9.93324 121.246 9.7642 121.936 9.7642C122.333 9.7642 122.726 9.83049 123.114 9.96307C123.502 10.0956 123.855 10.3111 124.173 10.6094C124.491 10.9044 124.744 11.2955 124.933 11.7827C125.122 12.2699 125.217 12.8698 125.217 13.5824V14.0795H119.33V13.0653H124.024C124.024 12.6345 123.937 12.25 123.765 11.9119C123.596 11.5739 123.354 11.3071 123.039 11.1115C122.728 10.916 122.36 10.8182 121.936 10.8182C121.468 10.8182 121.064 10.9342 120.722 11.1662C120.384 11.3949 120.124 11.6932 119.942 12.0611C119.76 12.429 119.669 12.8234 119.669 13.2443V13.9205C119.669 14.4972 119.768 14.986 119.967 15.3871C120.169 15.7848 120.449 16.0881 120.807 16.2969C121.165 16.5024 121.581 16.6051 122.055 16.6051C122.363 16.6051 122.642 16.562 122.89 16.4759C123.142 16.3864 123.359 16.2538 123.541 16.0781C123.724 15.8991 123.865 15.6771 123.964 15.4119L125.097 15.7301C124.978 16.1146 124.778 16.4527 124.496 16.7443C124.214 17.0327 123.866 17.258 123.452 17.4205C123.038 17.5795 122.572 17.6591 122.055 17.6591ZM130.104 17.6591C129.388 17.6591 128.771 17.4901 128.254 17.152C127.737 16.8139 127.34 16.3482 127.061 15.755C126.783 15.1617 126.644 14.4839 126.644 13.7216C126.644 12.946 126.786 12.2616 127.071 11.6683C127.36 11.0717 127.761 10.6061 128.274 10.2713C128.791 9.93324 129.395 9.7642 130.084 9.7642C130.621 9.7642 131.105 9.86364 131.536 10.0625C131.967 10.2614 132.32 10.5398 132.595 10.8977C132.87 11.2557 133.04 11.6733 133.107 12.1506H131.933C131.844 11.8026 131.645 11.4943 131.337 11.2259C131.032 10.9541 130.621 10.8182 130.104 10.8182C129.646 10.8182 129.245 10.9375 128.901 11.1761C128.559 11.4115 128.293 11.7446 128.1 12.1754C127.911 12.603 127.817 13.1051 127.817 13.6818C127.817 14.2718 127.91 14.7855 128.095 15.223C128.284 15.6605 128.549 16.0002 128.891 16.2422C129.235 16.4841 129.64 16.6051 130.104 16.6051C130.409 16.6051 130.686 16.5521 130.934 16.446C131.183 16.34 131.393 16.1875 131.566 15.9886C131.738 15.7898 131.86 15.5511 131.933 15.2727H133.107C133.04 15.7235 132.876 16.1295 132.615 16.4908C132.356 16.8487 132.013 17.1338 131.585 17.3459C131.161 17.5547 130.667 17.6591 130.104 17.6591ZM138.143 9.86364V10.858H134.186V9.86364H138.143ZM135.339 8.03409H136.512V15.3125C136.512 15.6439 136.56 15.8925 136.656 16.0582C136.756 16.2206 136.882 16.33 137.034 16.3864C137.19 16.4394 137.354 16.4659 137.526 16.4659C137.656 16.4659 137.762 16.4593 137.845 16.446C137.927 16.4295 137.994 16.4162 138.044 16.4062L138.282 17.4602C138.203 17.4901 138.092 17.5199 137.949 17.5497C137.807 17.5829 137.626 17.5994 137.407 17.5994C137.076 17.5994 136.751 17.5282 136.433 17.3857C136.118 17.2431 135.856 17.026 135.647 16.7344C135.442 16.4427 135.339 16.0748 135.339 15.6307V8.03409ZM143.845 17.5V9.86364H144.979V11.0568H145.078C145.237 10.6491 145.494 10.3326 145.849 10.1072C146.204 9.87855 146.629 9.7642 147.127 9.7642C147.63 9.7642 148.05 9.87855 148.384 10.1072C148.722 10.3326 148.986 10.6491 149.175 11.0568H149.254C149.45 10.6624 149.743 10.3492 150.134 10.1172C150.526 9.88187 150.994 9.7642 151.541 9.7642C152.224 9.7642 152.783 9.97798 153.217 10.4055C153.651 10.8298 153.868 11.491 153.868 12.3892V17.5H152.695V12.3892C152.695 11.8258 152.541 11.4231 152.232 11.1811C151.924 10.9392 151.561 10.8182 151.144 10.8182C150.607 10.8182 150.191 10.9806 149.896 11.3054C149.601 11.6269 149.453 12.0346 149.453 12.5284V17.5H148.26V12.2699C148.26 11.8357 148.119 11.486 147.838 11.2209C147.556 10.9524 147.193 10.8182 146.749 10.8182C146.444 10.8182 146.159 10.8994 145.894 11.0618C145.632 11.2242 145.42 11.4496 145.257 11.7379C145.098 12.023 145.019 12.3527 145.019 12.7273V17.5H143.845ZM159.215 17.6591C158.479 17.6591 157.845 17.4967 157.311 17.1719C156.781 16.8438 156.371 16.3864 156.083 15.7997C155.798 15.2098 155.655 14.5237 155.655 13.7415C155.655 12.9593 155.798 12.2699 156.083 11.6733C156.371 11.0734 156.772 10.6061 157.286 10.2713C157.803 9.93324 158.406 9.7642 159.096 9.7642C159.493 9.7642 159.886 9.83049 160.274 9.96307C160.662 10.0956 161.015 10.3111 161.333 10.6094C161.651 10.9044 161.905 11.2955 162.094 11.7827C162.282 12.2699 162.377 12.8698 162.377 13.5824V14.0795H156.491V13.0653H161.184C161.184 12.6345 161.098 12.25 160.925 11.9119C160.756 11.5739 160.514 11.3071 160.199 11.1115C159.888 10.916 159.52 10.8182 159.096 10.8182C158.628 10.8182 158.224 10.9342 157.883 11.1662C157.545 11.3949 157.284 11.6932 157.102 12.0611C156.92 12.429 156.829 12.8234 156.829 13.2443V13.9205C156.829 14.4972 156.928 14.986 157.127 15.3871C157.329 15.7848 157.609 16.0881 157.967 16.2969C158.325 16.5024 158.741 16.6051 159.215 16.6051C159.523 16.6051 159.802 16.562 160.05 16.4759C160.302 16.3864 160.519 16.2538 160.702 16.0781C160.884 15.8991 161.025 15.6771 161.124 15.4119L162.258 15.7301C162.138 16.1146 161.938 16.4527 161.656 16.7443C161.374 17.0327 161.026 17.258 160.612 17.4205C160.198 17.5795 159.732 17.6591 159.215 17.6591ZM164.162 17.5V9.86364H165.295V11.0568H165.395C165.554 10.6491 165.811 10.3326 166.165 10.1072C166.52 9.87855 166.946 9.7642 167.443 9.7642C167.947 9.7642 168.366 9.87855 168.701 10.1072C169.039 10.3326 169.302 10.6491 169.491 11.0568H169.571C169.766 10.6624 170.06 10.3492 170.451 10.1172C170.842 9.88187 171.311 9.7642 171.858 9.7642C172.541 9.7642 173.099 9.97798 173.533 10.4055C173.967 10.8298 174.184 11.491 174.184 12.3892V17.5H173.011V12.3892C173.011 11.8258 172.857 11.4231 172.549 11.1811C172.241 10.9392 171.878 10.8182 171.46 10.8182C170.923 10.8182 170.507 10.9806 170.212 11.3054C169.917 11.6269 169.77 12.0346 169.77 12.5284V17.5H168.577V12.2699C168.577 11.8357 168.436 11.486 168.154 11.2209C167.872 10.9524 167.509 10.8182 167.065 10.8182C166.76 10.8182 166.475 10.8994 166.21 11.0618C165.948 11.2242 165.736 11.4496 165.574 11.7379C165.415 12.023 165.335 12.3527 165.335 12.7273V17.5H164.162ZM176.489 17.5V7.31818H177.662V11.0767H177.762C177.848 10.9441 177.967 10.7751 178.119 10.5696C178.275 10.3608 178.497 10.1752 178.786 10.0128C179.077 9.84706 179.472 9.7642 179.969 9.7642C180.612 9.7642 181.179 9.92495 181.669 10.2464C182.16 10.5679 182.543 11.0237 182.818 11.6136C183.093 12.2036 183.23 12.8996 183.23 13.7017C183.23 14.5104 183.093 15.2114 182.818 15.8047C182.543 16.3946 182.161 16.852 181.674 17.1768C181.187 17.4983 180.625 17.6591 179.989 17.6591C179.498 17.6591 179.106 17.5779 178.811 17.4155C178.516 17.2498 178.289 17.0625 178.129 16.8537C177.97 16.6416 177.848 16.4659 177.762 16.3267H177.622V17.5H176.489ZM177.642 13.6818C177.642 14.2585 177.727 14.7673 177.896 15.2081C178.065 15.6456 178.312 15.9886 178.637 16.2372C178.961 16.4825 179.359 16.6051 179.83 16.6051C180.32 16.6051 180.73 16.4759 181.058 16.2173C181.389 15.9555 181.638 15.6042 181.803 15.1634C181.972 14.7192 182.057 14.2254 182.057 13.6818C182.057 13.1449 181.974 12.661 181.808 12.2301C181.646 11.7959 181.399 11.4529 181.068 11.201C180.74 10.9458 180.327 10.8182 179.83 10.8182C179.352 10.8182 178.951 10.9392 178.627 11.1811C178.302 11.4197 178.057 11.7545 177.891 12.1854C177.725 12.6129 177.642 13.1117 177.642 13.6818ZM188.227 17.6591C187.491 17.6591 186.856 17.4967 186.323 17.1719C185.792 16.8438 185.383 16.3864 185.095 15.7997C184.81 15.2098 184.667 14.5237 184.667 13.7415C184.667 12.9593 184.81 12.2699 185.095 11.6733C185.383 11.0734 185.784 10.6061 186.298 10.2713C186.815 9.93324 187.418 9.7642 188.107 9.7642C188.505 9.7642 188.898 9.83049 189.286 9.96307C189.673 10.0956 190.026 10.3111 190.345 10.6094C190.663 10.9044 190.916 11.2955 191.105 11.7827C191.294 12.2699 191.389 12.8698 191.389 13.5824V14.0795H185.502V13.0653H190.195C190.195 12.6345 190.109 12.25 189.937 11.9119C189.768 11.5739 189.526 11.3071 189.211 11.1115C188.9 10.916 188.532 10.8182 188.107 10.8182C187.64 10.8182 187.236 10.9342 186.894 11.1662C186.556 11.3949 186.296 11.6932 186.114 12.0611C185.932 12.429 185.84 12.8234 185.84 13.2443V13.9205C185.84 14.4972 185.94 14.986 186.139 15.3871C186.341 15.7848 186.621 16.0881 186.979 16.2969C187.337 16.5024 187.753 16.6051 188.227 16.6051C188.535 16.6051 188.813 16.562 189.062 16.4759C189.314 16.3864 189.531 16.2538 189.713 16.0781C189.896 15.8991 190.036 15.6771 190.136 15.4119L191.269 15.7301C191.15 16.1146 190.95 16.4527 190.668 16.7443C190.386 17.0327 190.038 17.258 189.624 17.4205C189.209 17.5795 188.744 17.6591 188.227 17.6591ZM193.173 17.5V9.86364H194.307V11.017H194.387C194.526 10.6392 194.778 10.3326 195.142 10.0973C195.507 9.86198 195.918 9.74432 196.375 9.74432C196.461 9.74432 196.569 9.74597 196.698 9.74929C196.828 9.7526 196.925 9.75758 196.992 9.7642V10.9574C196.952 10.9474 196.861 10.9325 196.718 10.9126C196.579 10.8894 196.432 10.8778 196.276 10.8778C195.905 10.8778 195.573 10.9557 195.281 11.1115C194.993 11.264 194.764 11.4761 194.595 11.7479C194.43 12.0163 194.347 12.3229 194.347 12.6676V17.5H193.173ZM203.792 11.5739L202.738 11.8722C202.671 11.6965 202.574 11.5258 202.444 11.3601C202.318 11.1911 202.146 11.0518 201.927 10.9425C201.708 10.8331 201.428 10.7784 201.087 10.7784C200.62 10.7784 200.23 10.8861 199.919 11.1016C199.61 11.3137 199.456 11.5838 199.456 11.9119C199.456 12.2036 199.562 12.4339 199.775 12.603C199.987 12.772 200.318 12.9129 200.769 13.0256L201.902 13.304C202.585 13.4697 203.094 13.7232 203.429 14.0646C203.763 14.4027 203.931 14.8385 203.931 15.3722C203.931 15.8097 203.805 16.2008 203.553 16.5455C203.304 16.8902 202.956 17.1619 202.509 17.3608C202.061 17.5597 201.541 17.6591 200.948 17.6591C200.169 17.6591 199.524 17.4901 199.014 17.152C198.503 16.8139 198.18 16.3201 198.044 15.6705L199.158 15.392C199.264 15.803 199.465 16.1113 199.76 16.3168C200.058 16.5223 200.447 16.625 200.928 16.625C201.475 16.625 201.909 16.509 202.23 16.277C202.555 16.0417 202.718 15.7599 202.718 15.4318C202.718 15.1667 202.625 14.9446 202.439 14.7656C202.254 14.5833 201.969 14.4474 201.584 14.358L200.311 14.0597C199.612 13.8939 199.098 13.6371 198.77 13.2891C198.445 12.9377 198.283 12.4986 198.283 11.9716C198.283 11.5407 198.404 11.1596 198.646 10.8281C198.891 10.4967 199.224 10.2365 199.645 10.0476C200.069 9.85866 200.55 9.7642 201.087 9.7642C201.843 9.7642 202.436 9.92992 202.867 10.2614C203.301 10.5928 203.609 11.0303 203.792 11.5739Z" fill="black"/>
<path d="M19.8367 52.4367L10.2367 62.0367C10.1531 62.1206 10.0538 62.1872 9.94438 62.2326C9.83498 62.2781 9.71769 62.3014 9.59924 62.3014C9.48079 62.3014 9.3635 62.2781 9.25411 62.2326C9.14471 62.1872 9.04535 62.1206 8.96174 62.0367L4.76174 57.8367C4.67802 57.753 4.61162 57.6536 4.56631 57.5442C4.521 57.4349 4.49768 57.3176 4.49768 57.1992C4.49768 57.0808 4.521 56.9636 4.56631 56.8542C4.61162 56.7448 4.67802 56.6454 4.76174 56.5617C4.84546 56.478 4.94485 56.4116 5.05423 56.3663C5.16361 56.321 5.28085 56.2977 5.39924 56.2977C5.51764 56.2977 5.63487 56.321 5.74425 56.3663C5.85364 56.4116 5.95302 56.478 6.03674 56.5617L9.59999 60.125L18.5632 51.1632C18.7323 50.9942 18.9616 50.8992 19.2007 50.8992C19.4398 50.8992 19.6692 50.9942 19.8382 51.1632C20.0073 51.3323 20.1023 51.5616 20.1023 51.8007C20.1023 52.0398 20.0073 52.2692 19.8382 52.4382L19.8367 52.4367Z" fill="black"/>
<path d="M47.9148 51.3182H49.1477V58.0597C49.1477 58.7557 48.9837 59.3771 48.6555 59.924C48.3307 60.4676 47.8717 60.8968 47.2784 61.2116C46.6851 61.5232 45.9891 61.679 45.1903 61.679C44.3916 61.679 43.6955 61.5232 43.1023 61.2116C42.509 60.8968 42.0483 60.4676 41.7202 59.924C41.3954 59.3771 41.233 58.7557 41.233 58.0597V51.3182H42.4659V57.9602C42.4659 58.4574 42.5753 58.8999 42.794 59.2876C43.0128 59.6721 43.3243 59.9754 43.7287 60.1974C44.1364 60.4162 44.6236 60.5256 45.1903 60.5256C45.7571 60.5256 46.2443 60.4162 46.652 60.1974C47.0597 59.9754 47.3712 59.6721 47.5866 59.2876C47.8054 58.8999 47.9148 58.4574 47.9148 57.9602V51.3182ZM52.6241 56.9062V61.5H51.4508V53.8636H52.5843V55.0568H52.6838C52.8627 54.669 53.1345 54.3575 53.4991 54.1222C53.8637 53.8835 54.3343 53.7642 54.911 53.7642C55.4281 53.7642 55.8805 53.8703 56.2683 54.0824C56.6561 54.2912 56.9577 54.6094 57.1731 55.0369C57.3886 55.4612 57.4963 55.9981 57.4963 56.6477V61.5H56.323V56.7273C56.323 56.1274 56.1672 55.66 55.8556 55.3253C55.5441 54.9872 55.1165 54.8182 54.573 54.8182C54.1984 54.8182 53.8637 54.8994 53.5687 55.0618C53.277 55.2242 53.0467 55.4612 52.8777 55.7727C52.7086 56.0843 52.6241 56.4621 52.6241 56.9062ZM60.8136 51.3182V61.5H59.6403V51.3182H60.8136ZM62.9625 61.5V53.8636H64.1358V61.5H62.9625ZM63.5591 52.5909C63.3304 52.5909 63.1332 52.513 62.9675 52.3572C62.8051 52.2015 62.7239 52.0142 62.7239 51.7955C62.7239 51.5767 62.8051 51.3894 62.9675 51.2337C63.1332 51.0779 63.3304 51 63.5591 51C63.7878 51 63.9834 51.0779 64.1458 51.2337C64.3115 51.3894 64.3944 51.5767 64.3944 51.7955C64.3944 52.0142 64.3115 52.2015 64.1458 52.3572C63.9834 52.513 63.7878 52.5909 63.5591 52.5909ZM66.2848 61.5V53.8636H67.4183V55.0568H67.5178C67.6768 54.6491 67.9337 54.3326 68.2884 54.1072C68.643 53.8786 69.0689 53.7642 69.5661 53.7642C70.0698 53.7642 70.4891 53.8786 70.8239 54.1072C71.1619 54.3326 71.4254 54.6491 71.6143 55.0568H71.6939C71.8894 54.6624 72.1828 54.3492 72.5739 54.1172C72.965 53.8819 73.4339 53.7642 73.9808 53.7642C74.6636 53.7642 75.2221 53.978 75.6562 54.4055C76.0904 54.8298 76.3075 55.491 76.3075 56.3892V61.5H75.1342V56.3892C75.1342 55.8258 74.9801 55.4231 74.6719 55.1811C74.3636 54.9392 74.0007 54.8182 73.5831 54.8182C73.0462 54.8182 72.6302 54.9806 72.3352 55.3054C72.0402 55.6269 71.8928 56.0346 71.8928 56.5284V61.5H70.6996V56.2699C70.6996 55.8357 70.5587 55.486 70.277 55.2209C69.9953 54.9524 69.6323 54.8182 69.1882 54.8182C68.8833 54.8182 68.5982 54.8994 68.3331 55.0618C68.0713 55.2242 67.8591 55.4496 67.6967 55.7379C67.5376 56.023 67.4581 56.3527 67.4581 56.7273V61.5H66.2848ZM78.4528 61.5V53.8636H79.6261V61.5H78.4528ZM79.0494 52.5909C78.8207 52.5909 78.6235 52.513 78.4577 52.3572C78.2953 52.2015 78.2141 52.0142 78.2141 51.7955C78.2141 51.5767 78.2953 51.3894 78.4577 51.2337C78.6235 51.0779 78.8207 51 79.0494 51C79.2781 51 79.4736 51.0779 79.636 51.2337C79.8017 51.3894 79.8846 51.5767 79.8846 51.7955C79.8846 52.0142 79.8017 52.2015 79.636 52.3572C79.4736 52.513 79.2781 52.5909 79.0494 52.5909ZM85.0961 53.8636V54.858H81.1387V53.8636H85.0961ZM82.2921 52.0341H83.4654V59.3125C83.4654 59.6439 83.5134 59.8925 83.6096 60.0582C83.709 60.2206 83.8349 60.33 83.9874 60.3864C84.1432 60.4394 84.3072 60.4659 84.4796 60.4659C84.6088 60.4659 84.7149 60.4593 84.7978 60.446C84.8806 60.4295 84.9469 60.4162 84.9966 60.4062L85.2353 61.4602C85.1557 61.4901 85.0447 61.5199 84.9022 61.5497C84.7596 61.5829 84.579 61.5994 84.3603 61.5994C84.0288 61.5994 83.704 61.5282 83.3858 61.3857C83.071 61.2431 82.8091 61.026 82.6003 60.7344C82.3948 60.4427 82.2921 60.0748 82.2921 59.6307V52.0341ZM89.9806 61.6591C89.2449 61.6591 88.6101 61.4967 88.0765 61.1719C87.5462 60.8438 87.1369 60.3864 86.8485 59.7997C86.5635 59.2098 86.421 58.5237 86.421 57.7415C86.421 56.9593 86.5635 56.2699 86.8485 55.6733C87.1369 55.0734 87.5379 54.6061 88.0517 54.2713C88.5687 53.9332 89.1719 53.7642 89.8613 53.7642C90.2591 53.7642 90.6518 53.8305 91.0396 53.9631C91.4274 54.0956 91.7804 54.3111 92.0985 54.6094C92.4167 54.9044 92.6703 55.2955 92.8592 55.7827C93.0481 56.2699 93.1426 56.8698 93.1426 57.5824V58.0795H87.2562V57.0653H91.9494C91.9494 56.6345 91.8632 56.25 91.6909 55.9119C91.5218 55.5739 91.2799 55.3071 90.965 55.1115C90.6535 54.916 90.2856 54.8182 89.8613 54.8182C89.394 54.8182 88.9896 54.9342 88.6483 55.1662C88.3102 55.3949 88.05 55.6932 87.8677 56.0611C87.6854 56.429 87.5943 56.8234 87.5943 57.2443V57.9205C87.5943 58.4972 87.6937 58.986 87.8926 59.3871C88.0948 59.7848 88.3748 60.0881 88.7328 60.2969C89.0907 60.5024 89.5067 60.6051 89.9806 60.6051C90.2889 60.6051 90.5673 60.562 90.8159 60.4759C91.0678 60.3864 91.2849 60.2538 91.4672 60.0781C91.6494 59.8991 91.7903 59.6771 91.8897 59.4119L93.0233 59.7301C92.9039 60.1146 92.7034 60.4527 92.4217 60.7443C92.14 61.0327 91.792 61.258 91.3777 61.4205C90.9634 61.5795 90.4977 61.6591 89.9806 61.6591ZM97.8109 61.6591C97.1745 61.6591 96.6127 61.4983 96.1255 61.1768C95.6383 60.852 95.2572 60.3946 94.9821 59.8047C94.707 59.2114 94.5694 58.5104 94.5694 57.7017C94.5694 56.8996 94.707 56.2036 94.9821 55.6136C95.2572 55.0237 95.64 54.5679 96.1305 54.2464C96.621 53.925 97.1878 53.7642 97.8308 53.7642C98.3279 53.7642 98.7207 53.8471 99.0091 54.0128C99.3007 54.1752 99.5228 54.3608 99.6752 54.5696C99.831 54.7751 99.952 54.9441 100.038 55.0767H100.138V51.3182H101.311V61.5H100.177V60.3267H100.038C99.952 60.4659 99.8294 60.6416 99.6703 60.8537C99.5112 61.0625 99.2842 61.2498 98.9892 61.4155C98.6942 61.5779 98.3014 61.6591 97.8109 61.6591ZM97.97 60.6051C98.4406 60.6051 98.8384 60.4825 99.1632 60.2372C99.488 59.9886 99.7349 59.6456 99.9039 59.2081C100.073 58.7673 100.157 58.2585 100.157 57.6818C100.157 57.1117 100.075 56.6129 99.9089 56.1854C99.7432 55.7545 99.4979 55.4197 99.1731 55.1811C98.8483 54.9392 98.4473 54.8182 97.97 54.8182C97.4728 54.8182 97.0585 54.9458 96.7271 55.201C96.399 55.4529 96.152 55.7959 95.9863 56.2301C95.8239 56.661 95.7427 57.1449 95.7427 57.6818C95.7427 58.2254 95.8256 58.7192 95.9913 59.1634C96.1603 59.6042 96.4089 59.9555 96.737 60.2173C97.0685 60.4759 97.4795 60.6051 97.97 60.6051ZM110.881 53.8636V54.858H106.924V53.8636H110.881ZM108.077 52.0341H109.251V59.3125C109.251 59.6439 109.299 59.8925 109.395 60.0582C109.494 60.2206 109.62 60.33 109.773 60.3864C109.928 60.4394 110.092 60.4659 110.265 60.4659C110.394 60.4659 110.5 60.4593 110.583 60.446C110.666 60.4295 110.732 60.4162 110.782 60.4062L111.02 61.4602C110.941 61.4901 110.83 61.5199 110.687 61.5497C110.545 61.5829 110.364 61.5994 110.145 61.5994C109.814 61.5994 109.489 61.5282 109.171 61.3857C108.856 61.2431 108.594 61.026 108.385 60.7344C108.18 60.4427 108.077 60.0748 108.077 59.6307V52.0341ZM114.893 61.679C114.409 61.679 113.97 61.5878 113.576 61.4055C113.181 61.2199 112.868 60.9531 112.636 60.6051C112.404 60.2538 112.288 59.8295 112.288 59.3324C112.288 58.8949 112.374 58.5402 112.547 58.2685C112.719 57.9934 112.949 57.7779 113.238 57.6222C113.526 57.4664 113.844 57.3504 114.192 57.2741C114.544 57.1946 114.897 57.1316 115.251 57.0852C115.715 57.0256 116.091 56.9808 116.38 56.951C116.671 56.9179 116.884 56.8632 117.016 56.7869C117.152 56.7107 117.22 56.5781 117.22 56.3892V56.3494C117.22 55.8589 117.086 55.4777 116.817 55.206C116.552 54.9342 116.149 54.7983 115.609 54.7983C115.049 54.7983 114.61 54.9209 114.292 55.1662C113.974 55.4115 113.75 55.6733 113.621 55.9517L112.507 55.554C112.706 55.09 112.971 54.7287 113.302 54.4702C113.637 54.2083 114.002 54.026 114.396 53.9233C114.794 53.8172 115.185 53.7642 115.569 53.7642C115.815 53.7642 116.096 53.794 116.415 53.8537C116.736 53.91 117.046 54.0277 117.344 54.2067C117.646 54.3857 117.896 54.6558 118.095 55.017C118.294 55.3783 118.393 55.8622 118.393 56.4688V61.5H117.22V60.4659H117.16C117.081 60.6316 116.948 60.8089 116.763 60.9979C116.577 61.1868 116.33 61.3475 116.022 61.4801C115.714 61.6127 115.337 61.679 114.893 61.679ZM115.072 60.625C115.536 60.625 115.927 60.5339 116.246 60.3516C116.567 60.1693 116.809 59.9339 116.971 59.6456C117.137 59.3572 117.22 59.054 117.22 58.7358V57.6619C117.17 57.7216 117.061 57.7763 116.892 57.826C116.726 57.8724 116.534 57.9138 116.315 57.9503C116.1 57.9834 115.889 58.0133 115.684 58.0398C115.482 58.063 115.318 58.0829 115.192 58.0994C114.887 58.1392 114.602 58.2038 114.336 58.2933C114.075 58.3795 113.863 58.5104 113.7 58.6861C113.541 58.8584 113.461 59.0937 113.461 59.392C113.461 59.7997 113.612 60.108 113.914 60.3168C114.219 60.5223 114.605 60.625 115.072 60.625ZM125.944 55.5739L124.89 55.8722C124.824 55.6965 124.726 55.5258 124.597 55.3601C124.471 55.1911 124.298 55.0518 124.08 54.9425C123.861 54.8331 123.581 54.7784 123.239 54.7784C122.772 54.7784 122.383 54.8861 122.071 55.1016C121.763 55.3137 121.609 55.5838 121.609 55.9119C121.609 56.2036 121.715 56.4339 121.927 56.603C122.139 56.772 122.47 56.9129 122.921 57.0256L124.055 57.304C124.737 57.4697 125.246 57.7232 125.581 58.0646C125.916 58.4027 126.083 58.8385 126.083 59.3722C126.083 59.8097 125.957 60.2008 125.705 60.5455C125.457 60.8902 125.109 61.1619 124.661 61.3608C124.214 61.5597 123.693 61.6591 123.1 61.6591C122.321 61.6591 121.677 61.4901 121.166 61.152C120.656 60.8139 120.333 60.3201 120.197 59.6705L121.31 59.392C121.416 59.803 121.617 60.1113 121.912 60.3168C122.21 60.5223 122.6 60.625 123.08 60.625C123.627 60.625 124.061 60.509 124.383 60.277C124.708 60.0417 124.87 59.7599 124.87 59.4318C124.87 59.1667 124.777 58.9446 124.592 58.7656C124.406 58.5833 124.121 58.4474 123.737 58.358L122.464 58.0597C121.764 57.8939 121.251 57.6371 120.923 57.2891C120.598 56.9377 120.435 56.4986 120.435 55.9716C120.435 55.5407 120.556 55.1596 120.798 54.8281C121.044 54.4967 121.377 54.2365 121.798 54.0476C122.222 53.8587 122.702 53.7642 123.239 53.7642C123.995 53.7642 124.588 53.9299 125.019 54.2614C125.453 54.5928 125.762 55.0303 125.944 55.5739ZM128.943 58.7159L128.923 57.2642H129.162L132.503 53.8636H133.954L130.395 57.4631H130.295L128.943 58.7159ZM127.849 61.5V51.3182H129.023V61.5H127.849ZM132.702 61.5L129.719 57.7216L130.554 56.9062L134.193 61.5H132.702ZM140.874 55.5739L139.82 55.8722C139.753 55.6965 139.656 55.5258 139.526 55.3601C139.4 55.1911 139.228 55.0518 139.009 54.9425C138.79 54.8331 138.51 54.7784 138.169 54.7784C137.702 54.7784 137.312 54.8861 137.001 55.1016C136.692 55.3137 136.538 55.5838 136.538 55.9119C136.538 56.2036 136.644 56.4339 136.857 56.603C137.069 56.772 137.4 56.9129 137.851 57.0256L138.984 57.304C139.667 57.4697 140.176 57.7232 140.511 58.0646C140.845 58.4027 141.013 58.8385 141.013 59.3722C141.013 59.8097 140.887 60.2008 140.635 60.5455C140.386 60.8902 140.038 61.1619 139.591 61.3608C139.143 61.5597 138.623 61.6591 138.03 61.6591C137.251 61.6591 136.606 61.4901 136.096 61.152C135.585 60.8139 135.262 60.3201 135.126 59.6705L136.24 59.392C136.346 59.803 136.547 60.1113 136.842 60.3168C137.14 60.5223 137.529 60.625 138.01 60.625C138.557 60.625 138.991 60.509 139.312 60.277C139.637 60.0417 139.8 59.7599 139.8 59.4318C139.8 59.1667 139.707 58.9446 139.521 58.7656C139.336 58.5833 139.051 58.4474 138.666 58.358L137.393 58.0597C136.694 57.8939 136.18 57.6371 135.852 57.2891C135.527 56.9377 135.365 56.4986 135.365 55.9716C135.365 55.5407 135.486 55.1596 135.728 54.8281C135.973 54.4967 136.306 54.2365 136.727 54.0476C137.152 53.8587 137.632 53.7642 138.169 53.7642C138.925 53.7642 139.518 53.9299 139.949 54.2614C140.383 54.5928 140.691 55.0303 140.874 55.5739ZM148.964 61.679C148.48 61.679 148.041 61.5878 147.646 61.4055C147.252 61.2199 146.939 60.9531 146.706 60.6051C146.474 60.2538 146.358 59.8295 146.358 59.3324C146.358 58.8949 146.445 58.5402 146.617 58.2685C146.789 57.9934 147.02 57.7779 147.308 57.6222C147.596 57.4664 147.915 57.3504 148.263 57.2741C148.614 57.1946 148.967 57.1316 149.322 57.0852C149.786 57.0256 150.162 56.9808 150.45 56.951C150.742 56.9179 150.954 56.8632 151.086 56.7869C151.222 56.7107 151.29 56.5781 151.29 56.3892V56.3494C151.29 55.8589 151.156 55.4777 150.888 55.206C150.622 54.9342 150.22 54.7983 149.68 54.7983C149.119 54.7983 148.68 54.9209 148.362 55.1662C148.044 55.4115 147.82 55.6733 147.691 55.9517L146.577 55.554C146.776 55.09 147.041 54.7287 147.373 54.4702C147.707 54.2083 148.072 54.026 148.466 53.9233C148.864 53.8172 149.255 53.7642 149.64 53.7642C149.885 53.7642 150.167 53.794 150.485 53.8537C150.806 53.91 151.116 54.0277 151.415 54.2067C151.716 54.3857 151.966 54.6558 152.165 55.017C152.364 55.3783 152.464 55.8622 152.464 56.4688V61.5H151.29V60.4659H151.231C151.151 60.6316 151.019 60.8089 150.833 60.9979C150.647 61.1868 150.4 61.3475 150.092 61.4801C149.784 61.6127 149.408 61.679 148.964 61.679ZM149.143 60.625C149.607 60.625 149.998 60.5339 150.316 60.3516C150.637 60.1693 150.879 59.9339 151.042 59.6456C151.207 59.3572 151.29 59.054 151.29 58.7358V57.6619C151.241 57.7216 151.131 57.7763 150.962 57.826C150.796 57.8724 150.604 57.9138 150.385 57.9503C150.17 57.9834 149.96 58.0133 149.754 58.0398C149.552 58.063 149.388 58.0829 149.262 58.0994C148.957 58.1392 148.672 58.2038 148.407 58.2933C148.145 58.3795 147.933 58.5104 147.77 58.6861C147.611 58.8584 147.532 59.0937 147.532 59.392C147.532 59.7997 147.683 60.108 147.984 60.3168C148.289 60.5223 148.675 60.625 149.143 60.625ZM155.778 56.9062V61.5H154.605V53.8636H155.739V55.0568H155.838C156.017 54.669 156.289 54.3575 156.653 54.1222C157.018 53.8835 157.489 53.7642 158.065 53.7642C158.582 53.7642 159.035 53.8703 159.423 54.0824C159.81 54.2912 160.112 54.6094 160.327 55.0369C160.543 55.4612 160.651 55.9981 160.651 56.6477V61.5H159.477V56.7273C159.477 56.1274 159.321 55.66 159.01 55.3253C158.698 54.9872 158.271 54.8182 157.727 54.8182C157.353 54.8182 157.018 54.8994 156.723 55.0618C156.431 55.2242 156.201 55.4612 156.032 55.7727C155.863 56.0843 155.778 56.4621 155.778 56.9062ZM165.678 61.6591C165.042 61.6591 164.48 61.4983 163.993 61.1768C163.506 60.852 163.124 60.3946 162.849 59.8047C162.574 59.2114 162.437 58.5104 162.437 57.7017C162.437 56.8996 162.574 56.2036 162.849 55.6136C163.124 55.0237 163.507 54.5679 163.998 54.2464C164.488 53.925 165.055 53.7642 165.698 53.7642C166.195 53.7642 166.588 53.8471 166.876 54.0128C167.168 54.1752 167.39 54.3608 167.542 54.5696C167.698 54.7751 167.819 54.9441 167.905 55.0767H168.005V51.3182H169.178V61.5H168.045V60.3267H167.905C167.819 60.4659 167.697 60.6416 167.537 60.8537C167.378 61.0625 167.151 61.2498 166.856 61.4155C166.561 61.5779 166.169 61.6591 165.678 61.6591ZM165.837 60.6051C166.308 60.6051 166.706 60.4825 167.03 60.2372C167.355 59.9886 167.602 59.6456 167.771 59.2081C167.94 58.7673 168.025 58.2585 168.025 57.6818C168.025 57.1117 167.942 56.6129 167.776 56.1854C167.61 55.7545 167.365 55.4197 167.04 55.1811C166.715 54.9392 166.314 54.8182 165.837 54.8182C165.34 54.8182 164.926 54.9458 164.594 55.201C164.266 55.4529 164.019 55.7959 163.854 56.2301C163.691 56.661 163.61 57.1449 163.61 57.6818C163.61 58.2254 163.693 58.7192 163.858 59.1634C164.028 59.6042 164.276 59.9555 164.604 60.2173C164.936 60.4759 165.347 60.6051 165.837 60.6051ZM175.427 64.3636V53.8636H176.561V55.0767H176.7C176.786 54.9441 176.906 54.7751 177.058 54.5696C177.214 54.3608 177.436 54.1752 177.724 54.0128C178.016 53.8471 178.41 53.7642 178.907 53.7642C179.55 53.7642 180.117 53.925 180.608 54.2464C181.098 54.5679 181.481 55.0237 181.756 55.6136C182.031 56.2036 182.169 56.8996 182.169 57.7017C182.169 58.5104 182.031 59.2114 181.756 59.8047C181.481 60.3946 181.1 60.852 180.613 61.1768C180.126 61.4983 179.564 61.6591 178.927 61.6591C178.437 61.6591 178.044 61.5779 177.749 61.4155C177.454 61.2498 177.227 61.0625 177.068 60.8537C176.909 60.6416 176.786 60.4659 176.7 60.3267H176.601V64.3636H175.427ZM176.581 57.6818C176.581 58.2585 176.665 58.7673 176.834 59.2081C177.003 59.6456 177.25 59.9886 177.575 60.2372C177.9 60.4825 178.298 60.6051 178.768 60.6051C179.259 60.6051 179.668 60.4759 179.996 60.2173C180.328 59.9555 180.576 59.6042 180.742 59.1634C180.911 58.7192 180.996 58.2254 180.996 57.6818C180.996 57.1449 180.913 56.661 180.747 56.2301C180.585 55.7959 180.338 55.4529 180.006 55.201C179.678 54.9458 179.265 54.8182 178.768 54.8182C178.291 54.8182 177.89 54.9392 177.565 55.1811C177.24 55.4197 176.995 55.7545 176.829 56.1854C176.664 56.6129 176.581 57.1117 176.581 57.6818ZM183.959 61.5V53.8636H185.092V55.017H185.172C185.311 54.6392 185.563 54.3326 185.927 54.0973C186.292 53.862 186.703 53.7443 187.16 53.7443C187.247 53.7443 187.354 53.746 187.483 53.7493C187.613 53.7526 187.711 53.7576 187.777 53.7642V54.9574C187.737 54.9474 187.646 54.9325 187.503 54.9126C187.364 54.8894 187.217 54.8778 187.061 54.8778C186.69 54.8778 186.358 54.9557 186.067 55.1115C185.778 55.264 185.55 55.4761 185.381 55.7479C185.215 56.0163 185.132 56.3229 185.132 56.6676V61.5H183.959ZM192.037 61.6591C191.348 61.6591 190.743 61.495 190.223 61.1669C189.706 60.8388 189.301 60.3797 189.01 59.7898C188.721 59.1998 188.577 58.5104 188.577 57.7216C188.577 56.9261 188.721 56.2318 189.01 55.6385C189.301 55.0452 189.706 54.5845 190.223 54.2564C190.743 53.9283 191.348 53.7642 192.037 53.7642C192.727 53.7642 193.33 53.9283 193.847 54.2564C194.367 54.5845 194.772 55.0452 195.06 55.6385C195.352 56.2318 195.498 56.9261 195.498 57.7216C195.498 58.5104 195.352 59.1998 195.06 59.7898C194.772 60.3797 194.367 60.8388 193.847 61.1669C193.33 61.495 192.727 61.6591 192.037 61.6591ZM192.037 60.6051C192.561 60.6051 192.992 60.4709 193.33 60.2024C193.668 59.9339 193.918 59.581 194.081 59.1435C194.243 58.706 194.324 58.232 194.324 57.7216C194.324 57.2112 194.243 56.7356 194.081 56.2947C193.918 55.8539 193.668 55.4976 193.33 55.2259C192.992 54.9541 192.561 54.8182 192.037 54.8182C191.514 54.8182 191.083 54.9541 190.745 55.2259C190.407 55.4976 190.157 55.8539 189.994 56.2947C189.832 56.7356 189.751 57.2112 189.751 57.7216C189.751 58.232 189.832 58.706 189.994 59.1435C190.157 59.581 190.407 59.9339 190.745 60.2024C191.083 60.4709 191.514 60.6051 192.037 60.6051ZM197.289 53.8636H198.462V62.0568C198.462 62.5275 198.381 62.9351 198.218 63.2798C198.059 63.6245 197.817 63.8913 197.493 64.0803C197.171 64.2692 196.765 64.3636 196.275 64.3636C196.235 64.3636 196.195 64.3636 196.155 64.3636C196.115 64.3636 196.076 64.3636 196.036 64.3636V63.2699C196.076 63.2699 196.112 63.2699 196.145 63.2699C196.178 63.2699 196.215 63.2699 196.255 63.2699C196.613 63.2699 196.874 63.1638 197.04 62.9517C197.206 62.7429 197.289 62.4446 197.289 62.0568V53.8636ZM197.865 52.5909C197.637 52.5909 197.44 52.513 197.274 52.3572C197.111 52.2015 197.03 52.0142 197.03 51.7955C197.03 51.5767 197.111 51.3894 197.274 51.2337C197.44 51.0779 197.637 51 197.865 51C198.094 51 198.29 51.0779 198.452 51.2337C198.618 51.3894 198.701 51.5767 198.701 51.7955C198.701 52.0142 198.618 52.2015 198.452 52.3572C198.29 52.513 198.094 52.5909 197.865 52.5909ZM203.813 61.6591C203.077 61.6591 202.442 61.4967 201.909 61.1719C201.378 60.8438 200.969 60.3864 200.681 59.7997C200.396 59.2098 200.253 58.5237 200.253 57.7415C200.253 56.9593 200.396 56.2699 200.681 55.6733C200.969 55.0734 201.37 54.6061 201.884 54.2713C202.401 53.9332 203.004 53.7642 203.693 53.7642C204.091 53.7642 204.484 53.8305 204.872 53.9631C205.259 54.0956 205.612 54.3111 205.931 54.6094C206.249 54.9044 206.502 55.2955 206.691 55.7827C206.88 56.2699 206.975 56.8698 206.975 57.5824V58.0795H201.088V57.0653H205.781C205.781 56.6345 205.695 56.25 205.523 55.9119C205.354 55.5739 205.112 55.3071 204.797 55.1115C204.485 54.916 204.118 54.8182 203.693 54.8182C203.226 54.8182 202.822 54.9342 202.48 55.1662C202.142 55.3949 201.882 55.6932 201.7 56.0611C201.517 56.429 201.426 56.8234 201.426 57.2443V57.9205C201.426 58.4972 201.526 58.986 201.725 59.3871C201.927 59.7848 202.207 60.0881 202.565 60.2969C202.923 60.5024 203.339 60.6051 203.813 60.6051C204.121 60.6051 204.399 60.562 204.648 60.4759C204.9 60.3864 205.117 60.2538 205.299 60.0781C205.481 59.8991 205.622 59.6771 205.722 59.4119L206.855 59.7301C206.736 60.1146 206.535 60.4527 206.254 60.7443C205.972 61.0327 205.624 61.258 205.21 61.4205C204.795 61.5795 204.33 61.6591 203.813 61.6591ZM211.862 61.6591C211.146 61.6591 210.529 61.4901 210.012 61.152C209.495 60.8139 209.097 60.3482 208.819 59.755C208.541 59.1617 208.401 58.4839 208.401 57.7216C208.401 56.946 208.544 56.2616 208.829 55.6683C209.117 55.0717 209.518 54.6061 210.032 54.2713C210.549 53.9332 211.152 53.7642 211.842 53.7642C212.379 53.7642 212.863 53.8636 213.294 54.0625C213.724 54.2614 214.077 54.5398 214.352 54.8977C214.628 55.2557 214.798 55.6733 214.865 56.1506H213.691C213.602 55.8026 213.403 55.4943 213.095 55.2259C212.79 54.9541 212.379 54.8182 211.862 54.8182C211.404 54.8182 211.003 54.9375 210.659 55.1761C210.317 55.4115 210.05 55.7446 209.858 56.1754C209.669 56.603 209.575 57.1051 209.575 57.6818C209.575 58.2718 209.668 58.7855 209.853 59.223C210.042 59.6605 210.307 60.0002 210.649 60.2422C210.993 60.4841 211.398 60.6051 211.862 60.6051C212.167 60.6051 212.443 60.5521 212.692 60.446C212.941 60.34 213.151 60.1875 213.323 59.9886C213.496 59.7898 213.618 59.5511 213.691 59.2727H214.865C214.798 59.7235 214.634 60.1295 214.372 60.4908C214.114 60.8487 213.771 61.1338 213.343 61.3459C212.919 61.5547 212.425 61.6591 211.862 61.6591ZM219.901 53.8636V54.858H215.943V53.8636H219.901ZM217.097 52.0341H218.27V59.3125C218.27 59.6439 218.318 59.8925 218.414 60.0582C218.514 60.2206 218.64 60.33 218.792 60.3864C218.948 60.4394 219.112 60.4659 219.284 60.4659C219.414 60.4659 219.52 60.4593 219.602 60.446C219.685 60.4295 219.752 60.4162 219.801 60.4062L220.04 61.4602C219.96 61.4901 219.849 61.5199 219.707 61.5497C219.564 61.5829 219.384 61.5994 219.165 61.5994C218.834 61.5994 218.509 61.5282 218.191 61.3857C217.876 61.2431 217.614 61.026 217.405 60.7344C217.2 60.4427 217.097 60.0748 217.097 59.6307V52.0341ZM226.938 55.5739L225.884 55.8722C225.818 55.6965 225.72 55.5258 225.591 55.3601C225.465 55.1911 225.292 55.0518 225.074 54.9425C224.855 54.8331 224.575 54.7784 224.233 54.7784C223.766 54.7784 223.377 54.8861 223.065 55.1016C222.757 55.3137 222.603 55.5838 222.603 55.9119C222.603 56.2036 222.709 56.4339 222.921 56.603C223.133 56.772 223.465 56.9129 223.915 57.0256L225.049 57.304C225.732 57.4697 226.24 57.7232 226.575 58.0646C226.91 58.4027 227.077 58.8385 227.077 59.3722C227.077 59.8097 226.951 60.2008 226.699 60.5455C226.451 60.8902 226.103 61.1619 225.655 61.3608C225.208 61.5597 224.688 61.6591 224.094 61.6591C223.315 61.6591 222.671 61.4901 222.16 61.152C221.65 60.8139 221.327 60.3201 221.191 59.6705L222.305 59.392C222.411 59.803 222.611 60.1113 222.906 60.3168C223.204 60.5223 223.594 60.625 224.074 60.625C224.621 60.625 225.055 60.509 225.377 60.277C225.702 60.0417 225.864 59.7599 225.864 59.4318C225.864 59.1667 225.771 58.9446 225.586 58.7656C225.4 58.5833 225.115 58.4474 224.731 58.358L223.458 58.0597C222.759 57.8939 222.245 57.6371 221.917 57.2891C221.592 56.9377 221.43 56.4986 221.43 55.9716C221.43 55.5407 221.55 55.1596 221.792 54.8281C222.038 54.4967 222.371 54.2365 222.792 54.0476C223.216 53.8587 223.697 53.7642 224.233 53.7642C224.989 53.7642 225.582 53.9299 226.013 54.2614C226.448 54.5928 226.756 55.0303 226.938 55.5739Z" fill="black"/>
<path d="M19.8367 96.4367L10.2367 106.037C10.1531 106.121 10.0538 106.187 9.94438 106.233C9.83498 106.278 9.71769 106.301 9.59924 106.301C9.48079 106.301 9.3635 106.278 9.25411 106.233C9.14471 106.187 9.04535 106.121 8.96174 106.037L4.76174 101.837C4.67802 101.753 4.61162 101.654 4.56631 101.544C4.521 101.435 4.49768 101.318 4.49768 101.199C4.49768 101.081 4.521 100.964 4.56631 100.854C4.61162 100.745 4.67802 100.645 4.76174 100.562C4.84546 100.478 4.94485 100.412 5.05423 100.366C5.16361 100.321 5.28085 100.298 5.39924 100.298C5.51764 100.298 5.63487 100.321 5.74425 100.366C5.85364 100.412 5.95302 100.478 6.03674 100.562L9.59999 104.125L18.5632 95.1632C18.7323 94.9942 18.9616 94.8992 19.2007 94.8992C19.4398 94.8992 19.6692 94.9942 19.8382 95.1632C20.0073 95.3323 20.1023 95.5616 20.1023 95.8007C20.1023 96.0398 20.0073 96.2692 19.8382 96.4382L19.8367 96.4367Z" fill="black"/>
<path d="M41.054 105.5V104.605L44.4148 100.926C44.8092 100.495 45.134 100.121 45.3892 99.8026C45.6444 99.4811 45.8333 99.1795 45.956 98.8977C46.0819 98.6127 46.1449 98.3144 46.1449 98.0028C46.1449 97.6449 46.0587 97.335 45.8864 97.0732C45.7173 96.8113 45.4853 96.6091 45.1903 96.4666C44.8954 96.3241 44.5639 96.2528 44.196 96.2528C43.8049 96.2528 43.4635 96.334 43.1719 96.4964C42.8835 96.6555 42.6598 96.8793 42.5007 97.1676C42.3449 97.456 42.267 97.794 42.267 98.1818H41.0938C41.0938 97.5852 41.2313 97.0616 41.5064 96.6108C41.7815 96.16 42.156 95.8087 42.63 95.5568C43.1072 95.3049 43.6425 95.179 44.2358 95.179C44.8324 95.179 45.361 95.3049 45.8217 95.5568C46.2824 95.8087 46.6437 96.1484 46.9055 96.576C47.1674 97.0036 47.2983 97.4792 47.2983 98.0028C47.2983 98.3774 47.2304 98.7436 47.0945 99.1016C46.9619 99.4562 46.7299 99.8523 46.3984 100.29C46.0703 100.724 45.6146 101.254 45.0312 101.881L42.7443 104.327V104.406H47.4773V105.5H41.054ZM56.6697 98.5C56.5604 98.1652 56.4162 97.8653 56.2372 97.6001C56.0616 97.3317 55.8511 97.103 55.6058 96.9141C55.3639 96.7251 55.0888 96.581 54.7805 96.4815C54.4723 96.3821 54.1342 96.3324 53.7663 96.3324C53.1631 96.3324 52.6146 96.4882 52.1207 96.7997C51.6269 97.1113 51.2341 97.5703 50.9425 98.1768C50.6508 98.7834 50.505 99.5275 50.505 100.409C50.505 101.291 50.6525 102.035 50.9474 102.641C51.2424 103.248 51.6418 103.707 52.1456 104.018C52.6494 104.33 53.2161 104.486 53.8459 104.486C54.4292 104.486 54.9429 104.362 55.3871 104.113C55.8345 103.861 56.1825 103.506 56.4311 103.049C56.683 102.588 56.8089 102.046 56.8089 101.423L57.1868 101.503H54.1243V100.409H58.0021V101.503C58.0021 102.341 57.8232 103.071 57.4652 103.69C57.1106 104.31 56.62 104.791 55.9936 105.132C55.3705 105.47 54.6546 105.639 53.8459 105.639C52.9444 105.639 52.1522 105.427 51.4695 105.003C50.79 104.579 50.2597 103.975 49.8786 103.193C49.5007 102.411 49.3118 101.483 49.3118 100.409C49.3118 99.6037 49.4195 98.8795 49.6349 98.2365C49.8537 97.5902 50.1619 97.04 50.5597 96.5859C50.9574 96.1319 51.428 95.7839 51.9716 95.5419C52.5152 95.3 53.1134 95.179 53.7663 95.179C54.3033 95.179 54.8037 95.2602 55.2678 95.4226C55.7351 95.5817 56.151 95.8087 56.5156 96.1037C56.8835 96.3954 57.1901 96.745 57.4354 97.1527C57.6806 97.5571 57.8497 98.0062 57.9425 98.5H56.6697ZM60.1138 105.5V95.3182H63.6735C64.3828 95.3182 64.9677 95.4408 65.4284 95.6861C65.8891 95.928 66.2322 96.2545 66.4576 96.6655C66.6829 97.0732 66.7956 97.5256 66.7956 98.0227C66.7956 98.4602 66.7177 98.8215 66.562 99.1065C66.4095 99.3916 66.2073 99.617 65.9554 99.7827C65.7069 99.9484 65.4367 100.071 65.1451 100.151V100.25C65.4566 100.27 65.7698 100.379 66.0847 100.578C66.3996 100.777 66.6631 101.062 66.8752 101.433C67.0873 101.804 67.1934 102.259 67.1934 102.795C67.1934 103.306 67.0774 103.765 66.8453 104.173C66.6133 104.58 66.2471 104.903 65.7466 105.142C65.2462 105.381 64.5949 105.5 63.7928 105.5H60.1138ZM61.3468 104.406H63.7928C64.5982 104.406 65.1699 104.25 65.508 103.939C65.8494 103.624 66.0201 103.243 66.0201 102.795C66.0201 102.451 65.9322 102.133 65.7566 101.841C65.5809 101.546 65.3307 101.311 65.0059 101.135C64.681 100.956 64.2966 100.866 63.8525 100.866H61.3468V104.406ZM61.3468 99.7926H63.6337C64.0049 99.7926 64.3397 99.7197 64.638 99.5739C64.9396 99.428 65.1782 99.2225 65.3539 98.9574C65.5328 98.6922 65.6223 98.3807 65.6223 98.0227C65.6223 97.5753 65.4666 97.1958 65.155 96.8842C64.8435 96.5694 64.3496 96.4119 63.6735 96.4119H61.3468V99.7926ZM78.4068 99.5739L77.3528 99.8722C77.2865 99.6965 77.1887 99.5258 77.0595 99.3601C76.9335 99.1911 76.7612 99.0518 76.5424 98.9425C76.3237 98.8331 76.0436 98.7784 75.7022 98.7784C75.2349 98.7784 74.8455 98.8861 74.5339 99.1016C74.2257 99.3137 74.0716 99.5838 74.0716 99.9119C74.0716 100.204 74.1776 100.434 74.3897 100.603C74.6019 100.772 74.9333 100.913 75.3841 101.026L76.5176 101.304C77.2003 101.47 77.7091 101.723 78.0439 102.065C78.3786 102.403 78.546 102.839 78.546 103.372C78.546 103.81 78.42 104.201 78.1681 104.545C77.9196 104.89 77.5716 105.162 77.1241 105.361C76.6767 105.56 76.1563 105.659 75.563 105.659C74.7842 105.659 74.1395 105.49 73.6291 105.152C73.1187 104.814 72.7955 104.32 72.6596 103.67L73.7733 103.392C73.8793 103.803 74.0798 104.111 74.3748 104.317C74.6731 104.522 75.0626 104.625 75.5431 104.625C76.09 104.625 76.5242 104.509 76.8457 104.277C77.1705 104.042 77.3329 103.76 77.3329 103.432C77.3329 103.167 77.2401 102.945 77.0545 102.766C76.8689 102.583 76.5839 102.447 76.1994 102.358L74.9267 102.06C74.2273 101.894 73.7136 101.637 73.3855 101.289C73.0607 100.938 72.8983 100.499 72.8983 99.9716C72.8983 99.5407 73.0192 99.1596 73.2612 98.8281C73.5065 98.4967 73.8395 98.2365 74.2605 98.0476C74.6847 97.8587 75.1653 97.7642 75.7022 97.7642C76.4579 97.7642 77.0512 97.9299 77.4821 98.2614C77.9163 98.5928 78.2245 99.0303 78.4068 99.5739ZM83.6332 97.8636V98.858H79.6758V97.8636H83.6332ZM80.8292 96.0341H82.0025V103.312C82.0025 103.644 82.0505 103.893 82.1467 104.058C82.2461 104.221 82.372 104.33 82.5245 104.386C82.6803 104.439 82.8443 104.466 83.0167 104.466C83.146 104.466 83.252 104.459 83.3349 104.446C83.4177 104.429 83.484 104.416 83.5337 104.406L83.7724 105.46C83.6928 105.49 83.5818 105.52 83.4393 105.55C83.2968 105.583 83.1161 105.599 82.8974 105.599C82.5659 105.599 82.2411 105.528 81.9229 105.386C81.6081 105.243 81.3462 105.026 81.1374 104.734C80.9319 104.443 80.8292 104.075 80.8292 103.631V96.0341ZM88.4183 105.659C87.7289 105.659 87.1241 105.495 86.6037 105.167C86.0866 104.839 85.6823 104.38 85.3906 103.79C85.1023 103.2 84.9581 102.51 84.9581 101.722C84.9581 100.926 85.1023 100.232 85.3906 99.6385C85.6823 99.0452 86.0866 98.5845 86.6037 98.2564C87.1241 97.9283 87.7289 97.7642 88.4183 97.7642C89.1077 97.7642 89.7109 97.9283 90.228 98.2564C90.7483 98.5845 91.1527 99.0452 91.4411 99.6385C91.7327 100.232 91.8786 100.926 91.8786 101.722C91.8786 102.51 91.7327 103.2 91.4411 103.79C91.1527 104.38 90.7483 104.839 90.228 105.167C89.7109 105.495 89.1077 105.659 88.4183 105.659ZM88.4183 104.605C88.942 104.605 89.3729 104.471 89.7109 104.202C90.049 103.934 90.2992 103.581 90.4616 103.143C90.6241 102.706 90.7053 102.232 90.7053 101.722C90.7053 101.211 90.6241 100.736 90.4616 100.295C90.2992 99.8539 90.049 99.4976 89.7109 99.2259C89.3729 98.9541 88.942 98.8182 88.4183 98.8182C87.8946 98.8182 87.4638 98.9541 87.1257 99.2259C86.7876 99.4976 86.5374 99.8539 86.375 100.295C86.2126 100.736 86.1314 101.211 86.1314 101.722C86.1314 102.232 86.2126 102.706 86.375 103.143C86.5374 103.581 86.7876 103.934 87.1257 104.202C87.4638 104.471 87.8946 104.605 88.4183 104.605ZM93.6696 105.5V97.8636H94.8031V99.017H94.8826C95.0218 98.6392 95.2737 98.3326 95.6383 98.0973C96.0029 97.862 96.4139 97.7443 96.8713 97.7443C96.9574 97.7443 97.0652 97.746 97.1944 97.7493C97.3237 97.7526 97.4215 97.7576 97.4877 97.7642V98.9574C97.448 98.9474 97.3568 98.9325 97.2143 98.9126C97.0751 98.8894 96.9276 98.8778 96.7718 98.8778C96.4006 98.8778 96.0692 98.9557 95.7775 99.1115C95.4892 99.264 95.2605 99.4761 95.0914 99.7479C94.9257 100.016 94.8429 100.323 94.8429 100.668V105.5H93.6696ZM101.126 105.679C100.642 105.679 100.203 105.588 99.8082 105.406C99.4138 105.22 99.1006 104.953 98.8686 104.605C98.6366 104.254 98.5206 103.83 98.5206 103.332C98.5206 102.895 98.6068 102.54 98.7791 102.268C98.9515 101.993 99.1818 101.778 99.4702 101.622C99.7585 101.466 100.077 101.35 100.425 101.274C100.776 101.195 101.129 101.132 101.484 101.085C101.948 101.026 102.324 100.981 102.612 100.951C102.904 100.918 103.116 100.863 103.249 100.787C103.384 100.711 103.452 100.578 103.452 100.389V100.349C103.452 99.8589 103.318 99.4777 103.05 99.206C102.785 98.9342 102.382 98.7983 101.842 98.7983C101.281 98.7983 100.842 98.9209 100.524 99.1662C100.206 99.4115 99.9822 99.6733 99.853 99.9517L98.7393 99.554C98.9382 99.09 99.2034 98.7287 99.5348 98.4702C99.8696 98.2083 100.234 98.026 100.629 97.9233C101.026 97.8172 101.417 97.7642 101.802 97.7642C102.047 97.7642 102.329 97.794 102.647 97.8537C102.969 97.91 103.278 98.0277 103.577 98.2067C103.878 98.3857 104.129 98.6558 104.327 99.017C104.526 99.3783 104.626 99.8622 104.626 100.469V105.5H103.452V104.466H103.393C103.313 104.632 103.181 104.809 102.995 104.998C102.809 105.187 102.563 105.348 102.254 105.48C101.946 105.613 101.57 105.679 101.126 105.679ZM101.305 104.625C101.769 104.625 102.16 104.534 102.478 104.352C102.799 104.169 103.041 103.934 103.204 103.646C103.37 103.357 103.452 103.054 103.452 102.736V101.662C103.403 101.722 103.293 101.776 103.124 101.826C102.959 101.872 102.766 101.914 102.548 101.95C102.332 101.983 102.122 102.013 101.916 102.04C101.714 102.063 101.55 102.083 101.424 102.099C101.119 102.139 100.834 102.204 100.569 102.293C100.307 102.379 100.095 102.51 99.9325 102.686C99.7734 102.858 99.6939 103.094 99.6939 103.392C99.6939 103.8 99.8447 104.108 100.146 104.317C100.451 104.522 100.837 104.625 101.305 104.625ZM109.85 108.523C109.283 108.523 108.796 108.45 108.388 108.304C107.98 108.161 107.641 107.973 107.369 107.737C107.1 107.505 106.887 107.257 106.727 106.991L107.662 106.335C107.768 106.474 107.902 106.634 108.065 106.812C108.227 106.995 108.449 107.152 108.731 107.285C109.016 107.421 109.389 107.489 109.85 107.489C110.466 107.489 110.975 107.339 111.376 107.041C111.777 106.743 111.977 106.276 111.977 105.639V104.088H111.878C111.792 104.227 111.669 104.4 111.51 104.605C111.354 104.807 111.129 104.988 110.834 105.147C110.542 105.303 110.148 105.381 109.651 105.381C109.034 105.381 108.481 105.235 107.99 104.943C107.503 104.652 107.117 104.227 106.832 103.67C106.55 103.114 106.409 102.437 106.409 101.642C106.409 100.86 106.547 100.179 106.822 99.5987C107.097 99.0154 107.48 98.5646 107.97 98.2464C108.461 97.925 109.028 97.7642 109.671 97.7642C110.168 97.7642 110.562 97.8471 110.854 98.0128C111.149 98.1752 111.374 98.3608 111.53 98.5696C111.689 98.7751 111.812 98.9441 111.898 99.0767H112.017V97.8636H113.151V105.719C113.151 106.375 113.002 106.909 112.703 107.32C112.408 107.734 112.011 108.037 111.51 108.229C111.013 108.425 110.459 108.523 109.85 108.523ZM109.81 104.327C110.28 104.327 110.678 104.219 111.003 104.004C111.328 103.788 111.575 103.478 111.744 103.074C111.913 102.67 111.997 102.186 111.997 101.622C111.997 101.072 111.914 100.586 111.749 100.165C111.583 99.7446 111.338 99.4148 111.013 99.1761C110.688 98.9375 110.287 98.8182 109.81 98.8182C109.313 98.8182 108.898 98.9441 108.567 99.196C108.239 99.4479 107.992 99.786 107.826 100.21C107.664 100.634 107.583 101.105 107.583 101.622C107.583 102.152 107.665 102.621 107.831 103.029C108 103.433 108.249 103.752 108.577 103.984C108.908 104.212 109.319 104.327 109.81 104.327ZM118.5 105.659C117.764 105.659 117.13 105.497 116.596 105.172C116.066 104.844 115.656 104.386 115.368 103.8C115.083 103.21 114.941 102.524 114.941 101.741C114.941 100.959 115.083 100.27 115.368 99.6733C115.656 99.0734 116.057 98.6061 116.571 98.2713C117.088 97.9332 117.691 97.7642 118.381 97.7642C118.779 97.7642 119.171 97.8305 119.559 97.9631C119.947 98.0956 120.3 98.3111 120.618 98.6094C120.936 98.9044 121.19 99.2955 121.379 99.7827C121.568 100.27 121.662 100.87 121.662 101.582V102.08H115.776V101.065H120.469C120.469 100.634 120.383 100.25 120.21 99.9119C120.041 99.5739 119.799 99.3071 119.485 99.1115C119.173 98.916 118.805 98.8182 118.381 98.8182C117.914 98.8182 117.509 98.9342 117.168 99.1662C116.83 99.3949 116.57 99.6932 116.387 100.061C116.205 100.429 116.114 100.823 116.114 101.244V101.92C116.114 102.497 116.213 102.986 116.412 103.387C116.614 103.785 116.894 104.088 117.252 104.297C117.61 104.502 118.026 104.605 118.5 104.605C118.808 104.605 119.087 104.562 119.335 104.476C119.587 104.386 119.804 104.254 119.987 104.078C120.169 103.899 120.31 103.677 120.409 103.412L121.543 103.73C121.423 104.115 121.223 104.453 120.941 104.744C120.66 105.033 120.311 105.258 119.897 105.42C119.483 105.58 119.017 105.659 118.5 105.659Z" fill="black"/>
<path d="M19.8367 140.437L10.2367 150.037C10.1531 150.121 10.0538 150.187 9.94438 150.233C9.83498 150.278 9.71769 150.301 9.59924 150.301C9.48079 150.301 9.3635 150.278 9.25411 150.233C9.14471 150.187 9.04535 150.121 8.96174 150.037L4.76174 145.837C4.67802 145.753 4.61162 145.654 4.56631 145.544C4.521 145.435 4.49768 145.318 4.49768 145.199C4.49768 145.081 4.521 144.964 4.56631 144.854C4.61162 144.745 4.67802 144.645 4.76174 144.562C4.84546 144.478 4.94485 144.412 5.05423 144.366C5.16361 144.321 5.28085 144.298 5.39924 144.298C5.51764 144.298 5.63487 144.321 5.74425 144.366C5.85364 144.412 5.95302 144.478 6.03674 144.562L9.59999 148.125L18.5632 139.163C18.7323 138.994 18.9616 138.899 19.2007 138.899C19.4398 138.899 19.6692 138.994 19.8382 139.163C20.0073 139.332 20.1023 139.562 20.1023 139.801C20.1023 140.04 20.0073 140.269 19.8382 140.438L19.8367 140.437Z" fill="black"/>
<path d="M42.4659 139.318V149.5H41.233V139.318H42.4659ZM45.9522 144.906V149.5H44.7789V141.864H45.9125V143.057H46.0119C46.1909 142.669 46.4627 142.357 46.8272 142.122C47.1918 141.884 47.6625 141.764 48.2392 141.764C48.7562 141.764 49.2086 141.87 49.5964 142.082C49.9842 142.291 50.2858 142.609 50.5012 143.037C50.7167 143.461 50.8244 143.998 50.8244 144.648V149.5H49.6511V144.727C49.6511 144.127 49.4953 143.66 49.1838 143.325C48.8722 142.987 48.4447 142.818 47.9011 142.818C47.5266 142.818 47.1918 142.899 46.8968 143.062C46.6052 143.224 46.3748 143.461 46.2058 143.773C46.0368 144.084 45.9522 144.462 45.9522 144.906ZM56.2894 141.864V142.858H52.332V141.864H56.2894ZM53.4854 140.034H54.6587V147.312C54.6587 147.644 54.7068 147.893 54.8029 148.058C54.9023 148.221 55.0283 148.33 55.1808 148.386C55.3365 148.439 55.5006 148.466 55.6729 148.466C55.8022 148.466 55.9083 148.459 55.9911 148.446C56.074 148.429 56.1403 148.416 56.19 148.406L56.4286 149.46C56.3491 149.49 56.238 149.52 56.0955 149.55C55.953 149.583 55.7724 149.599 55.5536 149.599C55.2222 149.599 54.8974 149.528 54.5792 149.386C54.2643 149.243 54.0025 149.026 53.7937 148.734C53.5882 148.443 53.4854 148.075 53.4854 147.631V140.034ZM61.174 149.659C60.4382 149.659 59.8035 149.497 59.2699 149.172C58.7396 148.844 58.3303 148.386 58.0419 147.8C57.7569 147.21 57.6143 146.524 57.6143 145.741C57.6143 144.959 57.7569 144.27 58.0419 143.673C58.3303 143.073 58.7313 142.606 59.245 142.271C59.7621 141.933 60.3653 141.764 61.0547 141.764C61.4524 141.764 61.8452 141.83 62.233 141.963C62.6207 142.096 62.9737 142.311 63.2919 142.609C63.6101 142.904 63.8636 143.295 64.0526 143.783C64.2415 144.27 64.3359 144.87 64.3359 145.582V146.08H58.4496V145.065H63.1428C63.1428 144.634 63.0566 144.25 62.8842 143.912C62.7152 143.574 62.4732 143.307 62.1584 143.112C61.8468 142.916 61.4789 142.818 61.0547 142.818C60.5874 142.818 60.183 142.934 59.8416 143.166C59.5036 143.395 59.2434 143.693 59.0611 144.061C58.8788 144.429 58.7876 144.823 58.7876 145.244V145.92C58.7876 146.497 58.8871 146.986 59.0859 147.387C59.2881 147.785 59.5682 148.088 59.9261 148.297C60.2841 148.502 60.7 148.605 61.174 148.605C61.4822 148.605 61.7607 148.562 62.0092 148.476C62.2611 148.386 62.4782 148.254 62.6605 148.078C62.8428 147.899 62.9837 147.677 63.0831 147.412L64.2166 147.73C64.0973 148.115 63.8968 148.453 63.6151 148.744C63.3333 149.033 62.9853 149.258 62.571 149.42C62.1567 149.58 61.6911 149.659 61.174 149.659ZM69.2031 152.523C68.6364 152.523 68.1491 152.45 67.7415 152.304C67.3338 152.161 66.9941 151.973 66.7223 151.737C66.4538 151.505 66.2401 151.257 66.081 150.991L67.0156 150.335C67.1217 150.474 67.2559 150.634 67.4183 150.812C67.5807 150.995 67.8028 151.152 68.0845 151.285C68.3696 151.421 68.7424 151.489 69.2031 151.489C69.8196 151.489 70.3284 151.339 70.7294 151.041C71.1304 150.743 71.331 150.276 71.331 149.639V148.088H71.2315C71.1454 148.227 71.0227 148.4 70.8636 148.605C70.7079 148.807 70.4825 148.988 70.1875 149.147C69.8958 149.303 69.5014 149.381 69.0043 149.381C68.3878 149.381 67.8343 149.235 67.3438 148.943C66.8565 148.652 66.4704 148.227 66.1854 147.67C65.9036 147.114 65.7628 146.437 65.7628 145.642C65.7628 144.86 65.9003 144.179 66.1754 143.599C66.4505 143.015 66.8333 142.565 67.3239 142.246C67.8144 141.925 68.3812 141.764 69.0241 141.764C69.5213 141.764 69.9157 141.847 70.2074 142.013C70.5024 142.175 70.7277 142.361 70.8835 142.57C71.0426 142.775 71.1652 142.944 71.2514 143.077H71.3707V141.864H72.5043V149.719C72.5043 150.375 72.3551 150.909 72.0568 151.32C71.7618 151.734 71.3641 152.037 70.8636 152.229C70.3665 152.425 69.813 152.523 69.2031 152.523ZM69.1634 148.327C69.634 148.327 70.0317 148.219 70.3565 148.004C70.6813 147.788 70.9283 147.478 71.0973 147.074C71.2663 146.67 71.3509 146.186 71.3509 145.622C71.3509 145.072 71.268 144.586 71.1023 144.165C70.9366 143.745 70.6913 143.415 70.3665 143.176C70.0417 142.937 69.6406 142.818 69.1634 142.818C68.6662 142.818 68.2519 142.944 67.9205 143.196C67.5923 143.448 67.3454 143.786 67.1797 144.21C67.0173 144.634 66.9361 145.105 66.9361 145.622C66.9361 146.152 67.0189 146.621 67.1847 147.029C67.3537 147.433 67.6023 147.752 67.9304 147.984C68.2618 148.212 68.6728 148.327 69.1634 148.327ZM74.652 149.5V141.864H75.7855V143.017H75.8651C76.0043 142.639 76.2562 142.333 76.6207 142.097C76.9853 141.862 77.3963 141.744 77.8537 141.744C77.9399 141.744 78.0476 141.746 78.1768 141.749C78.3061 141.753 78.4039 141.758 78.4702 141.764V142.957C78.4304 142.947 78.3393 142.933 78.1967 142.913C78.0575 142.889 77.91 142.878 77.7543 142.878C77.383 142.878 77.0516 142.956 76.7599 143.112C76.4716 143.264 76.2429 143.476 76.0739 143.748C75.9081 144.016 75.8253 144.323 75.8253 144.668V149.5H74.652ZM82.1081 149.679C81.6242 149.679 81.1851 149.588 80.7907 149.406C80.3962 149.22 80.083 148.953 79.851 148.605C79.619 148.254 79.503 147.83 79.503 147.332C79.503 146.895 79.5892 146.54 79.7615 146.268C79.9339 145.993 80.1642 145.778 80.4526 145.622C80.7409 145.466 81.0591 145.35 81.4071 145.274C81.7585 145.195 82.1114 145.132 82.4661 145.085C82.9301 145.026 83.3063 144.981 83.5946 144.951C83.8863 144.918 84.0984 144.863 84.231 144.787C84.3669 144.711 84.4348 144.578 84.4348 144.389V144.349C84.4348 143.859 84.3006 143.478 84.0321 143.206C83.767 142.934 83.3643 142.798 82.824 142.798C82.2639 142.798 81.8248 142.921 81.5066 143.166C81.1884 143.411 80.9647 143.673 80.8354 143.952L79.7218 143.554C79.9206 143.09 80.1858 142.729 80.5172 142.47C80.852 142.208 81.2166 142.026 81.611 141.923C82.0087 141.817 82.3998 141.764 82.7843 141.764C83.0295 141.764 83.3113 141.794 83.6294 141.854C83.9509 141.91 84.2608 142.028 84.5591 142.207C84.8607 142.386 85.111 142.656 85.3098 143.017C85.5087 143.378 85.6081 143.862 85.6081 144.469V149.5H84.4348V148.466H84.3752C84.2956 148.632 84.1631 148.809 83.9775 148.998C83.7918 149.187 83.5449 149.348 83.2367 149.48C82.9284 149.613 82.5523 149.679 82.1081 149.679ZM82.2871 148.625C82.7511 148.625 83.1422 148.534 83.4604 148.352C83.7819 148.169 84.0239 147.934 84.1863 147.646C84.352 147.357 84.4348 147.054 84.4348 146.736V145.662C84.3851 145.722 84.2757 145.776 84.1067 145.826C83.941 145.872 83.7488 145.914 83.53 145.95C83.3146 145.983 83.1041 146.013 82.8986 146.04C82.6964 146.063 82.5324 146.083 82.4064 146.099C82.1015 146.139 81.8165 146.204 81.5513 146.293C81.2895 146.379 81.0774 146.51 80.915 146.686C80.7559 146.858 80.6763 147.094 80.6763 147.392C80.6763 147.8 80.8271 148.108 81.1287 148.317C81.4337 148.522 81.8198 148.625 82.2871 148.625ZM91.0707 141.864V142.858H87.1133V141.864H91.0707ZM88.2667 140.034H89.44V147.312C89.44 147.644 89.488 147.893 89.5842 148.058C89.6836 148.221 89.8095 148.33 89.962 148.386C90.1178 148.439 90.2818 148.466 90.4542 148.466C90.5835 148.466 90.6895 148.459 90.7724 148.446C90.8552 148.429 90.9215 148.416 90.9712 148.406L91.2099 149.46C91.1303 149.49 91.0193 149.52 90.8768 149.55C90.7343 149.583 90.5536 149.599 90.3349 149.599C90.0034 149.599 89.6786 149.528 89.3604 149.386C89.0456 149.243 88.7837 149.026 88.5749 148.734C88.3694 148.443 88.2667 148.075 88.2667 147.631V140.034ZM92.8356 149.5V141.864H94.0089V149.5H92.8356ZM93.4322 140.591C93.2035 140.591 93.0063 140.513 92.8406 140.357C92.6781 140.201 92.5969 140.014 92.5969 139.795C92.5969 139.577 92.6781 139.389 92.8406 139.234C93.0063 139.078 93.2035 139 93.4322 139C93.6609 139 93.8564 139.078 94.0188 139.234C94.1845 139.389 94.2674 139.577 94.2674 139.795C94.2674 140.014 94.1845 140.201 94.0188 140.357C93.8564 140.513 93.6609 140.591 93.4322 140.591ZM99.2601 149.659C98.5707 149.659 97.9659 149.495 97.4455 149.167C96.9284 148.839 96.5241 148.38 96.2324 147.79C95.9441 147.2 95.7999 146.51 95.7999 145.722C95.7999 144.926 95.9441 144.232 96.2324 143.638C96.5241 143.045 96.9284 142.585 97.4455 142.256C97.9659 141.928 98.5707 141.764 99.2601 141.764C99.9495 141.764 100.553 141.928 101.07 142.256C101.59 142.585 101.994 143.045 102.283 143.638C102.575 144.232 102.72 144.926 102.72 145.722C102.72 146.51 102.575 147.2 102.283 147.79C101.994 148.38 101.59 148.839 101.07 149.167C100.553 149.495 99.9495 149.659 99.2601 149.659ZM99.2601 148.605C99.7838 148.605 100.215 148.471 100.553 148.202C100.891 147.934 101.141 147.581 101.303 147.143C101.466 146.706 101.547 146.232 101.547 145.722C101.547 145.211 101.466 144.736 101.303 144.295C101.141 143.854 100.891 143.498 100.553 143.226C100.215 142.954 99.7838 142.818 99.2601 142.818C98.7364 142.818 98.3056 142.954 97.9675 143.226C97.6294 143.498 97.3792 143.854 97.2168 144.295C97.0544 144.736 96.9732 145.211 96.9732 145.722C96.9732 146.232 97.0544 146.706 97.2168 147.143C97.3792 147.581 97.6294 147.934 97.9675 148.202C98.3056 148.471 98.7364 148.605 99.2601 148.605ZM105.685 144.906V149.5H104.511V141.864H105.645V143.057H105.744C105.923 142.669 106.195 142.357 106.56 142.122C106.924 141.884 107.395 141.764 107.972 141.764C108.489 141.764 108.941 141.87 109.329 142.082C109.717 142.291 110.018 142.609 110.234 143.037C110.449 143.461 110.557 143.998 110.557 144.648V149.5H109.384V144.727C109.384 144.127 109.228 143.66 108.916 143.325C108.605 142.987 108.177 142.818 107.634 142.818C107.259 142.818 106.924 142.899 106.629 143.062C106.338 143.224 106.107 143.461 105.938 143.773C105.769 144.084 105.685 144.462 105.685 144.906ZM118.11 143.574L117.056 143.872C116.99 143.696 116.892 143.526 116.763 143.36C116.637 143.191 116.464 143.052 116.246 142.942C116.027 142.833 115.747 142.778 115.405 142.778C114.938 142.778 114.549 142.886 114.237 143.102C113.929 143.314 113.775 143.584 113.775 143.912C113.775 144.204 113.881 144.434 114.093 144.603C114.305 144.772 114.636 144.913 115.087 145.026L116.221 145.304C116.903 145.47 117.412 145.723 117.747 146.065C118.082 146.403 118.249 146.839 118.249 147.372C118.249 147.81 118.123 148.201 117.871 148.545C117.623 148.89 117.275 149.162 116.827 149.361C116.38 149.56 115.859 149.659 115.266 149.659C114.487 149.659 113.843 149.49 113.332 149.152C112.822 148.814 112.499 148.32 112.363 147.67L113.476 147.392C113.582 147.803 113.783 148.111 114.078 148.317C114.376 148.522 114.766 148.625 115.246 148.625C115.793 148.625 116.227 148.509 116.549 148.277C116.874 148.042 117.036 147.76 117.036 147.432C117.036 147.167 116.943 146.945 116.758 146.766C116.572 146.583 116.287 146.447 115.903 146.358L114.63 146.06C113.93 145.894 113.417 145.637 113.089 145.289C112.764 144.938 112.601 144.499 112.601 143.972C112.601 143.541 112.722 143.16 112.964 142.828C113.21 142.497 113.543 142.237 113.964 142.048C114.388 141.859 114.868 141.764 115.405 141.764C116.161 141.764 116.754 141.93 117.185 142.261C117.619 142.593 117.928 143.03 118.11 143.574Z" fill="black"/>
<path d="M19.8367 184.437L10.2367 194.037C10.1531 194.121 10.0538 194.187 9.94438 194.233C9.83498 194.278 9.71769 194.301 9.59924 194.301C9.48079 194.301 9.3635 194.278 9.25411 194.233C9.14471 194.187 9.04535 194.121 8.96174 194.037L4.76174 189.837C4.67802 189.753 4.61162 189.654 4.56631 189.544C4.521 189.435 4.49768 189.318 4.49768 189.199C4.49768 189.081 4.521 188.964 4.56631 188.854C4.61162 188.745 4.67802 188.645 4.76174 188.562C4.84546 188.478 4.94485 188.412 5.05423 188.366C5.16361 188.321 5.28085 188.298 5.39924 188.298C5.51764 188.298 5.63487 188.321 5.74425 188.366C5.85364 188.412 5.95302 188.478 6.03674 188.562L9.59999 192.125L18.5632 183.163C18.7323 182.994 18.9616 182.899 19.2007 182.899C19.4398 182.899 19.6692 182.994 19.8382 183.163C20.0073 183.332 20.1023 183.562 20.1023 183.801C20.1023 184.04 20.0073 184.269 19.8382 184.438L19.8367 184.437Z" fill="black"/>
<path d="M41.233 193.5V183.318H44.7926C45.5019 183.318 46.0869 183.441 46.5476 183.686C47.0083 183.928 47.3513 184.254 47.5767 184.665C47.8021 185.073 47.9148 185.526 47.9148 186.023C47.9148 186.46 47.8369 186.821 47.6811 187.107C47.5286 187.392 47.3265 187.617 47.0746 187.783C46.826 187.948 46.5559 188.071 46.2642 188.151V188.25C46.5758 188.27 46.889 188.379 47.2038 188.578C47.5187 188.777 47.7822 189.062 47.9943 189.433C48.2064 189.804 48.3125 190.259 48.3125 190.795C48.3125 191.306 48.1965 191.765 47.9645 192.173C47.7325 192.58 47.3662 192.903 46.8658 193.142C46.3653 193.381 45.714 193.5 44.9119 193.5H41.233ZM42.4659 192.406H44.9119C45.7173 192.406 46.2891 192.25 46.6271 191.939C46.9685 191.624 47.1392 191.243 47.1392 190.795C47.1392 190.451 47.0514 190.133 46.8757 189.841C46.7 189.546 46.4498 189.311 46.125 189.135C45.8002 188.956 45.4157 188.866 44.9716 188.866H42.4659V192.406ZM42.4659 187.793H44.7528C45.1241 187.793 45.4588 187.72 45.7571 187.574C46.0587 187.428 46.2973 187.223 46.473 186.957C46.652 186.692 46.7415 186.381 46.7415 186.023C46.7415 185.575 46.5857 185.196 46.2741 184.884C45.9626 184.569 45.4688 184.412 44.7926 184.412H42.4659V187.793ZM52.4265 193.679C51.9426 193.679 51.5034 193.588 51.109 193.406C50.7146 193.22 50.4014 192.953 50.1694 192.605C49.9374 192.254 49.8214 191.83 49.8214 191.332C49.8214 190.895 49.9076 190.54 50.0799 190.268C50.2522 189.993 50.4826 189.778 50.771 189.622C51.0593 189.466 51.3775 189.35 51.7255 189.274C52.0768 189.195 52.4298 189.132 52.7844 189.085C53.2485 189.026 53.6246 188.981 53.913 188.951C54.2047 188.918 54.4168 188.863 54.5494 188.787C54.6853 188.711 54.7532 188.578 54.7532 188.389V188.349C54.7532 187.859 54.619 187.478 54.3505 187.206C54.0853 186.934 53.6826 186.798 53.1424 186.798C52.5823 186.798 52.1431 186.921 51.8249 187.166C51.5067 187.411 51.283 187.673 51.1538 187.952L50.0401 187.554C50.239 187.09 50.5041 186.729 50.8356 186.47C51.1703 186.208 51.5349 186.026 51.9293 185.923C52.3271 185.817 52.7182 185.764 53.1026 185.764C53.3479 185.764 53.6296 185.794 53.9478 185.854C54.2693 185.91 54.5792 186.028 54.8775 186.207C55.1791 186.386 55.4293 186.656 55.6282 187.017C55.8271 187.378 55.9265 187.862 55.9265 188.469V193.5H54.7532V192.466H54.6935C54.614 192.632 54.4814 192.809 54.2958 192.998C54.1102 193.187 53.8633 193.348 53.555 193.48C53.2468 193.613 52.8706 193.679 52.4265 193.679ZM52.6055 192.625C53.0695 192.625 53.4606 192.534 53.7788 192.352C54.1003 192.169 54.3422 191.934 54.5046 191.646C54.6703 191.357 54.7532 191.054 54.7532 190.736V189.662C54.7035 189.722 54.5941 189.776 54.4251 189.826C54.2594 189.872 54.0671 189.914 53.8484 189.95C53.6329 189.983 53.4225 190.013 53.217 190.04C53.0148 190.063 52.8507 190.083 52.7248 190.099C52.4199 190.139 52.1348 190.204 51.8697 190.293C51.6078 190.379 51.3957 190.51 51.2333 190.686C51.0742 190.858 50.9947 191.094 50.9947 191.392C50.9947 191.8 51.1455 192.108 51.4471 192.317C51.752 192.522 52.1381 192.625 52.6055 192.625ZM63.4771 187.574L62.4231 187.872C62.3568 187.696 62.2591 187.526 62.1298 187.36C62.0038 187.191 61.8315 187.052 61.6127 186.942C61.394 186.833 61.1139 186.778 60.7725 186.778C60.3052 186.778 59.9158 186.886 59.6042 187.102C59.296 187.314 59.1419 187.584 59.1419 187.912C59.1419 188.204 59.2479 188.434 59.46 188.603C59.6722 188.772 60.0036 188.913 60.4544 189.026L61.5879 189.304C62.2707 189.47 62.7794 189.723 63.1142 190.065C63.4489 190.403 63.6163 190.839 63.6163 191.372C63.6163 191.81 63.4904 192.201 63.2385 192.545C62.9899 192.89 62.6419 193.162 62.1944 193.361C61.747 193.56 61.2266 193.659 60.6333 193.659C59.8545 193.659 59.2098 193.49 58.6994 193.152C58.189 192.814 57.8658 192.32 57.7299 191.67L58.8436 191.392C58.9496 191.803 59.1502 192.111 59.4451 192.317C59.7434 192.522 60.1329 192.625 60.6135 192.625C61.1603 192.625 61.5945 192.509 61.916 192.277C62.2408 192.042 62.4032 191.76 62.4032 191.432C62.4032 191.167 62.3104 190.945 62.1248 190.766C61.9392 190.583 61.6542 190.447 61.2697 190.358L59.997 190.06C59.2976 189.894 58.7839 189.637 58.4558 189.289C58.131 188.938 57.9686 188.499 57.9686 187.972C57.9686 187.541 58.0895 187.16 58.3315 186.828C58.5768 186.497 58.9099 186.237 59.3308 186.048C59.755 185.859 60.2356 185.764 60.7725 185.764C61.5282 185.764 62.1215 185.93 62.5524 186.261C62.9866 186.593 63.2948 187.03 63.4771 187.574ZM65.3825 193.5V185.864H66.5558V193.5H65.3825ZM65.979 184.591C65.7504 184.591 65.5531 184.513 65.3874 184.357C65.225 184.201 65.1438 184.014 65.1438 183.795C65.1438 183.577 65.225 183.389 65.3874 183.234C65.5531 183.078 65.7504 183 65.979 183C66.2077 183 66.4033 183.078 66.5657 183.234C66.7314 183.389 66.8143 183.577 66.8143 183.795C66.8143 184.014 66.7314 184.201 66.5657 184.357C66.4033 184.513 66.2077 184.591 65.979 184.591ZM71.807 193.659C71.0911 193.659 70.4746 193.49 69.9576 193.152C69.4405 192.814 69.0428 192.348 68.7644 191.755C68.486 191.162 68.3468 190.484 68.3468 189.722C68.3468 188.946 68.4893 188.262 68.7743 187.668C69.0627 187.072 69.4637 186.606 69.9775 186.271C70.4945 185.933 71.0977 185.764 71.7871 185.764C72.324 185.764 72.8079 185.864 73.2388 186.062C73.6697 186.261 74.0227 186.54 74.2978 186.898C74.5729 187.256 74.7435 187.673 74.8098 188.151H73.6365C73.5471 187.803 73.3482 187.494 73.04 187.226C72.735 186.954 72.324 186.818 71.807 186.818C71.3496 186.818 70.9486 186.937 70.6039 187.176C70.2625 187.411 69.9957 187.745 69.8034 188.175C69.6145 188.603 69.5201 189.105 69.5201 189.682C69.5201 190.272 69.6129 190.786 69.7985 191.223C69.9874 191.661 70.2525 192 70.5939 192.242C70.9386 192.484 71.343 192.605 71.807 192.605C72.1119 192.605 72.3887 192.552 72.6373 192.446C72.8858 192.34 73.0963 192.188 73.2686 191.989C73.441 191.79 73.5636 191.551 73.6365 191.273H74.8098C74.7435 191.723 74.5795 192.129 74.3176 192.491C74.0591 192.849 73.7161 193.134 73.2885 193.346C72.8643 193.555 72.3704 193.659 71.807 193.659ZM85.8716 187.574L84.8176 187.872C84.7514 187.696 84.6536 187.526 84.5243 187.36C84.3984 187.191 84.226 187.052 84.0073 186.942C83.7885 186.833 83.5085 186.778 83.1671 186.778C82.6998 186.778 82.3103 186.886 81.9988 187.102C81.6905 187.314 81.5364 187.584 81.5364 187.912C81.5364 188.204 81.6425 188.434 81.8546 188.603C82.0667 188.772 82.3981 188.913 82.8489 189.026L83.9824 189.304C84.6652 189.47 85.1739 189.723 85.5087 190.065C85.8435 190.403 86.0108 190.839 86.0108 191.372C86.0108 191.81 85.8849 192.201 85.633 192.545C85.3844 192.89 85.0364 193.162 84.589 193.361C84.1415 193.56 83.6212 193.659 83.0279 193.659C82.249 193.659 81.6043 193.49 81.0939 193.152C80.5835 192.814 80.2604 192.32 80.1245 191.67L81.2381 191.392C81.3442 191.803 81.5447 192.111 81.8397 192.317C82.138 192.522 82.5274 192.625 83.008 192.625C83.5549 192.625 83.9891 192.509 84.3105 192.277C84.6354 192.042 84.7978 191.76 84.7978 191.432C84.7978 191.167 84.705 190.945 84.5194 190.766C84.3337 190.583 84.0487 190.447 83.6642 190.358L82.3915 190.06C81.6922 189.894 81.1784 189.637 80.8503 189.289C80.5255 188.938 80.3631 188.499 80.3631 187.972C80.3631 187.541 80.4841 187.16 80.726 186.828C80.9713 186.497 81.3044 186.237 81.7253 186.048C82.1496 185.859 82.6301 185.764 83.1671 185.764C83.9228 185.764 84.516 185.93 84.9469 186.261C85.3811 186.593 85.6893 187.03 85.8716 187.574ZM92.5895 190.378V185.864H93.7628V193.5H92.5895V192.207H92.5099C92.331 192.595 92.0526 192.925 91.6747 193.197C91.2969 193.465 90.8196 193.599 90.2429 193.599C89.7656 193.599 89.3414 193.495 88.9702 193.286C88.599 193.074 88.3073 192.756 88.0952 192.332C87.883 191.904 87.777 191.366 87.777 190.716V185.864H88.9503V190.636C88.9503 191.193 89.1061 191.637 89.4176 191.969C89.7325 192.3 90.1335 192.466 90.6207 192.466C90.9124 192.466 91.209 192.391 91.5107 192.242C91.8156 192.093 92.0708 191.864 92.2763 191.556C92.4851 191.248 92.5895 190.855 92.5895 190.378ZM95.9118 196.364V185.864H97.0453V187.077H97.1845C97.2707 186.944 97.39 186.775 97.5424 186.57C97.6982 186.361 97.9203 186.175 98.2086 186.013C98.5003 185.847 98.8947 185.764 99.3919 185.764C100.035 185.764 100.602 185.925 101.092 186.246C101.583 186.568 101.965 187.024 102.241 187.614C102.516 188.204 102.653 188.9 102.653 189.702C102.653 190.51 102.516 191.211 102.241 191.805C101.965 192.395 101.584 192.852 101.097 193.177C100.61 193.498 100.048 193.659 99.4118 193.659C98.9212 193.659 98.5285 193.578 98.2335 193.415C97.9385 193.25 97.7115 193.062 97.5524 192.854C97.3933 192.642 97.2707 192.466 97.1845 192.327H97.085V196.364H95.9118ZM97.0652 189.682C97.0652 190.259 97.1497 190.767 97.3187 191.208C97.4877 191.646 97.7347 191.989 98.0595 192.237C98.3843 192.482 98.782 192.605 99.2527 192.605C99.7432 192.605 100.153 192.476 100.481 192.217C100.812 191.955 101.061 191.604 101.226 191.163C101.395 190.719 101.48 190.225 101.48 189.682C101.48 189.145 101.397 188.661 101.231 188.23C101.069 187.796 100.822 187.453 100.491 187.201C100.162 186.946 99.7498 186.818 99.2527 186.818C98.7754 186.818 98.3743 186.939 98.0495 187.181C97.7247 187.42 97.4795 187.754 97.3137 188.185C97.148 188.613 97.0652 189.112 97.0652 189.682ZM104.443 196.364V185.864H105.577V187.077H105.716C105.802 186.944 105.921 186.775 106.074 186.57C106.229 186.361 106.452 186.175 106.74 186.013C107.032 185.847 107.426 185.764 107.923 185.764C108.566 185.764 109.133 185.925 109.623 186.246C110.114 186.568 110.497 187.024 110.772 187.614C111.047 188.204 111.184 188.9 111.184 189.702C111.184 190.51 111.047 191.211 110.772 191.805C110.497 192.395 110.116 192.852 109.628 193.177C109.141 193.498 108.579 193.659 107.943 193.659C107.452 193.659 107.06 193.578 106.765 193.415C106.47 193.25 106.243 193.062 106.084 192.854C105.925 192.642 105.802 192.466 105.716 192.327H105.616V196.364H104.443ZM105.596 189.682C105.596 190.259 105.681 190.767 105.85 191.208C106.019 191.646 106.266 191.989 106.591 192.237C106.916 192.482 107.313 192.605 107.784 192.605C108.274 192.605 108.684 192.476 109.012 192.217C109.343 191.955 109.592 191.604 109.758 191.163C109.927 190.719 110.011 190.225 110.011 189.682C110.011 189.145 109.928 188.661 109.763 188.23C109.6 187.796 109.353 187.453 109.022 187.201C108.694 186.946 108.281 186.818 107.784 186.818C107.307 186.818 106.906 186.939 106.581 187.181C106.256 187.42 106.011 187.754 105.845 188.185C105.679 188.613 105.596 189.112 105.596 189.682ZM116.077 193.659C115.387 193.659 114.782 193.495 114.262 193.167C113.745 192.839 113.34 192.38 113.049 191.79C112.76 191.2 112.616 190.51 112.616 189.722C112.616 188.926 112.76 188.232 113.049 187.638C113.34 187.045 113.745 186.585 114.262 186.256C114.782 185.928 115.387 185.764 116.077 185.764C116.766 185.764 117.369 185.928 117.886 186.256C118.407 186.585 118.811 187.045 119.099 187.638C119.391 188.232 119.537 188.926 119.537 189.722C119.537 190.51 119.391 191.2 119.099 191.79C118.811 192.38 118.407 192.839 117.886 193.167C117.369 193.495 116.766 193.659 116.077 193.659ZM116.077 192.605C116.6 192.605 117.031 192.471 117.369 192.202C117.707 191.934 117.957 191.581 118.12 191.143C118.282 190.706 118.363 190.232 118.363 189.722C118.363 189.211 118.282 188.736 118.12 188.295C117.957 187.854 117.707 187.498 117.369 187.226C117.031 186.954 116.6 186.818 116.077 186.818C115.553 186.818 115.122 186.954 114.784 187.226C114.446 187.498 114.196 187.854 114.033 188.295C113.871 188.736 113.79 189.211 113.79 189.722C113.79 190.232 113.871 190.706 114.033 191.143C114.196 191.581 114.446 191.934 114.784 192.202C115.122 192.471 115.553 192.605 116.077 192.605ZM121.328 193.5V185.864H122.461V187.017H122.541C122.68 186.639 122.932 186.333 123.297 186.097C123.661 185.862 124.072 185.744 124.529 185.744C124.616 185.744 124.723 185.746 124.853 185.749C124.982 185.753 125.08 185.758 125.146 185.764V186.957C125.106 186.947 125.015 186.933 124.873 186.913C124.733 186.889 124.586 186.878 124.43 186.878C124.059 186.878 123.727 186.956 123.436 187.112C123.147 187.264 122.919 187.476 122.75 187.748C122.584 188.016 122.501 188.323 122.501 188.668V193.5H121.328ZM130.336 185.864V186.858H126.379V185.864H130.336ZM127.532 184.034H128.706V191.312C128.706 191.644 128.754 191.893 128.85 192.058C128.949 192.221 129.075 192.33 129.228 192.386C129.383 192.439 129.547 192.466 129.72 192.466C129.849 192.466 129.955 192.459 130.038 192.446C130.121 192.429 130.187 192.416 130.237 192.406L130.475 193.46C130.396 193.49 130.285 193.52 130.142 193.55C130 193.583 129.819 193.599 129.6 193.599C129.269 193.599 128.944 193.528 128.626 193.386C128.311 193.243 128.049 193.026 127.841 192.734C127.635 192.443 127.532 192.075 127.532 191.631V184.034Z" fill="black"/>
</svg>
