<svg width="240" height="40" viewBox="0 0 240 40" fill="none" xmlns="http://www.w3.org/2000/svg">
<rect y="0.5" width="115" height="39" rx="10" fill="black"/>
<path d="M24.1534 17.5398C24.0436 17.1951 23.8958 16.8864 23.7102 16.6136C23.5284 16.3371 23.3106 16.1023 23.0568 15.9091C22.803 15.7121 22.5133 15.5625 22.1875 15.4602C21.8655 15.358 21.5114 15.3068 21.125 15.3068C20.4697 15.3068 19.8788 15.4754 19.3523 15.8125C18.8258 16.1496 18.4091 16.6439 18.1023 17.2955C17.7992 17.9432 17.6477 18.7367 17.6477 19.6761C17.6477 20.6193 17.8011 21.4167 18.108 22.0682C18.4148 22.7197 18.8352 23.214 19.3693 23.5511C19.9034 23.8883 20.5114 24.0568 21.1932 24.0568C21.8258 24.0568 22.3769 23.928 22.8466 23.6705C23.3201 23.4129 23.6856 23.0492 23.9432 22.5795C24.2045 22.1061 24.3352 21.5492 24.3352 20.9091L24.7898 20.9943H21.4602V19.5455H26.0341V20.8693C26.0341 21.8466 25.8258 22.6951 25.4091 23.4148C24.9962 24.1307 24.4242 24.6837 23.6932 25.0739C22.9659 25.464 22.1326 25.6591 21.1932 25.6591C20.1402 25.6591 19.2159 25.4167 18.4205 24.9318C17.6288 24.447 17.0114 23.7595 16.5682 22.8693C16.125 21.9754 15.9034 20.9148 15.9034 19.6875C15.9034 18.7595 16.0322 17.9261 16.2898 17.1875C16.5473 16.4489 16.9091 15.822 17.375 15.3068C17.8447 14.7879 18.3958 14.392 19.0284 14.1193C19.6648 13.8428 20.3598 13.7045 21.1136 13.7045C21.7424 13.7045 22.3277 13.7973 22.8693 13.983C23.4148 14.1686 23.8996 14.4318 24.3239 14.7727C24.7519 15.1136 25.1061 15.5189 25.3864 15.9886C25.6667 16.4545 25.8561 16.9716 25.9545 17.5398H24.1534ZM31.5678 25.6761C30.7079 25.6761 29.9674 25.4924 29.3462 25.125C28.7288 24.7538 28.2515 24.233 27.9144 23.5625C27.581 22.8883 27.4144 22.0985 27.4144 21.1932C27.4144 20.2992 27.581 19.5114 27.9144 18.8295C28.2515 18.1477 28.7212 17.6155 29.3235 17.233C29.9295 16.8504 30.6379 16.6591 31.4485 16.6591C31.9409 16.6591 32.4182 16.7405 32.8803 16.9034C33.3424 17.0663 33.7572 17.322 34.1246 17.6705C34.492 18.0189 34.7818 18.4716 34.9939 19.0284C35.206 19.5814 35.3121 20.2538 35.3121 21.0455V21.6477H28.3746V20.375H33.6473C33.6473 19.928 33.5564 19.5322 33.3746 19.1875C33.1928 18.839 32.9371 18.5644 32.6076 18.3636C32.2818 18.1629 31.8992 18.0625 31.4598 18.0625C30.9826 18.0625 30.5659 18.1799 30.2098 18.4148C29.8576 18.6458 29.5848 18.9489 29.3916 19.3239C29.2023 19.6951 29.1076 20.0985 29.1076 20.5341V21.5284C29.1076 22.1117 29.2098 22.608 29.4144 23.017C29.6227 23.4261 29.9125 23.7386 30.2837 23.9545C30.6549 24.1667 31.0886 24.2727 31.5848 24.2727C31.9068 24.2727 32.2004 24.2273 32.4655 24.1364C32.7307 24.0417 32.9598 23.9015 33.153 23.7159C33.3462 23.5303 33.4939 23.3011 33.5962 23.0284L35.2041 23.3182C35.0754 23.7917 34.8443 24.2064 34.511 24.5625C34.1814 24.9148 33.7666 25.1894 33.2666 25.3864C32.7704 25.5795 32.2041 25.6761 31.5678 25.6761ZM40.9509 16.7727V18.1364H36.1839V16.7727H40.9509ZM37.4623 14.6818H39.1611V22.9375C39.1611 23.267 39.2104 23.5152 39.3089 23.6818C39.4073 23.8447 39.5342 23.9564 39.6895 24.017C39.8486 24.0739 40.021 24.1023 40.2066 24.1023C40.343 24.1023 40.4623 24.0928 40.5645 24.0739C40.6668 24.0549 40.7464 24.0398 40.8032 24.0284L41.11 25.4318C41.0115 25.4697 40.8714 25.5076 40.6895 25.5455C40.5077 25.5871 40.2805 25.6098 40.0077 25.6136C39.5608 25.6212 39.1441 25.5417 38.7577 25.375C38.3714 25.2083 38.0589 24.9508 37.8202 24.6023C37.5816 24.2538 37.4623 23.8163 37.4623 23.2898V14.6818ZM50.578 16.7727V18.1364H45.6461V16.7727H50.578ZM46.9984 25.5V15.7614C46.9984 15.2159 47.1177 14.7633 47.3564 14.4034C47.595 14.0398 47.9113 13.7689 48.3052 13.5909C48.6992 13.4091 49.1272 13.3182 49.5893 13.3182C49.9302 13.3182 50.2219 13.3466 50.4643 13.4034C50.7067 13.4564 50.8867 13.5057 51.0041 13.5511L50.6064 14.9261C50.5268 14.9034 50.4245 14.8769 50.2995 14.8466C50.1745 14.8125 50.023 14.7955 49.845 14.7955C49.4321 14.7955 49.1367 14.8977 48.9586 15.1023C48.7844 15.3068 48.6973 15.6023 48.6973 15.9886V25.5H46.9984ZM55.3432 25.6761C54.525 25.6761 53.811 25.4886 53.2011 25.1136C52.5913 24.7386 52.1178 24.214 51.7807 23.5398C51.4436 22.8655 51.275 22.0777 51.275 21.1761C51.275 20.2708 51.4436 19.4792 51.7807 18.8011C52.1178 18.1231 52.5913 17.5966 53.2011 17.2216C53.811 16.8466 54.525 16.6591 55.3432 16.6591C56.1614 16.6591 56.8754 16.8466 57.4852 17.2216C58.0951 17.5966 58.5686 18.1231 58.9057 18.8011C59.2428 19.4792 59.4114 20.2708 59.4114 21.1761C59.4114 22.0777 59.2428 22.8655 58.9057 23.5398C58.5686 24.214 58.0951 24.7386 57.4852 25.1136C56.8754 25.4886 56.1614 25.6761 55.3432 25.6761ZM55.3489 24.25C55.8792 24.25 56.3186 24.1098 56.667 23.8295C57.0155 23.5492 57.2731 23.1761 57.4398 22.7102C57.6102 22.2443 57.6955 21.7311 57.6955 21.1705C57.6955 20.6136 57.6102 20.1023 57.4398 19.6364C57.2731 19.1667 57.0155 18.7898 56.667 18.5057C56.3186 18.2216 55.8792 18.0795 55.3489 18.0795C54.8148 18.0795 54.3716 18.2216 54.0193 18.5057C53.6708 18.7898 53.4114 19.1667 53.2409 19.6364C53.0742 20.1023 52.9909 20.6136 52.9909 21.1705C52.9909 21.7311 53.0742 22.2443 53.2409 22.7102C53.4114 23.1761 53.6708 23.5492 54.0193 23.8295C54.3716 24.1098 54.8148 24.25 55.3489 24.25ZM60.9877 25.5V16.7727H62.6297V18.1591H62.7206C62.8797 17.6894 63.16 17.3201 63.5615 17.0511C63.9668 16.7784 64.4252 16.642 64.9365 16.642C65.0426 16.642 65.1676 16.6458 65.3115 16.6534C65.4593 16.661 65.5748 16.6705 65.6581 16.6818V18.3068C65.5899 18.2879 65.4687 18.267 65.2945 18.2443C65.1202 18.2178 64.946 18.2045 64.7718 18.2045C64.3702 18.2045 64.0123 18.2898 63.6979 18.4602C63.3873 18.6269 63.1411 18.8598 62.9593 19.1591C62.7774 19.4545 62.6865 19.7917 62.6865 20.1705V25.5H60.9877ZM74.8761 16.7727V18.1364H69.9443V16.7727H74.8761ZM71.2965 25.5V15.7614C71.2965 15.2159 71.4159 14.7633 71.6545 14.4034C71.8931 14.0398 72.2094 13.7689 72.6034 13.5909C72.9973 13.4091 73.4253 13.3182 73.8874 13.3182C74.2284 13.3182 74.52 13.3466 74.7624 13.4034C75.0049 13.4564 75.1848 13.5057 75.3022 13.5511L74.9045 14.9261C74.8249 14.9034 74.7227 14.8769 74.5977 14.8466C74.4727 14.8125 74.3212 14.7955 74.1431 14.7955C73.7302 14.7955 73.4348 14.8977 73.2568 15.1023C73.0825 15.3068 72.9954 15.6023 72.9954 15.9886V25.5H71.2965ZM76.3089 25.5V16.7727H77.951V18.1591H78.0419C78.201 17.6894 78.4813 17.3201 78.8828 17.0511C79.2881 16.7784 79.7464 16.642 80.2578 16.642C80.3638 16.642 80.4888 16.6458 80.6328 16.6534C80.7805 16.661 80.896 16.6705 80.9794 16.6818V18.3068C80.9112 18.2879 80.79 18.267 80.6157 18.2443C80.4415 18.2178 80.2673 18.2045 80.093 18.2045C79.6915 18.2045 79.3335 18.2898 79.0191 18.4602C78.7085 18.6269 78.4623 18.8598 78.2805 19.1591C78.0987 19.4545 78.0078 19.7917 78.0078 20.1705V25.5H76.3089ZM85.5784 25.6761C84.7186 25.6761 83.978 25.4924 83.3568 25.125C82.7394 24.7538 82.2621 24.233 81.925 23.5625C81.5917 22.8883 81.425 22.0985 81.425 21.1932C81.425 20.2992 81.5917 19.5114 81.925 18.8295C82.2621 18.1477 82.7318 17.6155 83.3341 17.233C83.9402 16.8504 84.6485 16.6591 85.4591 16.6591C85.9515 16.6591 86.4288 16.7405 86.8909 16.9034C87.353 17.0663 87.7678 17.322 88.1352 17.6705C88.5027 18.0189 88.7924 18.4716 89.0045 19.0284C89.2167 19.5814 89.3227 20.2538 89.3227 21.0455V21.6477H82.3852V20.375H87.658C87.658 19.928 87.567 19.5322 87.3852 19.1875C87.2034 18.839 86.9477 18.5644 86.6182 18.3636C86.2924 18.1629 85.9099 18.0625 85.4705 18.0625C84.9932 18.0625 84.5765 18.1799 84.2205 18.4148C83.8682 18.6458 83.5955 18.9489 83.4023 19.3239C83.2129 19.6951 83.1182 20.0985 83.1182 20.5341V21.5284C83.1182 22.1117 83.2205 22.608 83.425 23.017C83.6333 23.4261 83.9231 23.7386 84.2943 23.9545C84.6655 24.1667 85.0992 24.2727 85.5955 24.2727C85.9174 24.2727 86.211 24.2273 86.4761 24.1364C86.7413 24.0417 86.9705 23.9015 87.1636 23.7159C87.3568 23.5303 87.5045 23.3011 87.6068 23.0284L89.2148 23.3182C89.086 23.7917 88.8549 24.2064 88.5216 24.5625C88.192 24.9148 87.7773 25.1894 87.2773 25.3864C86.7811 25.5795 86.2148 25.6761 85.5784 25.6761ZM94.649 25.6761C93.7892 25.6761 93.0487 25.4924 92.4274 25.125C91.81 24.7538 91.3327 24.233 90.9956 23.5625C90.6623 22.8883 90.4956 22.0985 90.4956 21.1932C90.4956 20.2992 90.6623 19.5114 90.9956 18.8295C91.3327 18.1477 91.8024 17.6155 92.4047 17.233C93.0108 16.8504 93.7191 16.6591 94.5297 16.6591C95.0221 16.6591 95.4994 16.7405 95.9615 16.9034C96.4237 17.0663 96.8384 17.322 97.2059 17.6705C97.5733 18.0189 97.8631 18.4716 98.0752 19.0284C98.2873 19.5814 98.3934 20.2538 98.3934 21.0455V21.6477H91.4559V20.375H96.7286C96.7286 19.928 96.6377 19.5322 96.4559 19.1875C96.274 18.839 96.0184 18.5644 95.6888 18.3636C95.3631 18.1629 94.9805 18.0625 94.5411 18.0625C94.0638 18.0625 93.6471 18.1799 93.2911 18.4148C92.9388 18.6458 92.6661 18.9489 92.4729 19.3239C92.2835 19.6951 92.1888 20.0985 92.1888 20.5341V21.5284C92.1888 22.1117 92.2911 22.608 92.4956 23.017C92.704 23.4261 92.9937 23.7386 93.3649 23.9545C93.7362 24.1667 94.1699 24.2727 94.6661 24.2727C94.9881 24.2727 95.2816 24.2273 95.5468 24.1364C95.8119 24.0417 96.0411 23.9015 96.2343 23.7159C96.4274 23.5303 96.5752 23.3011 96.6774 23.0284L98.2854 23.3182C98.1566 23.7917 97.9256 24.2064 97.5922 24.5625C97.2627 24.9148 96.8479 25.1894 96.3479 25.3864C95.8517 25.5795 95.2854 25.6761 94.649 25.6761Z" fill="white"/>
<path d="M133.278 25.5V13.8636H135.034V23.9886H140.307V25.5H133.278ZM145.615 25.6761C144.755 25.6761 144.014 25.4924 143.393 25.125C142.776 24.7538 142.298 24.233 141.961 23.5625C141.628 22.8883 141.461 22.0985 141.461 21.1932C141.461 20.2992 141.628 19.5114 141.961 18.8295C142.298 18.1477 142.768 17.6155 143.37 17.233C143.976 16.8504 144.685 16.6591 145.495 16.6591C145.988 16.6591 146.465 16.7405 146.927 16.9034C147.389 17.0663 147.804 17.322 148.171 17.6705C148.539 18.0189 148.829 18.4716 149.041 19.0284C149.253 19.5814 149.359 20.2538 149.359 21.0455V21.6477H142.421V20.375H147.694C147.694 19.928 147.603 19.5322 147.421 19.1875C147.24 18.839 146.984 18.5644 146.654 18.3636C146.329 18.1629 145.946 18.0625 145.507 18.0625C145.029 18.0625 144.613 18.1799 144.257 18.4148C143.904 18.6458 143.632 18.9489 143.439 19.3239C143.249 19.6951 143.154 20.0985 143.154 20.5341V21.5284C143.154 22.1117 143.257 22.608 143.461 23.017C143.67 23.4261 143.959 23.7386 144.331 23.9545C144.702 24.1667 145.135 24.2727 145.632 24.2727C145.954 24.2727 146.247 24.2273 146.512 24.1364C146.778 24.0417 147.007 23.9015 147.2 23.7159C147.393 23.5303 147.541 23.3011 147.643 23.0284L149.251 23.3182C149.122 23.7917 148.891 24.2064 148.558 24.5625C148.228 24.9148 147.814 25.1894 147.314 25.3864C146.817 25.5795 146.251 25.6761 145.615 25.6761ZM153.464 25.6932C152.911 25.6932 152.411 25.5909 151.964 25.3864C151.517 25.178 151.163 24.8769 150.901 24.483C150.644 24.089 150.515 23.6061 150.515 23.0341C150.515 22.5417 150.61 22.1364 150.799 21.8182C150.988 21.5 151.244 21.2481 151.566 21.0625C151.888 20.8769 152.248 20.7367 152.646 20.642C153.043 20.5473 153.449 20.4754 153.861 20.4261C154.384 20.3655 154.808 20.3163 155.134 20.2784C155.46 20.2367 155.697 20.1705 155.844 20.0795C155.992 19.9886 156.066 19.8409 156.066 19.6364V19.5966C156.066 19.1004 155.926 18.7159 155.646 18.4432C155.369 18.1705 154.956 18.0341 154.407 18.0341C153.835 18.0341 153.384 18.161 153.055 18.4148C152.729 18.6648 152.503 18.9432 152.378 19.25L150.782 18.8864C150.971 18.3561 151.248 17.928 151.611 17.6023C151.979 17.2727 152.401 17.0341 152.878 16.8864C153.356 16.7348 153.858 16.6591 154.384 16.6591C154.733 16.6591 155.102 16.7008 155.492 16.7841C155.886 16.8636 156.253 17.0114 156.594 17.2273C156.939 17.4432 157.221 17.7519 157.441 18.1534C157.661 18.5511 157.771 19.0682 157.771 19.7045V25.5H156.111V24.3068H156.043C155.933 24.5265 155.769 24.7424 155.549 24.9545C155.329 25.1667 155.047 25.3428 154.702 25.483C154.358 25.6231 153.945 25.6932 153.464 25.6932ZM153.833 24.3295C154.303 24.3295 154.704 24.2367 155.038 24.0511C155.375 23.8655 155.63 23.6231 155.805 23.3239C155.983 23.0208 156.072 22.697 156.072 22.3523V21.2273C156.011 21.2879 155.894 21.3447 155.719 21.3977C155.549 21.447 155.354 21.4905 155.134 21.5284C154.914 21.5625 154.7 21.5947 154.492 21.625C154.284 21.6515 154.11 21.6742 153.969 21.6932C153.64 21.7348 153.339 21.8049 153.066 21.9034C152.797 22.0019 152.581 22.1439 152.418 22.3295C152.259 22.5114 152.18 22.7538 152.18 23.0568C152.18 23.4773 152.335 23.7955 152.646 24.0114C152.956 24.2235 153.352 24.3295 153.833 24.3295ZM159.713 25.5V16.7727H161.355V18.1591H161.446C161.605 17.6894 161.886 17.3201 162.287 17.0511C162.692 16.7784 163.151 16.642 163.662 16.642C163.768 16.642 163.893 16.6458 164.037 16.6534C164.185 16.661 164.3 16.6705 164.384 16.6818V18.3068C164.316 18.2879 164.194 18.267 164.02 18.2443C163.846 18.2178 163.672 18.2045 163.497 18.2045C163.096 18.2045 162.738 18.2898 162.424 18.4602C162.113 18.6269 161.867 18.8598 161.685 19.1591C161.503 19.4545 161.412 19.7917 161.412 20.1705V25.5H159.713ZM167.233 20.3182V25.5H165.534V16.7727H167.165V18.1932H167.273C167.473 17.7311 167.788 17.3598 168.216 17.0795C168.648 16.7992 169.191 16.6591 169.846 16.6591C170.441 16.6591 170.962 16.7841 171.409 17.0341C171.856 17.2803 172.202 17.6477 172.449 18.1364C172.695 18.625 172.818 19.2292 172.818 19.9489V25.5H171.119V20.1534C171.119 19.5208 170.954 19.0265 170.625 18.6705C170.295 18.3106 169.843 18.1307 169.267 18.1307C168.873 18.1307 168.523 18.2159 168.216 18.3864C167.913 18.5568 167.672 18.8068 167.494 19.1364C167.32 19.4621 167.233 19.8561 167.233 20.3182ZM178.691 25.5V16.7727H180.321V18.1932H180.429C180.611 17.7121 180.909 17.3371 181.321 17.0682C181.734 16.7955 182.229 16.6591 182.804 16.6591C183.388 16.6591 183.876 16.7955 184.27 17.0682C184.668 17.3409 184.962 17.7159 185.151 18.1932H185.242C185.45 17.7273 185.782 17.3561 186.236 17.0795C186.691 16.7992 187.232 16.6591 187.861 16.6591C188.653 16.6591 189.299 16.9072 189.799 17.4034C190.303 17.8996 190.554 18.6477 190.554 19.6477V25.5H188.856V19.8068C188.856 19.2159 188.695 18.7879 188.373 18.5227C188.051 18.2576 187.666 18.125 187.219 18.125C186.666 18.125 186.236 18.2955 185.929 18.6364C185.623 18.9735 185.469 19.4072 185.469 19.9375V25.5H183.776V19.6989C183.776 19.2254 183.628 18.8447 183.333 18.5568C183.037 18.2689 182.653 18.125 182.179 18.125C181.857 18.125 181.56 18.2102 181.287 18.3807C181.018 18.5473 180.801 18.7803 180.634 19.0795C180.471 19.3788 180.39 19.7254 180.39 20.1193V25.5H178.691ZM196.188 25.6761C195.369 25.6761 194.655 25.4886 194.046 25.1136C193.436 24.7386 192.962 24.214 192.625 23.5398C192.288 22.8655 192.119 22.0777 192.119 21.1761C192.119 20.2708 192.288 19.4792 192.625 18.8011C192.962 18.1231 193.436 17.5966 194.046 17.2216C194.655 16.8466 195.369 16.6591 196.188 16.6591C197.006 16.6591 197.72 16.8466 198.33 17.2216C198.939 17.5966 199.413 18.1231 199.75 18.8011C200.087 19.4792 200.256 20.2708 200.256 21.1761C200.256 22.0777 200.087 22.8655 199.75 23.5398C199.413 24.214 198.939 24.7386 198.33 25.1136C197.72 25.4886 197.006 25.6761 196.188 25.6761ZM196.193 24.25C196.724 24.25 197.163 24.1098 197.511 23.8295C197.86 23.5492 198.117 23.1761 198.284 22.7102C198.455 22.2443 198.54 21.7311 198.54 21.1705C198.54 20.6136 198.455 20.1023 198.284 19.6364C198.117 19.1667 197.86 18.7898 197.511 18.5057C197.163 18.2216 196.724 18.0795 196.193 18.0795C195.659 18.0795 195.216 18.2216 194.864 18.5057C194.515 18.7898 194.256 19.1667 194.085 19.6364C193.919 20.1023 193.835 20.6136 193.835 21.1705C193.835 21.7311 193.919 22.2443 194.085 22.7102C194.256 23.1761 194.515 23.5492 194.864 23.8295C195.216 24.1098 195.659 24.25 196.193 24.25ZM201.832 25.5V16.7727H203.474V18.1591H203.565C203.724 17.6894 204.004 17.3201 204.406 17.0511C204.811 16.7784 205.27 16.642 205.781 16.642C205.887 16.642 206.012 16.6458 206.156 16.6534C206.304 16.661 206.419 16.6705 206.503 16.6818V18.3068C206.434 18.2879 206.313 18.267 206.139 18.2443C205.965 18.2178 205.79 18.2045 205.616 18.2045C205.215 18.2045 204.857 18.2898 204.542 18.4602C204.232 18.6269 203.985 18.8598 203.804 19.1591C203.622 19.4545 203.531 19.7917 203.531 20.1705V25.5H201.832ZM211.102 25.6761C210.242 25.6761 209.501 25.4924 208.88 25.125C208.263 24.7538 207.785 24.233 207.448 23.5625C207.115 22.8883 206.948 22.0985 206.948 21.1932C206.948 20.2992 207.115 19.5114 207.448 18.8295C207.785 18.1477 208.255 17.6155 208.857 17.233C209.463 16.8504 210.172 16.6591 210.982 16.6591C211.475 16.6591 211.952 16.7405 212.414 16.9034C212.876 17.0663 213.291 17.322 213.658 17.6705C214.026 18.0189 214.316 18.4716 214.528 19.0284C214.74 19.5814 214.846 20.2538 214.846 21.0455V21.6477H207.908V20.375H213.181C213.181 19.928 213.09 19.5322 212.908 19.1875C212.727 18.839 212.471 18.5644 212.141 18.3636C211.816 18.1629 211.433 18.0625 210.994 18.0625C210.516 18.0625 210.1 18.1799 209.744 18.4148C209.391 18.6458 209.119 18.9489 208.925 19.3239C208.736 19.6951 208.641 20.0985 208.641 20.5341V21.5284C208.641 22.1117 208.744 22.608 208.948 23.017C209.156 23.4261 209.446 23.7386 209.817 23.9545C210.189 24.1667 210.622 24.2727 211.119 24.2727C211.441 24.2727 211.734 24.2273 211.999 24.1364C212.264 24.0417 212.494 23.9015 212.687 23.7159C212.88 23.5303 213.028 23.3011 213.13 23.0284L214.738 23.3182C214.609 23.7917 214.378 24.2064 214.045 24.5625C213.715 24.9148 213.3 25.1894 212.8 25.3864C212.304 25.5795 211.738 25.6761 211.102 25.6761Z" fill="black"/>
<path d="M236.031 20.5307L231.531 25.0307C231.39 25.1716 231.199 25.2508 230.999 25.2508C230.8 25.2508 230.609 25.1716 230.468 25.0307C230.327 24.8898 230.248 24.6987 230.248 24.4995C230.248 24.3002 230.327 24.1091 230.468 23.9682L233.688 20.7501H224.5C224.301 20.7501 224.11 20.6711 223.97 20.5304C223.829 20.3898 223.75 20.199 223.75 20.0001C223.75 19.8012 223.829 19.6104 223.97 19.4698C224.11 19.3291 224.301 19.2501 224.5 19.2501H233.688L230.469 16.0301C230.328 15.8892 230.249 15.6981 230.249 15.4989C230.249 15.2996 230.328 15.1085 230.469 14.9676C230.61 14.8267 230.801 14.7476 231.001 14.7476C231.2 14.7476 231.391 14.8267 231.532 14.9676L236.032 19.4676C236.102 19.5374 236.157 19.6203 236.195 19.7115C236.233 19.8028 236.252 19.9006 236.252 19.9994C236.252 20.0982 236.232 20.196 236.194 20.2872C236.156 20.3784 236.101 20.4611 236.031 20.5307Z" fill="black"/>
</svg>
