<svg width="444" height="51" viewBox="0 0 444 51" fill="none" xmlns="http://www.w3.org/2000/svg">
<path d="M10.5499 39L0.559915 1.2H7.95792L14.7619 31.278L22.7539 1.2H30.3679L38.1439 31.278L44.9479 1.2H52.3999L42.1399 39H33.9319L26.4259 10.974L18.7039 39H10.5499ZM54.0073 39V0.119998H60.9193V16.32C61.8193 14.844 63.0253 13.692 64.5373 12.864C66.0853 12 67.8493 11.568 69.8293 11.568C73.1413 11.568 75.6973 12.612 77.4973 14.7C79.3333 16.788 80.2513 19.848 80.2513 23.88V39H73.3933V24.528C73.3933 22.224 72.9253 20.46 71.9893 19.236C71.0893 18.012 69.6493 17.4 67.6693 17.4C65.7253 17.4 64.1053 18.084 62.8093 19.452C61.5493 20.82 60.9193 22.728 60.9193 25.176V39H54.0073ZM92.8548 39.648C90.5508 39.648 88.6608 39.288 87.1848 38.568C85.7088 37.812 84.6108 36.822 83.8908 35.598C83.1708 34.374 82.8108 33.024 82.8108 31.548C82.8108 29.064 83.7828 27.048 85.7268 25.5C87.6708 23.952 90.5868 23.178 94.4748 23.178H101.279V22.53C101.279 20.694 100.757 19.344 99.7128 18.48C98.6688 17.616 97.3728 17.184 95.8248 17.184C94.4208 17.184 93.1968 17.526 92.1528 18.21C91.1088 18.858 90.4608 19.83 90.2088 21.126H83.4588C83.6388 19.182 84.2868 17.49 85.4028 16.05C86.5548 14.61 88.0308 13.512 89.8308 12.756C91.6308 11.964 93.6468 11.568 95.8788 11.568C99.6948 11.568 102.701 12.522 104.897 14.43C107.093 16.338 108.191 19.038 108.191 22.53V39H102.305L101.657 34.68C100.865 36.12 99.7488 37.308 98.3088 38.244C96.9048 39.18 95.0868 39.648 92.8548 39.648ZM94.4208 34.248C96.4008 34.248 97.9308 33.6 99.0108 32.304C100.127 31.008 100.829 29.406 101.117 27.498H95.2308C93.3948 27.498 92.0808 27.84 91.2888 28.524C90.4968 29.172 90.1008 29.982 90.1008 30.954C90.1008 31.998 90.4968 32.808 91.2888 33.384C92.0808 33.96 93.1248 34.248 94.4208 34.248ZM123.112 39C120.304 39 118.054 38.316 116.362 36.948C114.67 35.58 113.824 33.15 113.824 29.658V17.994H109.234V12.216H113.824L114.634 5.034H120.736V12.216H127.972V17.994H120.736V29.712C120.736 31.008 121.006 31.908 121.546 32.412C122.122 32.88 123.094 33.114 124.462 33.114H127.81V39H123.112ZM153.145 39.648C150.553 39.648 148.213 39.054 146.125 37.866C144.073 36.678 142.435 35.04 141.211 32.952C140.023 30.828 139.429 28.38 139.429 25.608C139.429 22.836 140.041 20.406 141.265 18.318C142.489 16.194 144.127 14.538 146.179 13.35C148.267 12.162 150.607 11.568 153.199 11.568C155.755 11.568 158.059 12.162 160.111 13.35C162.199 14.538 163.837 16.194 165.025 18.318C166.249 20.406 166.861 22.836 166.861 25.608C166.861 28.38 166.249 30.828 165.025 32.952C163.837 35.04 162.199 36.678 160.111 37.866C158.023 39.054 155.701 39.648 153.145 39.648ZM153.145 33.654C154.945 33.654 156.511 32.988 157.843 31.656C159.175 30.288 159.841 28.272 159.841 25.608C159.841 22.944 159.175 20.946 157.843 19.614C156.511 18.246 154.963 17.562 153.199 17.562C151.363 17.562 149.779 18.246 148.447 19.614C147.151 20.946 146.503 22.944 146.503 25.608C146.503 28.272 147.151 30.288 148.447 31.656C149.779 32.988 151.345 33.654 153.145 33.654ZM179.845 39.648C176.497 39.648 173.905 38.604 172.069 36.516C170.269 34.428 169.369 31.368 169.369 27.336V12.216H176.227V26.688C176.227 28.992 176.695 30.756 177.631 31.98C178.567 33.204 180.043 33.816 182.059 33.816C183.967 33.816 185.533 33.132 186.757 31.764C188.017 30.396 188.647 28.488 188.647 26.04V12.216H195.559V39H189.457L188.917 34.464C188.089 36.048 186.883 37.308 185.299 38.244C183.751 39.18 181.933 39.648 179.845 39.648ZM199.415 39V12.216H205.571L206.219 17.238C207.191 15.51 208.505 14.142 210.161 13.134C211.853 12.09 213.833 11.568 216.101 11.568V18.858H214.157C212.645 18.858 211.295 19.092 210.107 19.56C208.919 20.028 207.983 20.838 207.299 21.99C206.651 23.142 206.327 24.744 206.327 26.796V39H199.415ZM237.256 39.648C233.908 39.648 231.316 38.604 229.48 36.516C227.68 34.428 226.78 31.368 226.78 27.336V12.216H233.638V26.688C233.638 28.992 234.106 30.756 235.042 31.98C235.978 33.204 237.454 33.816 239.47 33.816C241.378 33.816 242.944 33.132 244.168 31.764C245.428 30.396 246.058 28.488 246.058 26.04V12.216H252.97V39H246.868L246.328 34.464C245.5 36.048 244.294 37.308 242.71 38.244C241.162 39.18 239.344 39.648 237.256 39.648ZM267.896 39.648C265.52 39.648 263.432 39.27 261.632 38.514C259.832 37.722 258.392 36.642 257.312 35.274C256.232 33.906 255.584 32.322 255.368 30.522H262.334C262.55 31.566 263.126 32.466 264.062 33.222C265.034 33.942 266.276 34.302 267.788 34.302C269.3 34.302 270.398 33.996 271.082 33.384C271.802 32.772 272.162 32.07 272.162 31.278C272.162 30.126 271.658 29.352 270.65 28.956C269.642 28.524 268.238 28.11 266.438 27.714C265.286 27.462 264.116 27.156 262.928 26.796C261.74 26.436 260.642 25.986 259.634 25.446C258.662 24.87 257.87 24.15 257.258 23.286C256.646 22.386 256.34 21.288 256.34 19.992C256.34 17.616 257.276 15.618 259.148 13.998C261.056 12.378 263.72 11.568 267.14 11.568C270.308 11.568 272.828 12.306 274.7 13.782C276.608 15.258 277.742 17.292 278.102 19.884H271.568C271.172 17.904 269.678 16.914 267.086 16.914C265.79 16.914 264.782 17.166 264.062 17.67C263.378 18.174 263.036 18.804 263.036 19.56C263.036 20.352 263.558 20.982 264.602 21.45C265.646 21.918 267.032 22.35 268.76 22.746C270.632 23.178 272.342 23.664 273.89 24.204C275.474 24.708 276.734 25.482 277.67 26.526C278.606 27.534 279.074 28.992 279.074 30.9C279.11 32.556 278.678 34.05 277.778 35.382C276.878 36.714 275.582 37.758 273.89 38.514C272.198 39.27 270.2 39.648 267.896 39.648ZM294.971 39.648C292.271 39.648 289.877 39.072 287.789 37.92C285.701 36.768 284.063 35.148 282.875 33.06C281.687 30.972 281.093 28.56 281.093 25.824C281.093 23.052 281.669 20.586 282.821 18.426C284.009 16.266 285.629 14.592 287.681 13.404C289.769 12.18 292.217 11.568 295.025 11.568C297.653 11.568 299.975 12.144 301.991 13.296C304.007 14.448 305.573 16.032 306.689 18.048C307.841 20.028 308.417 22.242 308.417 24.69C308.417 25.086 308.399 25.5 308.363 25.932C308.363 26.364 308.345 26.814 308.309 27.282H287.951C288.095 29.37 288.815 31.008 290.111 32.196C291.443 33.384 293.045 33.978 294.917 33.978C296.321 33.978 297.491 33.672 298.427 33.06C299.399 32.412 300.119 31.584 300.587 30.576H307.607C307.103 32.268 306.257 33.816 305.069 35.22C303.917 36.588 302.477 37.668 300.749 38.46C299.057 39.252 297.131 39.648 294.971 39.648ZM295.025 17.184C293.333 17.184 291.839 17.67 290.543 18.642C289.247 19.578 288.419 21.018 288.059 22.962H301.397C301.289 21.198 300.641 19.794 299.453 18.75C298.265 17.706 296.789 17.184 295.025 17.184ZM310.99 39V12.216H317.146L317.794 17.238C318.766 15.51 320.08 14.142 321.736 13.134C323.428 12.09 325.408 11.568 327.676 11.568V18.858H325.732C324.22 18.858 322.87 19.092 321.682 19.56C320.494 20.028 319.558 20.838 318.874 21.99C318.226 23.142 317.902 24.744 317.902 26.796V39H310.99ZM340.23 39.648C337.854 39.648 335.766 39.27 333.966 38.514C332.166 37.722 330.726 36.642 329.646 35.274C328.566 33.906 327.918 32.322 327.702 30.522H334.668C334.884 31.566 335.46 32.466 336.396 33.222C337.368 33.942 338.61 34.302 340.122 34.302C341.634 34.302 342.732 33.996 343.416 33.384C344.136 32.772 344.496 32.07 344.496 31.278C344.496 30.126 343.992 29.352 342.984 28.956C341.976 28.524 340.572 28.11 338.772 27.714C337.62 27.462 336.45 27.156 335.262 26.796C334.074 26.436 332.976 25.986 331.968 25.446C330.996 24.87 330.204 24.15 329.592 23.286C328.98 22.386 328.674 21.288 328.674 19.992C328.674 17.616 329.61 15.618 331.482 13.998C333.39 12.378 336.054 11.568 339.474 11.568C342.642 11.568 345.162 12.306 347.034 13.782C348.942 15.258 350.076 17.292 350.436 19.884H343.902C343.506 17.904 342.012 16.914 339.42 16.914C338.124 16.914 337.116 17.166 336.396 17.67C335.712 18.174 335.37 18.804 335.37 19.56C335.37 20.352 335.892 20.982 336.936 21.45C337.98 21.918 339.366 22.35 341.094 22.746C342.966 23.178 344.676 23.664 346.224 24.204C347.808 24.708 349.068 25.482 350.004 26.526C350.94 27.534 351.408 28.992 351.408 30.9C351.444 32.556 351.012 34.05 350.112 35.382C349.212 36.714 347.916 37.758 346.224 38.514C344.532 39.27 342.534 39.648 340.23 39.648ZM374.989 39.648C372.613 39.648 370.525 39.27 368.725 38.514C366.925 37.722 365.485 36.642 364.405 35.274C363.325 33.906 362.677 32.322 362.461 30.522H369.427C369.643 31.566 370.219 32.466 371.155 33.222C372.127 33.942 373.369 34.302 374.881 34.302C376.393 34.302 377.491 33.996 378.175 33.384C378.895 32.772 379.255 32.07 379.255 31.278C379.255 30.126 378.751 29.352 377.743 28.956C376.735 28.524 375.331 28.11 373.531 27.714C372.379 27.462 371.209 27.156 370.021 26.796C368.833 26.436 367.735 25.986 366.727 25.446C365.755 24.87 364.963 24.15 364.351 23.286C363.739 22.386 363.433 21.288 363.433 19.992C363.433 17.616 364.369 15.618 366.241 13.998C368.149 12.378 370.813 11.568 374.233 11.568C377.401 11.568 379.921 12.306 381.793 13.782C383.701 15.258 384.835 17.292 385.195 19.884H378.661C378.265 17.904 376.771 16.914 374.179 16.914C372.883 16.914 371.875 17.166 371.155 17.67C370.471 18.174 370.129 18.804 370.129 19.56C370.129 20.352 370.651 20.982 371.695 21.45C372.739 21.918 374.125 22.35 375.853 22.746C377.725 23.178 379.435 23.664 380.983 24.204C382.567 24.708 383.827 25.482 384.763 26.526C385.699 27.534 386.167 28.992 386.167 30.9C386.203 32.556 385.771 34.05 384.871 35.382C383.971 36.714 382.675 37.758 380.983 38.514C379.291 39.27 377.293 39.648 374.989 39.648ZM398.284 39.648C395.98 39.648 394.09 39.288 392.614 38.568C391.138 37.812 390.04 36.822 389.32 35.598C388.6 34.374 388.24 33.024 388.24 31.548C388.24 29.064 389.212 27.048 391.156 25.5C393.1 23.952 396.016 23.178 399.904 23.178H406.708V22.53C406.708 20.694 406.186 19.344 405.142 18.48C404.098 17.616 402.802 17.184 401.254 17.184C399.85 17.184 398.626 17.526 397.582 18.21C396.538 18.858 395.89 19.83 395.638 21.126H388.888C389.068 19.182 389.716 17.49 390.832 16.05C391.984 14.61 393.46 13.512 395.26 12.756C397.06 11.964 399.076 11.568 401.308 11.568C405.124 11.568 408.13 12.522 410.326 14.43C412.522 16.338 413.62 19.038 413.62 22.53V39H407.734L407.086 34.68C406.294 36.12 405.178 37.308 403.738 38.244C402.334 39.18 400.516 39.648 398.284 39.648ZM399.85 34.248C401.83 34.248 403.36 33.6 404.44 32.304C405.556 31.008 406.258 29.406 406.546 27.498H400.66C398.824 27.498 397.51 27.84 396.718 28.524C395.926 29.172 395.53 29.982 395.53 30.954C395.53 31.998 395.926 32.808 396.718 33.384C397.51 33.96 398.554 34.248 399.85 34.248ZM419.427 50.88L425.637 37.218H424.017L413.595 12.216H421.101L428.607 31.062L436.437 12.216H443.781L426.771 50.88H419.427Z" fill="url(#paint0_linear_27_109)"/>
<defs>
<linearGradient id="paint0_linear_27_109" x1="222" y1="-9" x2="222" y2="52" gradientUnits="userSpaceOnUse">
<stop/>
<stop offset="1" stop-color="#001354"/>
</linearGradient>
</defs>
</svg>
