<svg width="487" height="112" viewBox="0 0 487 112" fill="none" xmlns="http://www.w3.org/2000/svg">
<path d="M0.816799 39L14.6408 1.2H22.4168L36.2408 39H28.8968L25.8728 30.252H11.1308L8.0528 39H0.816799ZM13.0208 24.852H23.9828L18.4748 9.138L13.0208 24.852ZM47.3353 39V12.216H53.4373L54.0313 15.834C54.8953 14.538 56.0293 13.512 57.4333 12.756C58.8733 11.964 60.5293 11.568 62.4013 11.568C66.5413 11.568 69.4753 13.17 71.2033 16.374C72.1753 14.898 73.4713 13.728 75.0913 12.864C76.7473 12 78.5473 11.568 80.4913 11.568C83.9833 11.568 86.6653 12.612 88.5373 14.7C90.4093 16.788 91.3453 19.848 91.3453 23.88V39H84.4333V24.528C84.4333 22.224 83.9833 20.46 83.0833 19.236C82.2193 18.012 80.8693 17.4 79.0333 17.4C77.1613 17.4 75.6493 18.084 74.4973 19.452C73.3813 20.82 72.8233 22.728 72.8233 25.176V39H65.9113V24.528C65.9113 22.224 65.4613 20.46 64.5613 19.236C63.6613 18.012 62.2753 17.4 60.4033 17.4C58.5673 17.4 57.0733 18.084 55.9213 19.452C54.8053 20.82 54.2473 22.728 54.2473 25.176V39H47.3353ZM107.52 39.648C104.928 39.648 102.588 39.054 100.5 37.866C98.4475 36.678 96.8095 35.04 95.5855 32.952C94.3975 30.828 93.8035 28.38 93.8035 25.608C93.8035 22.836 94.4155 20.406 95.6395 18.318C96.8635 16.194 98.5015 14.538 100.554 13.35C102.642 12.162 104.982 11.568 107.574 11.568C110.13 11.568 112.434 12.162 114.486 13.35C116.574 14.538 118.212 16.194 119.4 18.318C120.624 20.406 121.236 22.836 121.236 25.608C121.236 28.38 120.624 30.828 119.4 32.952C118.212 35.04 116.574 36.678 114.486 37.866C112.398 39.054 110.076 39.648 107.52 39.648ZM107.52 33.654C109.32 33.654 110.886 32.988 112.218 31.656C113.55 30.288 114.216 28.272 114.216 25.608C114.216 22.944 113.55 20.946 112.218 19.614C110.886 18.246 109.338 17.562 107.574 17.562C105.738 17.562 104.154 18.246 102.822 19.614C101.526 20.946 100.878 22.944 100.878 25.608C100.878 28.272 101.526 30.288 102.822 31.656C104.154 32.988 105.72 33.654 107.52 33.654ZM124.176 39V12.216H130.332L130.98 17.238C131.952 15.51 133.266 14.142 134.922 13.134C136.614 12.09 138.594 11.568 140.862 11.568V18.858H138.918C137.406 18.858 136.056 19.092 134.868 19.56C133.68 20.028 132.744 20.838 132.06 21.99C131.412 23.142 131.088 24.744 131.088 26.796V39H124.176ZM154.885 39.648C152.185 39.648 149.791 39.072 147.703 37.92C145.615 36.768 143.977 35.148 142.789 33.06C141.601 30.972 141.007 28.56 141.007 25.824C141.007 23.052 141.583 20.586 142.735 18.426C143.923 16.266 145.543 14.592 147.595 13.404C149.683 12.18 152.131 11.568 154.939 11.568C157.567 11.568 159.889 12.144 161.905 13.296C163.921 14.448 165.487 16.032 166.603 18.048C167.755 20.028 168.331 22.242 168.331 24.69C168.331 25.086 168.313 25.5 168.277 25.932C168.277 26.364 168.259 26.814 168.223 27.282H147.865C148.009 29.37 148.729 31.008 150.025 32.196C151.357 33.384 152.959 33.978 154.831 33.978C156.235 33.978 157.405 33.672 158.341 33.06C159.313 32.412 160.033 31.584 160.501 30.576H167.521C167.017 32.268 166.171 33.816 164.983 35.22C163.831 36.588 162.391 37.668 160.663 38.46C158.971 39.252 157.045 39.648 154.885 39.648ZM154.939 17.184C153.247 17.184 151.753 17.67 150.457 18.642C149.161 19.578 148.333 21.018 147.973 22.962H161.311C161.203 21.198 160.555 19.794 159.367 18.75C158.179 17.706 156.703 17.184 154.939 17.184ZM193.546 39.648C190.846 39.648 188.452 39.072 186.364 37.92C184.276 36.768 182.638 35.148 181.45 33.06C180.262 30.972 179.668 28.56 179.668 25.824C179.668 23.052 180.244 20.586 181.396 18.426C182.584 16.266 184.204 14.592 186.256 13.404C188.344 12.18 190.792 11.568 193.6 11.568C196.228 11.568 198.55 12.144 200.566 13.296C202.582 14.448 204.148 16.032 205.264 18.048C206.416 20.028 206.992 22.242 206.992 24.69C206.992 25.086 206.974 25.5 206.938 25.932C206.938 26.364 206.92 26.814 206.884 27.282H186.526C186.67 29.37 187.39 31.008 188.686 32.196C190.018 33.384 191.62 33.978 193.492 33.978C194.896 33.978 196.066 33.672 197.002 33.06C197.974 32.412 198.694 31.584 199.162 30.576H206.182C205.678 32.268 204.832 33.816 203.644 35.22C202.492 36.588 201.052 37.668 199.324 38.46C197.632 39.252 195.706 39.648 193.546 39.648ZM193.6 17.184C191.908 17.184 190.414 17.67 189.118 18.642C187.822 19.578 186.994 21.018 186.634 22.962H199.972C199.864 21.198 199.216 19.794 198.028 18.75C196.84 17.706 195.364 17.184 193.6 17.184ZM210.807 39V17.994H207.135V12.216H210.807V9.084C210.807 5.844 211.617 3.54 213.237 2.172C214.893 0.803998 217.125 0.119998 219.933 0.119998H222.903V6.006H221.013C219.825 6.006 218.979 6.24 218.475 6.708C217.971 7.176 217.719 7.968 217.719 9.084V12.216H223.497V17.994H217.719V39H210.807ZM226.973 39V17.994H223.301V12.216H226.973V9.084C226.973 5.844 227.783 3.54 229.403 2.172C231.059 0.803998 233.291 0.119998 236.099 0.119998H239.069V6.006H237.179C235.991 6.006 235.145 6.24 234.641 6.708C234.137 7.176 233.885 7.968 233.885 9.084V12.216H239.663V17.994H233.885V39H226.973ZM253.857 39.648C251.157 39.648 248.763 39.072 246.675 37.92C244.587 36.768 242.949 35.148 241.761 33.06C240.573 30.972 239.979 28.56 239.979 25.824C239.979 23.052 240.555 20.586 241.707 18.426C242.895 16.266 244.515 14.592 246.567 13.404C248.655 12.18 251.103 11.568 253.911 11.568C256.539 11.568 258.861 12.144 260.877 13.296C262.893 14.448 264.459 16.032 265.575 18.048C266.727 20.028 267.303 22.242 267.303 24.69C267.303 25.086 267.285 25.5 267.249 25.932C267.249 26.364 267.231 26.814 267.195 27.282H246.837C246.981 29.37 247.701 31.008 248.997 32.196C250.329 33.384 251.931 33.978 253.803 33.978C255.207 33.978 256.377 33.672 257.313 33.06C258.285 32.412 259.005 31.584 259.473 30.576H266.493C265.989 32.268 265.143 33.816 263.955 35.22C262.803 36.588 261.363 37.668 259.635 38.46C257.943 39.252 256.017 39.648 253.857 39.648ZM253.911 17.184C252.219 17.184 250.725 17.67 249.429 18.642C248.133 19.578 247.305 21.018 246.945 22.962H260.283C260.175 21.198 259.527 19.794 258.339 18.75C257.151 17.706 255.675 17.184 253.911 17.184ZM282.998 39.648C280.262 39.648 277.85 39.054 275.762 37.866C273.674 36.678 272.018 35.022 270.794 32.898C269.606 30.774 269.012 28.344 269.012 25.608C269.012 22.872 269.606 20.442 270.794 18.318C272.018 16.194 273.674 14.538 275.762 13.35C277.85 12.162 280.262 11.568 282.998 11.568C286.418 11.568 289.298 12.468 291.638 14.268C293.978 16.032 295.472 18.48 296.12 21.612H288.83C288.47 20.316 287.75 19.308 286.67 18.588C285.626 17.832 284.384 17.454 282.944 17.454C281.036 17.454 279.416 18.174 278.084 19.614C276.752 21.054 276.086 23.052 276.086 25.608C276.086 28.164 276.752 30.162 278.084 31.602C279.416 33.042 281.036 33.762 282.944 33.762C284.384 33.762 285.626 33.402 286.67 32.682C287.75 31.962 288.47 30.936 288.83 29.604H296.12C295.472 32.628 293.978 35.058 291.638 36.894C289.298 38.73 286.418 39.648 282.998 39.648ZM310.58 39C307.772 39 305.522 38.316 303.83 36.948C302.138 35.58 301.292 33.15 301.292 29.658V17.994H296.702V12.216H301.292L302.102 5.034H308.204V12.216H315.44V17.994H308.204V29.712C308.204 31.008 308.474 31.908 309.014 32.412C309.59 32.88 310.562 33.114 311.93 33.114H315.278V39H310.58ZM321.861 8.058C320.601 8.058 319.557 7.68 318.729 6.924C317.937 6.168 317.541 5.214 317.541 4.062C317.541 2.91 317.937 1.974 318.729 1.254C319.557 0.497998 320.601 0.119998 321.861 0.119998C323.121 0.119998 324.147 0.497998 324.939 1.254C325.767 1.974 326.181 2.91 326.181 4.062C326.181 5.214 325.767 6.168 324.939 6.924C324.147 7.68 323.121 8.058 321.861 8.058ZM318.405 39V12.216H325.317V39H318.405ZM336.527 39L326.699 12.216H333.935L340.739 32.466L347.543 12.216H354.779L344.897 39H336.527ZM367.594 39.648C364.894 39.648 362.5 39.072 360.412 37.92C358.324 36.768 356.686 35.148 355.498 33.06C354.31 30.972 353.716 28.56 353.716 25.824C353.716 23.052 354.292 20.586 355.444 18.426C356.632 16.266 358.252 14.592 360.304 13.404C362.392 12.18 364.84 11.568 367.648 11.568C370.276 11.568 372.598 12.144 374.614 13.296C376.63 14.448 378.196 16.032 379.312 18.048C380.464 20.028 381.04 22.242 381.04 24.69C381.04 25.086 381.022 25.5 380.986 25.932C380.986 26.364 380.968 26.814 380.932 27.282H360.574C360.718 29.37 361.438 31.008 362.734 32.196C364.066 33.384 365.668 33.978 367.54 33.978C368.944 33.978 370.114 33.672 371.05 33.06C372.022 32.412 372.742 31.584 373.21 30.576H380.23C379.726 32.268 378.88 33.816 377.692 35.22C376.54 36.588 375.1 37.668 373.372 38.46C371.68 39.252 369.754 39.648 367.594 39.648ZM367.648 17.184C365.956 17.184 364.462 17.67 363.166 18.642C361.87 19.578 361.042 21.018 360.682 22.962H374.02C373.912 21.198 373.264 19.794 372.076 18.75C370.888 17.706 369.412 17.184 367.648 17.184ZM398.479 39L390.649 12.216H397.507L402.151 31.494L407.551 12.216H415.219L420.619 31.494L425.317 12.216H432.175L424.291 39H417.109L411.385 18.966L405.661 39H398.479ZM441.159 39.648C438.855 39.648 436.965 39.288 435.489 38.568C434.013 37.812 432.915 36.822 432.195 35.598C431.475 34.374 431.115 33.024 431.115 31.548C431.115 29.064 432.087 27.048 434.031 25.5C435.975 23.952 438.891 23.178 442.779 23.178H449.583V22.53C449.583 20.694 449.061 19.344 448.017 18.48C446.973 17.616 445.677 17.184 444.129 17.184C442.725 17.184 441.501 17.526 440.457 18.21C439.413 18.858 438.765 19.83 438.513 21.126H431.763C431.943 19.182 432.591 17.49 433.707 16.05C434.859 14.61 436.335 13.512 438.135 12.756C439.935 11.964 441.951 11.568 444.183 11.568C447.999 11.568 451.005 12.522 453.201 14.43C455.397 16.338 456.495 19.038 456.495 22.53V39H450.609L449.961 34.68C449.169 36.12 448.053 37.308 446.613 38.244C445.209 39.18 443.391 39.648 441.159 39.648ZM442.725 34.248C444.705 34.248 446.235 33.6 447.315 32.304C448.431 31.008 449.133 29.406 449.421 27.498H443.535C441.699 27.498 440.385 27.84 439.593 28.524C438.801 29.172 438.405 29.982 438.405 30.954C438.405 31.998 438.801 32.808 439.593 33.384C440.385 33.96 441.429 34.248 442.725 34.248ZM462.302 50.88L468.512 37.218H466.892L456.47 12.216H463.976L471.482 31.062L479.312 12.216H486.656L469.646 50.88H462.302ZM59.9548 99C57.1468 99 54.8968 98.316 53.2048 96.948C51.5128 95.58 50.6668 93.15 50.6668 89.658V77.994H46.0768V72.216H50.6668L51.4768 65.034H57.5788V72.216H64.8148V77.994H57.5788V89.712C57.5788 91.008 57.8488 91.908 58.3888 92.412C58.9648 92.88 59.9368 93.114 61.3048 93.114H64.6528V99H59.9548ZM79.6758 99.648C77.0838 99.648 74.7438 99.054 72.6558 97.866C70.6038 96.678 68.9658 95.04 67.7418 92.952C66.5538 90.828 65.9598 88.38 65.9598 85.608C65.9598 82.836 66.5718 80.406 67.7958 78.318C69.0198 76.194 70.6578 74.538 72.7098 73.35C74.7978 72.162 77.1378 71.568 79.7298 71.568C82.2858 71.568 84.5898 72.162 86.6418 73.35C88.7298 74.538 90.3678 76.194 91.5558 78.318C92.7798 80.406 93.3918 82.836 93.3918 85.608C93.3918 88.38 92.7798 90.828 91.5558 92.952C90.3678 95.04 88.7298 96.678 86.6418 97.866C84.5538 99.054 82.2318 99.648 79.6758 99.648ZM79.6758 93.654C81.4758 93.654 83.0418 92.988 84.3738 91.656C85.7058 90.288 86.3718 88.272 86.3718 85.608C86.3718 82.944 85.7058 80.946 84.3738 79.614C83.0418 78.246 81.4938 77.562 79.7298 77.562C77.8938 77.562 76.3098 78.246 74.9778 79.614C73.6818 80.946 73.0338 82.944 73.0338 85.608C73.0338 88.272 73.6818 90.288 74.9778 91.656C76.3098 92.988 77.8758 93.654 79.6758 93.654ZM117.893 99C115.085 99 112.835 98.316 111.143 96.948C109.451 95.58 108.605 93.15 108.605 89.658V77.994H104.015V72.216H108.605L109.415 65.034H115.517V72.216H122.753V77.994H115.517V89.712C115.517 91.008 115.787 91.908 116.327 92.412C116.903 92.88 117.875 93.114 119.243 93.114H122.591V99H117.893ZM125.448 99V72.216H131.604L132.252 77.238C133.224 75.51 134.538 74.142 136.194 73.134C137.886 72.09 139.866 71.568 142.134 71.568V78.858H140.19C138.678 78.858 137.328 79.092 136.14 79.56C134.952 80.028 134.016 80.838 133.332 81.99C132.684 83.142 132.36 84.744 132.36 86.796V99H125.448ZM152.852 99.648C150.548 99.648 148.658 99.288 147.182 98.568C145.706 97.812 144.608 96.822 143.888 95.598C143.168 94.374 142.808 93.024 142.808 91.548C142.808 89.064 143.78 87.048 145.724 85.5C147.668 83.952 150.584 83.178 154.472 83.178H161.276V82.53C161.276 80.694 160.754 79.344 159.71 78.48C158.666 77.616 157.37 77.184 155.822 77.184C154.418 77.184 153.194 77.526 152.15 78.21C151.106 78.858 150.458 79.83 150.206 81.126H143.456C143.636 79.182 144.284 77.49 145.4 76.05C146.552 74.61 148.028 73.512 149.828 72.756C151.628 71.964 153.644 71.568 155.876 71.568C159.692 71.568 162.698 72.522 164.894 74.43C167.09 76.338 168.188 79.038 168.188 82.53V99H162.302L161.654 94.68C160.862 96.12 159.746 97.308 158.306 98.244C156.902 99.18 155.084 99.648 152.852 99.648ZM154.418 94.248C156.398 94.248 157.928 93.6 159.008 92.304C160.124 91.008 160.826 89.406 161.114 87.498H155.228C153.392 87.498 152.078 87.84 151.286 88.524C150.494 89.172 150.098 89.982 150.098 90.954C150.098 91.998 150.494 92.808 151.286 93.384C152.078 93.96 153.122 94.248 154.418 94.248ZM184.666 99.648C181.93 99.648 179.518 99.054 177.43 97.866C175.342 96.678 173.686 95.022 172.462 92.898C171.274 90.774 170.68 88.344 170.68 85.608C170.68 82.872 171.274 80.442 172.462 78.318C173.686 76.194 175.342 74.538 177.43 73.35C179.518 72.162 181.93 71.568 184.666 71.568C188.086 71.568 190.966 72.468 193.306 74.268C195.646 76.032 197.14 78.48 197.788 81.612H190.498C190.138 80.316 189.418 79.308 188.338 78.588C187.294 77.832 186.052 77.454 184.612 77.454C182.704 77.454 181.084 78.174 179.752 79.614C178.42 81.054 177.754 83.052 177.754 85.608C177.754 88.164 178.42 90.162 179.752 91.602C181.084 93.042 182.704 93.762 184.612 93.762C186.052 93.762 187.294 93.402 188.338 92.682C189.418 91.962 190.138 90.936 190.498 89.604H197.788C197.14 92.628 195.646 95.058 193.306 96.894C190.966 98.73 188.086 99.648 184.666 99.648ZM200.683 99V60.12H207.595V83.07L217.099 72.216H225.307L214.345 84.42L227.089 99H218.449L207.595 85.554V99H200.683ZM237.761 110.88V72.216H243.917L244.673 76.05C245.537 74.862 246.671 73.818 248.075 72.918C249.515 72.018 251.369 71.568 253.637 71.568C256.157 71.568 258.407 72.18 260.387 73.404C262.367 74.628 263.933 76.302 265.085 78.426C266.237 80.55 266.813 82.962 266.813 85.662C266.813 88.362 266.237 90.774 265.085 92.898C263.933 94.986 262.367 96.642 260.387 97.866C258.407 99.054 256.157 99.648 253.637 99.648C251.621 99.648 249.857 99.27 248.345 98.514C246.833 97.758 245.609 96.696 244.673 95.328V110.88H237.761ZM252.179 93.6C254.375 93.6 256.193 92.862 257.633 91.386C259.073 89.91 259.793 88.002 259.793 85.662C259.793 83.322 259.073 81.396 257.633 79.884C256.193 78.372 254.375 77.616 252.179 77.616C249.947 77.616 248.111 78.372 246.671 79.884C245.267 81.36 244.565 83.268 244.565 85.608C244.565 87.948 245.267 89.874 246.671 91.386C248.111 92.862 249.947 93.6 252.179 93.6ZM269.748 99V72.216H275.904L276.552 77.238C277.524 75.51 278.838 74.142 280.494 73.134C282.186 72.09 284.166 71.568 286.434 71.568V78.858H284.49C282.978 78.858 281.628 79.092 280.44 79.56C279.252 80.028 278.316 80.838 277.632 81.99C276.984 83.142 276.66 84.744 276.66 86.796V99H269.748ZM300.295 99.648C297.703 99.648 295.363 99.054 293.275 97.866C291.223 96.678 289.585 95.04 288.361 92.952C287.173 90.828 286.579 88.38 286.579 85.608C286.579 82.836 287.191 80.406 288.415 78.318C289.639 76.194 291.277 74.538 293.329 73.35C295.417 72.162 297.757 71.568 300.349 71.568C302.905 71.568 305.209 72.162 307.261 73.35C309.349 74.538 310.987 76.194 312.175 78.318C313.399 80.406 314.011 82.836 314.011 85.608C314.011 88.38 313.399 90.828 312.175 92.952C310.987 95.04 309.349 96.678 307.261 97.866C305.173 99.054 302.851 99.648 300.295 99.648ZM300.295 93.654C302.095 93.654 303.661 92.988 304.993 91.656C306.325 90.288 306.991 88.272 306.991 85.608C306.991 82.944 306.325 80.946 304.993 79.614C303.661 78.246 302.113 77.562 300.349 77.562C298.513 77.562 296.929 78.246 295.597 79.614C294.301 80.946 293.653 82.944 293.653 85.608C293.653 88.272 294.301 90.288 295.597 91.656C296.929 92.988 298.495 93.654 300.295 93.654ZM326.604 91.008C325.308 91.008 324.102 90.864 322.986 90.576L320.988 92.574C321.6 92.898 322.428 93.168 323.472 93.384C324.516 93.6 326.208 93.816 328.548 94.032C332.112 94.356 334.704 95.202 336.324 96.57C337.944 97.938 338.754 99.828 338.754 102.24C338.754 103.824 338.322 105.318 337.458 106.722C336.594 108.162 335.262 109.314 333.462 110.178C331.662 111.078 329.358 111.528 326.55 111.528C322.734 111.528 319.656 110.808 317.316 109.368C314.976 107.964 313.806 105.84 313.806 102.996C313.806 100.584 314.976 98.496 317.316 96.732C316.596 96.408 315.966 96.066 315.426 95.706C314.922 95.346 314.472 94.968 314.076 94.572V93.33L318.774 88.362C316.686 86.526 315.642 84.168 315.642 81.288C315.642 79.488 316.074 77.85 316.938 76.374C317.838 74.898 319.098 73.728 320.718 72.864C322.338 72 324.3 71.568 326.604 71.568C328.116 71.568 329.52 71.784 330.816 72.216H340.968V76.428L336.378 76.752C337.098 78.12 337.458 79.632 337.458 81.288C337.458 83.088 337.026 84.726 336.162 86.202C335.298 87.678 334.038 88.848 332.382 89.712C330.762 90.576 328.836 91.008 326.604 91.008ZM326.604 85.716C328.008 85.716 329.16 85.338 330.06 84.582C330.996 83.826 331.464 82.746 331.464 81.342C331.464 79.938 330.996 78.858 330.06 78.102C329.16 77.346 328.008 76.968 326.604 76.968C325.128 76.968 323.94 77.346 323.04 78.102C322.14 78.858 321.69 79.938 321.69 81.342C321.69 82.746 322.14 83.826 323.04 84.582C323.94 85.338 325.128 85.716 326.604 85.716ZM320.124 102.294C320.124 103.626 320.736 104.616 321.96 105.264C323.22 105.948 324.75 106.29 326.55 106.29C328.278 106.29 329.682 105.93 330.762 105.21C331.842 104.526 332.382 103.59 332.382 102.402C332.382 101.43 332.022 100.62 331.302 99.972C330.618 99.324 329.232 98.928 327.144 98.784C325.668 98.676 324.3 98.514 323.04 98.298C321.996 98.874 321.24 99.504 320.772 100.188C320.34 100.872 320.124 101.574 320.124 102.294ZM342.768 99V72.216H348.924L349.572 77.238C350.544 75.51 351.858 74.142 353.514 73.134C355.206 72.09 357.186 71.568 359.454 71.568V78.858H357.51C355.998 78.858 354.648 79.092 353.46 79.56C352.272 80.028 351.336 80.838 350.652 81.99C350.004 83.142 349.68 84.744 349.68 86.796V99H342.768ZM373.478 99.648C370.778 99.648 368.384 99.072 366.296 97.92C364.208 96.768 362.57 95.148 361.382 93.06C360.194 90.972 359.6 88.56 359.6 85.824C359.6 83.052 360.176 80.586 361.328 78.426C362.516 76.266 364.136 74.592 366.188 73.404C368.276 72.18 370.724 71.568 373.532 71.568C376.16 71.568 378.482 72.144 380.498 73.296C382.514 74.448 384.08 76.032 385.196 78.048C386.348 80.028 386.924 82.242 386.924 84.69C386.924 85.086 386.906 85.5 386.87 85.932C386.87 86.364 386.852 86.814 386.816 87.282H366.458C366.602 89.37 367.322 91.008 368.618 92.196C369.95 93.384 371.552 93.978 373.424 93.978C374.828 93.978 375.998 93.672 376.934 93.06C377.906 92.412 378.626 91.584 379.094 90.576H386.114C385.61 92.268 384.764 93.816 383.576 95.22C382.424 96.588 380.984 97.668 379.256 98.46C377.564 99.252 375.638 99.648 373.478 99.648ZM373.532 77.184C371.84 77.184 370.346 77.67 369.05 78.642C367.754 79.578 366.926 81.018 366.566 82.962H379.904C379.796 81.198 379.148 79.794 377.96 78.75C376.772 77.706 375.296 77.184 373.532 77.184ZM400.567 99.648C398.191 99.648 396.103 99.27 394.303 98.514C392.503 97.722 391.063 96.642 389.983 95.274C388.903 93.906 388.255 92.322 388.039 90.522H395.005C395.221 91.566 395.797 92.466 396.733 93.222C397.705 93.942 398.947 94.302 400.459 94.302C401.971 94.302 403.069 93.996 403.753 93.384C404.473 92.772 404.833 92.07 404.833 91.278C404.833 90.126 404.329 89.352 403.321 88.956C402.313 88.524 400.909 88.11 399.109 87.714C397.957 87.462 396.787 87.156 395.599 86.796C394.411 86.436 393.313 85.986 392.305 85.446C391.333 84.87 390.541 84.15 389.929 83.286C389.317 82.386 389.011 81.288 389.011 79.992C389.011 77.616 389.947 75.618 391.819 73.998C393.727 72.378 396.391 71.568 399.811 71.568C402.979 71.568 405.499 72.306 407.371 73.782C409.279 75.258 410.413 77.292 410.773 79.884H404.239C403.843 77.904 402.349 76.914 399.757 76.914C398.461 76.914 397.453 77.166 396.733 77.67C396.049 78.174 395.707 78.804 395.707 79.56C395.707 80.352 396.229 80.982 397.273 81.45C398.317 81.918 399.703 82.35 401.431 82.746C403.303 83.178 405.013 83.664 406.561 84.204C408.145 84.708 409.405 85.482 410.341 86.526C411.277 87.534 411.745 88.992 411.745 90.9C411.781 92.556 411.349 94.05 410.449 95.382C409.549 96.714 408.253 97.758 406.561 98.514C404.869 99.27 402.871 99.648 400.567 99.648ZM425.698 99.648C423.322 99.648 421.234 99.27 419.434 98.514C417.634 97.722 416.194 96.642 415.114 95.274C414.034 93.906 413.386 92.322 413.17 90.522H420.136C420.352 91.566 420.928 92.466 421.864 93.222C422.836 93.942 424.078 94.302 425.59 94.302C427.102 94.302 428.2 93.996 428.884 93.384C429.604 92.772 429.964 92.07 429.964 91.278C429.964 90.126 429.46 89.352 428.452 88.956C427.444 88.524 426.04 88.11 424.24 87.714C423.088 87.462 421.918 87.156 420.73 86.796C419.542 86.436 418.444 85.986 417.436 85.446C416.464 84.87 415.672 84.15 415.06 83.286C414.448 82.386 414.142 81.288 414.142 79.992C414.142 77.616 415.078 75.618 416.95 73.998C418.858 72.378 421.522 71.568 424.942 71.568C428.11 71.568 430.63 72.306 432.502 73.782C434.41 75.258 435.544 77.292 435.904 79.884H429.37C428.974 77.904 427.48 76.914 424.888 76.914C423.592 76.914 422.584 77.166 421.864 77.67C421.18 78.174 420.838 78.804 420.838 79.56C420.838 80.352 421.36 80.982 422.404 81.45C423.448 81.918 424.834 82.35 426.562 82.746C428.434 83.178 430.144 83.664 431.692 84.204C433.276 84.708 434.536 85.482 435.472 86.526C436.408 87.534 436.876 88.992 436.876 90.9C436.912 92.556 436.48 94.05 435.58 95.382C434.68 96.714 433.384 97.758 431.692 98.514C430 99.27 428.002 99.648 425.698 99.648Z" fill="url(#paint0_linear_11_72)"/>
<defs>
<linearGradient id="paint0_linear_11_72" x1="242" y1="-9" x2="242" y2="114" gradientUnits="userSpaceOnUse">
<stop/>
<stop offset="1" stop-color="#001354"/>
</linearGradient>
</defs>
</svg>
