<svg width="137" height="30" viewBox="0 0 137 30" fill="none" xmlns="http://www.w3.org/2000/svg">
<g clip-path="url(#clip0_11_52)">
<path d="M14.8651 10.0455L17.4964 17.7457H17.6026L20.234 10.0455H21.7759L18.3736 19.5H16.7255L13.3232 10.0455H14.8651ZM25.0506 19.6431C24.352 19.6431 23.7503 19.4938 23.2456 19.1953C22.7439 18.8937 22.3561 18.4705 22.0822 17.9258C21.8114 17.378 21.676 16.7363 21.676 16.0007C21.676 15.2744 21.8114 14.6342 22.0822 14.0803C22.3561 13.5263 22.7378 13.0939 23.2271 12.783C23.7195 12.4722 24.2951 12.3168 24.9537 12.3168C25.3538 12.3168 25.7416 12.3829 26.117 12.5153C26.4925 12.6476 26.8295 12.8554 27.128 13.1385C27.4266 13.4216 27.662 13.7894 27.8344 14.2418C28.0067 14.6912 28.0929 15.2375 28.0929 15.8807V16.37H22.4562V15.3359H26.7403C26.7403 14.9728 26.6664 14.6512 26.5187 14.3711C26.3709 14.0879 26.1632 13.8648 25.8954 13.7017C25.6308 13.5386 25.3199 13.457 24.9629 13.457C24.5751 13.457 24.2366 13.5524 23.9473 13.7433C23.6611 13.931 23.4395 14.1772 23.2825 14.4819C23.1286 14.7835 23.0517 15.1113 23.0517 15.4652V16.2731C23.0517 16.747 23.1348 17.1502 23.301 17.4826C23.4702 17.815 23.7057 18.0689 24.0073 18.2443C24.3089 18.4167 24.6613 18.5028 25.0645 18.5028C25.3261 18.5028 25.5646 18.4659 25.78 18.392C25.9955 18.3151 26.1817 18.2012 26.3386 18.0504C26.4956 17.8996 26.6156 17.7134 26.6987 17.4918L28.0052 17.7273C27.9005 18.112 27.7128 18.449 27.442 18.7383C27.1742 19.0245 26.8372 19.2476 26.4309 19.4077C26.0278 19.5646 25.5677 19.6431 25.0506 19.6431ZM29.2994 19.5V12.4091H30.6336V13.5355H30.7074C30.8367 13.1539 31.0644 12.8538 31.3907 12.6353C31.72 12.4137 32.0924 12.3029 32.5078 12.3029C32.594 12.3029 32.6956 12.306 32.8125 12.3121C32.9326 12.3183 33.0264 12.326 33.0941 12.3352V13.6555C33.0387 13.6402 32.9403 13.6232 32.7987 13.6048C32.6571 13.5832 32.5155 13.5724 32.374 13.5724C32.0477 13.5724 31.7569 13.6417 31.5015 13.7802C31.2491 13.9156 31.049 14.1049 30.9013 14.348C30.7536 14.5881 30.6797 14.862 30.6797 15.1697V19.5H29.2994ZM39.2772 14.1403L38.0262 14.3619C37.9738 14.2018 37.8907 14.0495 37.7769 13.9048C37.6661 13.7602 37.5153 13.6417 37.3244 13.5494C37.1336 13.457 36.8951 13.4109 36.6089 13.4109C36.218 13.4109 35.8918 13.4986 35.6302 13.674C35.3686 13.8464 35.2378 14.0695 35.2378 14.3434C35.2378 14.5804 35.3255 14.7712 35.5009 14.9158C35.6764 15.0605 35.9595 15.179 36.3504 15.2713L37.4768 15.5298C38.1293 15.6806 38.6155 15.913 38.9356 16.2269C39.2557 16.5408 39.4157 16.9486 39.4157 17.4503C39.4157 17.875 39.2926 18.2536 39.0464 18.5859C38.8033 18.9152 38.4632 19.1738 38.0262 19.3615C37.5922 19.5492 37.089 19.6431 36.5166 19.6431C35.7225 19.6431 35.0747 19.4738 34.573 19.1353C34.0714 18.7937 33.7636 18.3089 33.6497 17.6811L34.9839 17.478C35.067 17.8258 35.2378 18.0889 35.4963 18.2674C35.7548 18.4428 36.0918 18.5305 36.5073 18.5305C36.9597 18.5305 37.3214 18.4367 37.5922 18.2489C37.863 18.0581 37.9985 17.8258 37.9985 17.5518C37.9985 17.3303 37.9154 17.1441 37.7492 16.9933C37.586 16.8424 37.3352 16.7286 36.9967 16.6516L35.7964 16.3885C35.1347 16.2377 34.6454 15.9976 34.3284 15.6683C34.0144 15.339 33.8575 14.922 33.8575 14.4173C33.8575 13.9987 33.9744 13.6325 34.2083 13.3185C34.4422 13.0046 34.7654 12.7599 35.1778 12.5845C35.5902 12.406 36.0626 12.3168 36.595 12.3168C37.3614 12.3168 37.9646 12.483 38.4047 12.8153C38.8448 13.1446 39.1356 13.5863 39.2772 14.1403ZM40.6084 19.5V12.4091H41.9887V19.5H40.6084ZM41.3055 11.315C41.0654 11.315 40.8592 11.235 40.6869 11.0749C40.5176 10.9118 40.433 10.7179 40.433 10.4933C40.433 10.2655 40.5176 10.0716 40.6869 9.91158C40.8592 9.74846 41.0654 9.6669 41.3055 9.6669C41.5455 9.6669 41.7502 9.74846 41.9195 9.91158C42.0918 10.0716 42.178 10.2655 42.178 10.4933C42.178 10.7179 42.0918 10.9118 41.9195 11.0749C41.7502 11.235 41.5455 11.315 41.3055 11.315ZM46.5075 19.6431C45.8428 19.6431 45.2626 19.4908 44.7671 19.1861C44.2716 18.8814 43.8869 18.4551 43.613 17.9073C43.3391 17.3595 43.2021 16.7193 43.2021 15.9869C43.2021 15.2513 43.3391 14.6081 43.613 14.0572C43.8869 13.5063 44.2716 13.0785 44.7671 12.7738C45.2626 12.4691 45.8428 12.3168 46.5075 12.3168C47.1723 12.3168 47.7525 12.4691 48.248 12.7738C48.7435 13.0785 49.1282 13.5063 49.4021 14.0572C49.676 14.6081 49.8129 15.2513 49.8129 15.9869C49.8129 16.7193 49.676 17.3595 49.4021 17.9073C49.1282 18.4551 48.7435 18.8814 48.248 19.1861C47.7525 19.4908 47.1723 19.6431 46.5075 19.6431ZM46.5122 18.4844C46.943 18.4844 47.3 18.3705 47.5832 18.1428C47.8663 17.915 48.0756 17.6119 48.211 17.2333C48.3495 16.8548 48.4188 16.4377 48.4188 15.9822C48.4188 15.5298 48.3495 15.1143 48.211 14.7358C48.0756 14.3542 47.8663 14.0479 47.5832 13.8171C47.3 13.5863 46.943 13.4709 46.5122 13.4709C46.0782 13.4709 45.7181 13.5863 45.4319 13.8171C45.1488 14.0479 44.9379 14.3542 44.7994 14.7358C44.664 15.1143 44.5963 15.5298 44.5963 15.9822C44.5963 16.4377 44.664 16.8548 44.7994 17.2333C44.9379 17.6119 45.1488 17.915 45.4319 18.1428C45.7181 18.3705 46.0782 18.4844 46.5122 18.4844ZM52.409 15.2898V19.5H51.0287V12.4091H52.3536V13.5632H52.4413C52.6045 13.1877 52.8599 12.8861 53.2077 12.6584C53.5585 12.4306 54.0002 12.3168 54.5326 12.3168C55.0158 12.3168 55.439 12.4183 55.8021 12.6214C56.1653 12.8215 56.4469 13.12 56.6469 13.517C56.847 13.9141 56.947 14.4049 56.947 14.9897V19.5H55.5667V15.1559C55.5667 14.6419 55.4328 14.2403 55.1651 13.951C54.8973 13.6586 54.5295 13.5124 54.0617 13.5124C53.7416 13.5124 53.457 13.5817 53.2077 13.7202C52.9615 13.8587 52.766 14.0618 52.6214 14.3295C52.4798 14.5942 52.409 14.9143 52.409 15.2898ZM61.5702 19.5V18.4659L64.7694 15.1513C65.111 14.7912 65.3926 14.4757 65.6142 14.2049C65.8389 13.931 66.0066 13.6709 66.1174 13.4247C66.2282 13.1785 66.2836 12.9169 66.2836 12.6399C66.2836 12.326 66.2097 12.0552 66.062 11.8274C65.9143 11.5966 65.7127 11.4196 65.4573 11.2965C65.2018 11.1703 64.9141 11.1072 64.594 11.1072C64.2554 11.1072 63.96 11.1765 63.7076 11.315C63.4553 11.4535 63.2614 11.6489 63.1259 11.9013C62.9905 12.1536 62.9228 12.4491 62.9228 12.7876H61.561C61.561 12.2121 61.6933 11.7089 61.958 11.2781C62.2227 10.8472 62.5858 10.5133 63.0475 10.2763C63.5091 10.0362 64.0338 9.91619 64.6217 9.91619C65.2157 9.91619 65.7389 10.0347 66.1913 10.2717C66.6468 10.5056 67.0022 10.8256 67.2577 11.2319C67.5131 11.6351 67.6409 12.0906 67.6409 12.5984C67.6409 12.9492 67.5747 13.2924 67.4423 13.6278C67.3131 13.9633 67.0869 14.3372 66.7637 14.7496C66.4406 15.159 65.9912 15.656 65.4157 16.2408L63.5368 18.2074V18.2766H67.7932V19.5H61.5702ZM70.1458 19.5877C69.8934 19.5877 69.6764 19.4985 69.4948 19.32C69.3133 19.1384 69.2225 18.9199 69.2225 18.6644C69.2225 18.4121 69.3133 18.1966 69.4948 18.0181C69.6764 17.8365 69.8934 17.7457 70.1458 17.7457C70.3981 17.7457 70.6151 17.8365 70.7967 18.0181C70.9783 18.1966 71.0691 18.4121 71.0691 18.6644C71.0691 18.8337 71.026 18.9891 70.9398 19.1307C70.8567 19.2692 70.7459 19.38 70.6074 19.4631C70.4689 19.5462 70.315 19.5877 70.1458 19.5877ZM75.5233 19.657C74.7939 19.6539 74.1706 19.4615 73.6536 19.0799C73.1365 18.6983 72.7411 18.1428 72.4672 17.4134C72.1932 16.6839 72.0563 15.8053 72.0563 14.7773C72.0563 13.7525 72.1932 12.8769 72.4672 12.1506C72.7441 11.4242 73.1412 10.8703 73.6582 10.4886C74.1783 10.107 74.8 9.91619 75.5233 9.91619C76.2465 9.91619 76.8667 10.1085 77.3837 10.4933C77.9007 10.8749 78.2962 11.4289 78.5701 12.1552C78.8471 12.8784 78.9856 13.7525 78.9856 14.7773C78.9856 15.8084 78.8487 16.6886 78.5748 17.418C78.3008 18.1443 77.9054 18.6998 77.3883 19.0845C76.8713 19.4661 76.2496 19.657 75.5233 19.657ZM75.5233 18.4244C76.1634 18.4244 76.6635 18.112 77.0236 17.4872C77.3868 16.8625 77.5684 15.9592 77.5684 14.7773C77.5684 13.9925 77.4853 13.3293 77.3191 12.7876C77.156 12.2429 76.9205 11.8305 76.6127 11.5504C76.3081 11.2673 75.9449 11.1257 75.5233 11.1257C74.8862 11.1257 74.3861 11.4396 74.0229 12.0675C73.6597 12.6953 73.4766 13.5986 73.4735 14.7773C73.4735 15.5652 73.5551 16.2315 73.7182 16.7763C73.8844 17.3179 74.1199 17.7288 74.4245 18.0089C74.7292 18.2859 75.0955 18.4244 75.5233 18.4244ZM83.4322 19.5V12.4091H84.8125V19.5H83.4322ZM84.1293 11.315C83.8892 11.315 83.683 11.235 83.5107 11.0749C83.3414 10.9118 83.2568 10.7179 83.2568 10.4933C83.2568 10.2655 83.3414 10.0716 83.5107 9.91158C83.683 9.74846 83.8892 9.6669 84.1293 9.6669C84.3694 9.6669 84.574 9.74846 84.7433 9.91158C84.9156 10.0716 85.0018 10.2655 85.0018 10.4933C85.0018 10.7179 84.9156 10.9118 84.7433 11.0749C84.574 11.235 84.3694 11.315 84.1293 11.315ZM91.6581 14.1403L90.407 14.3619C90.3547 14.2018 90.2716 14.0495 90.1577 13.9048C90.0469 13.7602 89.8961 13.6417 89.7053 13.5494C89.5145 13.457 89.276 13.4109 88.9898 13.4109C88.5989 13.4109 88.2727 13.4986 88.0111 13.674C87.7495 13.8464 87.6187 14.0695 87.6187 14.3434C87.6187 14.5804 87.7064 14.7712 87.8818 14.9158C88.0572 15.0605 88.3404 15.179 88.7312 15.2713L89.8577 15.5298C90.5101 15.6806 90.9964 15.913 91.3165 16.2269C91.6365 16.5408 91.7966 16.9486 91.7966 17.4503C91.7966 17.875 91.6735 18.2536 91.4273 18.5859C91.1841 18.9152 90.844 19.1738 90.407 19.3615C89.9731 19.5492 89.4699 19.6431 88.8974 19.6431C88.1034 19.6431 87.4555 19.4738 86.9539 19.1353C86.4522 18.7937 86.1445 18.3089 86.0306 17.6811L87.3648 17.478C87.4479 17.8258 87.6187 18.0889 87.8772 18.2674C88.1357 18.4428 88.4727 18.5305 88.8882 18.5305C89.3406 18.5305 89.7022 18.4367 89.9731 18.2489C90.2439 18.0581 90.3793 17.8258 90.3793 17.5518C90.3793 17.3303 90.2962 17.1441 90.13 16.9933C89.9669 16.8424 89.7161 16.7286 89.3775 16.6516L88.1773 16.3885C87.5156 16.2377 87.0262 15.9976 86.7092 15.6683C86.3953 15.339 86.2383 14.922 86.2383 14.4173C86.2383 13.9987 86.3553 13.6325 86.5892 13.3185C86.8231 13.0046 87.1462 12.7599 87.5586 12.5845C87.9711 12.406 88.4435 12.3168 88.9759 12.3168C89.7422 12.3168 90.3455 12.483 90.7856 12.8153C91.2257 13.1446 91.5165 13.5863 91.6581 14.1403ZM97.485 15.2898V19.5H96.1047V10.0455H97.4665V13.5632H97.5542C97.7204 13.1816 97.9743 12.8784 98.316 12.6538C98.6576 12.4291 99.1038 12.3168 99.6547 12.3168C100.141 12.3168 100.566 12.4168 100.929 12.6168C101.295 12.8169 101.578 13.1154 101.778 13.5124C101.981 13.9064 102.083 14.3988 102.083 14.9897V19.5H100.703V15.1559C100.703 14.6358 100.569 14.2326 100.301 13.9464C100.033 13.6571 99.6609 13.5124 99.1839 13.5124C98.8576 13.5124 98.5653 13.5817 98.3067 13.7202C98.0513 13.8587 97.8497 14.0618 97.702 14.3295C97.5573 14.5942 97.485 14.9143 97.485 15.2898ZM106.656 19.6431C105.957 19.6431 105.356 19.4938 104.851 19.1953C104.349 18.8937 103.962 18.4705 103.688 17.9258C103.417 17.378 103.281 16.7363 103.281 16.0007C103.281 15.2744 103.417 14.6342 103.688 14.0803C103.962 13.5263 104.343 13.0939 104.833 12.783C105.325 12.4722 105.901 12.3168 106.559 12.3168C106.959 12.3168 107.347 12.3829 107.722 12.5153C108.098 12.6476 108.435 12.8554 108.734 13.1385C109.032 13.4216 109.267 13.7894 109.44 14.2418C109.612 14.6912 109.698 15.2375 109.698 15.8807V16.37H104.062V15.3359H108.346C108.346 14.9728 108.272 14.6512 108.124 14.3711C107.976 14.0879 107.769 13.8648 107.501 13.7017C107.236 13.5386 106.925 13.457 106.568 13.457C106.181 13.457 105.842 13.5524 105.553 13.7433C105.267 13.931 105.045 14.1772 104.888 14.4819C104.734 14.7835 104.657 15.1113 104.657 15.4652V16.2731C104.657 16.747 104.74 17.1502 104.906 17.4826C105.076 17.815 105.311 18.0689 105.613 18.2443C105.914 18.4167 106.267 18.5028 106.67 18.5028C106.932 18.5028 107.17 18.4659 107.385 18.392C107.601 18.3151 107.787 18.2012 107.944 18.0504C108.101 17.8996 108.221 17.7134 108.304 17.4918L109.611 17.7273C109.506 18.112 109.318 18.449 109.047 18.7383C108.78 19.0245 108.443 19.2476 108.036 19.4077C107.633 19.5646 107.173 19.6431 106.656 19.6431ZM110.905 19.5V12.4091H112.239V13.5355H112.313C112.442 13.1539 112.67 12.8538 112.996 12.6353C113.325 12.4137 113.698 12.3029 114.113 12.3029C114.199 12.3029 114.301 12.306 114.418 12.3121C114.538 12.3183 114.632 12.326 114.7 12.3352V13.6555C114.644 13.6402 114.546 13.6232 114.404 13.6048C114.263 13.5832 114.121 13.5724 113.979 13.5724C113.653 13.5724 113.362 13.6417 113.107 13.7802C112.855 13.9156 112.655 14.1049 112.507 14.348C112.359 14.5881 112.285 14.862 112.285 15.1697V19.5H110.905ZM118.371 19.6431C117.673 19.6431 117.071 19.4938 116.566 19.1953C116.065 18.8937 115.677 18.4705 115.403 17.9258C115.132 17.378 114.997 16.7363 114.997 16.0007C114.997 15.2744 115.132 14.6342 115.403 14.0803C115.677 13.5263 116.058 13.0939 116.548 12.783C117.04 12.4722 117.616 12.3168 118.274 12.3168C118.674 12.3168 119.062 12.3829 119.438 12.5153C119.813 12.6476 120.15 12.8554 120.449 13.1385C120.747 13.4216 120.983 13.7894 121.155 14.2418C121.327 14.6912 121.414 15.2375 121.414 15.8807V16.37H115.777V15.3359H120.061C120.061 14.9728 119.987 14.6512 119.839 14.3711C119.692 14.0879 119.484 13.8648 119.216 13.7017C118.951 13.5386 118.641 13.457 118.284 13.457C117.896 13.457 117.557 13.5524 117.268 13.7433C116.982 13.931 116.76 14.1772 116.603 14.4819C116.449 14.7835 116.372 15.1113 116.372 15.4652V16.2731C116.372 16.747 116.455 17.1502 116.622 17.4826C116.791 17.815 117.026 18.0689 117.328 18.2443C117.63 18.4167 117.982 18.5028 118.385 18.5028C118.647 18.5028 118.885 18.4659 119.101 18.392C119.316 18.3151 119.502 18.2012 119.659 18.0504C119.816 17.8996 119.936 17.7134 120.019 17.4918L121.326 17.7273C121.221 18.112 121.033 18.449 120.763 18.7383C120.495 19.0245 120.158 19.2476 119.752 19.4077C119.348 19.5646 118.888 19.6431 118.371 19.6431Z" fill="black"/>
</g>
<rect x="0.5" y="1" width="136" height="28" rx="9.5" stroke="#222222" stroke-opacity="0.1"/>
<defs>
<clipPath id="clip0_11_52">
<rect y="0.5" width="137" height="29" rx="10" fill="white"/>
</clipPath>
</defs>
</svg>
