<svg width="166" height="27" viewBox="0 0 166 27" fill="none" xmlns="http://www.w3.org/2000/svg">
<g clip-path="url(#clip0_11_75)">
<path d="M14.5387 18V8.54545H18.0011C18.672 8.54545 19.2275 8.65625 19.6676 8.87784C20.1077 9.09635 20.437 9.39335 20.6555 9.76882C20.8741 10.1412 20.9833 10.5613 20.9833 11.0291C20.9833 11.4231 20.911 11.7554 20.7663 12.0263C20.6217 12.294 20.4278 12.5095 20.1847 12.6726C19.9446 12.8326 19.6799 12.9496 19.3906 13.0234V13.1158C19.7045 13.1312 20.0108 13.2327 20.3093 13.4205C20.6109 13.6051 20.8602 13.8683 21.0572 14.2099C21.2541 14.5515 21.3526 14.967 21.3526 15.4563C21.3526 15.9395 21.2388 16.3735 21.011 16.7582C20.7863 17.1398 20.4386 17.4429 19.9677 17.6676C19.4968 17.8892 18.8951 18 18.1626 18H14.5387ZM15.9652 16.7766H18.0241C18.7074 16.7766 19.1967 16.6443 19.4922 16.3796C19.7876 16.1149 19.9354 15.7841 19.9354 15.3871C19.9354 15.0885 19.86 14.8146 19.7092 14.5653C19.5584 14.3161 19.3429 14.1175 19.0629 13.9698C18.7859 13.8221 18.4566 13.7482 18.0749 13.7482H15.9652V16.7766ZM15.9652 12.6357H17.8764C18.1965 12.6357 18.4843 12.5741 18.7397 12.451C18.9982 12.3279 19.2029 12.1555 19.3537 11.9339C19.5076 11.7093 19.5845 11.4446 19.5845 11.1399C19.5845 10.7491 19.4476 10.4213 19.1737 10.1566C18.8997 9.89193 18.4796 9.75959 17.9134 9.75959H15.9652V12.6357ZM25.5956 18.1431C24.9309 18.1431 24.3507 17.9908 23.8552 17.6861C23.3597 17.3814 22.975 16.9551 22.7011 16.4073C22.4272 15.8595 22.2902 15.2193 22.2902 14.4869C22.2902 13.7513 22.4272 13.1081 22.7011 12.5572C22.975 12.0063 23.3597 11.5785 23.8552 11.2738C24.3507 10.9691 24.9309 10.8168 25.5956 10.8168C26.2604 10.8168 26.8405 10.9691 27.336 11.2738C27.8315 11.5785 28.2163 12.0063 28.4902 12.5572C28.7641 13.1081 28.901 13.7513 28.901 14.4869C28.901 15.2193 28.7641 15.8595 28.4902 16.4073C28.2163 16.9551 27.8315 17.3814 27.336 17.6861C26.8405 17.9908 26.2604 18.1431 25.5956 18.1431ZM25.6002 16.9844C26.0311 16.9844 26.3881 16.8705 26.6713 16.6428C26.9544 16.415 27.1637 16.1119 27.2991 15.7333C27.4376 15.3548 27.5069 14.9377 27.5069 14.4822C27.5069 14.0298 27.4376 13.6143 27.2991 13.2358C27.1637 12.8542 26.9544 12.5479 26.6713 12.3171C26.3881 12.0863 26.0311 11.9709 25.6002 11.9709C25.1663 11.9709 24.8062 12.0863 24.52 12.3171C24.2368 12.5479 24.026 12.8542 23.8875 13.2358C23.7521 13.6143 23.6844 14.0298 23.6844 14.4822C23.6844 14.9377 23.7521 15.3548 23.8875 15.7333C24.026 16.1119 24.2368 16.415 24.52 16.6428C24.8062 16.8705 25.1663 16.9844 25.6002 16.9844ZM33.1036 18.1431C32.4389 18.1431 31.8587 17.9908 31.3632 17.6861C30.8677 17.3814 30.483 16.9551 30.2091 16.4073C29.9352 15.8595 29.7982 15.2193 29.7982 14.4869C29.7982 13.7513 29.9352 13.1081 30.2091 12.5572C30.483 12.0063 30.8677 11.5785 31.3632 11.2738C31.8587 10.9691 32.4389 10.8168 33.1036 10.8168C33.7684 10.8168 34.3486 10.9691 34.8441 11.2738C35.3396 11.5785 35.7243 12.0063 35.9982 12.5572C36.2721 13.1081 36.409 13.7513 36.409 14.4869C36.409 15.2193 36.2721 15.8595 35.9982 16.4073C35.7243 16.9551 35.3396 17.3814 34.8441 17.6861C34.3486 17.9908 33.7684 18.1431 33.1036 18.1431ZM33.1083 16.9844C33.5391 16.9844 33.8961 16.8705 34.1793 16.6428C34.4624 16.415 34.6717 16.1119 34.8071 15.7333C34.9456 15.3548 35.0149 14.9377 35.0149 14.4822C35.0149 14.0298 34.9456 13.6143 34.8071 13.2358C34.6717 12.8542 34.4624 12.5479 34.1793 12.3171C33.8961 12.0863 33.5391 11.9709 33.1083 11.9709C32.6743 11.9709 32.3142 12.0863 32.028 12.3171C31.7449 12.5479 31.534 12.8542 31.3955 13.2358C31.2601 13.6143 31.1924 14.0298 31.1924 14.4822C31.1924 14.9377 31.2601 15.3548 31.3955 15.7333C31.534 16.1119 31.7449 16.415 32.028 16.6428C32.3142 16.8705 32.6743 16.9844 33.1083 16.9844ZM42.9384 12.6403L41.6873 12.8619C41.635 12.7018 41.5519 12.5495 41.438 12.4048C41.3272 12.2602 41.1764 12.1417 40.9856 12.0494C40.7948 11.957 40.5562 11.9109 40.27 11.9109C39.8792 11.9109 39.5529 11.9986 39.2913 12.174C39.0297 12.3464 38.8989 12.5695 38.8989 12.8434C38.8989 13.0804 38.9866 13.2712 39.1621 13.4158C39.3375 13.5605 39.6206 13.679 40.0115 13.7713L41.1379 14.0298C41.7904 14.1806 42.2767 14.413 42.5967 14.7269C42.9168 15.0408 43.0768 15.4486 43.0768 15.9503C43.0768 16.375 42.9537 16.7536 42.7075 17.0859C42.4644 17.4152 42.1243 17.6738 41.6873 17.8615C41.2533 18.0492 40.7501 18.1431 40.1777 18.1431C39.3837 18.1431 38.7358 17.9738 38.2342 17.6353C37.7325 17.2937 37.4247 16.8089 37.3109 16.1811L38.645 15.978C38.7281 16.3258 38.8989 16.5889 39.1575 16.7674C39.416 16.9428 39.753 17.0305 40.1685 17.0305C40.6209 17.0305 40.9825 16.9367 41.2533 16.7489C41.5242 16.5581 41.6596 16.3258 41.6596 16.0518C41.6596 15.8303 41.5765 15.6441 41.4103 15.4933C41.2472 15.3424 40.9964 15.2286 40.6578 15.1516L39.4575 14.8885C38.7958 14.7377 38.3065 14.4976 37.9895 14.1683C37.6756 13.839 37.5186 13.422 37.5186 12.9173C37.5186 12.4987 37.6356 12.1325 37.8695 11.8185C38.1034 11.5046 38.4265 11.2599 38.8389 11.0845C39.2513 10.906 39.7237 10.8168 40.2562 10.8168C41.0225 10.8168 41.6257 10.983 42.0658 11.3153C42.5059 11.6446 42.7968 12.0863 42.9384 12.6403ZM47.5795 10.9091V12.017H43.7063V10.9091H47.5795ZM44.745 9.21023H46.1253V15.918C46.1253 16.1857 46.1653 16.3873 46.2454 16.5227C46.3254 16.6551 46.4285 16.7459 46.5547 16.7951C46.6839 16.8413 46.824 16.8643 46.9748 16.8643C47.0856 16.8643 47.1825 16.8567 47.2656 16.8413C47.3487 16.8259 47.4133 16.8136 47.4595 16.8043L47.7088 17.9446C47.6288 17.9754 47.5149 18.0062 47.3672 18.0369C47.2194 18.0708 47.0348 18.0893 46.8132 18.0923C46.45 18.0985 46.1115 18.0339 45.7976 17.8984C45.4836 17.763 45.2297 17.5537 45.0358 17.2706C44.842 16.9875 44.745 16.632 44.745 16.2042V9.21023ZM52.7694 20.6591C52.5632 20.6591 52.3754 20.6422 52.2062 20.6083C52.0369 20.5775 51.9107 20.5437 51.8276 20.5067L52.16 19.3757C52.4124 19.4434 52.637 19.4727 52.834 19.4634C53.031 19.4542 53.2049 19.3803 53.3557 19.2418C53.5095 19.1033 53.645 18.8771 53.7619 18.5632L53.9327 18.0923L51.3383 10.9091H52.8155L54.6113 16.4119H54.6852L56.481 10.9091H57.9629L55.0407 18.9464C54.9053 19.3157 54.7329 19.6281 54.5236 19.8835C54.3144 20.142 54.0651 20.3359 53.7758 20.4652C53.4865 20.5945 53.151 20.6591 52.7694 20.6591ZM61.6808 18.1431C61.016 18.1431 60.4359 17.9908 59.9404 17.6861C59.4449 17.3814 59.0602 16.9551 58.7863 16.4073C58.5123 15.8595 58.3754 15.2193 58.3754 14.4869C58.3754 13.7513 58.5123 13.1081 58.7863 12.5572C59.0602 12.0063 59.4449 11.5785 59.9404 11.2738C60.4359 10.9691 61.016 10.8168 61.6808 10.8168C62.3456 10.8168 62.9257 10.9691 63.4212 11.2738C63.9167 11.5785 64.3014 12.0063 64.5753 12.5572C64.8492 13.1081 64.9862 13.7513 64.9862 14.4869C64.9862 15.2193 64.8492 15.8595 64.5753 16.4073C64.3014 16.9551 63.9167 17.3814 63.4212 17.6861C62.9257 17.9908 62.3456 18.1431 61.6808 18.1431ZM61.6854 16.9844C62.1163 16.9844 62.4733 16.8705 62.7564 16.6428C63.0396 16.415 63.2489 16.1119 63.3843 15.7333C63.5228 15.3548 63.592 14.9377 63.592 14.4822C63.592 14.0298 63.5228 13.6143 63.3843 13.2358C63.2489 12.8542 63.0396 12.5479 62.7564 12.3171C62.4733 12.0863 62.1163 11.9709 61.6854 11.9709C61.2515 11.9709 60.8914 12.0863 60.6051 12.3171C60.322 12.5479 60.1112 12.8542 59.9727 13.2358C59.8373 13.6143 59.7696 14.0298 59.7696 14.4822C59.7696 14.9377 59.8373 15.3548 59.9727 15.7333C60.1112 16.1119 60.322 16.415 60.6051 16.6428C60.8914 16.8705 61.2515 16.9844 61.6854 16.9844ZM70.6938 15.0593V10.9091H72.0787V18H70.7215V16.772H70.6476C70.4845 17.1506 70.2229 17.466 69.8628 17.7184C69.5058 17.9677 69.0611 18.0923 68.5286 18.0923C68.0731 18.0923 67.67 17.9923 67.3191 17.7923C66.9713 17.5891 66.6974 17.2891 66.4974 16.892C66.3004 16.495 66.2019 16.0041 66.2019 15.4194V10.9091H67.5823V15.2532C67.5823 15.7364 67.7161 16.1211 67.9839 16.4073C68.2517 16.6935 68.5994 16.8366 69.0272 16.8366C69.2857 16.8366 69.5427 16.772 69.7982 16.6428C70.0567 16.5135 70.2706 16.3181 70.4399 16.0565C70.6122 15.7949 70.6968 15.4625 70.6938 15.0593ZM73.6084 18V10.9091H74.9425V12.0355H75.0164C75.1457 11.6539 75.3734 11.3538 75.6996 11.1353C76.029 10.9137 76.4014 10.8029 76.8168 10.8029C76.903 10.8029 77.0046 10.806 77.1215 10.8121C77.2415 10.8183 77.3354 10.826 77.4031 10.8352V12.1555C77.3477 12.1402 77.2492 12.1232 77.1077 12.1048C76.9661 12.0832 76.8245 12.0724 76.683 12.0724C76.3567 12.0724 76.0659 12.1417 75.8104 12.2802C75.5581 12.4156 75.358 12.6049 75.2103 12.848C75.0626 13.0881 74.9887 13.362 74.9887 13.6697V18H73.6084ZM81.3881 20.6591V10.9091H82.7361V12.0586H82.8515C82.9315 11.9109 83.0469 11.7401 83.1977 11.5462C83.3485 11.3523 83.5578 11.183 83.8256 11.0384C84.0933 10.8906 84.4473 10.8168 84.8874 10.8168C85.4598 10.8168 85.9707 10.9614 86.42 11.2507C86.8694 11.54 87.2218 11.957 87.4772 12.5018C87.7357 13.0465 87.865 13.7021 87.865 14.4684C87.865 15.2347 87.7373 15.8918 87.4818 16.4396C87.2264 16.9844 86.8755 17.4045 86.4293 17.6999C85.983 17.9923 85.4737 18.1385 84.9012 18.1385C84.4703 18.1385 84.1179 18.0662 83.844 17.9215C83.5732 17.7769 83.3608 17.6076 83.207 17.4137C83.0531 17.2198 82.9346 17.0475 82.8515 16.8967H82.7684V20.6591H81.3881ZM82.7407 14.4545C82.7407 14.9531 82.813 15.3902 82.9577 15.7656C83.1023 16.1411 83.3116 16.435 83.5855 16.6474C83.8594 16.8567 84.1949 16.9613 84.5919 16.9613C85.0043 16.9613 85.349 16.852 85.626 16.6335C85.903 16.4119 86.1123 16.1119 86.2538 15.7333C86.3985 15.3548 86.4708 14.9285 86.4708 14.4545C86.4708 13.9867 86.4 13.5666 86.2585 13.1942C86.12 12.8219 85.9107 12.5279 85.6306 12.3125C85.3536 12.0971 85.0074 11.9893 84.5919 11.9893C84.1918 11.9893 83.8533 12.0924 83.5763 12.2987C83.3024 12.5049 83.0946 12.7926 82.9531 13.1619C82.8115 13.5312 82.7407 13.9621 82.7407 14.4545ZM89.0865 18V10.9091H90.4207V12.0355H90.4945C90.6238 11.6539 90.8515 11.3538 91.1778 11.1353C91.5071 10.9137 91.8795 10.8029 92.295 10.8029C92.3811 10.8029 92.4827 10.806 92.5996 10.8121C92.7197 10.8183 92.8135 10.826 92.8812 10.8352V12.1555C92.8259 12.1402 92.7274 12.1232 92.5858 12.1048C92.4442 12.0832 92.3027 12.0724 92.1611 12.0724C91.8348 12.0724 91.544 12.1417 91.2886 12.2802C91.0362 12.4156 90.8361 12.6049 90.6884 12.848C90.5407 13.0881 90.4668 13.362 90.4668 13.6697V18H89.0865ZM96.4837 18.1431C95.8189 18.1431 95.2388 17.9908 94.7433 17.6861C94.2478 17.3814 93.8631 16.9551 93.5892 16.4073C93.3153 15.8595 93.1783 15.2193 93.1783 14.4869C93.1783 13.7513 93.3153 13.1081 93.5892 12.5572C93.8631 12.0063 94.2478 11.5785 94.7433 11.2738C95.2388 10.9691 95.8189 10.8168 96.4837 10.8168C97.1485 10.8168 97.7286 10.9691 98.2241 11.2738C98.7196 11.5785 99.1043 12.0063 99.3783 12.5572C99.6522 13.1081 99.7891 13.7513 99.7891 14.4869C99.7891 15.2193 99.6522 15.8595 99.3783 16.4073C99.1043 16.9551 98.7196 17.3814 98.2241 17.6861C97.7286 17.9908 97.1485 18.1431 96.4837 18.1431ZM96.4883 16.9844C96.9192 16.9844 97.2762 16.8705 97.5594 16.6428C97.8425 16.415 98.0518 16.1119 98.1872 15.7333C98.3257 15.3548 98.3949 14.9377 98.3949 14.4822C98.3949 14.0298 98.3257 13.6143 98.1872 13.2358C98.0518 12.8542 97.8425 12.5479 97.5594 12.3171C97.2762 12.0863 96.9192 11.9709 96.4883 11.9709C96.0544 11.9709 95.6943 12.0863 95.4081 12.3171C95.1249 12.5479 94.9141 12.8542 94.7756 13.2358C94.6402 13.6143 94.5725 14.0298 94.5725 14.4822C94.5725 14.9377 94.6402 15.3548 94.7756 15.7333C94.9141 16.1119 95.1249 16.415 95.4081 16.6428C95.6943 16.8705 96.0544 16.9844 96.4883 16.9844ZM103.659 18.1385C103.087 18.1385 102.576 17.9923 102.127 17.6999C101.68 17.4045 101.33 16.9844 101.074 16.4396C100.822 15.8918 100.696 15.2347 100.696 14.4684C100.696 13.7021 100.823 13.0465 101.079 12.5018C101.337 11.957 101.691 11.54 102.141 11.2507C102.59 10.9614 103.099 10.8168 103.669 10.8168C104.109 10.8168 104.463 10.8906 104.73 11.0384C105.001 11.183 105.21 11.3523 105.358 11.5462C105.509 11.7401 105.626 11.9109 105.709 12.0586H105.792V8.54545H107.172V18H105.824V16.8967H105.709C105.626 17.0475 105.506 17.2198 105.349 17.4137C105.195 17.6076 104.983 17.7769 104.712 17.9215C104.441 18.0662 104.09 18.1385 103.659 18.1385ZM103.964 16.9613C104.361 16.9613 104.697 16.8567 104.97 16.6474C105.247 16.435 105.457 16.1411 105.598 15.7656C105.743 15.3902 105.815 14.9531 105.815 14.4545C105.815 13.9621 105.744 13.5312 105.603 13.1619C105.461 12.7926 105.254 12.5049 104.98 12.2987C104.706 12.0924 104.367 11.9893 103.964 11.9893C103.549 11.9893 103.202 12.0971 102.925 12.3125C102.648 12.5279 102.439 12.8219 102.297 13.1942C102.159 13.5666 102.09 13.9867 102.09 14.4545C102.09 14.9285 102.161 15.3548 102.302 15.7333C102.444 16.1119 102.653 16.4119 102.93 16.6335C103.21 16.852 103.555 16.9613 103.964 16.9613ZM113.309 15.0593V10.9091H114.694V18H113.337V16.772H113.263C113.1 17.1506 112.839 17.466 112.478 17.7184C112.121 17.9677 111.677 18.0923 111.144 18.0923C110.689 18.0923 110.286 17.9923 109.935 17.7923C109.587 17.5891 109.313 17.2891 109.113 16.892C108.916 16.495 108.818 16.0041 108.818 15.4194V10.9091H110.198V15.2532C110.198 15.7364 110.332 16.1211 110.6 16.4073C110.867 16.6935 111.215 16.8366 111.643 16.8366C111.901 16.8366 112.158 16.772 112.414 16.6428C112.672 16.5135 112.886 16.3181 113.055 16.0565C113.228 15.7949 113.312 15.4625 113.309 15.0593ZM119.211 18.1431C118.525 18.1431 117.934 17.9877 117.438 17.6768C116.946 17.3629 116.567 16.9305 116.302 16.3796C116.038 15.8287 115.905 15.1978 115.905 14.4869C115.905 13.7667 116.041 13.1312 116.312 12.5803C116.583 12.0263 116.964 11.5939 117.457 11.283C117.949 10.9722 118.529 10.8168 119.197 10.8168C119.736 10.8168 120.216 10.9168 120.637 11.1168C121.059 11.3138 121.399 11.5908 121.658 11.9478C121.919 12.3048 122.075 12.7218 122.124 13.1989H120.78C120.707 12.8665 120.537 12.5803 120.273 12.3402C120.011 12.1001 119.66 11.9801 119.22 11.9801C118.835 11.9801 118.498 12.0817 118.209 12.2848C117.923 12.4848 117.7 12.7711 117.54 13.1435C117.38 13.5128 117.3 13.9498 117.3 14.4545C117.3 14.9716 117.378 15.4179 117.535 15.7933C117.692 16.1688 117.914 16.4596 118.2 16.6658C118.489 16.872 118.829 16.9751 119.22 16.9751C119.482 16.9751 119.719 16.9274 119.931 16.832C120.146 16.7335 120.327 16.5935 120.471 16.4119C120.619 16.2304 120.722 16.0118 120.78 15.7564H122.124C122.075 16.215 121.925 16.6243 121.676 16.9844C121.427 17.3445 121.093 17.6276 120.674 17.8338C120.259 18.04 119.771 18.1431 119.211 18.1431ZM126.585 10.9091V12.017H122.712V10.9091H126.585ZM123.75 9.21023H125.131V15.918C125.131 16.1857 125.171 16.3873 125.251 16.5227C125.331 16.6551 125.434 16.7459 125.56 16.7951C125.689 16.8413 125.829 16.8643 125.98 16.8643C126.091 16.8643 126.188 16.8567 126.271 16.8413C126.354 16.8259 126.419 16.8136 126.465 16.8043L126.714 17.9446C126.634 17.9754 126.52 18.0062 126.373 18.0369C126.225 18.0708 126.04 18.0893 125.819 18.0923C125.455 18.0985 125.117 18.0339 124.803 17.8984C124.489 17.763 124.235 17.5537 124.041 17.2706C123.847 16.9875 123.75 16.632 123.75 16.2042V9.21023ZM127.787 18V10.9091H129.167V18H127.787ZM128.484 9.81499C128.244 9.81499 128.038 9.73497 127.865 9.57493C127.696 9.41181 127.611 9.21792 127.611 8.99325C127.611 8.76551 127.696 8.57161 127.865 8.41158C128.038 8.24846 128.244 8.1669 128.484 8.1669C128.724 8.1669 128.929 8.24846 129.098 8.41158C129.27 8.57161 129.357 8.76551 129.357 8.99325C129.357 9.21792 129.27 9.41181 129.098 9.57493C128.929 9.73497 128.724 9.81499 128.484 9.81499ZM136.765 10.9091L134.194 18H132.717L130.141 10.9091H131.622L133.418 16.3658H133.492L135.283 10.9091H136.765ZM137.737 18V10.9091H139.118V18H137.737ZM138.435 9.81499C138.195 9.81499 137.988 9.73497 137.816 9.57493C137.647 9.41181 137.562 9.21792 137.562 8.99325C137.562 8.76551 137.647 8.57161 137.816 8.41158C137.988 8.24846 138.195 8.1669 138.435 8.1669C138.675 8.1669 138.879 8.24846 139.049 8.41158C139.221 8.57161 139.307 8.76551 139.307 8.99325C139.307 9.21792 139.221 9.41181 139.049 9.57493C138.879 9.73497 138.675 9.81499 138.435 9.81499ZM143.96 10.9091V12.017H140.087V10.9091H143.96ZM141.125 9.21023H142.506V15.918C142.506 16.1857 142.546 16.3873 142.626 16.5227C142.706 16.6551 142.809 16.7459 142.935 16.7951C143.064 16.8413 143.204 16.8643 143.355 16.8643C143.466 16.8643 143.563 16.8567 143.646 16.8413C143.729 16.8259 143.794 16.8136 143.84 16.8043L144.089 17.9446C144.009 17.9754 143.895 18.0062 143.747 18.0369C143.6 18.0708 143.415 18.0893 143.193 18.0923C142.83 18.0985 142.492 18.0339 142.178 17.8984C141.864 17.763 141.61 17.5537 141.416 17.2706C141.222 16.9875 141.125 16.632 141.125 16.2042V9.21023ZM146.034 20.6591C145.828 20.6591 145.64 20.6422 145.471 20.6083C145.302 20.5775 145.176 20.5437 145.092 20.5067L145.425 19.3757C145.677 19.4434 145.902 19.4727 146.099 19.4634C146.296 19.4542 146.47 19.3803 146.621 19.2418C146.774 19.1033 146.91 18.8771 147.027 18.5632L147.198 18.0923L144.603 10.9091H146.08L147.876 16.4119H147.95L149.746 10.9091H151.228L148.306 18.9464C148.17 19.3157 147.998 19.6281 147.788 19.8835C147.579 20.142 147.33 20.3359 147.041 20.4652C146.751 20.5945 146.416 20.6591 146.034 20.6591Z" fill="black"/>
</g>
<rect x="1" y="0.5" width="164" height="26" rx="9.5" stroke="#222222" stroke-opacity="0.1"/>
<defs>
<clipPath id="clip0_11_75">
<rect x="0.5" width="165" height="27" rx="10" fill="white"/>
</clipPath>
</defs>
</svg>
