<svg width="102" height="31" viewBox="0 0 102 31" fill="none" xmlns="http://www.w3.org/2000/svg">
<rect x="1" y="0.5" width="100" height="30" rx="9.5" stroke="#222222" stroke-opacity="0.1"/>
<path d="M14.0724 11.7734V10.5455H21.3896V11.7734H18.4396V20H17.0178V11.7734H14.0724ZM24.5985 20.1431C23.8998 20.1431 23.2982 19.9938 22.7934 19.6953C22.2918 19.3937 21.904 18.9705 21.6301 18.4258C21.3592 17.878 21.2238 17.2363 21.2238 16.5007C21.2238 15.7744 21.3592 15.1342 21.6301 14.5803C21.904 14.0263 22.2856 13.5939 22.775 13.283C23.2674 12.9722 23.8429 12.8168 24.5015 12.8168C24.9016 12.8168 25.2894 12.8829 25.6649 13.0153C26.0404 13.1476 26.3774 13.3554 26.6759 13.6385C26.9744 13.9216 27.2099 14.2894 27.3822 14.7418C27.5546 15.1912 27.6407 15.7375 27.6407 16.3807V16.87H22.004V15.8359H26.2881C26.2881 15.4728 26.2142 15.1512 26.0665 14.8711C25.9188 14.5879 25.711 14.3648 25.4433 14.2017C25.1786 14.0386 24.8678 13.957 24.5108 13.957C24.123 13.957 23.7844 14.0524 23.4951 14.2433C23.2089 14.431 22.9873 14.6772 22.8304 14.9819C22.6765 15.2835 22.5995 15.6113 22.5995 15.9652V16.7731C22.5995 17.247 22.6826 17.6502 22.8488 17.9826C23.0181 18.315 23.2535 18.5689 23.5551 18.7443C23.8568 18.9167 24.2092 19.0028 24.6123 19.0028C24.8739 19.0028 25.1124 18.9659 25.3279 18.892C25.5433 18.8151 25.7295 18.7012 25.8865 18.5504C26.0434 18.3996 26.1635 18.2134 26.2466 17.9918L27.553 18.2273C27.4484 18.612 27.2606 18.949 26.9898 19.2383C26.7221 19.5245 26.3851 19.7476 25.9788 19.9077C25.5756 20.0646 25.1155 20.1431 24.5985 20.1431ZM34.1608 14.6403L32.9097 14.8619C32.8574 14.7018 32.7743 14.5495 32.6605 14.4048C32.5497 14.2602 32.3989 14.1417 32.208 14.0494C32.0172 13.957 31.7787 13.9109 31.4925 13.9109C31.1016 13.9109 30.7754 13.9986 30.5138 14.174C30.2522 14.3464 30.1214 14.5695 30.1214 14.8434C30.1214 15.0804 30.2091 15.2712 30.3845 15.4158C30.56 15.5605 30.8431 15.679 31.234 15.7713L32.3604 16.0298C33.0128 16.1806 33.4991 16.413 33.8192 16.7269C34.1393 17.0408 34.2993 17.4486 34.2993 17.9503C34.2993 18.375 34.1762 18.7536 33.93 19.0859C33.6869 19.4152 33.3468 19.6738 32.9097 19.8615C32.4758 20.0492 31.9726 20.1431 31.4002 20.1431C30.6061 20.1431 29.9583 19.9738 29.4566 19.6353C28.955 19.2937 28.6472 18.8089 28.5333 18.1811L29.8675 17.978C29.9506 18.3258 30.1214 18.5889 30.3799 18.7674C30.6384 18.9428 30.9754 19.0305 31.3909 19.0305C31.8433 19.0305 32.205 18.9367 32.4758 18.7489C32.7466 18.5581 32.882 18.3258 32.882 18.0518C32.882 17.8303 32.799 17.6441 32.6328 17.4933C32.4696 17.3424 32.2188 17.2286 31.8803 17.1516L30.68 16.8885C30.0183 16.7377 29.5289 16.4976 29.2119 16.1683C28.898 15.839 28.7411 15.422 28.7411 14.9173C28.7411 14.4987 28.858 14.1325 29.0919 13.8185C29.3258 13.5046 29.649 13.2599 30.0614 13.0845C30.4738 12.906 30.9462 12.8168 31.4786 12.8168C32.245 12.8168 32.8482 12.983 33.2883 13.3153C33.7284 13.6446 34.0192 14.0863 34.1608 14.6403ZM38.802 12.9091V14.017H34.9288V12.9091H38.802ZM35.9675 11.2102H37.3478V17.918C37.3478 18.1857 37.3878 18.3873 37.4678 18.5227C37.5478 18.6551 37.6509 18.7459 37.7771 18.7951C37.9064 18.8413 38.0464 18.8643 38.1972 18.8643C38.308 18.8643 38.405 18.8567 38.4881 18.8413C38.5712 18.8259 38.6358 18.8136 38.682 18.8043L38.9312 19.9446C38.8512 19.9754 38.7374 20.0062 38.5896 20.0369C38.4419 20.0708 38.2572 20.0893 38.0357 20.0923C37.6725 20.0985 37.3339 20.0339 37.02 19.8984C36.7061 19.763 36.4522 19.5537 36.2583 19.2706C36.0644 18.9875 35.9675 18.632 35.9675 18.2042V11.2102ZM40.0039 20V12.9091H41.3842V20H40.0039ZM40.701 11.815C40.4609 11.815 40.2547 11.735 40.0824 11.5749C39.9131 11.4118 39.8285 11.2179 39.8285 10.9933C39.8285 10.7655 39.9131 10.5716 40.0824 10.4116C40.2547 10.2485 40.4609 10.1669 40.701 10.1669C40.941 10.1669 41.1457 10.2485 41.315 10.4116C41.4873 10.5716 41.5735 10.7655 41.5735 10.9933C41.5735 11.2179 41.4873 11.4118 41.315 11.5749C41.1457 11.735 40.941 11.815 40.701 11.815ZM42.9162 20V12.9091H44.2411V14.0632H44.3288C44.4766 13.6723 44.7182 13.3677 45.0536 13.1491C45.3891 12.9276 45.7907 12.8168 46.2585 12.8168C46.7325 12.8168 47.1295 12.9276 47.4496 13.1491C47.7727 13.3707 48.0112 13.6754 48.1651 14.0632H48.239C48.4083 13.6847 48.6776 13.383 49.0469 13.1584C49.4162 12.9306 49.8563 12.8168 50.3672 12.8168C51.0104 12.8168 51.5352 13.0183 51.9414 13.4215C52.3507 13.8247 52.5554 14.4325 52.5554 15.245V20H51.1751V15.3743C51.1751 14.8942 51.0443 14.5464 50.7827 14.331C50.5211 14.1155 50.2087 14.0078 49.8455 14.0078C49.3962 14.0078 49.0469 14.1463 48.7976 14.4233C48.5483 14.6972 48.4237 15.0496 48.4237 15.4805V20H47.0479V15.2866C47.0479 14.9019 46.9279 14.5926 46.6879 14.3587C46.4478 14.1248 46.1354 14.0078 45.7507 14.0078C45.4891 14.0078 45.2475 14.0771 45.0259 14.2156C44.8074 14.351 44.6304 14.5402 44.495 14.7834C44.3627 15.0265 44.2965 15.3081 44.2965 15.6282V20H42.9162ZM57.0673 20.1431C56.4025 20.1431 55.8224 19.9908 55.3269 19.6861C54.8314 19.3814 54.4467 18.9551 54.1728 18.4073C53.8989 17.8595 53.7619 17.2193 53.7619 16.4869C53.7619 15.7513 53.8989 15.1081 54.1728 14.5572C54.4467 14.0063 54.8314 13.5785 55.3269 13.2738C55.8224 12.9691 56.4025 12.8168 57.0673 12.8168C57.7321 12.8168 58.3122 12.9691 58.8077 13.2738C59.3032 13.5785 59.6879 14.0063 59.9618 14.5572C60.2358 15.1081 60.3727 15.7513 60.3727 16.4869C60.3727 17.2193 60.2358 17.8595 59.9618 18.4073C59.6879 18.9551 59.3032 19.3814 58.8077 19.6861C58.3122 19.9908 57.7321 20.1431 57.0673 20.1431ZM57.0719 18.9844C57.5028 18.9844 57.8598 18.8705 58.143 18.6428C58.4261 18.415 58.6354 18.1119 58.7708 17.7333C58.9093 17.3548 58.9785 16.9377 58.9785 16.4822C58.9785 16.0298 58.9093 15.6143 58.7708 15.2358C58.6354 14.8542 58.4261 14.5479 58.143 14.3171C57.8598 14.0863 57.5028 13.9709 57.0719 13.9709C56.638 13.9709 56.2779 14.0863 55.9917 14.3171C55.7085 14.5479 55.4977 14.8542 55.3592 15.2358C55.2238 15.6143 55.1561 16.0298 55.1561 16.4822C55.1561 16.9377 55.2238 17.3548 55.3592 17.7333C55.4977 18.1119 55.7085 18.415 55.9917 18.6428C56.2779 18.8705 56.638 18.9844 57.0719 18.9844ZM62.9688 15.7898V20H61.5885V12.9091H62.9134V14.0632H63.0011C63.1642 13.6877 63.4197 13.3861 63.7674 13.1584C64.1183 12.9306 64.5599 12.8168 65.0924 12.8168C65.5756 12.8168 65.9987 12.9183 66.3619 13.1214C66.7251 13.3215 67.0067 13.62 67.2067 14.017C67.4068 14.4141 67.5068 14.9049 67.5068 15.4897V20H66.1265V15.6559C66.1265 15.1419 65.9926 14.7403 65.7248 14.451C65.4571 14.1586 65.0893 14.0124 64.6215 14.0124C64.3014 14.0124 64.0167 14.0817 63.7674 14.2202C63.5212 14.3587 63.3258 14.5618 63.1811 14.8295C63.0396 15.0942 62.9688 15.4143 62.9688 15.7898ZM69.033 20V12.9091H70.4133V20H69.033ZM69.7301 11.815C69.49 11.815 69.2838 11.735 69.1115 11.5749C68.9422 11.4118 68.8576 11.2179 68.8576 10.9933C68.8576 10.7655 68.9422 10.5716 69.1115 10.4116C69.2838 10.2485 69.49 10.1669 69.7301 10.1669C69.9701 10.1669 70.1748 10.2485 70.3441 10.4116C70.5164 10.5716 70.6026 10.7655 70.6026 10.9933C70.6026 11.2179 70.5164 11.4118 70.3441 11.5749C70.1748 11.735 69.9701 11.815 69.7301 11.815ZM74.0089 20.157C73.5595 20.157 73.1533 20.0739 72.7901 19.9077C72.4269 19.7384 72.1392 19.4937 71.9268 19.1737C71.7175 18.8536 71.6129 18.4612 71.6129 17.9964C71.6129 17.5964 71.6899 17.267 71.8437 17.0085C71.9976 16.75 72.2054 16.5453 72.467 16.3945C72.7286 16.2437 73.0209 16.1299 73.3441 16.0529C73.6672 15.976 73.9966 15.9175 74.332 15.8775C74.7567 15.8282 75.1014 15.7882 75.3661 15.7575C75.6308 15.7236 75.8231 15.6697 75.9432 15.5959C76.0632 15.522 76.1232 15.402 76.1232 15.2358V15.2035C76.1232 14.8003 76.0093 14.4879 75.7816 14.2663C75.5569 14.0447 75.2215 13.9339 74.7752 13.9339C74.3105 13.9339 73.9442 14.037 73.6765 14.2433C73.4118 14.4464 73.2287 14.6726 73.1271 14.9219L71.8299 14.6264C71.9838 14.1955 72.2084 13.8478 72.5039 13.5831C72.8024 13.3153 73.1456 13.1214 73.5334 13.0014C73.9211 12.8783 74.3289 12.8168 74.7567 12.8168C75.0399 12.8168 75.3399 12.8506 75.6569 12.9183C75.977 12.983 76.2756 13.103 76.5525 13.2784C76.8326 13.4538 77.0619 13.7047 77.2404 14.0309C77.4189 14.354 77.5082 14.7741 77.5082 15.2912V20H76.1601V19.0305H76.1047C76.0155 19.209 75.8816 19.3845 75.7031 19.5568C75.5246 19.7292 75.2953 19.8723 75.0153 19.9862C74.7352 20.1 74.3997 20.157 74.0089 20.157ZM74.3089 19.049C74.6906 19.049 75.0168 18.9736 75.2876 18.8228C75.5615 18.672 75.7693 18.475 75.9108 18.2319C76.0555 17.9857 76.1278 17.7225 76.1278 17.4425V16.5284C76.0786 16.5777 75.9832 16.6238 75.8416 16.6669C75.7031 16.7069 75.5446 16.7423 75.3661 16.7731C75.1876 16.8008 75.0137 16.8269 74.8444 16.8516C74.6752 16.8731 74.5336 16.8916 74.4197 16.907C74.152 16.9408 73.9073 16.9978 73.6857 17.0778C73.4672 17.1578 73.2918 17.2732 73.1594 17.424C73.0302 17.5717 72.9655 17.7687 72.9655 18.0149C72.9655 18.3565 73.0917 18.6151 73.3441 18.7905C73.5965 18.9628 73.9181 19.049 74.3089 19.049ZM80.402 10.5455V20H79.0217V10.5455H80.402ZM87.2475 14.6403L85.9965 14.8619C85.9441 14.7018 85.8611 14.5495 85.7472 14.4048C85.6364 14.2602 85.4856 14.1417 85.2948 14.0494C85.104 13.957 84.8654 13.9109 84.5792 13.9109C84.1883 13.9109 83.8621 13.9986 83.6005 14.174C83.3389 14.3464 83.2081 14.5695 83.2081 14.8434C83.2081 15.0804 83.2958 15.2712 83.4713 15.4158C83.6467 15.5605 83.9298 15.679 84.3207 15.7713L85.4471 16.0298C86.0996 16.1806 86.5858 16.413 86.9059 16.7269C87.226 17.0408 87.386 17.4486 87.386 17.9503C87.386 18.375 87.2629 18.7536 87.0167 19.0859C86.7736 19.4152 86.4335 19.6738 85.9965 19.8615C85.5625 20.0492 85.0593 20.1431 84.4869 20.1431C83.6928 20.1431 83.045 19.9738 82.5433 19.6353C82.0417 19.2937 81.7339 18.8089 81.62 18.1811L82.9542 17.978C83.0373 18.3258 83.2081 18.5889 83.4666 18.7674C83.7252 18.9428 84.0622 19.0305 84.4776 19.0305C84.9301 19.0305 85.2917 18.9367 85.5625 18.7489C85.8334 18.5581 85.9688 18.3258 85.9688 18.0518C85.9688 17.8303 85.8857 17.6441 85.7195 17.4933C85.5564 17.3424 85.3055 17.2286 84.967 17.1516L83.7667 16.8885C83.105 16.7377 82.6157 16.4976 82.2987 16.1683C81.9848 15.839 81.8278 15.422 81.8278 14.9173C81.8278 14.4987 81.9447 14.1325 82.1786 13.8185C82.4125 13.5046 82.7357 13.2599 83.1481 13.0845C83.5605 12.906 84.0329 12.8168 84.5654 12.8168C85.3317 12.8168 85.9349 12.983 86.375 13.3153C86.8151 13.6446 87.106 14.0863 87.2475 14.6403Z" fill="black"/>
</svg>
