<svg width="116" height="41" viewBox="0 0 116 41" fill="none" xmlns="http://www.w3.org/2000/svg">
<rect y="1.34062" width="115" height="39" rx="10" transform="rotate(-0.33908 0 1.34062)" fill="black"/>
<path d="M24.2538 18.2372C24.1419 17.8931 23.9924 17.5853 23.8052 17.3137C23.6217 17.0382 23.4025 16.8047 23.1476 16.613C22.8926 16.4175 22.602 16.2696 22.2756 16.1693C21.9531 16.0689 21.5986 16.0199 21.2122 16.0222C20.5569 16.026 19.967 16.1981 19.4425 16.5383C18.918 16.8786 18.5043 17.3753 18.2013 18.0287C17.9021 18.6782 17.7553 19.4726 17.7609 20.412C17.7665 21.3551 17.9246 22.1516 18.2353 22.8013C18.5459 23.451 18.9693 23.9428 19.5054 24.2767C20.0415 24.6107 20.6504 24.7756 21.3322 24.7716C21.9648 24.7679 22.5151 24.6358 22.9833 24.3755C23.4552 24.1151 23.8186 23.7493 24.0734 23.2781C24.332 22.8031 24.4594 22.2455 24.4556 21.6053L24.9106 21.6879L21.5811 21.7076L21.5725 20.2587L26.1463 20.2317L26.1542 21.5555C26.1599 22.5328 25.9566 23.3825 25.5442 24.1046C25.1356 24.823 24.5669 25.3794 23.8382 25.7738C23.1132 26.1683 22.2811 26.3683 21.3417 26.3739C20.2887 26.3801 19.363 26.1431 18.5647 25.663C17.7702 25.1828 17.1487 24.499 16.7003 23.6115C16.2518 22.7202 16.0239 21.6609 16.0167 20.4337C16.0112 19.5057 16.135 18.6716 16.3882 17.9314C16.6414 17.1913 16.9995 16.5623 17.4623 16.0444C17.9289 15.5226 18.4777 15.1236 19.1087 14.8471C19.7434 14.5668 20.4376 14.4244 21.1914 14.42C21.8202 14.4163 22.4059 14.5056 22.9487 14.688C23.4952 14.8704 23.9816 15.1308 24.4079 15.4692C24.8379 15.8075 25.1945 16.2107 25.4776 16.6788C25.7606 17.143 25.9531 17.6589 26.0549 18.2265L24.2538 18.2372ZM31.7162 26.3295C30.8564 26.3346 30.1148 26.1553 29.4914 25.7915C28.8718 25.424 28.3914 24.906 28.0504 24.2375C27.713 23.5653 27.5417 22.7765 27.5363 21.8712C27.531 20.9773 27.6931 20.1884 28.0223 19.5046C28.3554 18.8208 28.822 18.2859 29.422 17.8997C30.0257 17.5136 30.7329 17.3181 31.5435 17.3133C32.0359 17.3104 32.5137 17.389 32.9768 17.5492C33.4398 17.7093 33.8561 17.9625 34.2256 18.3088C34.5951 18.6551 34.8875 19.1061 35.1029 19.6616C35.3183 20.2134 35.4284 20.8851 35.4331 21.6767L35.4366 22.279L28.4992 22.3201L28.4917 21.0474L33.7643 21.0161C33.7617 20.5692 33.6684 20.1739 33.4846 19.8303C33.3007 19.4829 33.0434 19.2098 32.7127 19.011C32.3857 18.8121 32.0026 18.714 31.5632 18.7166C31.0859 18.7195 30.67 18.8393 30.3153 19.0763C29.9644 19.3094 29.6935 19.6141 29.5025 19.9902C29.3153 20.3625 29.223 20.7665 29.2256 21.2021L29.2315 22.1964C29.2349 22.7797 29.3401 23.2753 29.5471 23.6832C29.7578 24.0911 30.0495 24.4018 30.4219 24.6155C30.7944 24.8255 31.2287 24.929 31.7249 24.926C32.0469 24.9241 32.3402 24.8769 32.6048 24.7844C32.8694 24.6882 33.0977 24.5467 33.2898 24.3599C33.4819 24.1732 33.6283 23.9431 33.7289 23.6698L35.3386 23.9501C35.2126 24.4243 34.984 24.8404 34.6527 25.1985C34.3253 25.5527 33.9122 25.8298 33.4133 26.0297C32.9183 26.2258 32.3526 26.3257 31.7162 26.3295ZM41.0465 17.3707L41.0545 18.7343L36.2876 18.7625L36.2795 17.3989L41.0465 17.3707ZM37.5455 15.3005L39.2444 15.2904L39.2932 23.546C39.2952 23.8755 39.3459 24.1233 39.4453 24.2894C39.5448 24.4517 39.6723 24.5627 39.828 24.6224C39.9874 24.6782 40.1599 24.7056 40.3455 24.7045C40.4819 24.7037 40.6012 24.6936 40.7033 24.674C40.8055 24.6545 40.8849 24.6388 40.9417 24.6271L41.2568 26.0287C41.1586 26.0672 41.0186 26.1059 40.837 26.1448C40.6555 26.1876 40.4283 26.2117 40.1556 26.2171C39.7087 26.2273 39.2916 26.1502 38.9042 25.9858C38.5169 25.8214 38.2029 25.5657 37.9622 25.2187C37.7215 24.8716 37.5996 24.4348 37.5965 23.9083L37.5455 15.3005ZM50.6734 17.3137L50.6814 18.6774L45.7497 18.7065L45.7416 17.3429L50.6734 17.3137ZM47.1455 26.062L47.0879 16.3236C47.0847 15.7781 47.2013 15.3248 47.4378 14.9635C47.6743 14.5985 47.989 14.3258 48.3818 14.1454C48.7747 13.9613 49.2022 13.8678 49.6643 13.8651C50.0052 13.8631 50.297 13.8898 50.5398 13.9452C50.7825 13.9968 50.9627 14.0449 51.0804 14.0897L50.6908 15.467C50.6112 15.4448 50.5087 15.4189 50.3835 15.3893C50.2583 15.3559 50.1067 15.3398 49.9287 15.3408C49.5158 15.3433 49.221 15.4473 49.0442 15.6529C48.8711 15.8585 48.7858 16.1544 48.7881 16.5408L48.8444 26.052L47.1455 26.062ZM55.4912 26.1888C54.673 26.1936 53.9579 26.0104 53.3459 25.639C52.7338 25.2676 52.2572 24.7458 51.9161 24.0736C51.575 23.4013 51.4018 22.6145 51.3964 21.713C51.3911 20.8077 51.555 20.015 51.8881 19.335C52.2212 18.655 52.6915 18.1257 53.2991 17.7471C53.9068 17.3685 54.6197 17.1768 55.4378 17.1719C56.256 17.1671 56.9711 17.3503 57.5832 17.7217C58.1952 18.0931 58.6718 18.6168 59.0129 19.2928C59.3541 19.9689 59.5273 20.7595 59.5327 21.6648C59.538 22.5663 59.3741 23.3552 59.041 24.0314C58.7079 24.7076 58.2375 25.235 57.6299 25.6136C57.0222 25.9922 56.3094 26.184 55.4912 26.1888ZM55.4884 24.7627C56.0187 24.7595 56.4573 24.6168 56.8041 24.3344C57.1509 24.052 57.4063 23.6774 57.5702 23.2105C57.7379 22.7436 57.8201 22.2299 57.8168 21.6693C57.8135 21.1125 57.7252 20.6016 57.552 20.1367C57.3826 19.668 57.1228 19.2927 56.7726 19.0106C56.4224 18.7286 55.9822 18.5892 55.4519 18.5923C54.9178 18.5955 54.4755 18.7401 54.1249 19.0263C53.7781 19.3125 53.5209 19.6909 53.3532 20.1616C53.1893 20.6285 53.109 21.1403 53.1123 21.6971C53.1156 22.2577 53.202 22.7705 53.3714 23.2354C53.5446 23.7003 53.8063 24.0718 54.1564 24.3501C54.5103 24.6283 54.9543 24.7658 55.4884 24.7627ZM61.1345 25.9793L61.0829 17.2521L62.7249 17.2424L62.7331 18.6288L62.824 18.6282C62.9803 18.1576 63.2584 17.7866 63.6584 17.5153C64.062 17.2402 64.5196 17.1011 65.0309 17.0981C65.137 17.0975 65.262 17.1005 65.406 17.1072C65.5537 17.1139 65.6693 17.1227 65.7527 17.1336L65.7623 18.7586C65.694 18.74 65.5727 18.7199 65.3983 18.6982C65.2239 18.6727 65.0496 18.6605 64.8754 18.6615C64.4739 18.6639 64.1164 18.7513 63.8031 18.9236C63.4934 19.0921 63.2486 19.3265 63.0686 19.6268C62.8885 19.9233 62.7996 20.261 62.8018 20.6398L62.8334 25.9692L61.1345 25.9793ZM74.9711 17.1699L74.9791 18.5336L70.0474 18.5627L70.0393 17.1991L74.9711 17.1699ZM71.4432 25.9183L71.3856 16.1798C71.3824 15.6343 71.499 15.181 71.7355 14.8197C71.972 14.4547 72.2867 14.182 72.6795 14.0016C73.0724 13.8175 73.4999 13.724 73.962 13.7213C74.3029 13.7193 74.5947 13.746 74.8375 13.8014C75.0802 13.853 75.2604 13.9011 75.3781 13.9459L74.9885 15.3232C74.9089 15.301 74.8064 15.2751 74.6812 15.2455C74.556 15.2121 74.4044 15.196 74.2264 15.197C73.8135 15.1995 73.5187 15.3035 73.3419 15.5091C73.1688 15.7147 73.0835 16.0106 73.0858 16.397L73.142 25.9082L71.4432 25.9183ZM76.4555 25.8886L76.4039 17.1615L78.0459 17.1517L78.0541 18.5381L78.145 18.5376C78.3013 18.0669 78.5794 17.6959 78.9793 17.4246C79.383 17.1495 79.8405 17.0104 80.3519 17.0074C80.4579 17.0068 80.583 17.0098 80.7269 17.0166C80.8747 17.0233 80.9903 17.032 81.0737 17.0429L81.0833 18.6679C81.015 18.6494 80.8937 18.6292 80.7193 18.6075C80.5449 18.5821 80.3706 18.5698 80.1964 18.5709C79.7949 18.5732 79.4374 18.6606 79.124 18.8329C78.8144 19.0014 78.5696 19.2358 78.3895 19.5361C78.2095 19.8326 78.1206 20.1703 78.1228 20.5491L78.1543 25.8785L76.4555 25.8886ZM85.7259 26.0099C84.8661 26.015 84.1244 25.8356 83.5011 25.4719C82.8815 25.1043 82.4011 24.5863 82.06 23.9179C81.7227 23.2456 81.5514 22.4569 81.546 21.5516C81.5407 20.6576 81.7027 19.8688 82.032 19.185C82.3651 18.5012 82.8316 17.9662 83.4316 17.5801C84.0354 17.194 84.7426 16.9985 85.5532 16.9937C86.0456 16.9908 86.5234 17.0694 86.9864 17.2295C87.4495 17.3897 87.8658 17.6429 88.2353 17.9892C88.6048 18.3355 88.8972 18.7864 89.1126 19.342C89.328 19.8937 89.4381 20.5655 89.4427 21.3571L89.4463 21.9594L82.5089 22.0004L82.5014 20.7277L87.774 20.6965C87.7714 20.2496 87.6781 19.8543 87.4943 19.5106C87.3104 19.1632 87.0531 18.8901 86.7224 18.6913C86.3954 18.4925 86.0123 18.3944 85.5729 18.397C85.0956 18.3998 84.6796 18.5197 84.325 18.7567C83.9741 18.9898 83.7032 19.2944 83.5122 19.6706C83.325 20.0429 83.2327 20.4469 83.2353 20.8825L83.2412 21.8768C83.2446 22.4601 83.3498 22.9557 83.5568 23.3636C83.7675 23.7714 84.0591 24.0822 84.4316 24.2959C84.8041 24.5058 85.2384 24.6093 85.7346 24.6064C86.0566 24.6045 86.3499 24.5573 86.6145 24.4648C86.8791 24.3685 87.1074 24.227 87.2995 24.0403C87.4916 23.8535 87.6379 23.6235 87.7386 23.3502L89.3482 23.6304C89.2222 24.1047 88.9936 24.5208 88.6624 24.8788C88.335 25.233 87.9218 25.5101 87.423 25.71C86.9279 25.9062 86.3622 26.0061 85.7259 26.0099ZM94.7964 25.9562C93.9365 25.9613 93.1949 25.7819 92.5715 25.4182C91.9519 25.0507 91.4716 24.5327 91.1305 23.8642C90.7932 23.1919 90.6218 22.4032 90.6165 21.4979C90.6112 20.604 90.7732 19.8151 91.1025 19.1313C91.4356 18.4475 91.9021 17.9126 92.5021 17.5264C93.1059 17.1403 93.8131 16.9448 94.6237 16.94C95.1161 16.9371 95.5938 17.0157 96.0569 17.1758C96.52 17.336 96.9363 17.5892 97.3057 17.9355C97.6752 18.2818 97.9677 18.7327 98.1831 19.2883C98.3985 19.8401 98.5085 20.5118 98.5132 21.3034L98.5168 21.9057L91.5794 21.9467L91.5719 20.674L96.8445 20.6428C96.8418 20.1959 96.7486 19.8006 96.5647 19.457C96.3809 19.1096 96.1236 18.8365 95.7928 18.6377C95.4659 18.4388 95.0827 18.3407 94.6433 18.3433C94.1661 18.3461 93.7501 18.466 93.3954 18.703C93.0446 18.9361 92.7736 19.2408 92.5827 19.6169C92.3955 19.9892 92.3032 20.3932 92.3057 20.8288L92.3116 21.8231C92.3151 22.4064 92.4203 22.902 92.6272 23.3099C92.838 23.7177 93.1296 24.0285 93.5021 24.2422C93.8746 24.4521 94.3089 24.5556 94.8051 24.5527C95.1271 24.5508 95.4203 24.5036 95.685 24.4111C95.9495 24.3149 96.1779 24.1734 96.37 23.9866C96.562 23.7999 96.7084 23.5698 96.8091 23.2965L98.4187 23.5767C98.2927 24.051 98.0641 24.4671 97.7329 24.8251C97.4054 25.1794 96.9923 25.4564 96.4935 25.6564C95.9984 25.8525 95.4327 25.9524 94.7964 25.9562Z" fill="white"/>
</svg>
